<?xml version="1.0" standalone="no"?>
<!DOCTYPE svg PUBLIC "-//W3C//DTD SVG 1.1//EN" "http://www.w3.org/Graphics/SVG/1.1/DTD/svg11.dtd" >
<svg>
<metadata>
Created by FontForge 20090622 at Sun Nov 10 08:33:49 2019
 By deploy user
</metadata>
<defs>
<font id="PoppinsVN-700i" horiz-adv-x="777" >
  <font-face 
    font-family="PoppinsVN 700i"
    font-weight="400"
    font-style="italic"
    font-stretch="normal"
    units-per-em="1000"
    panose-1="0 0 5 0 0 0 0 0 0 0"
    ascent="800"
    descent="-200"
    x-height="558"
    cap-height="707"
    bbox="-412 -304 1265.41 1147"
    underline-thickness="50"
    underline-position="-50"
    slope="-10"
    unicode-range="U+000D-U+FB02"
  />
<missing-glyph horiz-adv-x="503" 
d="M412 -266h-318v1006h318v-1006zM169 673v-34h65v-37h-66v-33h167v33h-66v37h66v34h-166zM168 543v-105h167v34h-66v71h-101zM234 472h-33v37h33v-37zM168 411v-33h66v-37h-66v-34h101v71h66v33h-167zM302 351v-67h-134v-34h167v101h-33zM234 228v-56h35v23h33v-48h-101
v81h-33v-114h167v114h-101zM168 54v-114h167v114h-167zM302 -27h-101v48h101v-48zM168 -83v-33h70l-70 -47v-34h167v34h-103l71 47h32v33h-167z" />
    <glyph glyph-name=".notdef" horiz-adv-x="503" 
d="M412 -266h-318v1006h318v-1006zM169 673v-34h65v-37h-66v-33h167v33h-66v37h66v34h-166zM168 543v-105h167v34h-66v71h-101zM234 472h-33v37h33v-37zM168 411v-33h66v-37h-66v-34h101v71h66v33h-167zM302 351v-67h-134v-34h167v101h-33zM234 228v-56h35v23h33v-48h-101
v81h-33v-114h167v114h-101zM168 54v-114h167v114h-167zM302 -27h-101v48h101v-48zM168 -83v-33h70l-70 -47v-34h167v34h-103l71 47h32v33h-167z" />
    <glyph glyph-name=".null" horiz-adv-x="0" 
 />
    <glyph glyph-name=".null" horiz-adv-x="0" 
 />
    <glyph glyph-name="nonmarkingreturn" unicode="&#xd;" horiz-adv-x="250" 
 />
    <glyph glyph-name="space" unicode=" " horiz-adv-x="200" 
 />
    <glyph glyph-name="exclam" unicode="!" horiz-adv-x="382" 
d="M358 742l-107 -489h-145l65 489h187zM253 171l-30 -171h-177l30 171h177z" />
    <glyph glyph-name="quotedbl" unicode="&#x22;" horiz-adv-x="417" 
d="M202 801l-50 -221h-115l26 221h139zM392 801l-50 -221h-115l26 221h139z" />
    <glyph glyph-name="numbersign" unicode="#" horiz-adv-x="886" 
d="M720 432l-48 -121h122l-27 -156h-155l-61 -155h-159l60 155h-167l-60 -155h-159l60 155h-146l27 156h180l47 121h-142l28 156h175l59 152h159l-59 -152h167l59 152h160l-59 -152h126l-28 -156h-159zM560 432h-167l-47 -121h167z" />
    <glyph glyph-name="dollar" unicode="$" horiz-adv-x="633" 
d="M426 508q2 30 -11.5 49t-38.5 26l-28 -156l82.5 -28t78 -39t53 -62t7.5 -99q-7 -41 -30 -78.5t-61 -65.5t-89.5 -45t-116.5 -17l-14 -80h-44l14 82q-52 4 -93.5 20.5t-70 44.5t-42 66.5t-8.5 86.5h182q-2 -32 12.5 -54t43.5 -30l28 159q-39 12 -81.5 26.5t-76 38.5
t-51 62t-6.5 99q8 47 34.5 84.5t65.5 63.5t88 40.5t103 15.5l15 82h43l-15 -83q111 -8 165 -63t46 -146h-184zM250 521q-5 -29 11.5 -47t46.5 -32l25 145q-34 -2 -56 -18.5t-27 -47.5zM385 195q5 30 -13.5 48t-50.5 31l-26 -150q38 2 61.5 21t28.5 50z" />
    <glyph glyph-name="percent" unicode="%" horiz-adv-x="804" 
d="M256 719q36 0 64.5 -11t47 -32t25.5 -52.5t0 -72.5t-25 -72.5t-44 -52.5t-58.5 -32t-67.5 -11q-36 0 -65 11t-47.5 32t-25.5 52.5t0 72.5t25 72.5t44.5 52.5t58.5 32t68 11zM740 709l-511 -709h-164l511 709h164zM174 551q-6 -32 5 -49t35 -17q25 0 43 17t23 49
q6 32 -5.5 49t-36.5 17t-42 -17t-22 -49zM608 327q72 0 111.5 -42.5t24.5 -125.5q-7 -41 -25 -72.5t-43.5 -53t-58 -32.5t-68.5 -11q-35 0 -63.5 11t-47.5 32.5t-26 53t0 72.5t25 72.5t44.5 52.5t58.5 32t68 11zM525 159q-6 -32 5 -49.5t36 -17.5q24 0 42 17.5t23 49.5
q6 31 -5.5 48.5t-35.5 17.5q-25 0 -42.5 -17.5t-22.5 -48.5z" />
    <glyph glyph-name="ampersand" unicode="&#x26;" horiz-adv-x="693" 
d="M457 0l-66 101q-15 -18 -31 -33q-27 -33 -70 -54t-97 -21q-55 0 -94.5 17t-63 46.5t-31.5 69.5t0 86q8 45 27 81t46 63t59.5 43t68.5 20q-2 6 -5 11.5t-5 11.5q-9 23 -13.5 47t0.5 55q6 33 24.5 63.5t48.5 54t71.5 38t92.5 14.5q49 0 82.5 -11.5t55 -30.5t32.5 -44
t14 -53q4 -23 1.5 -48t-7.5 -49h-160q5 23 6 37q6 57 -47 57q-23 0 -38 -13.5t-19 -32.5q-3 -19 3 -33.5t17 -34.5l269 -458h-171zM314 213q7 36 -14.5 58.5t-56.5 22.5q-34 0 -59.5 -19.5t-32.5 -57.5t14 -60t56 -22t61 21.5t32 56.5z" />
    <glyph glyph-name="quotesingle" unicode="'" horiz-adv-x="229" 
d="M204 801l-51 -221h-115l25 221h141z" />
    <glyph glyph-name="parenleft" unicode="(" horiz-adv-x="411" 
d="M26 402q17 100 53.5 188t86 162.5t110 134.5t125.5 105h166l-3 -17q-159 -115 -251 -257t-123 -316q-30 -174 12 -316t160 -257l-3 -16h-165q-50 44 -89 104t-62.5 134.5t-29 162.5t12.5 188z" />
    <glyph glyph-name="parenright" unicode=")" horiz-adv-x="413" 
d="M388 403q-18 -100 -54.5 -188t-86 -162.5t-110 -135t-125.5 -104.5h-166l2 16q160 115 252.5 257t122.5 316t-12 316t-160 257l2 17h166q50 -45 89 -105t63 -134.5t29.5 -162t-12.5 -187.5z" />
    <glyph glyph-name="asterisk" unicode="*" horiz-adv-x="528" 
d="M432 695l38 -102l-131 -43l116 -41l-79 -106l-84 88l2 -131h-117l47 131l-115 -90l-43 108l131 43l-115 41l75 102l88 -86l-2 131h119l-49 -131z" />
    <glyph glyph-name="plus" unicode="+" horiz-adv-x="561" 
d="M522 271h-173l-31 -176h-165l31 176h-173l28 157h173l31 177h164l-31 -177h173z" />
    <glyph glyph-name="comma" unicode="," horiz-adv-x="237" 
d="M187 106q13 -40 11.5 -89.5t-21 -93t-58.5 -73t-102 -29.5l11 63q25 0 40.5 11.5t21.5 46.5l2 10h-73l27 154h141z" />
    <glyph glyph-name="hyphen" unicode="-" horiz-adv-x="543" 
d="M523 422l-24 -142h-441l25 142h440z" />
    <glyph glyph-name="period" unicode="." horiz-adv-x="236" 
d="M221 171l-30 -171h-177l30 171h177z" />
    <glyph glyph-name="slash" unicode="/" horiz-adv-x="389" 
d="M514 950l-469 -1138h-165l470 1138h164z" />
    <glyph glyph-name="zero" unicode="0" horiz-adv-x="636" 
d="M42 361q14 77 40 142.5t68 113.5t100.5 75t135.5 27t125.5 -27t73.5 -75t29 -113.5t-10 -142.5q-13 -78 -40 -144t-69 -114t-100.5 -75t-135.5 -27t-125.5 27t-73.5 75t-28 114t10 144zM434 361q7 40 9.5 75.5t-4.5 62.5t-26.5 42.5t-55.5 15.5q-37 0 -62 -15.5
t-41.5 -42.5t-26.5 -62.5t-17 -75.5t-9.5 -76t4.5 -63t26.5 -43t56.5 -16q36 0 61 16t41.5 43t26.5 63t17 76z" />
    <glyph glyph-name="one" unicode="1" horiz-adv-x="356" 
d="M45 547l28 160h286l-124 -707h-180l96 547h-106z" />
    <glyph glyph-name="two" unicode="2" horiz-adv-x="564" 
d="M0 136q71 44 136.5 90.5t118 92t87 89.5t41.5 84q8 42 -6.5 64.5t-52.5 22.5q-39 0 -63 -27t-35 -88h-166q12 69 41 118t69 80.5t88 46t97 14.5q64 0 107 -17t67.5 -47t31.5 -70.5t-1 -87.5q-9 -54 -42.5 -105t-80 -97t-101.5 -84.5t-108 -68.5h279l-24 -138h-505z" />
    <glyph glyph-name="three" unicode="3" horiz-adv-x="574" 
d="M364 738q58 0 99.5 -16t67 -44t34.5 -65.5t1 -80.5q-6 -34 -21 -60.5t-36 -45.5t-45.5 -31t-50.5 -17l-1 -5q28 -10 50.5 -26.5t37.5 -40.5t20.5 -56t-2.5 -74q-7 -40 -27.5 -73.5t-53.5 -58t-78 -38t-102 -13.5q-125 0 -188.5 60t-52.5 183h167q-7 -46 12.5 -73.5
t71.5 -27.5q35 0 58.5 19t28.5 48q8 48 -18.5 73.5t-92.5 25.5h-32l25 139h32q21 0 42 3t38.5 11.5t30.5 24t17 39.5q6 38 -11 58t-50 20q-36 0 -61.5 -24.5t-34.5 -65.5h-167q23 112 98.5 172t193.5 60z" />
    <glyph glyph-name="four" unicode="4" horiz-adv-x="644" 
d="M4 130l25 143l401 443h184l-77 -437h85l-27 -149h-84l-23 -130h-173l23 130h-334zM420 518l-216 -239h174z" />
    <glyph glyph-name="five" unicode="5" horiz-adv-x="598" 
d="M579 574h-318l-26 -143q26 23 65 37t85 14q56 0 92.5 -19.5t57 -52.5t25.5 -76t-3 -90q-10 -56 -34 -101.5t-61 -77.5t-85.5 -49.5t-107.5 -17.5q-63 0 -109 16.5t-75.5 46.5t-40.5 71.5t-3 91.5h167q-2 -32 16.5 -55t61.5 -23q46 0 71.5 28.5t33.5 72.5q9 48 -10.5 74.5
t-63.5 26.5q-32 0 -57.5 -15t-36.5 -37h-167l76 428h473z" />
    <glyph glyph-name="six" unicode="6" horiz-adv-x="607" 
d="M425 512q-1 41 -17 64t-57 23q-58 0 -90.5 -54.5t-49.5 -163.5q24 41 69.5 64.5t100.5 23.5q49 0 86.5 -15.5t60.5 -46t31 -75.5t-3 -104q-9 -52 -32 -95t-58.5 -74t-82.5 -48.5t-105 -17.5q-84 0 -135 29.5t-75.5 81t-26 120t12.5 146.5q32 185 108.5 275.5t215.5 90.5
q63 0 104.5 -18.5t65.5 -50t32.5 -71.5t4.5 -84h-160zM199 245q-8 -45 12.5 -75t71.5 -30q44 0 74.5 22.5t38.5 67.5q9 53 -13 80t-66 27q-40 0 -75 -22.5t-43 -69.5z" />
    <glyph glyph-name="seven" unicode="7" horiz-adv-x="492" 
d="M527 587l-356 -587h-177l356 567h-300l25 147h475z" />
    <glyph glyph-name="eight" unicode="8" horiz-adv-x="622" 
d="M98 558q6 35 28 68.5t58.5 60t87.5 42.5t116 16t110 -18t72 -47t36 -66t2 -76q-9 -53 -42.5 -89.5t-86.5 -56.5q58 -29 82.5 -78.5t11.5 -121.5q-9 -51 -36 -89.5t-69 -65t-96.5 -39.5t-118.5 -13q-56 0 -103 15.5t-78.5 45.5t-45 74.5t-3.5 102.5q11 61 49 102.5
t101 66.5q-47 21 -66.5 63.5t-8.5 102.5zM262 522q-8 -44 12.5 -65.5t58.5 -21.5t66 20t36 62t-13 65t-59 23t-66.5 -21.5t-34.5 -61.5zM190 225q-8 -45 15.5 -72t73.5 -27t82.5 25.5t40.5 68.5q8 48 -18 73.5t-71 25.5q-46 0 -80.5 -24.5t-42.5 -69.5z" />
    <glyph glyph-name="nine" unicode="9" horiz-adv-x="579" 
d="M191 217q-1 -42 16 -64.5t56 -22.5q60 0 92 54t49 164q-23 -41 -69 -64.5t-101 -23.5q-49 0 -86 15.5t-60.5 46t-31 75.5t2.5 104q9 52 32.5 95t60.5 74t85.5 48.5t107.5 17.5q87 0 137 -29t72.5 -80t22.5 -119.5t-14 -148.5q-15 -86 -38 -154t-59.5 -115t-90 -72
t-128.5 -25q-62 0 -104.5 19.5t-68 51t-35.5 72t-8 81.5h160zM416 486q8 45 -12 74t-72 29q-44 0 -74.5 -24.5t-38.5 -73.5q-9 -49 13 -74t67 -25q39 0 74 23.5t43 70.5z" />
    <glyph glyph-name="colon" unicode=":" horiz-adv-x="277" 
d="M283 578l-30 -171h-178l30 171h178zM211 171l-30 -171h-178l30 171h178z" />
    <glyph glyph-name="semicolon" unicode=";" horiz-adv-x="360" 
d="M325 571l-30 -171h-177l30 171h177zM231 106q13 -40 11.5 -89.5t-21 -93t-58.5 -73t-102 -29.5l11 63q25 0 40.5 11.5t21.5 46.5l2 10h-73l27 154h141z" />
    <glyph glyph-name="less" unicode="&#x3c;" horiz-adv-x="468" 
d="M190 130l-165 220l243 222h214l-243 -222l165 -220h-214z" />
    <glyph glyph-name="equal" unicode="=" horiz-adv-x="611" 
d="M621 555l-27 -156h-560l27 156h560zM577 300l-27 -155h-561l27 155h561z" />
    <glyph glyph-name="greater" unicode="&#x3e;" horiz-adv-x="468" 
d="M64 572h214l165 -222l-243 -220h-214l243 220z" />
    <glyph glyph-name="question" unicode="?" horiz-adv-x="524" 
d="M332 758q52 0 92.5 -13.5t67 -40.5t36.5 -67.5t1 -93.5q-9 -48 -32.5 -85t-58 -62.5t-78.5 -39t-94 -14.5l-16 -89h-161l35 199h67q32 0 60.5 4t51.5 14t38 27.5t20 44.5q6 36 -11 56t-49 20q-38 0 -59 -22t-29 -54h-162q8 45 29.5 84t56.5 68.5t84 46.5t111 17zM245 171
l-30 -171h-178l31 171h177z" />
    <glyph glyph-name="at" unicode="@" horiz-adv-x="1271" 
d="M804 822q122 0 215.5 -30.5t152.5 -90t81.5 -146t2.5 -199.5q-13 -77 -50.5 -143.5t-89 -115.5t-112.5 -77t-123 -28q-67 0 -109.5 30.5t-41.5 97.5q-42 -59 -96 -93.5t-129 -34.5q-51 0 -88.5 20t-59 56t-25 87t13.5 112q17 65 53.5 119.5t86.5 94t110.5 61.5t126.5 22
q58 0 102.5 -17t71 -49.5t33 -79.5t-12.5 -108l-29 -93q-14 -44 -4.5 -59.5t36.5 -15.5q23 0 47 12.5t46.5 38.5t40.5 65t27 92q13 75 -0.5 136t-54.5 104.5t-109 67.5t-164 24q-115 0 -209 -35.5t-164.5 -97t-115 -144t-61.5 -176.5q-15 -83 -2 -150.5t56 -115t116.5 -73
t179.5 -25.5l-56 -139q-134 2 -230.5 37t-154 100t-77 157.5t1.5 208.5q25 140 97.5 250t176.5 186.5t231 116.5t262 40zM591 142q22 0 46 8.5t46 26.5t40 46t27 67q9 34 6 57.5t-15 38.5t-31 22t-43 7q-23 0 -47 -8.5t-45.5 -26t-38.5 -45t-26 -65.5q-9 -34 -5.5 -58
t15.5 -39.5t31 -23t40 -7.5z" />
    <glyph glyph-name="A" unicode="A" horiz-adv-x="730" 
d="M459 129h-266l-67 -129h-180l383 702h197l135 -702h-181zM438 259l-43 262l-135 -262h178z" />
    <glyph glyph-name="B" unicode="B" horiz-adv-x="653" 
d="M636 526q-11 -67 -53.5 -108t-98.5 -54q63 -15 92 -62t18 -109q-17 -90 -85 -141.5t-184 -51.5h-328l124 707h321q108 0 159 -46.5t35 -134.5zM242 418h111q89 0 103 76q7 36 -11.5 56t-66.5 20h-110zM423 217q7 38 -14 59.5t-68 21.5h-120l-29 -159h122q96 0 109 78z
" />
    <glyph glyph-name="C" unicode="C" horiz-adv-x="757" 
d="M445 714q69 0 122 -19t90 -53.5t57 -83t22 -107.5h-180q-11 48 -47 76.5t-95 28.5q-37 0 -70 -14t-59.5 -40.5t-45.5 -63.5t-28 -84q-8 -46 -2.5 -83t23.5 -63.5t46.5 -40.5t65.5 -14q58 0 103.5 28t74.5 76h181q-23 -59 -60.5 -107.5t-86.5 -83t-109 -53.5t-128 -19
q-79 0 -138 26.5t-96 74.5t-49.5 114t1.5 145t50 145t89.5 114t121.5 74.5t147 26.5z" />
    <glyph glyph-name="D" unicode="D" horiz-adv-x="733" 
d="M695 355q-13 -78 -50 -143t-92.5 -112t-128.5 -73.5t-160 -26.5h-267l124 707h267q87 0 151 -25.5t103 -72t53 -111.5t0 -143zM276 153q100 0 164.5 52.5t81.5 149.5t-29 149.5t-146 52.5h-81l-71 -404h81z" />
    <glyph glyph-name="E" unicode="E" horiz-adv-x="537" 
d="M268 571l-25 -148h238l-23 -129h-239l-27 -157h269l-24 -137h-440l124 707h440l-24 -136h-269z" />
    <glyph glyph-name="F" unicode="F" horiz-adv-x="549" 
d="M582 707l-24 -136h-290l-27 -155h224l-23 -130h-223l-51 -286h-171l124 707h461z" />
    <glyph glyph-name="G" unicode="G" horiz-adv-x="762" 
d="M453 714q68 0 119 -18t86.5 -50.5t55 -76.5t23.5 -96h-180q-11 37 -43.5 60t-86.5 23q-40 0 -76 -14t-64 -40.5t-47.5 -63.5t-27.5 -84q-18 -102 24 -155.5t137 -53.5q60 0 112 33t83 96h-216l22 123h358l-29 -169q-22 -49 -56 -92t-80.5 -74.5t-106 -49.5t-132.5 -18
q-81 0 -142 27t-98.5 76t-50.5 116.5t1 148.5q14 77 50 142t90.5 111.5t124 72.5t150.5 26z" />
    <glyph glyph-name="H" unicode="H" horiz-adv-x="729" 
d="M732 707l-124 -707h-172l52 295h-268l-52 -295h-171l124 707h171l-48 -274h268l48 274h172z" />
    <glyph glyph-name="I" unicode="I" horiz-adv-x="289" 
d="M292 707l-124 -707h-171l124 707h171z" />
    <glyph glyph-name="J" unicode="J" horiz-adv-x="549" 
d="M557 707l-85 -483q-20 -113 -91 -172t-177 -59q-57 0 -100.5 16t-71 48t-37 79.5t1.5 110.5h169q-9 -51 6 -75t51 -24q66 0 78 76l86 483h170z" />
    <glyph glyph-name="K" unicode="K" horiz-adv-x="690" 
d="M393 361l222 -361h-207l-184 318l-56 -318h-171l124 707h171l-55 -312l297 312h205z" />
    <glyph glyph-name="L" unicode="L" horiz-adv-x="478" 
d="M191 131h228l-23 -131h-399l124 707h171z" />
    <glyph glyph-name="M" unicode="M" horiz-adv-x="913" 
d="M915 702l-123 -702h-171l78 440l-230 -440h-148l-75 439l-77 -439h-172l123 702h209l106 -489l272 489h208z" />
    <glyph glyph-name="N" unicode="N" horiz-adv-x="746" 
d="M625 0h-171l-210 434l-76 -434h-171l124 707h171l209 -438l77 438h171z" />
    <glyph glyph-name="O" unicode="O" 
d="M431 718q85 0 149 -29t104.5 -81t54.5 -124t-1 -158q-13 -73 -46.5 -134.5t-84 -105.5t-116.5 -68.5t-143 -24.5q-87 0 -152 29t-105 81t-53.5 124.5t1.5 158.5q13 73 47 134t84.5 105t116.5 68.5t144 24.5zM418 559q-81 0 -138 -52.5t-74 -143.5q-17 -97 24.5 -153.5
t130.5 -56.5q40 0 75 13.5t62.5 39t46.5 61.5t27 81q17 98 -24.5 154.5t-129.5 56.5z" />
    <glyph glyph-name="P" unicode="P" horiz-adv-x="619" 
d="M211 248l-43 -248h-171l124 707h277q65 0 110.5 -17t72.5 -47.5t35.5 -73t-0.5 -93.5q-9 -49 -33 -90.5t-62 -72t-89 -48t-115 -17.5h-106zM322 385q57 0 84.5 24.5t35.5 66.5q7 43 -11.5 68t-75.5 25h-87l-32 -184h86z" />
    <glyph glyph-name="Q" unicode="Q" 
d="M738 326q-16 -93 -64 -164.5t-121 -114.5l114 -171h-205l-67 119q-11 -1 -23 -1.5t-24 -0.5q-87 0 -152 29t-105 81t-53.5 124.5t1.5 158.5q13 73 47 134t84.5 105t116.5 68.5t144 24.5q85 0 149 -29t104.5 -81t54.5 -124t-1 -158zM572 348q17 98 -24.5 154.5
t-129.5 56.5q-81 0 -138 -52.5t-74 -143.5q-17 -97 24.5 -153.5t130.5 -56.5q40 0 75 13.5t62.5 39t46.5 61.5t27 81z" />
    <glyph glyph-name="R" unicode="R" horiz-adv-x="636" 
d="M413 707q65 0 110.5 -17t72.5 -47t35.5 -71t0.5 -89q-14 -75 -65 -130t-137 -75l119 -278h-189l-106 267h-39l-47 -267h-171l124 707h292zM456 473q7 41 -12 65.5t-71 24.5h-106l-32 -179h106q52 0 79.5 22.5t35.5 66.5z" />
    <glyph glyph-name="S" unicode="S" horiz-adv-x="600" 
d="M538 174q-6 -36 -27 -69t-55 -58t-80.5 -39.5t-103.5 -14.5q-62 0 -110 15.5t-81 44.5t-50.5 69.5t-17.5 90.5h182q-3 -41 18 -63.5t61 -22.5q33 0 54 17.5t26 46.5q7 38 -15.5 60t-59 38.5t-79 33.5t-77 44.5t-53 70t-6.5 111.5q7 40 30 71.5t58 53t79.5 33t94.5 11.5
q65 0 112.5 -15.5t78 -43.5t46 -66.5t16.5 -84.5h-184q2 35 -16 55.5t-55 20.5q-28 0 -49 -14.5t-26 -43.5q-6 -35 16.5 -56t58.5 -37t78.5 -32t76.5 -43.5t52.5 -71t6.5 -112.5z" />
    <glyph glyph-name="T" unicode="T" horiz-adv-x="580" 
d="M629 707l-24 -136h-192l-100 -571h-172l100 571h-191l25 136h554z" />
    <glyph glyph-name="U" unicode="U" horiz-adv-x="697" 
d="M288 707l-72 -408q-12 -70 12 -107t85 -37t99 37t50 107l72 408h171l-72 -408q-13 -77 -46.5 -134.5t-80.5 -95.5t-104.5 -57t-120.5 -19t-112.5 19t-81.5 57t-43.5 95.5t2.5 134.5l71 408h171z" />
    <glyph glyph-name="V" unicode="V" horiz-adv-x="727" 
d="M253 707l79 -532l267 532h183l-371 -707h-220l-121 707h183z" />
    <glyph glyph-name="W" unicode="W" horiz-adv-x="1051" 
d="M1082 707l-293 -707h-212l-30 473l-197 -473h-212l-45 707h186l1 -512l214 512h187l34 -512l182 512h185z" />
    <glyph glyph-name="X" unicode="X" horiz-adv-x="698" 
d="M452 351l176 -351h-203l-110 220l-167 -220h-195l290 363l-173 344h203l107 -213l163 213h195z" />
    <glyph glyph-name="Y" unicode="Y" horiz-adv-x="677" 
d="M732 707l-329 -472l-41 -235h-171l41 235l-162 472h196l86 -288l186 288h194z" />
    <glyph glyph-name="Z" unicode="Z" horiz-adv-x="594" 
d="M198 138h312l-24 -138h-502l23 130l384 440h-304l25 137h496l-23 -130z" />
    <glyph glyph-name="bracketleft" unicode="[" horiz-adv-x="455" 
d="M503 950l-25 -138h-149l-151 -862h149l-25 -138h-310l201 1138h310z" />
    <glyph glyph-name="backslash" unicode="\" 
d="M325 -188l-67 1138h165l67 -1138h-165z" />
    <glyph glyph-name="bracketright" unicode="]" horiz-adv-x="452" 
d="M-50 -188l25 138h150l151 862h-150l25 138h310l-201 -1138h-310z" />
    <glyph glyph-name="asciicircum" unicode="^" horiz-adv-x="707" 
d="M152 165h-170l336 539h166l147 -539h-170l-94 343z" />
    <glyph glyph-name="underscore" unicode="_" horiz-adv-x="684" 
d="M636 -39l-29 -167h-620l29 167h620z" />
    <glyph glyph-name="grave" unicode="`" horiz-adv-x="310" 
d="M315 665l-33 -65l-165 76l39 88z" />
    <glyph glyph-name="a" unicode="a" horiz-adv-x="680" 
d="M316 565q69 0 111.5 -30t54.5 -78l18 101h171l-99 -558h-171l19 101q-29 -48 -80 -78t-118 -30q-54 0 -95 20.5t-66 59.5t-33 95t4 126q11 64 38 114.5t65 85t84.5 53t96.5 18.5zM352 415q-54 0 -94.5 -35t-51.5 -101t16.5 -101t81.5 -35q53 0 94.5 36t52.5 100
q11 65 -17.5 100.5t-81.5 35.5z" />
    <glyph glyph-name="b" unicode="b" horiz-adv-x="679" 
d="M5 0l131 740h171l-50 -283q29 48 79.5 78t116.5 30q51 0 92 -19.5t66.5 -56t34.5 -89.5t-3 -121q-12 -67 -39.5 -120t-66 -90t-86 -56.5t-98.5 -19.5q-67 0 -107 30t-51 78l-19 -101h-171zM323 143q54 0 94.5 35t52.5 101q11 66 -16.5 101t-81.5 35q-53 0 -94.5 -35.5
t-52.5 -100.5q-11 -64 17.5 -100t80.5 -36z" />
    <glyph glyph-name="c" unicode="c" horiz-adv-x="619" 
d="M355 565q112 0 176.5 -59t65.5 -164h-182q-2 35 -23 55.5t-59 20.5q-43 0 -79 -33.5t-49 -105.5t12 -105.5t68 -33.5q38 0 66 20.5t42 55.5h181q-18 -52 -49 -93.5t-71.5 -70t-89 -44t-102.5 -15.5q-61 0 -109.5 20.5t-79.5 59.5t-42.5 95t1.5 126q11 64 40.5 114
t72.5 85t96.5 53.5t113.5 18.5z" />
    <glyph glyph-name="d" unicode="d" horiz-adv-x="675" 
d="M698 740l-131 -740h-171l18 101q-29 -48 -79.5 -78t-117.5 -30q-51 0 -91.5 20.5t-66.5 59.5t-35 95t3 126q11 64 38 114.5t65 85t84.5 53t96.5 18.5q69 0 111 -30t54 -78l50 283h172zM347 415q-54 0 -94.5 -35t-51.5 -101t16.5 -101t81.5 -35q53 0 94.5 36t52.5 100
q11 65 -17.5 100.5t-81.5 35.5z" />
    <glyph glyph-name="e" unicode="e" horiz-adv-x="620" 
d="M361 565q63 0 111 -19.5t78 -55.5t41 -86t0 -110q-4 -24 -13 -46h-387q-4 -34 1 -56.5t17 -36t29.5 -19.5t37.5 -6q38 0 66 19.5t42 48.5h181q-16 -44 -45 -81.5t-68 -65t-87.5 -43t-104.5 -15.5q-61 0 -109.5 20t-79 58t-41.5 92.5t1 123.5q12 65 42 116.5t73.5 87.5
t98.5 55t116 19zM422 320q6 29 1 50t-17.5 34.5t-30.5 19.5t-38 6q-45 0 -81.5 -26.5t-51.5 -83.5h218z" />
    <glyph glyph-name="f" unicode="f" horiz-adv-x="368" 
d="M394 633q-54 4 -78.5 -13t-34.5 -62h100l-25 -144h-101l-73 -414h-171l73 414h-67l25 144h67l1 6q20 112 99.5 169t211.5 47z" />
    <glyph glyph-name="g" unicode="g" horiz-adv-x="677" 
d="M223 -7q-51 0 -91.5 20.5t-66.5 59.5t-35 95t3 126q11 64 38 114.5t65 85t84.5 53t96.5 18.5q69 0 111.5 -29.5t54.5 -78.5l18 101h170l-98 -555q-10 -57 -34.5 -107t-64.5 -88t-94.5 -60t-123.5 -22q-127 0 -192.5 60.5t-68.5 160.5h169q3 -34 27.5 -53t71.5 -19
q24 0 46.5 6.5t41 21.5t32.5 39.5t20 60.5l18 98q-29 -48 -80 -78t-118 -30zM353 415q-54 0 -94.5 -35t-51.5 -101q-12 -65 16 -100.5t82 -35.5q53 0 94.5 36t52.5 100q11 65 -17.5 100.5t-81.5 35.5z" />
    <glyph glyph-name="h" unicode="h" horiz-adv-x="676" 
d="M464 564q96 0 141 -63t25 -177l-57 -324h-170l53 304q10 57 -14 88t-74 31q-46 0 -81 -27t-50 -80l-55 -316h-172l130 740h172l-50 -282q32 48 84 77t118 29z" />
    <glyph glyph-name="i" unicode="i" horiz-adv-x="288" 
d="M119 715q7 38 39 64t79 26t70 -26t16 -64q-6 -38 -38 -63.5t-79 -25.5q-48 0 -71 25.5t-16 63.5zM279 558l-99 -558h-171l98 558h172z" />
    <glyph glyph-name="j" unicode="j" horiz-adv-x="290" 
d="M212 626q-48 0 -70.5 25.5t-16.5 63.5q7 38 39 64t80 26q47 0 69.5 -26t15.5 -64q-6 -38 -38 -63.5t-79 -25.5zM-100 -119h41q27 0 41.5 11.5t19.5 38.5l111 627h171l-111 -625q-9 -55 -30.5 -93t-52 -61.5t-69 -34t-82.5 -10.5h-65z" />
    <glyph glyph-name="k" unicode="k" horiz-adv-x="606" 
d="M368 285l173 -285h-198l-124 242l-43 -242h-171l130 740h172l-71 -399l205 217h201z" />
    <glyph glyph-name="l" unicode="l" horiz-adv-x="285" 
d="M312 740l-130 -740h-172l130 740h172z" />
    <glyph glyph-name="m" unicode="m" horiz-adv-x="1058" 
d="M831 564q104 0 152 -63t28 -177l-57 -324h-171l54 304q9 54 -15 83t-72 29q-49 0 -84 -29t-46 -86l-53 -301h-170l53 304q10 54 -14 83t-72 29q-50 0 -85.5 -30.5t-45.5 -89.5l-52 -296h-172l98 558h172l-16 -93q30 45 79 72t111 27q64 0 107.5 -29.5t60.5 -84.5
q36 51 91.5 82.5t118.5 31.5z" />
    <glyph glyph-name="n" unicode="n" horiz-adv-x="676" 
d="M463 564q96 0 141 -63t25 -177l-57 -324h-170l53 304q10 57 -14 88t-74 31q-51 0 -87 -32t-47 -95l-52 -296h-172l98 558h172l-18 -100q32 48 84 77t118 29z" />
    <glyph glyph-name="o" unicode="o" horiz-adv-x="640" 
d="M366 565q63 0 113.5 -20.5t83.5 -59.5t46 -94.5t1 -126.5q-12 -63 -42.5 -113.5t-75 -85.5t-99.5 -53.5t-116 -18.5q-64 0 -115 20.5t-84 59.5t-46 95t-1 126q11 64 42 114t75.5 85t100.5 53.5t117 18.5zM344 417q-22 0 -44.5 -8t-41.5 -25t-33 -43t-20 -62t-1.5 -61.5
t17.5 -42.5t32.5 -25t42.5 -8t45 8t41 25t33.5 42.5t20.5 61.5t1 62t-18 43t-32.5 25t-42.5 8z" />
    <glyph glyph-name="p" unicode="p" horiz-adv-x="678" 
d="M458 565q51 0 91.5 -19.5t66 -56t35 -89.5t-2.5 -121q-12 -67 -40 -120t-66.5 -90t-86 -56.5t-98.5 -19.5q-67 0 -107 30t-51 78l-65 -367h-172l146 824h171l-18 -101q29 48 79.5 78t117.5 30zM327 143q54 0 94.5 35t52.5 101q11 66 -16.5 101t-81.5 35
q-53 0 -94.5 -35.5t-52.5 -100.5q-11 -64 17.5 -100t80.5 -36z" />
    <glyph glyph-name="q" unicode="q" horiz-adv-x="674" 
d="M668 558l-145 -824h-171l63 356q-35 -46 -80.5 -71t-102.5 -25t-100.5 21t-70 60t-35 94t3.5 122q11 66 39.5 117t68.5 85.5t88 52t99 17.5q119 0 158 -86l14 81h171zM350 414q-23 0 -46.5 -8.5t-44 -25.5t-35.5 -43t-21 -61t0 -60.5t20 -41.5t35 -23.5t44 -7.5t46 8
t43.5 25t35.5 42.5t21 60.5t0 60.5t-20 42t-34.5 24.5t-43.5 8z" />
    <glyph glyph-name="r" unicode="r" horiz-adv-x="435" 
d="M261 453q40 50 95 80.5t116 30.5l-33 -183h-49q-60 0 -102.5 -23.5t-58.5 -86.5l-48 -271h-172l98 558h172z" />
    <glyph glyph-name="s" unicode="s" horiz-adv-x="550" 
d="M286 565q61 0 106 -14.5t75 -40.5t46.5 -61t19.5 -77h-168q-2 35 -26.5 54t-67.5 19q-28 0 -46.5 -10t-22.5 -30q-4 -25 19 -38.5t60 -24l80 -22.5t77.5 -33.5t53.5 -57.5t8 -94q-11 -61 -70 -101.5t-165 -40.5q-55 0 -101 12.5t-79 37.5t-52.5 61t-21.5 82h168
q-2 -37 26 -55.5t74 -18.5q32 0 47.5 12t19.5 29q5 27 -18 41t-59 24.5t-78.5 21.5t-77 32t-53.5 56t-8 93q5 30 22 56.5t46.5 46t71 30.5t94.5 11z" />
    <glyph glyph-name="t" unicode="t" horiz-adv-x="412" 
d="M237 206q-5 -33 6 -46t43 -13h54l-26 -147h-78q-46 0 -82 10.5t-59 35t-31 64.5t2 99l36 205h-74l26 144h74l24 137h172l-24 -137h111l-26 -144h-111z" />
    <glyph glyph-name="u" unicode="u" horiz-adv-x="665" 
d="M656 558l-98 -558h-172l18 102q-32 -49 -84 -78.5t-118 -29.5q-96 0 -141 63t-25 177l57 324h170l-53 -303q-10 -58 14 -89t74 -31q51 0 87 32t47 95l52 296h172z" />
    <glyph glyph-name="v" unicode="v" horiz-adv-x="610" 
d="M274 167l191 391h182l-297 -558h-212l-99 558h182z" />
    <glyph glyph-name="w" unicode="w" horiz-adv-x="863" 
d="M910 558l-242 -558h-191l-35 375l-169 -375h-191l-43 558h170l3 -402l175 402h182l35 -403l146 403h160z" />
    <glyph glyph-name="x" unicode="x" horiz-adv-x="590" 
d="M387 274l149 -274h-192l-86 159l-121 -159h-189l237 292l-145 266h192l86 -157l120 157h188z" />
    <glyph glyph-name="y" unicode="y" horiz-adv-x="626" 
d="M224 558l73 -342l185 342h190l-494 -824h-189l183 287l-139 537h191z" />
    <glyph glyph-name="z" unicode="z" horiz-adv-x="490" 
d="M186 143h258l-26 -143h-445l24 135l289 281h-235l26 142h430l-24 -135z" />
    <glyph glyph-name="braceleft" unicode="{" horiz-adv-x="458" 
d="M198 371q107 -21 86 -137q-4 -25 -11 -47.5l-14.5 -46t-14.5 -48t-12 -53.5q-9 -51 -5 -91.5t17.5 -70.5t34 -50t44.5 -31l-2 -13h-175q-12 6 -31.5 23.5t-35.5 48.5t-23.5 77t4.5 111q5 28 12.5 52.5l15 48l15 46.5t11.5 48q3 17 1.5 34t-10 31.5t-26 25t-46.5 13.5
l10 60q31 3 52.5 13.5t35 25t20.5 31.5t10 34q5 25 5.5 48l1 46.5t2 48t6.5 52.5q11 65 34.5 111t50.5 77t52.5 48.5t40.5 23.5h175l-2 -13q-28 -11 -56 -31t-52 -50t-43 -70.5t-28 -91.5q-4 -28 -5.5 -52.5t-2 -48t-1.5 -46t-6 -47.5q-10 -58 -42.5 -92.5t-92.5 -45.5v-2z
" />
    <glyph glyph-name="bar" unicode="|" horiz-adv-x="244" 
d="M124 -130h-171l167 946h171z" />
    <glyph glyph-name="braceright" unicode="}" horiz-adv-x="443" 
d="M264 373q-107 22 -89 123q5 25 12 47.5l14.5 46t14.5 48t12 52.5q9 48 5 90.5t-16.5 76t-33 57t-44.5 34.5l2 13h174q13 -6 32.5 -23.5t35 -48.5t23 -77t-3.5 -111q-5 -28 -12.5 -52.5t-15.5 -48t-15 -46.5t-11 -48q-3 -17 -1.5 -35t10 -33t26 -25t46.5 -11l-11 -60
q-29 -1 -50 -11t-35 -25t-22 -33t-11 -35q-4 -25 -5 -48t-1.5 -46.5t-2 -48t-6.5 -52.5q-11 -65 -34.5 -111t-50.5 -77t-52 -48.5t-40 -23.5h-175l2 13q28 11 57 34.5t53.5 57t43 76t27.5 90.5q5 29 6.5 53.5t2 48t2 46t5.5 47.5q17 101 132 122v2z" />
    <glyph glyph-name="asciitilde" unicode="~" horiz-adv-x="636" 
d="M243 426q33 0 58 -10.5t46 -23l40 -23t41 -10.5q27 0 44.5 16.5t28.5 51.5h129q-38 -116 -100 -168t-137 -52q-33 0 -58 10.5t-46 23t-40.5 23t-41.5 10.5q-50 0 -73 -68h-128q39 116 100.5 168t136.5 52z" />
    <glyph glyph-name="exclamdown" unicode="&#xa1;" horiz-adv-x="403" 
d="M134 395l32 171h187l-31 -171h-188zM23 -176l113 489h154l-69 -489h-198z" />
    <glyph glyph-name="cent" unicode="&#xa2;" horiz-adv-x="581" 
d="M322 378q-48 0 -82.5 -30.5t-45.5 -90.5q-10 -59 14 -89t72 -30q32 0 62 17.5t44 51.5h157q-12 -45 -37 -81.5t-58.5 -62.5t-74 -41.5t-84.5 -19.5l-16 -88h-73l15 88q-102 11 -153.5 76t-31.5 180q10 57 34.5 102t60.5 77.5t81.5 51.5t98.5 24l15 85h74l-15 -85
q42 -4 77 -19.5t60 -41.5t37 -62t8 -82h-158q-3 35 -26 52.5t-55 17.5z" />
    <glyph glyph-name="sterling" unicode="&#xa3;" horiz-adv-x="629" 
d="M471 529q2 38 -15 63t-57 25q-38 0 -63.5 -24t-33.5 -70q-5 -27 -2 -58t8 -63h174l-20 -114h-151q0 -2 -0.5 -3t-0.5 -3q-5 -31 -27 -74.5t-69 -78.5h345l-24 -134h-512l-7 83q56 41 88 87.5t44 116.5q0 2 0.5 3t0.5 3h-114l21 114h84q-4 31 -5 66t6 74q9 50 33.5 89.5
t61 67.5t83 42.5t99.5 14.5q60 0 102 -17.5t68 -48t36 -72t5 -89.5h-158z" />
    <glyph glyph-name="currency" unicode="&#xa4;" horiz-adv-x="578" 
d="M480 491q31 -45 19 -112q-12 -65 -57 -112l43 -52l-75 -64l-51 63q-46 -18 -101 -18q-54 0 -97 19l-75 -64l-52 64l64 54q-28 46 -16 110q5 33 19.5 60.5t36.5 49.5l-46 55l75 64l55 -67q46 17 100 17q53 0 91 -16l78 66l52 -64zM214 377q-8 -42 11 -61.5t50 -19.5
q30 0 56.5 19.5t34.5 61.5q8 43 -11.5 63t-49.5 20q-31 0 -57 -20t-34 -63z" />
    <glyph glyph-name="yen" unicode="&#xa5;" horiz-adv-x="688" 
d="M542 426h100l-19 -113h-160l-36 -52h187l-20 -113h-200l-25 -148h-172l26 148h-201l21 113h186l-18 52h-160l20 113h101l-96 281h196l81 -315l191 315h194z" />
    <glyph glyph-name="brokenbar" unicode="&#xa6;" horiz-adv-x="372" 
d="M184 816h171l-72 -410h-172zM188 -130h-172l73 412h171z" />
    <glyph glyph-name="section" unicode="&#xa7;" horiz-adv-x="588" 
d="M403 530q4 38 -9.5 58t-45.5 20q-21 0 -36.5 -10.5t-19.5 -33.5q-3 -17 2.5 -31.5t21 -28.5t42.5 -29t67 -33q33 -16 60 -34.5t45 -41t26 -49t2 -59.5q-8 -46 -40 -84.5t-99 -64.5q32 -31 46 -68.5t6 -80.5q-7 -38 -27 -69.5t-52.5 -54.5t-77 -36t-99.5 -13
q-53 0 -92.5 14.5t-64 41t-35.5 63t-7 80.5h169q-7 -78 55 -78q21 0 36.5 10.5t19.5 33.5q3 18 -2.5 32t-21 28t-42.5 29t-67 34q-33 15 -60 33.5t-45 41t-25.5 49t-1.5 59.5q8 46 40 87t99 62q-68 63 -53 149q7 38 27 69.5t52.5 54.5t77 36t99.5 13q53 0 92.5 -14.5t64 -41
t35.5 -63t7 -80.5h-169zM309 336q-40 0 -65 -23t-30 -55q-6 -34 11 -56t55 -22q40 0 65.5 23t30.5 55q5 33 -11 55.5t-56 22.5z" />
    <glyph glyph-name="dieresis" unicode="&#xa8;" horiz-adv-x="393" 
d="M83 693q6 32 30 52.5t54 20.5q32 0 49 -20.5t11 -52.5q-5 -30 -29.5 -50.5t-55.5 -20.5q-30 0 -47 20.5t-12 50.5zM286 693q5 32 29 52.5t54 20.5q32 0 49 -20.5t11 -52.5q-5 -30 -29 -50.5t-56 -20.5q-30 0 -47 20.5t-11 50.5z" />
    <glyph glyph-name="copyright" unicode="&#xa9;" horiz-adv-x="779" 
d="M453 716q79 0 139 -26.5t98 -74t52 -113.5t0 -145t-51 -145.5t-91.5 -114.5t-124 -74.5t-148.5 -26.5q-78 0 -138.5 26.5t-98.5 74.5t-52 114.5t0 145.5t51 145t92 113.5t124.5 74t147.5 26.5zM444 662q-68 0 -126.5 -22t-104 -62t-76 -96t-42.5 -125t-1.5 -125.5
t41.5 -97t81.5 -63t119.5 -22.5q68 0 126.5 22.5t103.5 63t76 97t43 125.5t1.5 125t-41.5 96t-82 62t-119 22zM433 581q-48 0 -91.5 -15.5t-78.5 -44.5t-59 -70.5t-33 -94.5t0 -94.5t33.5 -70.5t63 -44.5t86.5 -15.5q39 0 76 12t68.5 34t56.5 54.5t40 72.5h-144
q-13 -26 -34.5 -43t-49.5 -17q-35 0 -54 27.5t-9 84.5t38.5 84t63.5 27q28 0 44 -16.5t19 -43.5h143q0 41 -13 73t-37 54.5t-57 34.5t-72 12z" />
    <glyph glyph-name="ordfeminine" unicode="&#xaa;" horiz-adv-x="454" 
d="M220 711q46 0 72.5 -17.5t37.5 -49.5l11 63h128l-61 -352h-128l11 62q-24 -32 -55.5 -50t-77.5 -18q-35 0 -63 12t-46 35t-24.5 57t0.5 77q8 43 26 76.5t44 57t58 35.5t67 12zM247 609q-32 0 -57.5 -21t-32.5 -59t11.5 -57.5t50.5 -19.5q33 0 59 20.5t33 58.5
q6 38 -13 58t-51 20z" />
    <glyph glyph-name="guillemotleft" unicode="&#xab;" horiz-adv-x="557" 
d="M99 120l-54 175l115 175h158l-117 -175l55 -175h-157zM326 120l-53 175l115 175h157l-117 -175l56 -175h-158z" />
    <glyph glyph-name="logicalnot" unicode="&#xac;" horiz-adv-x="773" 
d="M736 442l-47 -262h-171l24 133h-511l23 129h682z" />
    <glyph glyph-name="registered" unicode="&#xae;" horiz-adv-x="811" 
d="M469 716q82 0 145 -26t103.5 -73.5t55.5 -113.5t1 -146q-14 -79 -52 -145.5t-95 -114.5t-129.5 -74.5t-154.5 -26.5t-145 26.5t-103.5 74.5t-55.5 114.5t-1 145.5q14 80 52 146t95 113.5t129.5 73.5t154.5 26zM717 357q12 70 0.5 126.5t-44.5 96.5t-87 61.5t-126 21.5
t-133.5 -21.5t-108.5 -61.5t-79 -96.5t-44 -126.5q-12 -69 -0.5 -125.5t44.5 -96.5t87 -62t126 -22t133 22t108.5 62t79.5 96.5t44 125.5zM470 578q42 0 70 -11t43.5 -29t20 -41.5t-0.5 -48.5q-7 -42 -36.5 -75.5t-83.5 -47.5l74 -175h-115l-67 168h-20l-30 -168h-106
l76 428h175zM493 433q4 22 -7 35.5t-44 13.5h-58l-17 -97h58q33 0 48.5 13t19.5 35z" />
    <glyph glyph-name="macron" unicode="&#xaf;" horiz-adv-x="436" 
d="M488 746l-20 -115h-401l21 115h400z" />
    <glyph glyph-name="degree" unicode="&#xb0;" horiz-adv-x="461" 
d="M263 709q46 0 82 -12t58.5 -35.5t31.5 -56.5t1 -75q-7 -42 -27 -76t-50.5 -57.5t-70 -36.5t-85.5 -13t-82.5 13t-60.5 36.5t-33 57.5t-2 76q8 42 28.5 75t51.5 56.5t71.5 35.5t86.5 12zM248 618q-29 0 -56 -21t-35 -69q-9 -46 11.5 -67.5t49.5 -21.5t53.5 21.5t33.5 67.5
q8 48 -10.5 69t-46.5 21z" />
    <glyph glyph-name="plusminus" unicode="&#xb1;" horiz-adv-x="561" 
d="M369 356l-19 -106h173l-27 -155h-511l27 155h173l19 106h-173l28 155h172l21 120h165l-21 -120h173l-27 -155h-173z" />
    <glyph glyph-name="uni00B2" unicode="&#xb2;" horiz-adv-x="392" 
d="M252 715q39 0 64.5 -9t40.5 -24t19.5 -34t1.5 -39q-7 -38 -42.5 -67t-106.5 -59l-72 -33h188l-17 -98h-314l16 94l145 81q28 17 45.5 34.5t21.5 37.5q3 26 -22 26q-33 0 -45 -49h-127q15 60 68 99.5t136 39.5z" />
    <glyph glyph-name="uni00B3" unicode="&#xb3;" horiz-adv-x="378" 
d="M227 715q72 0 107 -28.5t27 -75.5q-11 -62 -86 -76l-1 -4q42 -10 56.5 -30t9.5 -52q-8 -47 -54.5 -73.5t-119.5 -26.5q-48 0 -79.5 8.5t-49.5 25t-24 39.5t-4 51h134q-2 -21 5.5 -28t21.5 -7q15 0 25.5 8t13.5 26q4 20 -6 29t-30 9h-38l7 45h32q42 0 49 39q2 14 -4 23
t-21 9q-30 0 -41 -38h-122q5 24 18 46.5t36 40.5t57 29t81 11z" />
    <glyph glyph-name="acute" unicode="&#xb4;" horiz-adv-x="276" 
d="M305 676l-194 -69l-17 60l182 96z" />
    <glyph glyph-name="uni00B5" unicode="&#xb5;" horiz-adv-x="681" 
d="M676 558l-99 -558h-171l17 95q-30 -45 -79.5 -73t-111.5 -28q-26 0 -46 12l-49 -272h-170l146 824h171l-52 -293q-11 -60 14 -91t75 -31t85.5 30.5t45.5 89.5v-7l53 302h171z" />
    <glyph glyph-name="paragraph" unicode="&#xb6;" horiz-adv-x="706" 
d="M567 0h-138l101 573h-71l-101 -573h-137l48 273h-23q-63 0 -105 18t-66 48t-30.5 68.5t0.5 79.5q8 42 28 80.5t54.5 68.5t82.5 48t111 18h369z" />
    <glyph glyph-name="periodcentered" unicode="&#xb7;" horiz-adv-x="258" 
d="M241 401l-30 -171h-177l30 171h177z" />
    <glyph glyph-name="cedilla" unicode="&#xb8;" horiz-adv-x="320" 
d="M189 -43q21 1 43 -4.5t38.5 -19t25 -35.5t2.5 -54q-6 -31 -22 -52.5t-38 -34.5t-48 -18.5t-51 -5.5h-146l16 90h127q42 0 47 26q2 13 -6.5 21t-30.5 8h-73l24 129h101z" />
    <glyph glyph-name="uni00B9" unicode="&#xb9;" horiz-adv-x="252" 
d="M39 604l17 100h191l-62 -352h-128l45 252h-63z" />
    <glyph glyph-name="ordmasculine" unicode="&#xba;" horiz-adv-x="441" 
d="M260 709q47 0 82 -13.5t57 -37.5t30.5 -57.5t1.5 -72.5t-27 -72t-50.5 -57.5t-70.5 -38.5t-87 -14t-82 14t-57 38.5t-30.5 57.5t-1.5 72t27 72.5t51 57.5t71 37.5t86 13.5zM243 610q-31 0 -55.5 -20t-32.5 -62q-8 -41 10 -61.5t48 -20.5q31 0 55.5 20.5t32.5 61.5
q8 42 -10 62t-48 20z" />
    <glyph glyph-name="guillemotright" unicode="&#xbb;" horiz-adv-x="557" 
d="M138 295l-57 175h158l53 -175l-114 -175h-159zM365 295l-57 175h159l53 -175l-115 -175h-158z" />
    <glyph glyph-name="onequarter" unicode="&#xbc;" horiz-adv-x="807" 
d="M701 707l-502 -707h-167l502 707h167zM36 604l17 100h191l-62 -352h-128l45 252h-63zM729 63h-40l-11 -63h-129l11 63h-195l12 67l189 222h174l-38 -218h40zM603 265l-104 -128h82z" />
    <glyph glyph-name="onehalf" unicode="&#xbd;" horiz-adv-x="844" 
d="M714 709l-510 -709h-168l511 709h167zM125 604h-63l17 100h191l-62 -352h-128zM662 362q39 0 64.5 -9t40.5 -24t19.5 -34t1.5 -39q-7 -38 -42.5 -67t-106.5 -59l-72 -33h188l-17 -98h-314l16 94l145 81q28 17 45.5 34.5t21.5 37.5q3 26 -22 26q-33 0 -45 -49h-127
q15 60 68 99.5t136 39.5z" />
    <glyph glyph-name="threequarters" unicode="&#xbe;" horiz-adv-x="901" 
d="M254 715q72 0 107 -28.5t27 -75.5q-11 -62 -86 -76l-1 -4q42 -10 56.5 -30t9.5 -52q-8 -47 -54.5 -73.5t-119.5 -26.5q-48 0 -79.5 8.5t-49.5 25t-24 39.5t-4 51h134q-2 -21 5.5 -28t21.5 -7q15 0 25.5 8t13.5 26q4 20 -6 29t-30 9h-38l7 45h32q42 0 49 39q2 14 -4 23
t-21 9q-30 0 -41 -38h-122q5 24 18 46.5t36 40.5t57 29t81 11zM796 709l-489 -709h-167l488 709h168zM833 63h-40l-11 -63h-128l11 63h-196l12 67l174 222h189l-38 -218h40zM710 280l-107 -146h82z" />
    <glyph glyph-name="questiondown" unicode="&#xbf;" horiz-adv-x="520" 
d="M280 393l30 171h178l-31 -171h-177zM193 -194q-52 0 -92.5 13.5t-66.5 40.5t-36.5 67.5t-1.5 93.5q9 48 32.5 85t58 62.5t79 39t93.5 14.5l16 89h161l-35 -199h-67q-32 0 -60.5 -4t-51.5 -14t-38 -27.5t-20 -44.5q-6 -36 11 -56t49 -20q38 0 59 22t29 54h162
q-7 -45 -29 -84t-57 -68.5t-84 -46.5t-111 -17z" />
    <glyph glyph-name="Agrave" unicode="&#xc0;" horiz-adv-x="730" 
d="M535 749l-165 76l39 88l159 -99zM459 129h-266l-67 -129h-180l383 702h197l135 -702h-181zM438 259l-43 262l-135 -262h178z" />
    <glyph glyph-name="Aacute" unicode="&#xc1;" horiz-adv-x="730" 
d="M368 756l-17 60l182 96l29 -87zM459 129h-266l-67 -129h-180l383 702h197l135 -702h-181zM438 259l-43 262l-135 -262h178z" />
    <glyph glyph-name="Acircumflex" unicode="&#xc2;" horiz-adv-x="730" 
d="M333 749l-19 70l147 73l120 -73l-36 -70l-97 56zM459 129h-266l-67 -129h-180l383 702h197l135 -702h-181zM438 259l-43 262l-135 -262h178z" />
    <glyph glyph-name="Atilde" unicode="&#xc3;" horiz-adv-x="730" 
d="M381 800q-32 0 -46 -41h-71q23 68 57 96.5t79 28.5q20 0 34.5 -6.5t26.5 -14t23.5 -14t25.5 -6.5t26 10.5t19 30.5h72q-23 -66 -57.5 -95t-79.5 -29q-20 0 -34.5 6.5t-26.5 14t-23.5 13.5t-24.5 6zM459 129h-266l-67 -129h-180l383 702h197l135 -702h-181zM438 259
l-43 262l-135 -262h178z" />
    <glyph glyph-name="Adieresis" unicode="&#xc4;" horiz-adv-x="730" 
d="M343 771q-30 0 -47 20.5t-12 50.5q6 32 30 52.5t54 20.5q32 0 49 -20.5t11 -52.5q-5 -30 -29.5 -50.5t-55.5 -20.5zM545 771q-30 0 -47 20.5t-11 50.5q5 32 29 52.5t54 20.5q32 0 49 -20.5t11 -52.5q-5 -30 -29 -50.5t-56 -20.5zM459 129h-266l-67 -129h-180l383 702h197
l135 -702h-181zM438 259l-43 262l-135 -262h178z" />
    <glyph glyph-name="Aring" unicode="&#xc5;" horiz-adv-x="730" 
d="M430 748q-51 0 -80.5 32t-19.5 89q5 29 18 51.5t32.5 38t43 24t48.5 8.5q51 0 80.5 -32.5t20.5 -89.5q-5 -28 -18.5 -50.5t-33 -38t-43 -24t-48.5 -8.5zM399 869q-5 -24 7.5 -38.5t35.5 -14.5q22 0 39 14.5t22 38.5q5 25 -7.5 39t-35.5 14q-22 0 -39 -14t-22 -39z
M459 129h-266l-67 -129h-180l383 702h197l135 -702h-181zM438 259l-43 262l-135 -262h178z" />
    <glyph glyph-name="AE" unicode="&#xc6;" horiz-adv-x="949" 
d="M688 571l-26 -145h231l-22 -130h-231l-28 -159h261l-24 -137h-433l21 121h-227l-83 -121h-187l487 707h546l-24 -136h-261zM460 251l56 319l-218 -319h162z" />
    <glyph glyph-name="Ccedilla" unicode="&#xc7;" horiz-adv-x="757" 
d="M344 153q58 0 103.5 28t74.5 76h181q-41 -103 -121.5 -171.5t-192.5 -86.5l-8 -42q21 1 43 -4.5t38.5 -19t25 -35.5t2.5 -54q-6 -31 -22 -52.5t-38 -34.5t-48 -18.5t-51 -5.5h-146l16 90h127q42 0 47 26q2 13 -6.5 21t-30.5 8h-73l22 117q-71 6 -124 34.5t-85.5 75.5
t-43 110.5t2.5 138.5q14 79 50 145t89.5 114t121.5 74.5t147 26.5q69 0 122 -19t90 -53.5t57 -83t22 -107.5h-180q-11 48 -47 76.5t-95 28.5q-37 0 -70 -14t-59.5 -40.5t-45.5 -63.5t-28 -84q-8 -46 -2.5 -83t23.5 -63.5t46.5 -40.5t65.5 -14z" />
    <glyph glyph-name="Egrave" unicode="&#xc8;" horiz-adv-x="537" 
d="M486 814l-33 -65l-165 76l39 88zM268 571l-25 -148h238l-23 -129h-239l-27 -157h269l-24 -137h-440l124 707h440l-24 -136h-269z" />
    <glyph glyph-name="Eacute" unicode="&#xc9;" horiz-adv-x="537" 
d="M480 825l-194 -69l-17 60l182 96zM268 571l-25 -148h238l-23 -129h-239l-27 -157h269l-24 -137h-440l124 707h440l-24 -136h-269z" />
    <glyph glyph-name="Ecircumflex" unicode="&#xca;" horiz-adv-x="537" 
d="M366 805l-115 -56l-19 70l147 73l120 -73l-36 -70zM268 571l-25 -148h238l-23 -129h-239l-27 -157h269l-24 -137h-440l124 707h440l-24 -136h-269z" />
    <glyph glyph-name="Edieresis" unicode="&#xcb;" horiz-adv-x="536" 
d="M191 842q6 32 30 52.5t54 20.5q32 0 49 -20.5t11 -52.5q-5 -30 -29.5 -50.5t-55.5 -20.5q-30 0 -47 20.5t-12 50.5zM394 842q5 32 29 52.5t54 20.5q32 0 49 -20.5t11 -52.5q-5 -30 -29 -50.5t-56 -20.5q-30 0 -47 20.5t-11 50.5zM268 571l-25 -148h238l-23 -129h-239
l-27 -157h269l-24 -137h-440l124 707h440l-24 -136h-269z" />
    <glyph glyph-name="Igrave" unicode="&#xcc;" horiz-adv-x="289" 
d="M362 814l-33 -65l-165 76l39 88zM292 707l-124 -707h-171l124 707h171z" />
    <glyph glyph-name="Iacute" unicode="&#xcd;" horiz-adv-x="289" 
d="M356 825l-194 -69l-17 60l182 96zM292 707l-124 -707h-171l124 707h171z" />
    <glyph glyph-name="Icircumflex" unicode="&#xce;" horiz-adv-x="289" 
d="M242 805l-115 -56l-19 70l147 73l120 -73l-36 -70zM292 707l-124 -707h-171l124 707h171z" />
    <glyph glyph-name="Idieresis" unicode="&#xcf;" horiz-adv-x="289" 
d="M65 842q6 32 30 52.5t54 20.5q32 0 49 -20.5t11 -52.5q-5 -30 -29.5 -50.5t-55.5 -20.5q-30 0 -47 20.5t-12 50.5zM268 842q5 32 29 52.5t54 20.5q32 0 49 -20.5t11 -52.5q-5 -30 -29 -50.5t-56 -20.5q-30 0 -47 20.5t-11 50.5zM292 707l-124 -707h-171l124 707h171z" />
    <glyph glyph-name="Eth" unicode="&#xd0;" horiz-adv-x="743" 
d="M398 707q87 0 151 -25.5t103 -72t53 -111.5t0 -143q-13 -78 -50 -143t-92.5 -112t-128.5 -73.5t-160 -26.5h-267l50 287h-66l24 136h66l50 284h267zM532 355q17 97 -29 149.5t-146 52.5h-81l-24 -134h156l-24 -136h-155l-24 -134h81q100 0 164.5 52.5t81.5 149.5z" />
    <glyph glyph-name="Ntilde" unicode="&#xd1;" horiz-adv-x="746" 
d="M423 884q20 0 34.5 -6.5t26.5 -14t23.5 -14t25.5 -6.5t26 10.5t19 30.5h72q-23 -66 -57.5 -95t-79.5 -29q-20 0 -34.5 6.5t-26.5 14t-23.5 13.5t-24.5 6q-32 0 -46 -41h-71q23 68 57 96.5t79 28.5zM625 0h-171l-210 434l-76 -434h-171l124 707h171l209 -438l77 438h171z
" />
    <glyph glyph-name="Ograve" unicode="&#xd2;" 
d="M582 814l-33 -65l-165 76l39 88zM431 718q85 0 149 -29t104.5 -81t54.5 -124t-1 -158q-13 -73 -46.5 -134.5t-84 -105.5t-116.5 -68.5t-143 -24.5q-87 0 -152 29t-105 81t-53.5 124.5t1.5 158.5q13 73 47 134t84.5 105t116.5 68.5t144 24.5zM418 559q-81 0 -138 -52.5
t-74 -143.5q-17 -97 24.5 -153.5t130.5 -56.5q40 0 75 13.5t62.5 39t46.5 61.5t27 81q17 98 -24.5 154.5t-129.5 56.5z" />
    <glyph glyph-name="Oacute" unicode="&#xd3;" 
d="M576 825l-194 -69l-17 60l182 96zM431 718q85 0 149 -29t104.5 -81t54.5 -124t-1 -158q-13 -73 -46.5 -134.5t-84 -105.5t-116.5 -68.5t-143 -24.5q-87 0 -152 29t-105 81t-53.5 124.5t1.5 158.5q13 73 47 134t84.5 105t116.5 68.5t144 24.5zM418 559q-81 0 -138 -52.5
t-74 -143.5q-17 -97 24.5 -153.5t130.5 -56.5q40 0 75 13.5t62.5 39t46.5 61.5t27 81q17 98 -24.5 154.5t-129.5 56.5z" />
    <glyph glyph-name="Ocircumflex" unicode="&#xd4;" 
d="M462 805l-115 -56l-19 70l147 73l120 -73l-36 -70zM431 718q85 0 149 -29t104.5 -81t54.5 -124t-1 -158q-13 -73 -46.5 -134.5t-84 -105.5t-116.5 -68.5t-143 -24.5q-87 0 -152 29t-105 81t-53.5 124.5t1.5 158.5q13 73 47 134t84.5 105t116.5 68.5t144 24.5zM418 559
q-81 0 -138 -52.5t-74 -143.5q-17 -97 24.5 -153.5t130.5 -56.5q40 0 75 13.5t62.5 39t46.5 61.5t27 81q17 98 -24.5 154.5t-129.5 56.5z" />
    <glyph glyph-name="Otilde" unicode="&#xd5;" 
d="M414 884q20 0 34.5 -6.5t26.5 -14t23.5 -14t25.5 -6.5t26 10.5t19 30.5h72q-23 -66 -57.5 -95t-79.5 -29q-20 0 -34.5 6.5t-26.5 14t-23.5 13.5t-24.5 6q-32 0 -46 -41h-71q23 68 57 96.5t79 28.5zM431 718q85 0 149 -29t104.5 -81t54.5 -124t-1 -158
q-13 -73 -46.5 -134.5t-84 -105.5t-116.5 -68.5t-143 -24.5q-87 0 -152 29t-105 81t-53.5 124.5t1.5 158.5q13 73 47 134t84.5 105t116.5 68.5t144 24.5zM418 559q-81 0 -138 -52.5t-74 -143.5q-17 -97 24.5 -153.5t130.5 -56.5q40 0 75 13.5t62.5 39t46.5 61.5t27 81
q17 98 -24.5 154.5t-129.5 56.5z" />
    <glyph glyph-name="Odieresis" unicode="&#xd6;" 
d="M302 842q6 32 30 52.5t54 20.5q32 0 49 -20.5t11 -52.5q-5 -30 -29.5 -50.5t-55.5 -20.5q-30 0 -47 20.5t-12 50.5zM505 842q5 32 29 52.5t54 20.5q32 0 49 -20.5t11 -52.5q-5 -30 -29 -50.5t-56 -20.5q-30 0 -47 20.5t-11 50.5zM431 718q85 0 149 -29t104.5 -81
t54.5 -124t-1 -158q-13 -73 -46.5 -134.5t-84 -105.5t-116.5 -68.5t-143 -24.5q-87 0 -152 29t-105 81t-53.5 124.5t1.5 158.5q13 73 47 134t84.5 105t116.5 68.5t144 24.5zM418 559q-81 0 -138 -52.5t-74 -143.5q-17 -97 24.5 -153.5t130.5 -56.5q40 0 75 13.5t62.5 39
t46.5 61.5t27 81q17 98 -24.5 154.5t-129.5 56.5z" />
    <glyph glyph-name="multiply" unicode="&#xd7;" horiz-adv-x="553" 
d="M394 359l117 -142l-133 -112l-116 141l-163 -140l-91 110l163 139l-111 135l133 113l111 -134l156 133l91 -109z" />
    <glyph glyph-name="Oslash" unicode="&#xd8;" horiz-adv-x="789" 
d="M695 592q34 -51 45 -118.5t-3 -147.5q-13 -73 -46.5 -134.5t-84 -105.5t-116.5 -68.5t-143 -24.5q-70 0 -125 18.5t-95 52.5l-68 -63h-93l118 110q-37 52 -49 121.5t3 153.5q13 73 47 134t84.5 105t116.5 68.5t144 24.5q71 0 127.5 -20t96.5 -58l76 70h92zM205 363
q-13 -76 11 -130l312 289q-42 37 -111 37q-81 0 -138 -52.5t-74 -143.5zM571 348q12 71 -8 122l-307 -286q40 -31 104 -31q40 0 75 13.5t62.5 39t46.5 61.5t27 81z" />
    <glyph glyph-name="Ugrave" unicode="&#xd9;" horiz-adv-x="697" 
d="M566 814l-33 -65l-165 76l39 88zM288 707l-72 -408q-12 -70 12 -107t85 -37t99 37t50 107l72 408h171l-72 -408q-13 -77 -46.5 -134.5t-80.5 -95.5t-104.5 -57t-120.5 -19t-112.5 19t-81.5 57t-43.5 95.5t2.5 134.5l71 408h171z" />
    <glyph glyph-name="Uacute" unicode="&#xda;" horiz-adv-x="697" 
d="M560 825l-194 -69l-17 60l182 96zM288 707l-72 -408q-12 -70 12 -107t85 -37t99 37t50 107l72 408h171l-72 -408q-13 -77 -46.5 -134.5t-80.5 -95.5t-104.5 -57t-120.5 -19t-112.5 19t-81.5 57t-43.5 95.5t2.5 134.5l71 408h171z" />
    <glyph glyph-name="Ucircumflex" unicode="&#xdb;" horiz-adv-x="697" 
d="M446 805l-115 -56l-19 70l147 73l120 -73l-36 -70zM288 707l-72 -408q-12 -70 12 -107t85 -37t99 37t50 107l72 408h171l-72 -408q-13 -77 -46.5 -134.5t-80.5 -95.5t-104.5 -57t-120.5 -19t-112.5 19t-81.5 57t-43.5 95.5t2.5 134.5l71 408h171z" />
    <glyph glyph-name="Udieresis" unicode="&#xdc;" horiz-adv-x="697" 
d="M261 842q6 32 30 52.5t54 20.5q32 0 49 -20.5t11 -52.5q-5 -30 -29.5 -50.5t-55.5 -20.5q-30 0 -47 20.5t-12 50.5zM464 842q5 32 29 52.5t54 20.5q32 0 49 -20.5t11 -52.5q-5 -30 -29 -50.5t-56 -20.5q-30 0 -47 20.5t-11 50.5zM288 707l-72 -408q-12 -70 12 -107
t85 -37t99 37t50 107l72 408h171l-72 -408q-13 -77 -46.5 -134.5t-80.5 -95.5t-104.5 -57t-120.5 -19t-112.5 19t-81.5 57t-43.5 95.5t2.5 134.5l71 408h171z" />
    <glyph glyph-name="Yacute" unicode="&#xdd;" horiz-adv-x="677" 
d="M356 756l-17 60l182 96l29 -87zM732 707l-329 -472l-41 -235h-171l41 235l-162 472h196l86 -288l186 288h194z" />
    <glyph glyph-name="Thorn" unicode="&#xde;" horiz-adv-x="619" 
d="M192 134l-24 -134h-171l124 707h170l-23 -129h107q65 0 110.5 -16.5t72.5 -46t36 -70.5t0 -91q-8 -48 -31.5 -88t-61.5 -69.5t-89 -46t-115 -16.5h-105zM301 263q57 0 84 24.5t35 66.5q8 43 -10.5 68t-75.5 25h-87l-33 -184h87z" />
    <glyph glyph-name="germandbls" unicode="&#xdf;" horiz-adv-x="719" 
d="M561 401q73 -45 102 -102.5t14 -139.5q-6 -35 -24 -65.5t-46.5 -53t-66.5 -35.5t-86 -13q-104 0 -159 57t-44 156h140q-2 -31 12 -47.5t42 -16.5q30 0 46.5 17t20.5 37q5 26 -6.5 44.5t-46.5 42.5l-135 95l12 58l22 12q47 25 55 70q5 32 -11.5 53t-51.5 21q-38 0 -64 -22
t-34 -65l-88 -504h-171l90 510q20 115 98.5 177.5t209.5 62.5q59 0 101 -14.5t68 -39.5t35.5 -57t2.5 -68q-6 -38 -34.5 -69.5t-76.5 -53.5z" />
    <glyph glyph-name="agrave" unicode="&#xe0;" horiz-adv-x="680" 
d="M532 665l-33 -65l-165 76l39 88zM316 565q69 0 111.5 -30t54.5 -78l18 101h171l-99 -558h-171l19 101q-29 -48 -80 -78t-118 -30q-54 0 -95 20.5t-66 59.5t-33 95t4 126q11 64 38 114.5t65 85t84.5 53t96.5 18.5zM352 415q-54 0 -94.5 -35t-51.5 -101t16.5 -101t81.5 -35
q53 0 94.5 36t52.5 100q11 65 -17.5 100.5t-81.5 35.5z" />
    <glyph glyph-name="aacute" unicode="&#xe1;" horiz-adv-x="680" 
d="M526 676l-194 -69l-17 60l182 96zM316 565q69 0 111.5 -30t54.5 -78l18 101h171l-99 -558h-171l19 101q-29 -48 -80 -78t-118 -30q-54 0 -95 20.5t-66 59.5t-33 95t4 126q11 64 38 114.5t65 85t84.5 53t96.5 18.5zM352 415q-54 0 -94.5 -35t-51.5 -101t16.5 -101
t81.5 -35q53 0 94.5 36t52.5 100q11 65 -17.5 100.5t-81.5 35.5z" />
    <glyph glyph-name="acircumflex" unicode="&#xe2;" horiz-adv-x="680" 
d="M412 656l-115 -56l-19 70l147 73l120 -73l-36 -70zM316 565q69 0 111.5 -30t54.5 -78l18 101h171l-99 -558h-171l19 101q-29 -48 -80 -78t-118 -30q-54 0 -95 20.5t-66 59.5t-33 95t4 126q11 64 38 114.5t65 85t84.5 53t96.5 18.5zM352 415q-54 0 -94.5 -35t-51.5 -101
t16.5 -101t81.5 -35q53 0 94.5 36t52.5 100q11 65 -17.5 100.5t-81.5 35.5z" />
    <glyph glyph-name="atilde" unicode="&#xe3;" horiz-adv-x="680" 
d="M364 735q20 0 34.5 -6.5t26.5 -14t23.5 -14t25.5 -6.5t26 10.5t19 30.5h72q-23 -66 -57.5 -95t-79.5 -29q-20 0 -34.5 6.5t-26.5 14t-23.5 13.5t-24.5 6q-32 0 -46 -41h-71q23 68 57 96.5t79 28.5zM316 565q69 0 111.5 -30t54.5 -78l18 101h171l-99 -558h-171l19 101
q-29 -48 -80 -78t-118 -30q-54 0 -95 20.5t-66 59.5t-33 95t4 126q11 64 38 114.5t65 85t84.5 53t96.5 18.5zM352 415q-54 0 -94.5 -35t-51.5 -101t16.5 -101t81.5 -35q53 0 94.5 36t52.5 100q11 65 -17.5 100.5t-81.5 35.5z" />
    <glyph glyph-name="adieresis" unicode="&#xe4;" horiz-adv-x="679" 
d="M221 693q6 32 30 52.5t54 20.5q32 0 49 -20.5t11 -52.5q-5 -30 -29.5 -50.5t-55.5 -20.5q-30 0 -47 20.5t-12 50.5zM424 693q5 32 29 52.5t54 20.5q32 0 49 -20.5t11 -52.5q-5 -30 -29 -50.5t-56 -20.5q-30 0 -47 20.5t-11 50.5zM316 565q69 0 111.5 -30t54.5 -78l18 101
h171l-99 -558h-171l19 101q-29 -48 -80 -78t-118 -30q-54 0 -95 20.5t-66 59.5t-33 95t4 126q11 64 38 114.5t65 85t84.5 53t96.5 18.5zM352 415q-54 0 -94.5 -35t-51.5 -101t16.5 -101t81.5 -35q53 0 94.5 36t52.5 100q11 65 -17.5 100.5t-81.5 35.5z" />
    <glyph glyph-name="aring" unicode="&#xe5;" horiz-adv-x="679" 
d="M394 842q51 0 80.5 -32.5t20.5 -89.5q-5 -28 -18.5 -50.5t-33 -38t-43 -24t-48.5 -8.5q-51 0 -80.5 32t-19.5 89q5 29 18 51.5t32.5 38t43 24t48.5 8.5zM382 773q-22 0 -39 -14t-22 -39q-5 -24 7.5 -38.5t35.5 -14.5q22 0 39 14.5t22 38.5q5 25 -7.5 39t-35.5 14z
M316 565q69 0 111.5 -30t54.5 -78l18 101h171l-99 -558h-171l19 101q-29 -48 -80 -78t-118 -30q-54 0 -95 20.5t-66 59.5t-33 95t4 126q11 64 38 114.5t65 85t84.5 53t96.5 18.5zM352 415q-54 0 -94.5 -35t-51.5 -101t16.5 -101t81.5 -35q53 0 94.5 36t52.5 100
q11 65 -17.5 100.5t-81.5 35.5z" />
    <glyph glyph-name="ae" unicode="&#xe6;" horiz-adv-x="1077" 
d="M854 565q55 0 96 -19.5t66 -55.5t33.5 -86t-2.5 -110q-4 -24 -13 -46h-415q-3 -33 3.5 -56t20 -37t33 -20.5t42.5 -6.5q45 0 76 19t46 51h181q-16 -44 -42.5 -81.5t-61.5 -65t-76.5 -43t-87.5 -15.5q-67 0 -110 28t-55 81l-18 -102h-171l18 101q-29 -48 -80 -78t-117 -30
q-51 0 -91.5 19.5t-66.5 56.5t-35 90t3 120q12 68 40 121t66.5 89.5t86 56t98.5 19.5q66 0 106.5 -30t52.5 -78l18 101h170l-18 -101q29 52 82 80t122 28zM878 320q6 29 0 49.5t-21 34t-36 20t-45 6.5q-46 0 -86.5 -24.5t-57.5 -85.5h246zM449 279q11 65 -17.5 100.5
t-81.5 35.5q-54 0 -94.5 -35t-51.5 -101q-12 -66 16 -101t82 -35q53 0 94 36t53 100z" />
    <glyph glyph-name="ccedilla" unicode="&#xe7;" horiz-adv-x="615" 
d="M285 140q38 0 66 20.5t42 55.5h181q-32 -92 -100.5 -148.5t-159.5 -70.5l-7 -40q21 1 43 -4.5t38.5 -19t25 -35.5t2.5 -54q-6 -31 -22 -52.5t-38 -34.5t-48 -18.5t-51 -5.5h-146l16 90h127q42 0 47 26q2 13 -6.5 21t-30.5 8h-73l22 119q-50 8 -89 31.5t-63 61.5t-32 89.5
t3 114.5q11 64 40.5 114t72.5 85t96.5 53.5t113.5 18.5q112 0 176.5 -59t65.5 -164h-182q-2 35 -23 55.5t-59 20.5q-43 0 -79 -33.5t-49 -105.5t12 -105.5t68 -33.5z" />
    <glyph glyph-name="egrave" unicode="&#xe8;" horiz-adv-x="620" 
d="M469 600l-165 76l39 88l159 -99zM361 565q63 0 111 -19.5t78 -55.5t41 -86t0 -110q-4 -24 -13 -46h-387q-4 -34 1 -56.5t17 -36t29.5 -19.5t37.5 -6q38 0 66 19.5t42 48.5h181q-16 -44 -45 -81.5t-68 -65t-87.5 -43t-104.5 -15.5q-61 0 -109.5 20t-79 58t-41.5 92.5
t1 123.5q12 65 42 116.5t73.5 87.5t98.5 55t116 19zM422 320q6 29 1 50t-17.5 34.5t-30.5 19.5t-38 6q-45 0 -81.5 -26.5t-51.5 -83.5h218z" />
    <glyph glyph-name="eacute" unicode="&#xe9;" horiz-adv-x="620" 
d="M302 607l-17 60l182 96l29 -87zM361 565q63 0 111 -19.5t78 -55.5t41 -86t0 -110q-4 -24 -13 -46h-387q-4 -34 1 -56.5t17 -36t29.5 -19.5t37.5 -6q38 0 66 19.5t42 48.5h181q-16 -44 -45 -81.5t-68 -65t-87.5 -43t-104.5 -15.5q-61 0 -109.5 20t-79 58t-41.5 92.5
t1 123.5q12 65 42 116.5t73.5 87.5t98.5 55t116 19zM422 320q6 29 1 50t-17.5 34.5t-30.5 19.5t-38 6q-45 0 -81.5 -26.5t-51.5 -83.5h218z" />
    <glyph glyph-name="ecircumflex" unicode="&#xea;" horiz-adv-x="620" 
d="M267 600l-19 70l147 73l120 -73l-36 -70l-97 56zM361 565q63 0 111 -19.5t78 -55.5t41 -86t0 -110q-4 -24 -13 -46h-387q-4 -34 1 -56.5t17 -36t29.5 -19.5t37.5 -6q38 0 66 19.5t42 48.5h181q-16 -44 -45 -81.5t-68 -65t-87.5 -43t-104.5 -15.5q-61 0 -109.5 20t-79 58
t-41.5 92.5t1 123.5q12 65 42 116.5t73.5 87.5t98.5 55t116 19zM422 320q6 29 1 50t-17.5 34.5t-30.5 19.5t-38 6q-45 0 -81.5 -26.5t-51.5 -83.5h218z" />
    <glyph glyph-name="edieresis" unicode="&#xeb;" horiz-adv-x="618" 
d="M258 622q-30 0 -47 20.5t-12 50.5q6 32 30 52.5t54 20.5q32 0 49 -20.5t11 -52.5q-5 -30 -29.5 -50.5t-55.5 -20.5zM460 622q-30 0 -47 20.5t-11 50.5q5 32 29 52.5t54 20.5q32 0 49 -20.5t11 -52.5q-5 -30 -29 -50.5t-56 -20.5zM361 565q63 0 111 -19.5t78 -55.5t41 -86
t0 -110q-4 -24 -13 -46h-387q-4 -34 1 -56.5t17 -36t29.5 -19.5t37.5 -6q38 0 66 19.5t42 48.5h181q-16 -44 -45 -81.5t-68 -65t-87.5 -43t-104.5 -15.5q-61 0 -109.5 20t-79 58t-41.5 92.5t1 123.5q12 65 42 116.5t73.5 87.5t98.5 55t116 19zM422 320q6 29 1 50t-17.5 34.5
t-30.5 19.5t-38 6q-45 0 -81.5 -26.5t-51.5 -83.5h218z" />
    <glyph glyph-name="igrave" unicode="&#xec;" horiz-adv-x="282" 
d="M332 665l-33 -65l-165 76l39 88zM276 558l-99 -558h-171l98 558h172z" />
    <glyph glyph-name="iacute" unicode="&#xed;" horiz-adv-x="282" 
d="M326 676l-194 -69l-17 60l182 96zM276 558l-99 -558h-171l98 558h172z" />
    <glyph glyph-name="icircumflex" unicode="&#xee;" horiz-adv-x="282" 
d="M212 656l-115 -56l-19 70l147 73l120 -73l-36 -70zM276 558l-99 -558h-171l98 558h172z" />
    <glyph glyph-name="idieresis" unicode="&#xef;" horiz-adv-x="289" 
d="M59 693q6 32 30 52.5t54 20.5q32 0 49 -20.5t11 -52.5q-5 -30 -29.5 -50.5t-55.5 -20.5q-30 0 -47 20.5t-12 50.5zM262 693q5 32 29 52.5t54 20.5q32 0 49 -20.5t11 -52.5q-5 -30 -29 -50.5t-56 -20.5q-30 0 -47 20.5t-11 50.5zM276 558l-99 -558h-171l98 558h172z" />
    <glyph glyph-name="eth" unicode="&#xf0;" horiz-adv-x="636" 
d="M546 663q46 -75 64.5 -163.5t1.5 -184.5q-14 -79 -47 -139t-79 -100.5t-102 -61t-116 -20.5q-61 0 -111.5 20.5t-84 58.5t-47.5 91.5t-2 120.5q12 65 42 116.5t73 87.5t97 55.5t113 19.5q34 0 64 -13.5t48 -42.5q-10 61 -38 119l-113 -33l10 59l75 22q-12 17 -25.5 33.5
t-29.5 31.5h150l13 -15t12 -15l95 27l-11 -59zM431 279q6 36 0.5 62t-19 42.5t-32.5 24.5t-40 8q-23 0 -45.5 -7.5t-42 -23.5t-34.5 -41.5t-21 -60.5q-6 -36 0 -63t20 -44t34.5 -25.5t43.5 -8.5q22 0 43.5 8t40 25t32.5 42.5t20 61.5z" />
    <glyph glyph-name="ntilde" unicode="&#xf1;" horiz-adv-x="676" 
d="M343 651q-32 0 -46 -41h-71q23 68 57 96.5t79 28.5q20 0 34.5 -6.5t26.5 -14t23.5 -14t25.5 -6.5t26 10.5t19 30.5h72q-23 -66 -57.5 -95t-79.5 -29q-20 0 -34.5 6.5t-26.5 14t-23.5 13.5t-24.5 6zM463 564q96 0 141 -63t25 -177l-57 -324h-170l53 304q10 57 -14 88
t-74 31q-51 0 -87 -32t-47 -95l-52 -296h-172l98 558h172l-18 -100q32 48 84 77t118 29z" />
    <glyph glyph-name="ograve" unicode="&#xf2;" horiz-adv-x="640" 
d="M512 665l-33 -65l-165 76l39 88zM366 565q63 0 113.5 -20.5t83.5 -59.5t46 -94.5t1 -126.5q-12 -63 -42.5 -113.5t-75 -85.5t-99.5 -53.5t-116 -18.5q-64 0 -115 20.5t-84 59.5t-46 95t-1 126q11 64 42 114t75.5 85t100.5 53.5t117 18.5zM344 417q-22 0 -44.5 -8
t-41.5 -25t-33 -43t-20 -62t-1.5 -61.5t17.5 -42.5t32.5 -25t42.5 -8t45 8t41 25t33.5 42.5t20.5 61.5t1 62t-18 43t-32.5 25t-42.5 8z" />
    <glyph glyph-name="oacute" unicode="&#xf3;" horiz-adv-x="640" 
d="M506 676l-194 -69l-17 60l182 96zM366 565q63 0 113.5 -20.5t83.5 -59.5t46 -94.5t1 -126.5q-12 -63 -42.5 -113.5t-75 -85.5t-99.5 -53.5t-116 -18.5q-64 0 -115 20.5t-84 59.5t-46 95t-1 126q11 64 42 114t75.5 85t100.5 53.5t117 18.5zM344 417q-22 0 -44.5 -8
t-41.5 -25t-33 -43t-20 -62t-1.5 -61.5t17.5 -42.5t32.5 -25t42.5 -8t45 8t41 25t33.5 42.5t20.5 61.5t1 62t-18 43t-32.5 25t-42.5 8z" />
    <glyph glyph-name="ocircumflex" unicode="&#xf4;" horiz-adv-x="640" 
d="M392 656l-115 -56l-19 70l147 73l120 -73l-36 -70zM366 565q63 0 113.5 -20.5t83.5 -59.5t46 -94.5t1 -126.5q-12 -63 -42.5 -113.5t-75 -85.5t-99.5 -53.5t-116 -18.5q-64 0 -115 20.5t-84 59.5t-46 95t-1 126q11 64 42 114t75.5 85t100.5 53.5t117 18.5zM344 417
q-22 0 -44.5 -8t-41.5 -25t-33 -43t-20 -62t-1.5 -61.5t17.5 -42.5t32.5 -25t42.5 -8t45 8t41 25t33.5 42.5t20.5 61.5t1 62t-18 43t-32.5 25t-42.5 8z" />
    <glyph glyph-name="otilde" unicode="&#xf5;" horiz-adv-x="640" 
d="M344 735q20 0 34.5 -6.5t26.5 -14t23.5 -14t25.5 -6.5t26 10.5t19 30.5h72q-23 -66 -57.5 -95t-79.5 -29q-20 0 -34.5 6.5t-26.5 14t-23.5 13.5t-24.5 6q-32 0 -46 -41h-71q23 68 57 96.5t79 28.5zM366 565q63 0 113.5 -20.5t83.5 -59.5t46 -94.5t1 -126.5
q-12 -63 -42.5 -113.5t-75 -85.5t-99.5 -53.5t-116 -18.5q-64 0 -115 20.5t-84 59.5t-46 95t-1 126q11 64 42 114t75.5 85t100.5 53.5t117 18.5zM344 417q-22 0 -44.5 -8t-41.5 -25t-33 -43t-20 -62t-1.5 -61.5t17.5 -42.5t32.5 -25t42.5 -8t45 8t41 25t33.5 42.5t20.5 61.5
t1 62t-18 43t-32.5 25t-42.5 8z" />
    <glyph glyph-name="odieresis" unicode="&#xf6;" horiz-adv-x="640" 
d="M216 693q6 32 30 52.5t54 20.5q32 0 49 -20.5t11 -52.5q-5 -30 -29.5 -50.5t-55.5 -20.5q-30 0 -47 20.5t-12 50.5zM419 693q5 32 29 52.5t54 20.5q32 0 49 -20.5t11 -52.5q-5 -30 -29 -50.5t-56 -20.5q-30 0 -47 20.5t-11 50.5zM366 565q63 0 113.5 -20.5t83.5 -59.5
t46 -94.5t1 -126.5q-12 -63 -42.5 -113.5t-75 -85.5t-99.5 -53.5t-116 -18.5q-64 0 -115 20.5t-84 59.5t-46 95t-1 126q11 64 42 114t75.5 85t100.5 53.5t117 18.5zM344 417q-22 0 -44.5 -8t-41.5 -25t-33 -43t-20 -62t-1.5 -61.5t17.5 -42.5t32.5 -25t42.5 -8t45 8t41 25
t33.5 42.5t20.5 61.5t1 62t-18 43t-32.5 25t-42.5 8z" />
    <glyph glyph-name="divide" unicode="&#xf7;" horiz-adv-x="561" 
d="M423 665l-30 -171h-177l30 171h177zM549 428l-27 -155h-511l28 155h510zM343 208l-30 -172h-178l30 172h178z" />
    <glyph glyph-name="oslash" unicode="&#xf8;" horiz-adv-x="628" 
d="M567 473q28 -38 38 -90.5t-1 -118.5q-12 -63 -42.5 -113.5t-75 -85.5t-99.5 -53.5t-116 -18.5q-52 0 -95 13.5t-76 39.5l-50 -46h-83l95 86q-28 39 -38 91t1 117q11 64 42 114t75.5 85t100.5 53.5t117 18.5q102 0 168 -52l50 45h82zM199 279q-7 -40 0 -67l202 184
q-25 21 -63 21q-22 0 -44.5 -8t-41.5 -25t-33 -43t-20 -62zM430 279q4 20 3.5 37.5t-3.5 31.5l-203 -186q26 -20 63 -20q23 0 45 8t41 25t33.5 42.5t20.5 61.5z" />
    <glyph glyph-name="ugrave" unicode="&#xf9;" horiz-adv-x="665" 
d="M492 600l-165 76l39 88l159 -99zM656 558l-98 -558h-172l18 102q-32 -49 -84 -78.5t-118 -29.5q-96 0 -141 63t-25 177l57 324h170l-53 -303q-10 -58 14 -89t74 -31q51 0 87 32t47 95l52 296h172z" />
    <glyph glyph-name="uacute" unicode="&#xfa;" horiz-adv-x="665" 
d="M325 607l-17 60l182 96l29 -87zM656 558l-98 -558h-172l18 102q-32 -49 -84 -78.5t-118 -29.5q-96 0 -141 63t-25 177l57 324h170l-53 -303q-10 -58 14 -89t74 -31q51 0 87 32t47 95l52 296h172z" />
    <glyph glyph-name="ucircumflex" unicode="&#xfb;" horiz-adv-x="665" 
d="M290 600l-19 70l147 73l120 -73l-36 -70l-97 56zM656 558l-98 -558h-172l18 102q-32 -49 -84 -78.5t-118 -29.5q-96 0 -141 63t-25 177l57 324h170l-53 -303q-10 -58 14 -89t74 -31q51 0 87 32t47 95l52 296h172z" />
    <glyph glyph-name="udieresis" unicode="&#xfc;" horiz-adv-x="673" 
d="M287 622q-30 0 -47 20.5t-12 50.5q6 32 30 52.5t54 20.5q32 0 49 -20.5t11 -52.5q-5 -30 -29.5 -50.5t-55.5 -20.5zM489 622q-30 0 -47 20.5t-11 50.5q5 32 29 52.5t54 20.5q32 0 49 -20.5t11 -52.5q-5 -30 -29 -50.5t-56 -20.5zM656 558l-98 -558h-172l18 102
q-32 -49 -84 -78.5t-118 -29.5q-96 0 -141 63t-25 177l57 324h170l-53 -303q-10 -58 14 -89t74 -31q51 0 87 32t47 95l52 296h172z" />
    <glyph glyph-name="yacute" unicode="&#xfd;" horiz-adv-x="626" 
d="M499 676l-194 -69l-17 60l182 96zM224 558l73 -342l185 342h190l-494 -824h-189l183 287l-139 537h191z" />
    <glyph glyph-name="thorn" unicode="&#xfe;" horiz-adv-x="677" 
d="M445 563q55 0 97.5 -21t69 -58.5t36.5 -90.5t-1 -117q-11 -69 -38.5 -122t-66.5 -88.5t-86 -53.5t-97 -18q-63 0 -103 24.5t-60 71.5l-62 -356h-171l177 1006h171l-46 -263q68 86 180 86zM329 143q23 0 46.5 7.5t43 23.5t34.5 41.5t21 60.5t0 61t-20 43t-34.5 25.5
t-43.5 8.5q-22 0 -45.5 -8t-44 -24.5t-35.5 -42t-21 -60.5t0 -60.5t20.5 -42.5t35 -25t43.5 -8z" />
    <glyph glyph-name="ydieresis" unicode="&#xff;" horiz-adv-x="634" 
d="M206 693q6 32 30 52.5t54 20.5q32 0 49 -20.5t11 -52.5q-5 -30 -29.5 -50.5t-55.5 -20.5q-30 0 -47 20.5t-12 50.5zM409 693q5 32 29 52.5t54 20.5q32 0 49 -20.5t11 -52.5q-5 -30 -29 -50.5t-56 -20.5q-30 0 -47 20.5t-11 50.5zM224 558l73 -342l185 342h190l-494 -824
h-189l183 287l-139 537h191z" />
    <glyph glyph-name="Amacron" unicode="&#x100;" horiz-adv-x="730" 
d="M649 780h-401l21 115h400zM526 702l135 -702h-181l-21 129h-266l-67 -129h-180l383 702h197zM438 259l-43 262l-135 -262h178z" />
    <glyph glyph-name="amacron" unicode="&#x101;" horiz-adv-x="679" 
d="M592 746l-20 -115h-401l21 115h400zM316 565q69 0 111.5 -30t54.5 -78l18 101h171l-99 -558h-171l19 101q-29 -48 -80 -78t-118 -30q-54 0 -95 20.5t-66 59.5t-33 95t4 126q11 64 38 114.5t65 85t84.5 53t96.5 18.5zM352 415q-54 0 -94.5 -35t-51.5 -101t16.5 -101
t81.5 -35q53 0 94.5 36t52.5 100q11 65 -17.5 100.5t-81.5 35.5z" />
    <glyph glyph-name="Abreve" unicode="&#x102;" horiz-adv-x="730" 
d="M423 753q-66 0 -99.5 39.5t-20.5 112.5l2 12h69q-5 -29 9.5 -45t56.5 -16t63 16t26 45h68l-2 -12q-13 -73 -60 -112.5t-112 -39.5zM459 129h-266l-67 -129h-180l383 702h197l135 -702h-181zM438 259l-43 262l-135 -262h178z" />
    <glyph glyph-name="abreve" unicode="&#x103;" horiz-adv-x="680" 
d="M387 604q-66 0 -99.5 39.5t-20.5 112.5l2 12h69q-5 -29 9.5 -45t56.5 -16t63 16t26 45h68l-2 -12q-13 -73 -60 -112.5t-112 -39.5zM316 565q69 0 111.5 -30t54.5 -78l18 101h171l-99 -558h-171l19 101q-29 -48 -80 -78t-118 -30q-54 0 -95 20.5t-66 59.5t-33 95t4 126
q11 64 38 114.5t65 85t84.5 53t96.5 18.5zM352 415q-54 0 -94.5 -35t-51.5 -101t16.5 -101t81.5 -35q53 0 94.5 36t52.5 100q11 65 -17.5 100.5t-81.5 35.5z" />
    <glyph glyph-name="Aogonek" unicode="&#x104;" horiz-adv-x="730" 
d="M696 -122l-16 -90h-143q-26 0 -50.5 6t-42 20t-26 35.5t-2.5 53.5q11 67 81 99l-21 127h-265l-67 -129h-181l383 702h197l133 -691l-13 -72h-82q-43 0 -49 -30q-3 -15 7.5 -23t30.5 -8h126zM455 259l-43 260l-134 -260h177z" />
    <glyph glyph-name="aogonek" unicode="&#x105;" horiz-adv-x="679" 
d="M436 -88q-3 -15 7.5 -23.5t30.5 -8.5h125l-15 -90h-143q-26 0 -50.5 6.5t-42 20.5t-26 36t-2.5 54q8 41 31 65.5t52 35.5l17 93q-29 -48 -80 -78t-118 -30q-54 0 -95 20.5t-66 59.5t-33 95t4 126q11 64 38 114.5t65 85t84.5 53t96.5 18.5q69 0 111.5 -30t54.5 -78l18 101
h171l-95 -537h5l-14 -80h-82q-20 0 -33.5 -7.5t-15.5 -21.5zM304 143q53 0 94.5 36t52.5 100q11 65 -17.5 100.5t-81.5 35.5q-54 0 -94.5 -35t-51.5 -101t16.5 -101t81.5 -35z" />
    <glyph glyph-name="Cacute" unicode="&#x106;" horiz-adv-x="757" 
d="M591 825l-194 -69l-17 60l182 96zM445 714q69 0 122 -19t90 -53.5t57 -83t22 -107.5h-180q-11 48 -47 76.5t-95 28.5q-37 0 -70 -14t-59.5 -40.5t-45.5 -63.5t-28 -84q-8 -46 -2.5 -83t23.5 -63.5t46.5 -40.5t65.5 -14q58 0 103.5 28t74.5 76h181q-23 -59 -60.5 -107.5
t-86.5 -83t-109 -53.5t-128 -19q-79 0 -138 26.5t-96 74.5t-49.5 114t1.5 145t50 145t89.5 114t121.5 74.5t147 26.5z" />
    <glyph glyph-name="cacute" unicode="&#x107;" horiz-adv-x="619" 
d="M495 676l-194 -69l-17 60l182 96zM355 565q112 0 176.5 -59t65.5 -164h-182q-2 35 -23 55.5t-59 20.5q-43 0 -79 -33.5t-49 -105.5t12 -105.5t68 -33.5q38 0 66 20.5t42 55.5h181q-18 -52 -49 -93.5t-71.5 -70t-89 -44t-102.5 -15.5q-61 0 -109.5 20.5t-79.5 59.5
t-42.5 95t1.5 126q11 64 40.5 114t72.5 85t96.5 53.5t113.5 18.5z" />
    <glyph glyph-name="Cdotaccent" unicode="&#x10a;" horiz-adv-x="757" 
d="M399 842q6 32 30 52.5t54 20.5q32 0 49 -20.5t11 -52.5q-5 -30 -29.5 -50.5t-55.5 -20.5q-30 0 -47 20.5t-12 50.5zM445 714q69 0 122 -19t90 -53.5t57 -83t22 -107.5h-180q-11 48 -47 76.5t-95 28.5q-37 0 -70 -14t-59.5 -40.5t-45.5 -63.5t-28 -84q-8 -46 -2.5 -83
t23.5 -63.5t46.5 -40.5t65.5 -14q58 0 103.5 28t74.5 76h181q-23 -59 -60.5 -107.5t-86.5 -83t-109 -53.5t-128 -19q-79 0 -138 26.5t-96 74.5t-49.5 114t1.5 145t50 145t89.5 114t121.5 74.5t147 26.5z" />
    <glyph glyph-name="cdotaccent" unicode="&#x10b;" horiz-adv-x="615" 
d="M295 693q6 32 30 52.5t54 20.5q32 0 49 -20.5t11 -52.5q-5 -30 -29.5 -50.5t-55.5 -20.5q-30 0 -47 20.5t-12 50.5zM355 565q112 0 176.5 -59t65.5 -164h-182q-2 35 -23 55.5t-59 20.5q-43 0 -79 -33.5t-49 -105.5t12 -105.5t68 -33.5q38 0 66 20.5t42 55.5h181
q-18 -52 -49 -93.5t-71.5 -70t-89 -44t-102.5 -15.5q-61 0 -109.5 20.5t-79.5 59.5t-42.5 95t1.5 126q11 64 40.5 114t72.5 85t96.5 53.5t113.5 18.5z" />
    <glyph glyph-name="Ccaron" unicode="&#x10c;" horiz-adv-x="756" 
d="M622 831l-169 -84l-141 84l20 113l140 -86l170 86zM445 714q69 0 122 -19t90 -53.5t57 -83t22 -107.5h-180q-11 48 -47 76.5t-95 28.5q-37 0 -70 -14t-59.5 -40.5t-45.5 -63.5t-28 -84q-8 -46 -2.5 -83t23.5 -63.5t46.5 -40.5t65.5 -14q58 0 103.5 28t74.5 76h181
q-23 -59 -60.5 -107.5t-86.5 -83t-109 -53.5t-128 -19q-79 0 -138 26.5t-96 74.5t-49.5 114t1.5 145t50 145t89.5 114t121.5 74.5t147 26.5z" />
    <glyph glyph-name="ccaron" unicode="&#x10d;" horiz-adv-x="615" 
d="M518 682l-169 -84l-141 84l20 113l140 -86l170 86zM355 565q112 0 176.5 -59t65.5 -164h-182q-2 35 -23 55.5t-59 20.5q-43 0 -79 -33.5t-49 -105.5t12 -105.5t68 -33.5q38 0 66 20.5t42 55.5h181q-18 -52 -49 -93.5t-71.5 -70t-89 -44t-102.5 -15.5q-61 0 -109.5 20.5
t-79.5 59.5t-42.5 95t1.5 126q11 64 40.5 114t72.5 85t96.5 53.5t113.5 18.5z" />
    <glyph glyph-name="Dcaron" unicode="&#x10e;" horiz-adv-x="733" 
d="M612 831l-169 -84l-141 84l20 113l140 -86l170 86zM695 355q-13 -78 -50 -143t-92.5 -112t-128.5 -73.5t-160 -26.5h-267l124 707h267q87 0 151 -25.5t103 -72t53 -111.5t0 -143zM276 153q100 0 164.5 52.5t81.5 149.5t-29 149.5t-146 52.5h-81l-71 -404h81z" />
    <glyph glyph-name="dcaron" unicode="&#x10f;" horiz-adv-x="810" 
d="M705 740l-131 -740h-171l18 101q-29 -48 -79.5 -78t-117.5 -30q-51 0 -91.5 20.5t-66.5 59.5t-35 95t3 126q11 64 38 114.5t65 85t84.5 53t96.5 18.5q69 0 111 -30t54 -78l50 283h172zM865 740q5 -32 4.5 -61.5t-5.5 -56.5q-11 -66 -53 -109t-114 -43l11 64q53 0 65 67
l3 16h-64l22 123h131zM354 415q-54 0 -94.5 -35t-51.5 -101t16.5 -101t81.5 -35q53 0 94.5 36t52.5 100q11 65 -17.5 100.5t-81.5 35.5z" />
    <glyph glyph-name="Dcroat" unicode="&#x110;" horiz-adv-x="743" 
d="M398 707q87 0 151 -25.5t103 -72t53 -111.5t0 -143q-13 -78 -50 -143t-92.5 -112t-128.5 -73.5t-160 -26.5h-267l50 287h-66l24 136h66l50 284h267zM532 355q17 97 -29 149.5t-146 52.5h-81l-24 -134h156l-24 -136h-155l-24 -134h81q100 0 164.5 52.5t81.5 149.5z" />
    <glyph glyph-name="dcroat" unicode="&#x111;" horiz-adv-x="675" 
d="M723 607h-42l-107 -607h-171l18 101q-29 -48 -79.5 -78t-117.5 -30q-51 0 -91.5 20.5t-66.5 59.5t-35 95t3 126q11 64 38 114.5t65 85t84.5 53t96.5 18.5q69 0 111 -30t54 -78l27 150h-119l14 76h118l10 57h172l-10 -57h41zM453 279q11 65 -17.5 100.5t-81.5 35.5
q-54 0 -94.5 -35t-51.5 -101t16.5 -101t81.5 -35q53 0 94.5 36t52.5 100z" />
    <glyph glyph-name="Emacron" unicode="&#x112;" horiz-adv-x="537" 
d="M577 895l-20 -115h-401l21 115h400zM268 571l-25 -148h238l-23 -129h-239l-27 -157h269l-24 -137h-440l124 707h440l-24 -136h-269z" />
    <glyph glyph-name="emacron" unicode="&#x113;" horiz-adv-x="618" 
d="M564 631h-401l21 115h400zM361 565q63 0 111 -19.5t78 -55.5t41 -86t0 -110q-4 -24 -13 -46h-387q-4 -34 1 -56.5t17 -36t29.5 -19.5t37.5 -6q38 0 66 19.5t42 48.5h181q-16 -44 -45 -81.5t-68 -65t-87.5 -43t-104.5 -15.5q-61 0 -109.5 20t-79 58t-41.5 92.5t1 123.5
q12 65 42 116.5t73.5 87.5t98.5 55t116 19zM422 320q6 29 1 50t-17.5 34.5t-30.5 19.5t-38 6q-45 0 -81.5 -26.5t-51.5 -83.5h218z" />
    <glyph glyph-name="Ebreve" unicode="&#x114;" horiz-adv-x="537" 
d="M341 753q-66 0 -99.5 39.5t-20.5 112.5l2 12h69q-5 -29 9.5 -45t56.5 -16t63 16t26 45h68l-2 -12q-13 -73 -60 -112.5t-112 -39.5zM268 571l-25 -148h238l-23 -129h-239l-27 -157h269l-24 -137h-440l124 707h440l-24 -136h-269z" />
    <glyph glyph-name="ebreve" unicode="&#x115;" horiz-adv-x="620" 
d="M357 604q-66 0 -99.5 39.5t-20.5 112.5l2 12h69q-5 -29 9.5 -45t56.5 -16t63 16t26 45h68l-2 -12q-13 -73 -60 -112.5t-112 -39.5zM361 565q63 0 111 -19.5t78 -55.5t41 -86t0 -110q-4 -24 -13 -46h-387q-4 -34 1 -56.5t17 -36t29.5 -19.5t37.5 -6q38 0 66 19.5t42 48.5
h181q-16 -44 -45 -81.5t-68 -65t-87.5 -43t-104.5 -15.5q-61 0 -109.5 20t-79 58t-41.5 92.5t1 123.5q12 65 42 116.5t73.5 87.5t98.5 55t116 19zM422 320q6 29 1 50t-17.5 34.5t-30.5 19.5t-38 6q-45 0 -81.5 -26.5t-51.5 -83.5h218z" />
    <glyph glyph-name="Edotaccent" unicode="&#x116;" horiz-adv-x="537" 
d="M292 842q6 32 30 52.5t54 20.5q32 0 49 -20.5t11 -52.5q-5 -30 -29.5 -50.5t-55.5 -20.5q-30 0 -47 20.5t-12 50.5zM268 571l-25 -148h238l-23 -129h-239l-27 -157h269l-24 -137h-440l124 707h440l-24 -136h-269z" />
    <glyph glyph-name="edotaccent" unicode="&#x117;" horiz-adv-x="618" 
d="M358 622q-30 0 -47 20.5t-12 50.5q6 32 30 52.5t54 20.5q32 0 49 -20.5t11 -52.5q-5 -30 -29.5 -50.5t-55.5 -20.5zM361 565q63 0 111 -19.5t78 -55.5t41 -86t0 -110q-4 -24 -13 -46h-387q-4 -34 1 -56.5t17 -36t29.5 -19.5t37.5 -6q38 0 66 19.5t42 48.5h181
q-16 -44 -45 -81.5t-68 -65t-87.5 -43t-104.5 -15.5q-61 0 -109.5 20t-79 58t-41.5 92.5t1 123.5q12 65 42 116.5t73.5 87.5t98.5 55t116 19zM422 320q6 29 1 50t-17.5 34.5t-30.5 19.5t-38 6q-45 0 -81.5 -26.5t-51.5 -83.5h218z" />
    <glyph glyph-name="Eogonek" unicode="&#x118;" horiz-adv-x="537" 
d="M268 571l-25 -148h238l-23 -129h-239l-27 -157h269l-24 -137h-4l-1 -3h-82q-20 0 -33.5 -7.5t-15.5 -21.5q-3 -15 7.5 -23.5t30.5 -8.5h125l-15 -90h-143q-26 0 -50.5 6.5t-42 20.5t-26 36t-2.5 54q2 11 5 20t7 17h-200l124 707h440l-24 -136h-269z" />
    <glyph glyph-name="eogonek" unicode="&#x119;" horiz-adv-x="619" 
d="M373 565q63 0 111 -19.5t78 -55.5t41 -86t0 -110q-2 -13 -5 -24t-7 -22h-388q-4 -33 1.5 -55.5t18 -36.5t30 -20t36.5 -6q39 0 66.5 19.5t41.5 48.5h181q-27 -73 -89 -126.5t-146 -70.5q-22 -5 -26 -22q-2 -14 8.5 -22t36.5 -8h111l-15 -90h-136q-26 0 -50 6t-42 20
t-26.5 35.5t-2.5 53.5l5 27q-46 9 -81 32.5t-57 58.5t-29 82.5t3 104.5q12 67 42 120t73.5 90t99 56.5t116.5 19.5zM435 320q6 29 1 50t-17.5 34.5t-30.5 19.5t-38 6q-45 0 -82 -26.5t-51 -83.5h218z" />
    <glyph glyph-name="Ecaron" unicode="&#x11a;" horiz-adv-x="537" 
d="M515 831l-169 -84l-141 84l20 113l140 -86l170 86zM268 571l-25 -148h238l-23 -129h-239l-27 -157h269l-24 -137h-440l124 707h440l-24 -136h-269z" />
    <glyph glyph-name="ecaron" unicode="&#x11b;" horiz-adv-x="618" 
d="M353 598l-141 84l20 113l140 -86l170 86l-20 -113zM361 565q63 0 111 -19.5t78 -55.5t41 -86t0 -110q-4 -24 -13 -46h-387q-4 -34 1 -56.5t17 -36t29.5 -19.5t37.5 -6q38 0 66 19.5t42 48.5h181q-16 -44 -45 -81.5t-68 -65t-87.5 -43t-104.5 -15.5q-61 0 -109.5 20
t-79 58t-41.5 92.5t1 123.5q12 65 42 116.5t73.5 87.5t98.5 55t116 19zM422 320q6 29 1 50t-17.5 34.5t-30.5 19.5t-38 6q-45 0 -81.5 -26.5t-51.5 -83.5h218z" />
    <glyph glyph-name="Gbreve" unicode="&#x11e;" horiz-adv-x="762" 
d="M454 753q-66 0 -99.5 39.5t-20.5 112.5l2 12h69q-5 -29 9.5 -45t56.5 -16t63 16t26 45h68l-2 -12q-13 -73 -60 -112.5t-112 -39.5zM453 714q68 0 119 -18t86.5 -50.5t55 -76.5t23.5 -96h-180q-11 37 -43.5 60t-86.5 23q-40 0 -76 -14t-64 -40.5t-47.5 -63.5t-27.5 -84
q-18 -102 24 -155.5t137 -53.5q60 0 112 33t83 96h-216l22 123h358l-29 -169q-22 -49 -56 -92t-80.5 -74.5t-106 -49.5t-132.5 -18q-81 0 -142 27t-98.5 76t-50.5 116.5t1 148.5q14 77 50 142t90.5 111.5t124 72.5t150.5 26z" />
    <glyph glyph-name="gbreve" unicode="&#x11f;" horiz-adv-x="677" 
d="M386 604q-66 0 -99.5 39.5t-20.5 112.5l2 12h69q-5 -29 9.5 -45t56.5 -16t63 16t26 45h68l-2 -12q-13 -73 -60 -112.5t-112 -39.5zM223 -7q-51 0 -91.5 20.5t-66.5 59.5t-35 95t3 126q11 64 38 114.5t65 85t84.5 53t96.5 18.5q69 0 111.5 -29.5t54.5 -78.5l18 101h170
l-98 -555q-10 -57 -34.5 -107t-64.5 -88t-94.5 -60t-123.5 -22q-127 0 -192.5 60.5t-68.5 160.5h169q3 -34 27.5 -53t71.5 -19q24 0 46.5 6.5t41 21.5t32.5 39.5t20 60.5l18 98q-29 -48 -80 -78t-118 -30zM353 415q-54 0 -94.5 -35t-51.5 -101q-12 -65 16 -100.5t82 -35.5
q53 0 94.5 36t52.5 100q11 65 -17.5 100.5t-81.5 35.5z" />
    <glyph glyph-name="Gdotaccent" unicode="&#x120;" horiz-adv-x="762" 
d="M395 842q6 32 30 52.5t54 20.5q32 0 49 -20.5t11 -52.5q-5 -30 -29.5 -50.5t-55.5 -20.5q-30 0 -47 20.5t-12 50.5zM453 714q68 0 119 -18t86.5 -50.5t55 -76.5t23.5 -96h-180q-11 37 -43.5 60t-86.5 23q-40 0 -76 -14t-64 -40.5t-47.5 -63.5t-27.5 -84
q-18 -102 24 -155.5t137 -53.5q60 0 112 33t83 96h-216l22 123h358l-29 -169q-22 -49 -56 -92t-80.5 -74.5t-106 -49.5t-132.5 -18q-81 0 -142 27t-98.5 76t-50.5 116.5t1 148.5q14 77 50 142t90.5 111.5t124 72.5t150.5 26z" />
    <glyph glyph-name="gdotaccent" unicode="&#x121;" horiz-adv-x="678" 
d="M337 693q6 32 30 52.5t54 20.5q32 0 49 -20.5t11 -52.5q-5 -30 -29.5 -50.5t-55.5 -20.5q-30 0 -47 20.5t-12 50.5zM223 -7q-51 0 -91.5 20.5t-66.5 59.5t-35 95t3 126q11 64 38 114.5t65 85t84.5 53t96.5 18.5q69 0 111.5 -29.5t54.5 -78.5l18 101h170l-98 -555
q-10 -57 -34.5 -107t-64.5 -88t-94.5 -60t-123.5 -22q-127 0 -192.5 60.5t-68.5 160.5h169q3 -34 27.5 -53t71.5 -19q24 0 46.5 6.5t41 21.5t32.5 39.5t20 60.5l18 98q-29 -48 -80 -78t-118 -30zM353 415q-54 0 -94.5 -35t-51.5 -101q-12 -65 16 -100.5t82 -35.5
q53 0 94.5 36t52.5 100q11 65 -17.5 100.5t-81.5 35.5z" />
    <glyph glyph-name="Gcommaaccent" unicode="&#x122;" horiz-adv-x="766" 
d="M452 714q68 0 119 -18t86.5 -50.5t55 -76.5t23.5 -96h-180q-11 37 -43.5 60t-86.5 23q-40 0 -76 -14t-64 -40.5t-47.5 -63.5t-27.5 -84q-18 -102 24 -155.5t137 -53.5q60 0 112 33t83 96h-216l22 123h358l-29 -169q-22 -49 -56 -92t-80.5 -74.5t-106 -49.5t-132.5 -18
q-81 0 -142 27t-98.5 76t-50.5 116.5t1 148.5q14 77 50 142t90.5 111.5t124 72.5t150.5 26zM405 -41q9 -58 0 -109q-12 -68 -53.5 -111t-113.5 -43l11 63q52 0 65 70l1 10h-61l21 120h130z" />
    <glyph glyph-name="gcommaaccent" unicode="&#x123;" horiz-adv-x="677" 
d="M345 598q-5 32 -4.5 61.5t5.5 56.5q12 66 53.5 109t113.5 43l-12 -64q-52 0 -64 -67l-3 -16h64l-22 -123h-131zM207 -7q-51 0 -91.5 20.5t-66.5 59.5t-35 95t3 126q11 64 38 114.5t65 85t84.5 53t96.5 18.5q69 0 111.5 -29.5t54.5 -78.5l18 101h170l-98 -555
q-10 -57 -34.5 -107t-64.5 -88t-94.5 -60t-123.5 -22q-127 0 -192.5 60.5t-68.5 160.5h169q3 -34 27.5 -53t71.5 -19q24 0 46.5 6.5t41 21.5t32.5 39.5t20 60.5l18 98q-29 -48 -80 -78t-118 -30zM337 415q-54 0 -94.5 -35t-51.5 -101q-12 -65 16 -100.5t82 -35.5
q53 0 94.5 36t52.5 100q11 65 -17.5 100.5t-81.5 35.5z" />
    <glyph glyph-name="Itilde" unicode="&#x128;" horiz-adv-x="289" 
d="M194 884q20 0 34.5 -6.5t26.5 -14t23.5 -14t25.5 -6.5t26 10.5t19 30.5h72q-23 -66 -57.5 -95t-79.5 -29q-20 0 -34.5 6.5t-26.5 14t-23.5 13.5t-24.5 6q-32 0 -46 -41h-71q23 68 57 96.5t79 28.5zM292 707l-124 -707h-171l124 707h171z" />
    <glyph glyph-name="itilde" unicode="&#x129;" horiz-adv-x="282" 
d="M164 735q20 0 34.5 -6.5t26.5 -14t23.5 -14t25.5 -6.5t26 10.5t19 30.5h72q-23 -66 -57.5 -95t-79.5 -29q-20 0 -34.5 6.5t-26.5 14t-23.5 13.5t-24.5 6q-32 0 -46 -41h-71q23 68 57 96.5t79 28.5zM276 558l-99 -558h-171l98 558h172z" />
    <glyph glyph-name="Imacron" unicode="&#x12a;" horiz-adv-x="289" 
d="M450 895l-20 -115h-401l21 115h400zM292 707l-124 -707h-171l124 707h171z" />
    <glyph glyph-name="imacron" unicode="&#x12b;" horiz-adv-x="297" 
d="M429 746l-20 -115h-401l21 115h400zM276 558l-99 -558h-171l98 558h172z" />
    <glyph glyph-name="Ibreve" unicode="&#x12c;" horiz-adv-x="289" 
d="M217 753q-66 0 -99.5 39.5t-20.5 112.5l2 12h69q-5 -29 9.5 -45t56.5 -16t63 16t26 45h68l-2 -12q-13 -73 -60 -112.5t-112 -39.5zM292 707l-124 -707h-171l124 707h171z" />
    <glyph glyph-name="ibreve" unicode="&#x12d;" horiz-adv-x="282" 
d="M187 604q-66 0 -99.5 39.5t-20.5 112.5l2 12h69q-5 -29 9.5 -45t56.5 -16t63 16t26 45h68l-2 -12q-13 -73 -60 -112.5t-112 -39.5zM276 558l-99 -558h-171l98 558h172z" />
    <glyph glyph-name="Iogonek" unicode="&#x12e;" horiz-adv-x="288" 
d="M26 -88q-3 -15 7.5 -23.5t30.5 -8.5h125l-15 -90h-143q-26 0 -50.5 6.5t-42 20.5t-26 36t-2.5 54q8 43 33 68t56 36l122 696h171l-124 -707h-1l-10 -59h-82q-20 0 -33.5 -7.5t-15.5 -21.5z" />
    <glyph glyph-name="iogonek" unicode="&#x12f;" horiz-adv-x="282" 
d="M237 805q47 0 70 -26t16 -64q-6 -38 -38 -63.5t-79 -25.5q-48 0 -71 25.5t-16 63.5t39 64t79 26zM85 -59q-20 0 -33.5 -7.5t-15.5 -21.5q-3 -15 7.5 -23.5t30.5 -8.5h125l-15 -90h-143q-26 0 -50.5 6.5t-42 20.5t-26 36t-2.5 54q8 44 33.5 69t57.5 36l96 546h172
l-99 -558h-3l-10 -59h-82z" />
    <glyph glyph-name="Idotaccent" unicode="&#x130;" horiz-adv-x="289" 
d="M165 842q6 32 30 52.5t54 20.5q32 0 49 -20.5t11 -52.5q-5 -30 -29.5 -50.5t-55.5 -20.5q-30 0 -47 20.5t-12 50.5zM292 707l-124 -707h-171l124 707h171z" />
    <glyph glyph-name="dotlessi" unicode="&#x131;" horiz-adv-x="282" 
d="M276 558l-99 -558h-171l98 558h172z" />
    <glyph glyph-name="Kcommaaccent" unicode="&#x136;" horiz-adv-x="685" 
d="M390 361l222 -361h-207l-184 318l-56 -318h-171l124 707h171l-55 -312l297 312h205zM381 -41q5 -29 4.5 -56t-5.5 -53q-11 -68 -53 -111t-113 -43l11 63q52 0 65 70l1 10h-61l21 120h130z" />
    <glyph glyph-name="kcommaaccent" unicode="&#x137;" horiz-adv-x="606" 
d="M368 285l173 -285h-198l-124 242l-43 -242h-171l130 740h172l-71 -399l205 217h201zM310 -41q5 -29 4.5 -56t-4.5 -53q-12 -68 -54 -111t-113 -43l12 63q52 0 64 70l2 10h-62l21 120h130z" />
    <glyph glyph-name="Lacute" unicode="&#x139;" horiz-adv-x="478" 
d="M451 825l-194 -69l-17 60l182 96zM191 131h228l-23 -131h-399l124 707h171z" />
    <glyph glyph-name="lacute" unicode="&#x13a;" horiz-adv-x="285" 
d="M299 665l-117 -665h-172l114 647l-6 20l10 5l12 68h116l44 23l8 -23h4l-1 -9l18 -55z" />
    <glyph glyph-name="Lcommaaccent" unicode="&#x13b;" horiz-adv-x="482" 
d="M188 131h228l-23 -131h-399l124 707h171zM296 -41q10 -56 1 -109q-12 -68 -54 -111t-113 -43l10 63q52 0 65 70l2 10h-62l21 120h130z" />
    <glyph glyph-name="lcommaaccent" unicode="&#x13c;" horiz-adv-x="288" 
d="M314 740l-130 -740h-172l130 740h172zM166 -41q5 -29 4.5 -56t-4.5 -53q-12 -68 -54 -111t-112 -43l11 63q52 0 64 70l2 10h-62l21 120h130z" />
    <glyph glyph-name="Lcaron" unicode="&#x13d;" horiz-adv-x="532" 
d="M188 131h228l-23 -131h-399l124 707h171zM528 707q5 -32 4 -61.5t-6 -56.5q-11 -66 -52.5 -109t-113.5 -43l11 64q53 0 65 67l2 16h-63l22 123h131z" />
    <glyph glyph-name="lcaron" unicode="&#x13e;" horiz-adv-x="420" 
d="M308 740l-130 -740h-172l130 740h172zM485 740q5 -32 4.5 -61.5t-5.5 -56.5q-11 -66 -53 -109t-113 -43l11 64q52 0 64 67l3 16h-63l21 123h131z" />
    <glyph glyph-name="Ldot" unicode="&#x13f;" horiz-adv-x="478" 
d="M191 131h228l-23 -131h-399l124 707h171zM297 353q6 32 30 52.5t54 20.5q32 0 49 -20.5t11 -52.5q-5 -30 -29.5 -50.5t-55.5 -20.5q-30 0 -47 20.5t-12 50.5z" />
    <glyph glyph-name="ldot" unicode="&#x140;" horiz-adv-x="402" 
d="M312 740l-130 -740h-172l130 740h172zM285 369q6 32 30 52.5t54 20.5q32 0 49 -20.5t11 -52.5q-5 -30 -29.5 -50.5t-55.5 -20.5q-30 0 -47 20.5t-12 50.5z" />
    <glyph glyph-name="Lslash" unicode="&#x141;" horiz-adv-x="495" 
d="M435 131l-23 -131h-399l46 264l-68 -20l29 167l69 21l48 275h172l-39 -221l102 31l-30 -168l-102 -30l-33 -188h228z" />
    <glyph glyph-name="lslash" unicode="&#x142;" horiz-adv-x="294" 
d="M314 371l-74 -22l-61 -349h-172l52 293l-74 -22l30 167l73 22l50 280h171l-39 -225l74 23z" />
    <glyph glyph-name="Nacute" unicode="&#x143;" horiz-adv-x="746" 
d="M585 825l-194 -69l-17 60l182 96zM625 0h-171l-210 434l-76 -434h-171l124 707h171l209 -438l77 438h171z" />
    <glyph glyph-name="nacute" unicode="&#x144;" horiz-adv-x="676" 
d="M330 607l-17 60l182 96l29 -87zM463 564q96 0 141 -63t25 -177l-57 -324h-170l53 304q10 57 -14 88t-74 31q-51 0 -87 -32t-47 -95l-52 -296h-172l98 558h172l-18 -100q32 48 84 77t118 29z" />
    <glyph glyph-name="Ncommaaccent" unicode="&#x145;" horiz-adv-x="748" 
d="M623 0h-171l-210 434l-76 -434h-171l124 707h171l209 -438l77 438h171zM406 -41q11 -58 0 -109q-11 -68 -53 -111t-114 -43l12 63q52 0 64 70l2 10h-62l21 120h130z" />
    <glyph glyph-name="ncommaaccent" unicode="&#x146;" horiz-adv-x="676" 
d="M462 564q96 0 141 -63t25 -177l-57 -324h-170l53 304q10 57 -14 88t-74 31q-51 0 -87 -32t-47 -95l-52 -296h-172l98 558h172l-18 -100q32 48 84 77t118 29zM383 -41q6 -29 5.5 -56t-5.5 -53q-12 -68 -53.5 -111t-112.5 -43l11 63q52 0 64 70l2 10h-62l22 120h129z" />
    <glyph glyph-name="Ncaron" unicode="&#x147;" horiz-adv-x="746" 
d="M608 831l-169 -84l-141 84l20 113l140 -86l170 86zM625 0h-171l-210 434l-76 -434h-171l124 707h171l209 -438l77 438h171z" />
    <glyph glyph-name="ncaron" unicode="&#x148;" horiz-adv-x="677" 
d="M390 598l-141 84l20 113l140 -86l170 86l-20 -113zM463 564q96 0 141 -63t25 -177l-57 -324h-170l53 304q10 57 -14 88t-74 31q-51 0 -87 -32t-47 -95l-52 -296h-172l98 558h172l-18 -100q32 48 84 77t118 29z" />
    <glyph glyph-name="Omacron" unicode="&#x14c;" 
d="M694 895l-20 -115h-401l21 115h400zM431 718q85 0 149 -29t104.5 -81t54.5 -124t-1 -158q-13 -73 -46.5 -134.5t-84 -105.5t-116.5 -68.5t-143 -24.5q-87 0 -152 29t-105 81t-53.5 124.5t1.5 158.5q13 73 47 134t84.5 105t116.5 68.5t144 24.5zM418 559q-81 0 -138 -52.5
t-74 -143.5q-17 -97 24.5 -153.5t130.5 -56.5q40 0 75 13.5t62.5 39t46.5 61.5t27 81q17 98 -24.5 154.5t-129.5 56.5z" />
    <glyph glyph-name="omacron" unicode="&#x14d;" horiz-adv-x="640" 
d="M601 746l-20 -115h-401l21 115h400zM366 565q63 0 113.5 -20.5t83.5 -59.5t46 -94.5t1 -126.5q-12 -63 -42.5 -113.5t-75 -85.5t-99.5 -53.5t-116 -18.5q-64 0 -115 20.5t-84 59.5t-46 95t-1 126q11 64 42 114t75.5 85t100.5 53.5t117 18.5zM344 417q-22 0 -44.5 -8
t-41.5 -25t-33 -43t-20 -62t-1.5 -61.5t17.5 -42.5t32.5 -25t42.5 -8t45 8t41 25t33.5 42.5t20.5 61.5t1 62t-18 43t-32.5 25t-42.5 8z" />
    <glyph glyph-name="Obreve" unicode="&#x14e;" 
d="M437 753q-66 0 -99.5 39.5t-20.5 112.5l2 12h69q-5 -29 9.5 -45t56.5 -16t63 16t26 45h68l-2 -12q-13 -73 -60 -112.5t-112 -39.5zM431 718q85 0 149 -29t104.5 -81t54.5 -124t-1 -158q-13 -73 -46.5 -134.5t-84 -105.5t-116.5 -68.5t-143 -24.5q-87 0 -152 29t-105 81
t-53.5 124.5t1.5 158.5q13 73 47 134t84.5 105t116.5 68.5t144 24.5zM418 559q-81 0 -138 -52.5t-74 -143.5q-17 -97 24.5 -153.5t130.5 -56.5q40 0 75 13.5t62.5 39t46.5 61.5t27 81q17 98 -24.5 154.5t-129.5 56.5z" />
    <glyph glyph-name="obreve" unicode="&#x14f;" horiz-adv-x="640" 
d="M367 604q-66 0 -99.5 39.5t-20.5 112.5l2 12h69q-5 -29 9.5 -45t56.5 -16t63 16t26 45h68l-2 -12q-13 -73 -60 -112.5t-112 -39.5zM366 565q63 0 113.5 -20.5t83.5 -59.5t46 -94.5t1 -126.5q-12 -63 -42.5 -113.5t-75 -85.5t-99.5 -53.5t-116 -18.5q-64 0 -115 20.5
t-84 59.5t-46 95t-1 126q11 64 42 114t75.5 85t100.5 53.5t117 18.5zM344 417q-22 0 -44.5 -8t-41.5 -25t-33 -43t-20 -62t-1.5 -61.5t17.5 -42.5t32.5 -25t42.5 -8t45 8t41 25t33.5 42.5t20.5 61.5t1 62t-18 43t-32.5 25t-42.5 8z" />
    <glyph glyph-name="Ohungarumlaut" unicode="&#x150;" 
d="M399 750h-104l112 209h132zM592 750h-104l132 209h132zM431 718q85 0 149 -29t104.5 -81t54.5 -124t-1 -158q-13 -73 -46.5 -134.5t-84 -105.5t-116.5 -68.5t-143 -24.5q-87 0 -152 29t-105 81t-53.5 124.5t1.5 158.5q13 73 47 134t84.5 105t116.5 68.5t144 24.5z
M418 559q-81 0 -138 -52.5t-74 -143.5q-17 -97 24.5 -153.5t130.5 -56.5q40 0 75 13.5t62.5 39t46.5 61.5t27 81q17 98 -24.5 154.5t-129.5 56.5z" />
    <glyph glyph-name="ohungarumlaut" unicode="&#x151;" horiz-adv-x="640" 
d="M321 601h-104l112 209h132zM514 601h-104l132 209h132zM366 565q63 0 113.5 -20.5t83.5 -59.5t46 -94.5t1 -126.5q-12 -63 -42.5 -113.5t-75 -85.5t-99.5 -53.5t-116 -18.5q-64 0 -115 20.5t-84 59.5t-46 95t-1 126q11 64 42 114t75.5 85t100.5 53.5t117 18.5zM344 417
q-22 0 -44.5 -8t-41.5 -25t-33 -43t-20 -62t-1.5 -61.5t17.5 -42.5t32.5 -25t42.5 -8t45 8t41 25t33.5 42.5t20.5 61.5t1 62t-18 43t-32.5 25t-42.5 8z" />
    <glyph glyph-name="OE" unicode="&#x152;" horiz-adv-x="1064" 
d="M769 423h239l-23 -129h-238l-28 -157h268l-24 -137h-440l16 88q-39 -47 -98 -72t-122 -27q-75 0 -134 28t-96.5 78.5t-51.5 120t1 152.5q14 77 49 141t87 110.5t119.5 72.5t146.5 26q65 0 117.5 -25.5t75.5 -73.5l15 88h440l-24 -136h-268zM360 147q41 0 77 14.5
t64.5 41.5t48 65t28.5 85q17 96 -22.5 151t-123.5 55q-83 0 -141 -53t-74 -145q-17 -99 22 -156.5t121 -57.5z" />
    <glyph glyph-name="oe" unicode="&#x153;" horiz-adv-x="1025" 
d="M766 565q63 0 111 -19.5t78 -55.5t41 -86t0 -110q-4 -24 -13 -46h-387q-4 -34 1 -56.5t17 -36t29.5 -19.5t37.5 -6q38 0 66 19.5t42 48.5h181q-16 -44 -46 -81.5t-70 -65t-88 -43t-101 -15.5q-64 0 -111 23.5t-73 66.5q-42 -43 -98.5 -66.5t-120.5 -23.5
q-62 0 -111.5 19.5t-82 56.5t-45 90t-0.5 120t43 120t76 90t101.5 56.5t118.5 19.5q64 0 113 -23t75 -67q41 44 96.5 67t119.5 23zM827 320q6 29 1 50t-17.5 34.5t-30.5 19.5t-38 6q-45 0 -81.5 -26.5t-51.5 -83.5h218zM428 279q6 36 1 62t-18.5 43t-32.5 25t-42 8
q-22 0 -44.5 -8t-41.5 -25t-33.5 -43t-20.5 -62t-1 -61.5t18 -42.5t32.5 -25t42.5 -8t45 8t41 25t33.5 42.5t20.5 61.5z" />
    <glyph glyph-name="Racute" unicode="&#x154;" horiz-adv-x="636" 
d="M336 756l-17 60l182 96l29 -87zM413 707q65 0 110.5 -17t72.5 -47t35.5 -71t0.5 -89q-14 -75 -65 -130t-137 -75l119 -278h-189l-106 267h-39l-47 -267h-171l124 707h292zM456 473q7 41 -12 65.5t-71 24.5h-106l-32 -179h106q52 0 79.5 22.5t35.5 66.5z" />
    <glyph glyph-name="racute" unicode="&#x155;" horiz-adv-x="435" 
d="M209 607l-17 60l182 96l29 -87zM261 453q40 50 95 80.5t116 30.5l-33 -183h-49q-60 0 -102.5 -23.5t-58.5 -86.5l-48 -271h-172l98 558h172z" />
    <glyph glyph-name="Rcommaaccent" unicode="&#x156;" horiz-adv-x="660" 
d="M387 707q65 0 110.5 -17t72.5 -47t35.5 -71t0.5 -89q-14 -75 -65 -130t-137 -75l119 -278h-189l-106 267h-39l-47 -267h-171l124 707h292zM430 473q7 41 -12 65.5t-71 24.5h-106l-32 -179h106q52 0 79.5 22.5t35.5 66.5zM349 -41q11 -58 0 -109q-11 -68 -53 -111
t-114 -43l12 63q52 0 64 70l2 10h-62l21 120h130z" />
    <glyph glyph-name="rcommaaccent" unicode="&#x157;" horiz-adv-x="434" 
d="M256 453q40 50 95 80.5t116 30.5l-33 -183h-49q-60 0 -102.5 -23.5t-58.5 -86.5l-48 -271h-172l98 558h172zM176 -41q5 -29 5 -56t-5 -53q-12 -68 -54 -111t-112 -43l11 63q52 0 64 70l2 10h-62l21 120h130z" />
    <glyph glyph-name="Rcaron" unicode="&#x158;" horiz-adv-x="636" 
d="M402 747l-141 84l20 113l140 -86l170 86l-20 -113zM413 707q65 0 110.5 -17t72.5 -47t35.5 -71t0.5 -89q-14 -75 -65 -130t-137 -75l119 -278h-189l-106 267h-39l-47 -267h-171l124 707h292zM456 473q7 41 -12 65.5t-71 24.5h-106l-32 -179h106q52 0 79.5 22.5t35.5 66.5
z" />
    <glyph glyph-name="rcaron" unicode="&#x159;" horiz-adv-x="435" 
d="M290 598l-141 84l20 113l140 -86l170 86l-20 -113zM261 453q40 50 95 80.5t116 30.5l-33 -183h-49q-60 0 -102.5 -23.5t-58.5 -86.5l-48 -271h-172l98 558h172z" />
    <glyph glyph-name="Sacute" unicode="&#x15a;" horiz-adv-x="600" 
d="M512 825l-194 -69l-17 60l182 96zM538 174q-6 -36 -27 -69t-55 -58t-80.5 -39.5t-103.5 -14.5q-62 0 -110 15.5t-81 44.5t-50.5 69.5t-17.5 90.5h182q-3 -41 18 -63.5t61 -22.5q33 0 54 17.5t26 46.5q7 38 -15.5 60t-59 38.5t-79 33.5t-77 44.5t-53 70t-6.5 111.5
q7 40 30 71.5t58 53t79.5 33t94.5 11.5q65 0 112.5 -15.5t78 -43.5t46 -66.5t16.5 -84.5h-184q2 35 -16 55.5t-55 20.5q-28 0 -49 -14.5t-26 -43.5q-6 -35 16.5 -56t58.5 -37t78.5 -32t76.5 -43.5t52.5 -71t6.5 -112.5z" />
    <glyph glyph-name="sacute" unicode="&#x15b;" horiz-adv-x="550" 
d="M461 676l-194 -69l-17 60l182 96zM286 565q61 0 106 -14.5t75 -40.5t46.5 -61t19.5 -77h-168q-2 35 -26.5 54t-67.5 19q-28 0 -46.5 -10t-22.5 -30q-4 -25 19 -38.5t60 -24l80 -22.5t77.5 -33.5t53.5 -57.5t8 -94q-11 -61 -70 -101.5t-165 -40.5q-55 0 -101 12.5
t-79 37.5t-52.5 61t-21.5 82h168q-2 -37 26 -55.5t74 -18.5q32 0 47.5 12t19.5 29q5 27 -18 41t-59 24.5t-78.5 21.5t-77 32t-53.5 56t-8 93q5 30 22 56.5t46.5 46t71 30.5t94.5 11z" />
    <glyph glyph-name="Scedilla" unicode="&#x15e;" horiz-adv-x="601" 
d="M249 526q-6 -35 16.5 -56t58.5 -37t78.5 -32t76.5 -43.5t52.5 -71t6.5 -112.5q-6 -33 -23.5 -62.5t-45.5 -53.5t-66.5 -40.5t-86.5 -22.5l-7 -38q21 1 43 -4.5t38.5 -19t25 -35.5t2.5 -54q-6 -31 -22 -52.5t-38 -34.5t-48 -18.5t-51 -5.5h-146l16 90h127q42 0 47 26
q2 13 -6.5 21t-30.5 8h-73l22 119q-97 14 -149 71t-53 145h182q-3 -41 18 -63.5t61 -22.5q33 0 54 17.5t26 46.5q7 38 -15.5 60t-59 38.5t-79 33.5t-77 44.5t-53 70t-6.5 111.5q7 40 30 71.5t58 53t79.5 33t94.5 11.5q65 0 112.5 -15.5t78 -43.5t46 -66.5t16.5 -84.5h-184
q2 35 -16 55.5t-55 20.5q-28 0 -49 -14.5t-26 -43.5z" />
    <glyph glyph-name="scedilla" unicode="&#x15f;" horiz-adv-x="562" 
d="M202 405q-4 -25 19 -38.5t60 -24l80 -22.5t77.5 -33.5t53.5 -57.5t8 -94q-10 -51 -53 -89t-121 -49l-7 -40q21 1 43 -4.5t38.5 -19t25 -35.5t2.5 -54q-6 -31 -22 -52.5t-38 -34.5t-48 -18.5t-51 -5.5h-146l16 90h127q42 0 47 26q2 13 -6.5 21t-30.5 8h-73l22 117
q-95 8 -152.5 57t-61.5 134h168q-2 -37 26 -55.5t74 -18.5q32 0 47.5 12t19.5 29q5 27 -18 41t-59 24.5t-78.5 21.5t-77 32t-53.5 56t-8 93q5 30 22 56.5t46.5 46t71 30.5t94.5 11q61 0 106 -14.5t75 -40.5t46.5 -61t19.5 -77h-168q-2 35 -26.5 54t-67.5 19q-28 0 -46.5 -10
t-22.5 -30z" />
    <glyph glyph-name="Scaron" unicode="&#x160;" horiz-adv-x="601" 
d="M537 831l-169 -84l-141 84l20 113l140 -86l170 86zM538 174q-6 -36 -27 -69t-55 -58t-80.5 -39.5t-103.5 -14.5q-62 0 -110 15.5t-81 44.5t-50.5 69.5t-17.5 90.5h182q-3 -41 18 -63.5t61 -22.5q33 0 54 17.5t26 46.5q7 38 -15.5 60t-59 38.5t-79 33.5t-77 44.5t-53 70
t-6.5 111.5q7 40 30 71.5t58 53t79.5 33t94.5 11.5q65 0 112.5 -15.5t78 -43.5t46 -66.5t16.5 -84.5h-184q2 35 -16 55.5t-55 20.5q-28 0 -49 -14.5t-26 -43.5q-6 -35 16.5 -56t58.5 -37t78.5 -32t76.5 -43.5t52.5 -71t6.5 -112.5z" />
    <glyph glyph-name="scaron" unicode="&#x161;" horiz-adv-x="562" 
d="M498 682l-169 -84l-141 84l20 113l140 -86l170 86zM286 565q61 0 106 -14.5t75 -40.5t46.5 -61t19.5 -77h-168q-2 35 -26.5 54t-67.5 19q-28 0 -46.5 -10t-22.5 -30q-4 -25 19 -38.5t60 -24l80 -22.5t77.5 -33.5t53.5 -57.5t8 -94q-11 -61 -70 -101.5t-165 -40.5
q-55 0 -101 12.5t-79 37.5t-52.5 61t-21.5 82h168q-2 -37 26 -55.5t74 -18.5q32 0 47.5 12t19.5 29q5 27 -18 41t-59 24.5t-78.5 21.5t-77 32t-53.5 56t-8 93q5 30 22 56.5t46.5 46t71 30.5t94.5 11z" />
    <glyph glyph-name="uni0162" unicode="&#x162;" horiz-adv-x="580" 
d="M629 707l-24 -136h-192l-100 -567q34 -17 46.5 -40t6.5 -57q-6 -31 -22 -52.5t-38 -35t-48 -19.5t-52 -6h-142l16 90h128q22 0 31.5 7.5t11.5 21.5q2 11 -4.5 18.5t-28.5 7.5h-88l111 632h-191l25 136h554z" />
    <glyph glyph-name="uni0163" unicode="&#x163;" horiz-adv-x="412" 
d="M241 206q-5 -33 6 -46t43 -13h54l-26 -147h-71l-8 -43q21 1 43 -4.5t39 -18.5t25.5 -34.5t2.5 -53.5t-22 -53.5t-38 -34.5t-47.5 -19t-51.5 -6h-146l16 90h128q40 0 47 28q2 12 -6.5 19.5t-30.5 7.5h-73l24 135q-50 18 -72 64.5t-7 131.5l36 205h-74l25 144h75l24 137
h171l-24 -137h112l-26 -144h-111z" />
    <glyph glyph-name="Tcaron" unicode="&#x164;" horiz-adv-x="580" 
d="M526 831l-169 -84l-141 84l20 113l140 -86l170 86zM629 707l-24 -136h-192l-100 -571h-172l100 571h-191l25 136h554z" />
    <glyph glyph-name="tcaron" unicode="&#x165;" horiz-adv-x="404" 
d="M506 853q5 -32 5.5 -58t-4.5 -53q-11 -61 -52 -99t-113 -38l11 64q52 0 60 41l3 20h-63l22 123h131zM294 558h111l-26 -144h-111l-37 -208q-5 -33 6 -46t43 -13h54l-26 -147h-78q-46 0 -82 10.5t-59 35t-31 64.5t2 99l36 205h-74l26 144h74l24 137h172z" />
    <glyph glyph-name="Utilde" unicode="&#x168;" horiz-adv-x="697" 
d="M398 884q20 0 34.5 -6.5t26.5 -14t23.5 -14t25.5 -6.5t26 10.5t19 30.5h72q-23 -66 -57.5 -95t-79.5 -29q-20 0 -34.5 6.5t-26.5 14t-23.5 13.5t-24.5 6q-32 0 -46 -41h-71q23 68 57 96.5t79 28.5zM288 707l-72 -408q-12 -70 12 -107t85 -37t99 37t50 107l72 408h171
l-72 -408q-13 -77 -46.5 -134.5t-80.5 -95.5t-104.5 -57t-120.5 -19t-112.5 19t-81.5 57t-43.5 95.5t2.5 134.5l71 408h171z" />
    <glyph glyph-name="utilde" unicode="&#x169;" horiz-adv-x="665" 
d="M338 651q-32 0 -46 -41h-71q23 68 57 96.5t79 28.5q20 0 34.5 -6.5t26.5 -14t23.5 -14t25.5 -6.5t26 10.5t19 30.5h72q-23 -66 -57.5 -95t-79.5 -29q-20 0 -34.5 6.5t-26.5 14t-23.5 13.5t-24.5 6zM656 558l-98 -558h-172l18 102q-32 -49 -84 -78.5t-118 -29.5
q-96 0 -141 63t-25 177l57 324h170l-53 -303q-10 -58 14 -89t74 -31q51 0 87 32t47 95l52 296h172z" />
    <glyph glyph-name="Umacron" unicode="&#x16a;" horiz-adv-x="697" 
d="M647 895l-20 -115h-401l21 115h400zM288 707l-72 -408q-12 -70 12 -107t85 -37t99 37t50 107l72 408h171l-72 -408q-13 -77 -46.5 -134.5t-80.5 -95.5t-104.5 -57t-120.5 -19t-112.5 19t-81.5 57t-43.5 95.5t2.5 134.5l71 408h171z" />
    <glyph glyph-name="umacron" unicode="&#x16b;" horiz-adv-x="673" 
d="M594 631h-401l21 115h400zM656 558l-98 -558h-172l18 102q-32 -49 -84 -78.5t-118 -29.5q-96 0 -141 63t-25 177l57 324h170l-53 -303q-10 -58 14 -89t74 -31q51 0 87 32t47 95l52 296h172z" />
    <glyph glyph-name="Ubreve" unicode="&#x16c;" horiz-adv-x="697" 
d="M421 753q-66 0 -99.5 39.5t-20.5 112.5l2 12h69q-5 -29 9.5 -45t56.5 -16t63 16t26 45h68l-2 -12q-13 -73 -60 -112.5t-112 -39.5zM288 707l-72 -408q-12 -70 12 -107t85 -37t99 37t50 107l72 408h171l-72 -408q-13 -77 -46.5 -134.5t-80.5 -95.5t-104.5 -57t-120.5 -19
t-112.5 19t-81.5 57t-43.5 95.5t2.5 134.5l71 408h171z" />
    <glyph glyph-name="ubreve" unicode="&#x16d;" horiz-adv-x="665" 
d="M380 604q-66 0 -99.5 39.5t-20.5 112.5l2 12h69q-5 -29 9.5 -45t56.5 -16t63 16t26 45h68l-2 -12q-13 -73 -60 -112.5t-112 -39.5zM656 558l-98 -558h-172l18 102q-32 -49 -84 -78.5t-118 -29.5q-96 0 -141 63t-25 177l57 324h170l-53 -303q-10 -58 14 -89t74 -31
q51 0 87 32t47 95l52 296h172z" />
    <glyph glyph-name="Uring" unicode="&#x16e;" horiz-adv-x="697" 
d="M448 991q51 0 80.5 -32.5t20.5 -89.5q-5 -28 -18.5 -50.5t-33 -38t-43 -24t-48.5 -8.5q-51 0 -80.5 32t-19.5 89q5 29 18 51.5t32.5 38t43 24t48.5 8.5zM436 922q-22 0 -39 -14t-22 -39q-5 -24 7.5 -38.5t35.5 -14.5q22 0 39 14.5t22 38.5q5 25 -7.5 39t-35.5 14z
M288 707l-72 -408q-12 -70 12 -107t85 -37t99 37t50 107l72 408h171l-72 -408q-13 -77 -46.5 -134.5t-80.5 -95.5t-104.5 -57t-120.5 -19t-112.5 19t-81.5 57t-43.5 95.5t2.5 134.5l71 408h171z" />
    <glyph glyph-name="uring" unicode="&#x16f;" horiz-adv-x="673" 
d="M373 599q-51 0 -80.5 32t-19.5 89q5 29 18 51.5t32.5 38t43 24t48.5 8.5q51 0 80.5 -32.5t20.5 -89.5q-5 -28 -18.5 -50.5t-33 -38t-43 -24t-48.5 -8.5zM342 720q-5 -24 7.5 -38.5t35.5 -14.5q22 0 39 14.5t22 38.5q5 25 -7.5 39t-35.5 14q-22 0 -39 -14t-22 -39z
M656 558l-98 -558h-172l18 102q-32 -49 -84 -78.5t-118 -29.5q-96 0 -141 63t-25 177l57 324h170l-53 -303q-10 -58 14 -89t74 -31q51 0 87 32t47 95l52 296h172z" />
    <glyph glyph-name="Uhungarumlaut" unicode="&#x170;" horiz-adv-x="697" 
d="M314 750h-104l112 209h132zM507 750h-104l132 209h132zM288 707l-72 -408q-12 -70 12 -107t85 -37t99 37t50 107l72 408h171l-72 -408q-13 -77 -46.5 -134.5t-80.5 -95.5t-104.5 -57t-120.5 -19t-112.5 19t-81.5 57t-43.5 95.5t2.5 134.5l71 408h171z" />
    <glyph glyph-name="uhungarumlaut" unicode="&#x171;" horiz-adv-x="673" 
d="M280 601h-104l112 209h132zM369 601l132 209h132l-160 -209h-104zM656 558l-98 -558h-172l18 102q-32 -49 -84 -78.5t-118 -29.5q-96 0 -141 63t-25 177l57 324h170l-53 -303q-10 -58 14 -89t74 -31q51 0 87 32t47 95l52 296h172z" />
    <glyph glyph-name="Uogonek" unicode="&#x172;" horiz-adv-x="697" 
d="M290 707l-73 -408q-12 -70 12 -107t86 -37q58 0 96.5 35t51.5 109l73 408h170l-72 -408q-11 -65 -38 -115.5t-63 -87t-79 -59t-86 -31.5q-26 -5 -38 -14.5t-14 -22.5q-5 -30 40 -30h116l-16 -89h-149q-24 0 -45.5 7.5t-37 22.5t-22.5 37.5t-2 52.5q5 21 19 29
q-45 10 -82 33.5t-61 61t-32.5 88.5t2.5 117l73 408h171z" />
    <glyph glyph-name="uogonek" unicode="&#x173;" horiz-adv-x="673" 
d="M414 -88q-3 -15 7.5 -23.5t30.5 -8.5h125l-15 -90h-143q-26 0 -50.5 6.5t-42 20.5t-26 36t-2.5 54q8 43 33.5 68t56.5 36l16 91q-32 -49 -84 -78.5t-118 -29.5q-96 0 -141 63t-25 177l57 324h170l-53 -303q-10 -58 14 -89t74 -31q51 0 87 32t47 95l52 296h172l-98 -558
h-3l-10 -59h-82q-20 0 -33.5 -7.5t-15.5 -21.5z" />
    <glyph glyph-name="Wcircumflex" unicode="&#x174;" horiz-adv-x="1051" 
d="M508 749l-19 70l147 73l120 -73l-36 -70l-97 56zM1082 707l-293 -707h-212l-30 473l-197 -473h-212l-45 707h186l1 -512l214 512h187l34 -512l182 512h185z" />
    <glyph glyph-name="wcircumflex" unicode="&#x175;" horiz-adv-x="863" 
d="M389 600l-19 70l147 73l120 -73l-36 -70l-97 56zM910 558l-242 -558h-191l-35 375l-169 -375h-191l-43 558h170l3 -402l175 402h182l35 -403l146 403h160z" />
    <glyph glyph-name="Ycircumflex" unicode="&#x176;" horiz-adv-x="677" 
d="M321 749l-19 70l147 73l120 -73l-36 -70l-97 56zM732 707l-329 -472l-41 -235h-171l41 235l-162 472h196l86 -288l186 288h194z" />
    <glyph glyph-name="ycircumflex" unicode="&#x177;" horiz-adv-x="626" 
d="M385 656l-115 -56l-19 70l147 73l120 -73l-36 -70zM224 558l73 -342l185 342h190l-494 -824h-189l183 287l-139 537h191z" />
    <glyph glyph-name="Ydieresis" unicode="&#x178;" horiz-adv-x="677" 
d="M310 771q-30 0 -47 20.5t-12 50.5q6 32 30 52.5t54 20.5q32 0 49 -20.5t11 -52.5q-5 -30 -29.5 -50.5t-55.5 -20.5zM512 771q-30 0 -47 20.5t-11 50.5q5 32 29 52.5t54 20.5q32 0 49 -20.5t11 -52.5q-5 -30 -29 -50.5t-56 -20.5zM732 707l-329 -472l-41 -235h-171l41 235
l-162 472h196l86 -288l186 288h194z" />
    <glyph glyph-name="Zacute" unicode="&#x179;" horiz-adv-x="594" 
d="M509 825l-194 -69l-17 60l182 96zM198 138h312l-24 -138h-502l23 130l384 440h-304l25 137h496l-23 -130z" />
    <glyph glyph-name="zacute" unicode="&#x17a;" horiz-adv-x="490" 
d="M431 676l-194 -69l-17 60l182 96zM186 143h258l-26 -143h-445l24 135l289 281h-235l26 142h430l-24 -135z" />
    <glyph glyph-name="Zdotaccent" unicode="&#x17b;" horiz-adv-x="594" 
d="M310 842q6 32 30 52.5t54 20.5q32 0 49 -20.5t11 -52.5q-5 -30 -29.5 -50.5t-55.5 -20.5q-30 0 -47 20.5t-12 50.5zM198 138h312l-24 -138h-502l23 130l384 440h-304l25 137h496l-23 -130z" />
    <glyph glyph-name="zdotaccent" unicode="&#x17c;" horiz-adv-x="490" 
d="M226 693q6 32 30 52.5t54 20.5q32 0 49 -20.5t11 -52.5q-5 -30 -29.5 -50.5t-55.5 -20.5q-30 0 -47 20.5t-12 50.5zM186 143h258l-26 -143h-445l24 135l289 281h-235l26 142h430l-24 -135z" />
    <glyph glyph-name="Zcaron" unicode="&#x17d;" horiz-adv-x="594" 
d="M533 831l-169 -84l-141 84l20 113l140 -86l170 86zM198 138h312l-24 -138h-502l23 130l384 440h-304l25 137h496l-23 -130z" />
    <glyph glyph-name="zcaron" unicode="&#x17e;" horiz-adv-x="491" 
d="M464 682l-169 -84l-141 84l20 113l140 -86l170 86zM186 143h258l-26 -143h-445l24 135l289 281h-235l26 142h430l-24 -135z" />
    <glyph glyph-name="florin" unicode="&#x192;" horiz-adv-x="338" 
d="M421 637q-38 0 -61.5 -13t-33.5 -45l-6 -21h86l-40 -143h-86l-140 -497q-15 -54 -40.5 -89.5t-59 -56.5t-74 -30t-85.5 -9h-32l39 147h35q35 0 46 38l141 497h-53l40 143h53l6 21q30 108 105 156t200 48z" />
    <glyph glyph-name="Ohorn" unicode="&#x1a0;" 
d="M658 638q55 -53 76.5 -132.5t3.5 -179.5q-13 -73 -46.5 -134.5t-84 -105.5t-116.5 -68.5t-143 -24.5q-87 0 -152 29t-105 81t-53.5 124.5t1.5 158.5q13 73 47 134t84.5 105t116.5 68.5t144 24.5q49 0 95 -11q45 2 75.5 25.5t40.5 81.5h117q-11 -62 -38 -105t-63 -71z
M572 348q17 98 -24.5 154.5t-129.5 56.5q-81 0 -138 -52.5t-74 -143.5q-17 -97 24.5 -153.5t130.5 -56.5q40 0 75 13.5t62.5 39t46.5 61.5t27 81z" />
    <glyph glyph-name="ohorn" unicode="&#x1a1;" horiz-adv-x="640" 
d="M662 665q-11 -62 -38 -105.5t-64 -70.5q35 -39 49 -96t1 -129q-12 -63 -42.5 -113.5t-75 -85.5t-99.5 -53.5t-116 -18.5q-64 0 -115 20.5t-84 59.5t-46 95t-1 126q11 64 42 114t75.5 85t100.5 53.5t117 18.5q38 0 67 -7q44 3 73 26.5t39 80.5h117zM436 279q6 36 1 62
t-18 43t-32.5 25t-42.5 8q-22 0 -44.5 -8t-41.5 -25t-33 -43t-20 -62t-1.5 -61.5t17.5 -42.5t32.5 -25t42.5 -8t45 8t41 25t33.5 42.5t20.5 61.5z" />
    <glyph glyph-name="Uhorn" unicode="&#x1af;" horiz-adv-x="697" 
d="M836 814q-14 -81 -55 -130.5t-93 -74.5l-55 -310q-13 -77 -46.5 -134.5t-80.5 -95.5t-104.5 -57t-120.5 -19t-112.5 19t-81.5 57t-43.5 95.5t2.5 134.5l71 408h171l-72 -408q-12 -70 12 -107t85 -37t99 37t50 107l72 408h61q48 0 80.5 23t43.5 84h117z" />
    <glyph glyph-name="uhorn" unicode="&#x1b0;" horiz-adv-x="665" 
d="M787 665q-14 -81 -55 -130.5t-93 -74.5l-81 -460h-172l18 102q-32 -49 -84 -78.5t-118 -29.5q-96 0 -141 63t-25 177l57 324h170l-53 -303q-10 -58 14 -89t74 -31q51 0 87 32t47 95l52 296h62q48 0 80.5 23t43.5 84h117z" />
    <glyph glyph-name="AEacute" unicode="&#x1fc;" horiz-adv-x="949" 
d="M638 756l-17 60l182 96l29 -87zM688 571l-26 -145h231l-22 -130h-231l-28 -159h261l-24 -137h-433l21 121h-227l-83 -121h-187l487 707h546l-24 -136h-261zM460 251l56 319l-218 -319h162z" />
    <glyph glyph-name="aeacute" unicode="&#x1fd;" horiz-adv-x="1074" 
d="M537 607l-17 60l182 96l29 -87zM854 565q55 0 96 -19.5t66 -55.5t33.5 -86t-2.5 -110q-4 -24 -13 -46h-415q-3 -33 3.5 -56t20 -37t33 -20.5t42.5 -6.5q45 0 76 19t46 51h181q-16 -44 -42.5 -81.5t-61.5 -65t-76.5 -43t-87.5 -15.5q-67 0 -110 28t-55 81l-18 -102h-171
l18 101q-29 -48 -80 -78t-117 -30q-51 0 -91.5 19.5t-66.5 56.5t-35 90t3 120q12 68 40 121t66.5 89.5t86 56t98.5 19.5q66 0 106.5 -30t52.5 -78l18 101h170l-18 -101q29 52 82 80t122 28zM878 320q6 29 0 49.5t-21 34t-36 20t-45 6.5q-46 0 -86.5 -24.5t-57.5 -85.5h246z
M449 279q11 65 -17.5 100.5t-81.5 35.5q-54 0 -94.5 -35t-51.5 -101q-12 -66 16 -101t82 -35q53 0 94 36t53 100z" />
    <glyph glyph-name="Scommaaccent" unicode="&#x218;" horiz-adv-x="604" 
d="M540 174q-6 -36 -27 -69t-55 -58t-80.5 -39.5t-103.5 -14.5q-62 0 -110 15.5t-81 44.5t-50.5 69.5t-17.5 90.5h182q-3 -41 18 -63.5t61 -22.5q33 0 54 17.5t26 46.5q7 38 -15.5 60t-59 38.5t-79 33.5t-77 44.5t-53 70t-6.5 111.5q7 40 30 71.5t58 53t79.5 33t94.5 11.5
q65 0 112.5 -15.5t78 -43.5t46 -66.5t16.5 -84.5h-184q2 35 -16 55.5t-55 20.5q-28 0 -49 -14.5t-26 -43.5q-6 -35 16.5 -56t58.5 -37t78.5 -32t76.5 -43.5t52.5 -71t6.5 -112.5zM349 -41q11 -58 0 -109q-12 -68 -53.5 -111t-113.5 -43l11 63q52 0 65 70l1 10h-61l21 120
h130z" />
    <glyph glyph-name="scommaaccent" unicode="&#x219;" horiz-adv-x="562" 
d="M293 565q61 0 106 -14.5t75 -40.5t46.5 -61t19.5 -77h-168q-2 35 -26.5 54t-67.5 19q-28 0 -46.5 -10t-22.5 -30q-4 -25 19 -38.5t60 -24l80 -22.5t77.5 -33.5t53.5 -57.5t8 -94q-11 -61 -70 -101.5t-165 -40.5q-55 0 -101 12.5t-79 37.5t-52.5 61t-21.5 82h168
q-2 -37 26 -55.5t74 -18.5q32 0 47.5 12t19.5 29q5 27 -18 41t-59 24.5t-78.5 21.5t-77 32t-53.5 56t-8 93q5 30 22 56.5t46.5 46t71 30.5t94.5 11zM310 -41q5 -29 5 -56t-5 -53q-12 -68 -53.5 -111t-112.5 -43l11 63q52 0 64 70l2 10h-62l22 120h129z" />
    <glyph glyph-name="uni021A" unicode="&#x21a;" horiz-adv-x="580" 
d="M626 707l-24 -136h-192l-100 -571h-172l100 571h-191l25 136h554zM283 -41q5 -29 5 -56t-5 -53q-12 -68 -54 -111t-112 -43l11 63q52 0 64 70l2 10h-62l21 120h130z" />
    <glyph glyph-name="uni021B" unicode="&#x21b;" horiz-adv-x="412" 
d="M246 206q-5 -33 6 -46t43 -13h54l-26 -147h-78q-46 0 -82 10.5t-59 35t-31 64.5t2 99l36 205h-74l26 144h74l24 137h172l-24 -137h111l-26 -144h-111zM273 -41q9 -58 0 -109q-11 -68 -53 -111t-114 -43l12 63q52 0 64 70l2 10h-62l21 120h130z" />
    <glyph glyph-name="circumflex" unicode="&#x2c6;" horiz-adv-x="345" 
d="M234 679l-115 -56l-19 70l147 73l120 -73l-36 -70z" />
    <glyph glyph-name="caron" unicode="&#x2c7;" horiz-adv-x="345" 
d="M385 682l-169 -84l-141 84l20 113l140 -86l170 86z" />
    <glyph glyph-name="breve" unicode="&#x2d8;" horiz-adv-x="375" 
d="M236 604q-66 0 -99.5 39.5t-20.5 112.5l2 12h69q-5 -29 9.5 -45t56.5 -16t63 16t26 45h68l-2 -12q-13 -73 -60 -112.5t-112 -39.5z" />
    <glyph glyph-name="dotaccent" unicode="&#x2d9;" horiz-adv-x="183" 
d="M79 693q6 32 30 52.5t54 20.5q32 0 49 -20.5t11 -52.5q-5 -30 -29.5 -50.5t-55.5 -20.5q-30 0 -47 20.5t-12 50.5z" />
    <glyph glyph-name="ring" unicode="&#x2da;" horiz-adv-x="277" 
d="M220 842q51 0 80.5 -32.5t20.5 -89.5q-5 -28 -18.5 -50.5t-33 -38t-43 -24t-48.5 -8.5q-51 0 -80.5 32t-19.5 89q5 29 18 51.5t32.5 38t43 24t48.5 8.5zM208 773q-22 0 -39 -14t-22 -39q-5 -24 7.5 -38.5t35.5 -14.5q22 0 39 14.5t22 38.5q5 25 -7.5 39t-35.5 14z" />
    <glyph glyph-name="ogonek" unicode="&#x2db;" horiz-adv-x="304" 
d="M271 10l-14 -80h-82q-20 0 -33.5 -7.5t-15.5 -21.5q-3 -15 7.5 -23.5t30.5 -8.5h125l-15 -90h-143q-26 0 -50.5 6.5t-42 20.5t-26 36t-2.5 54q6 31 21.5 53t36.5 35.5t44.5 19.5t44.5 6h114z" />
    <glyph glyph-name="tilde" unicode="&#x2dc;" horiz-adv-x="421" 
d="M225 735q20 0 34.5 -6.5t26.5 -14t23.5 -14t25.5 -6.5t26 10.5t19 30.5h72q-23 -66 -57.5 -95t-79.5 -29q-20 0 -34.5 6.5t-26.5 14t-23.5 13.5t-24.5 6q-32 0 -46 -41h-71q23 68 57 96.5t79 28.5z" />
    <glyph glyph-name="hungarumlaut" unicode="&#x2dd;" horiz-adv-x="455" 
d="M163 601h-104l112 209h132zM356 601h-104l132 209h132z" />
    <glyph glyph-name="gravecomb" unicode="&#x300;" horiz-adv-x="0" 
d="M5 665l-33 -65l-165 76l39 88z" />
    <glyph glyph-name="acutecomb" unicode="&#x301;" horiz-adv-x="0" 
d="M29 676l-194 -69l-17 60l182 96z" />
    <glyph glyph-name="uni0302" unicode="&#x302;" horiz-adv-x="0" 
d="M-111 679l-115 -56l-19 70l147 73l120 -73l-36 -70z" />
    <glyph glyph-name="tildecomb" unicode="&#x303;" horiz-adv-x="0" 
d="M-196 735q20 0 34.5 -6.5t26.5 -14t23.5 -14t25.5 -6.5t26 10.5t19 30.5h72q-23 -66 -57.5 -95t-79.5 -29q-20 0 -34.5 6.5t-26.5 14t-23.5 13.5t-24.5 6q-32 0 -46 -41h-71q23 68 57 96.5t79 28.5z" />
    <glyph glyph-name="uni0306" unicode="&#x306;" horiz-adv-x="0" 
d="M-139 604q-66 0 -99.5 39.5t-20.5 112.5l2 12h69q-5 -29 9.5 -45t56.5 -16t63 16t26 45h68l-2 -12q-13 -73 -60 -112.5t-112 -39.5z" />
    <glyph glyph-name="hookabovecomb" unicode="&#x309;" horiz-adv-x="0" 
d="M-262 770q54 0 72.5 -27.5t10.5 -68.5q-6 -36 -34.5 -61.5l-66.5 -59.5l-39 40q33 28 47 47t17 34t-4 20t-18 5q-14 0 -22.5 -7t-16.5 -30l-71 7q6 19 14 37t22 32.5t35.5 23t53.5 8.5z" />
    <glyph glyph-name="uni031B" unicode="&#x31b;" horiz-adv-x="0" 
d="M-390 558q48 0 80.5 23t43.5 84h117q-11 -62 -38.5 -105.5t-64 -71.5t-78.5 -40.5t-82 -12.5z" />
    <glyph glyph-name="dotbelowcomb" unicode="&#x323;" horiz-adv-x="0" 
d="M-239 -141q5 29 27.5 48.5t50.5 19.5q29 0 45 -19.5t11 -48.5t-27.5 -47.5t-51.5 -18.5t-44.5 18.5t-10.5 47.5z" />
    <glyph glyph-name="pi" unicode="&#x3c0;" horiz-adv-x="711" 
d="M741 558l-24 -129h-70l-76 -429h-171l75 429h-183l-76 -429h-171l75 429h-70l23 129h668z" />
    <glyph glyph-name="Wgrave" unicode="&#x1e80;" horiz-adv-x="1051" 
d="M710 749l-165 76l39 88l159 -99zM1082 707l-293 -707h-212l-30 473l-197 -473h-212l-45 707h186l1 -512l214 512h187l34 -512l182 512h185z" />
    <glyph glyph-name="wgrave" unicode="&#x1e81;" horiz-adv-x="863" 
d="M591 600l-165 76l39 88l159 -99zM910 558l-242 -558h-191l-35 375l-169 -375h-191l-43 558h170l3 -402l175 402h182l35 -403l146 403h160z" />
    <glyph glyph-name="Wacute" unicode="&#x1e82;" horiz-adv-x="1051" 
d="M543 756l-17 60l182 96l29 -87zM1082 707l-293 -707h-212l-30 473l-197 -473h-212l-45 707h186l1 -512l214 512h187l34 -512l182 512h185z" />
    <glyph glyph-name="wacute" unicode="&#x1e83;" horiz-adv-x="863" 
d="M424 607l-17 60l182 96l29 -87zM910 558l-242 -558h-191l-35 375l-169 -375h-191l-43 558h170l3 -402l175 402h182l35 -403l146 403h160z" />
    <glyph glyph-name="Wdieresis" unicode="&#x1e84;" horiz-adv-x="1051" 
d="M497 771q-30 0 -47 20.5t-12 50.5q6 32 30 52.5t54 20.5q32 0 49 -20.5t11 -52.5q-5 -30 -29.5 -50.5t-55.5 -20.5zM699 771q-30 0 -47 20.5t-11 50.5q5 32 29 52.5t54 20.5q32 0 49 -20.5t11 -52.5q-5 -30 -29 -50.5t-56 -20.5zM1082 707l-293 -707h-212l-30 473
l-197 -473h-212l-45 707h186l1 -512l214 512h187l34 -512l182 512h185z" />
    <glyph glyph-name="wdieresis" unicode="&#x1e85;" horiz-adv-x="878" 
d="M394 622q-30 0 -47 20.5t-12 50.5q6 32 30 52.5t54 20.5q32 0 49 -20.5t11 -52.5q-5 -30 -29.5 -50.5t-55.5 -20.5zM596 622q-30 0 -47 20.5t-11 50.5q5 32 29 52.5t54 20.5q32 0 49 -20.5t11 -52.5q-5 -30 -29 -50.5t-56 -20.5zM910 558l-242 -558h-191l-35 375
l-169 -375h-191l-43 558h170l3 -402l175 402h182l35 -403l146 403h160z" />
    <glyph glyph-name="uni1EA0" unicode="&#x1ea0;" horiz-adv-x="730" 
d="M480 0l-21 129h-266l-67 -129h-180l383 702h197l135 -702h-181zM438 259l-43 262l-135 -262h178zM302 -73q29 0 45 -19.5t11 -48.5t-27.5 -47.5t-51.5 -18.5t-44.5 18.5t-10.5 47.5t27.5 48.5t50.5 19.5z" />
    <glyph glyph-name="uni1EA1" unicode="&#x1ea1;" horiz-adv-x="680" 
d="M316 565q69 0 111.5 -30t54.5 -78l18 101h171l-99 -558h-171l19 101q-29 -48 -80 -78t-118 -30q-54 0 -95 20.5t-66 59.5t-33 95t4 126q11 64 38 114.5t65 85t84.5 53t96.5 18.5zM352 415q-54 0 -94.5 -35t-51.5 -101t16.5 -101t81.5 -35q53 0 94.5 36t52.5 100
q11 65 -17.5 100.5t-81.5 35.5zM199 -141q5 29 27.5 48.5t50.5 19.5q29 0 45 -19.5t11 -48.5t-27.5 -47.5t-51.5 -18.5t-44.5 18.5t-10.5 47.5z" />
    <glyph glyph-name="uni1EA2" unicode="&#x1ea2;" horiz-adv-x="730" 
d="M452 899q-14 0 -22.5 -7t-16.5 -30l-71 7q6 19 14 37t22 32.5t35.5 23t53.5 8.5q54 0 72.5 -27.5t10.5 -68.5q-6 -36 -34.5 -61.5l-66.5 -59.5l-39 40q33 28 47 47t17 34t-4 20t-18 5zM459 129h-266l-67 -129h-180l383 702h197l135 -702h-181zM438 259l-43 262l-135 -262
h178z" />
    <glyph glyph-name="uni1EA3" unicode="&#x1ea3;" horiz-adv-x="680" 
d="M431 821q54 0 72.5 -27.5t10.5 -68.5q-6 -36 -34.5 -61.5l-66.5 -59.5l-39 40q33 28 47 47t17 34t-4 20t-18 5q-14 0 -22.5 -7t-16.5 -30l-71 7q6 19 14 37t22 32.5t35.5 23t53.5 8.5zM316 565q69 0 111.5 -30t54.5 -78l18 101h171l-99 -558h-171l19 101q-29 -48 -80 -78
t-118 -30q-54 0 -95 20.5t-66 59.5t-33 95t4 126q11 64 38 114.5t65 85t84.5 53t96.5 18.5zM352 415q-54 0 -94.5 -35t-51.5 -101t16.5 -101t81.5 -35q53 0 94.5 36t52.5 100q11 65 -17.5 100.5t-81.5 35.5z" />
    <glyph glyph-name="uni1EA4" unicode="&#x1ea4;" horiz-adv-x="730" 
d="M394 893l-15 56l169 89l27 -81zM339 747l-18 65l137 68l112 -68l-34 -65l-90 52zM459 129h-266l-67 -129h-180l383 702h197l135 -702h-181zM438 259l-43 262l-135 -262h178z" />
    <glyph glyph-name="uni1EA5" unicode="&#x1ea5;" horiz-adv-x="680" 
d="M539 808l-181 -64l-15 56l169 89zM410 650l-107 -52l-18 65l137 68l112 -68l-34 -65zM316 565q69 0 111.5 -30t54.5 -78l18 101h171l-99 -558h-171l19 101q-29 -48 -80 -78t-118 -30q-54 0 -95 20.5t-66 59.5t-33 95t4 126q11 64 38 114.5t65 85t84.5 53t96.5 18.5z
M352 415q-54 0 -94.5 -35t-51.5 -101t16.5 -101t81.5 -35q53 0 94.5 36t52.5 100q11 65 -17.5 100.5t-81.5 35.5z" />
    <glyph glyph-name="uni1EA6" unicode="&#x1ea6;" horiz-adv-x="730" 
d="M553 880l-154 71l36 82l149 -92zM339 747l-18 65l137 68l112 -68l-34 -65l-90 52zM459 129h-266l-67 -129h-180l383 702h197l135 -702h-181zM438 259l-43 262l-135 -262h178z" />
    <glyph glyph-name="uni1EA7" unicode="&#x1ea7;" horiz-adv-x="680" 
d="M548 792l-31 -61l-154 71l36 82zM410 650l-107 -52l-18 65l137 68l112 -68l-34 -65zM316 565q69 0 111.5 -30t54.5 -78l18 101h171l-99 -558h-171l19 101q-29 -48 -80 -78t-118 -30q-54 0 -95 20.5t-66 59.5t-33 95t4 126q11 64 38 114.5t65 85t84.5 53t96.5 18.5z
M352 415q-54 0 -94.5 -35t-51.5 -101t16.5 -101t81.5 -35q53 0 94.5 36t52.5 100q11 65 -17.5 100.5t-81.5 35.5z" />
    <glyph glyph-name="uni1EA8" unicode="&#x1ea8;" horiz-adv-x="730" 
d="M605 1052q50 0 67.5 -25.5t9.5 -63.5q-5 -34 -31.5 -57.5l-62.5 -55.5l-36 38q31 26 44 43.5t15 31.5q3 14 -3 18.5t-17 4.5q-13 0 -21 -6.5t-15 -27.5l-67 6q5 18 13 35t21 30t33 21t50 8zM339 747l-18 65l137 68l112 -68l-34 -65l-90 52zM526 702l135 -702h-181
l-21 129h-266l-67 -129h-180l383 702h197zM438 259l-43 262l-135 -262h178z" />
    <glyph glyph-name="uni1EA9" unicode="&#x1ea9;" horiz-adv-x="680" 
d="M569 903q50 0 67.5 -25.5t9.5 -63.5q-5 -34 -31.5 -57.5l-62.5 -55.5l-36 38q31 26 44 43.5t15 31.5q3 14 -3 18.5t-17 4.5q-13 0 -21 -6.5t-15 -27.5l-67 6q5 18 13 35t21 30t33 21t50 8zM410 650l-107 -52l-18 65l137 68l112 -68l-34 -65zM316 565q69 0 111.5 -30
t54.5 -78l18 101h171l-99 -558h-171l19 101q-29 -48 -80 -78t-118 -30q-54 0 -95 20.5t-66 59.5t-33 95t4 126q11 64 38 114.5t65 85t84.5 53t96.5 18.5zM352 415q-54 0 -94.5 -35t-51.5 -101t16.5 -101t81.5 -35q53 0 94.5 36t52.5 100q11 65 -17.5 100.5t-81.5 35.5z" />
    <glyph glyph-name="uni1EAA" unicode="&#x1eaa;" horiz-adv-x="730" 
d="M434 924q-27 0 -38 -34h-58q20 55 47.5 78.5t63.5 23.5q16 0 28 -5t21.5 -11.5t19 -11.5t21.5 -5q11 0 21 8t15 25h59q-19 -54 -47 -77.5t-65 -23.5q-16 0 -28 5t-21.5 11.5t-18.5 11.5t-20 5zM339 747l-18 65l137 68l112 -68l-34 -65l-90 52zM459 129h-266l-67 -129
h-180l383 702h197l135 -702h-181zM438 259l-43 262l-135 -262h178z" />
    <glyph glyph-name="uni1EAB" unicode="&#x1eab;" horiz-adv-x="680" 
d="M413 843q16 0 28 -5t21.5 -11.5t19 -11.5t21.5 -5q11 0 21 8t15 25h59q-19 -54 -47 -77.5t-65 -23.5q-16 0 -28 5t-21.5 11.5t-18.5 11.5t-20 5q-27 0 -38 -34h-58q20 55 47.5 78.5t63.5 23.5zM410 650l-107 -52l-18 65l137 68l112 -68l-34 -65zM316 565q69 0 111.5 -30
t54.5 -78l18 101h171l-99 -558h-171l19 101q-29 -48 -80 -78t-118 -30q-54 0 -95 20.5t-66 59.5t-33 95t4 126q11 64 38 114.5t65 85t84.5 53t96.5 18.5zM352 415q-54 0 -94.5 -35t-51.5 -101t16.5 -101t81.5 -35q53 0 94.5 36t52.5 100q11 65 -17.5 100.5t-81.5 35.5z" />
    <glyph glyph-name="uni1EAC" unicode="&#x1eac;" horiz-adv-x="730" 
d="M333 749l-19 70l147 73l120 -73l-36 -70l-97 56zM480 0l-21 129h-266l-67 -129h-180l383 702h197l135 -702h-181zM438 259l-43 262l-135 -262h178zM302 -73q29 0 45 -19.5t11 -48.5t-27.5 -47.5t-51.5 -18.5t-44.5 18.5t-10.5 47.5t27.5 48.5t50.5 19.5z" />
    <glyph glyph-name="uni1EAD" unicode="&#x1ead;" horiz-adv-x="680" 
d="M412 656l-115 -56l-19 70l147 73l120 -73l-36 -70zM316 565q69 0 111.5 -30t54.5 -78l18 101h171l-99 -558h-171l19 101q-29 -48 -80 -78t-118 -30q-54 0 -95 20.5t-66 59.5t-33 95t4 126q11 64 38 114.5t65 85t84.5 53t96.5 18.5zM352 415q-54 0 -94.5 -35t-51.5 -101
t16.5 -101t81.5 -35q53 0 94.5 36t52.5 100q11 65 -17.5 100.5t-81.5 35.5zM199 -141q5 29 27.5 48.5t50.5 19.5q29 0 45 -19.5t11 -48.5t-27.5 -47.5t-51.5 -18.5t-44.5 18.5t-10.5 47.5z" />
    <glyph glyph-name="uni1EAE" unicode="&#x1eae;" horiz-adv-x="730" 
d="M407 949l-15 56l169 89l27 -81zM423 750q-61 0 -92.5 36.5t-19.5 104.5l2 12h64q-4 -28 9.5 -42.5t52.5 -14.5t58.5 14.5t24.5 42.5h63l-2 -12q-12 -68 -56 -104.5t-104 -36.5zM459 129h-266l-67 -129h-180l383 702h197l135 -702h-181zM438 259l-43 262l-135 -262h178z
" />
    <glyph glyph-name="uni1EAF" unicode="&#x1eaf;" horiz-adv-x="680" 
d="M552 864l-181 -64l-15 56l169 89zM387 601q-61 0 -92.5 36.5t-19.5 104.5l2 12h64q-4 -28 9.5 -42.5t52.5 -14.5t58.5 14.5t24.5 42.5h63l-2 -12q-12 -68 -56 -104.5t-104 -36.5zM316 565q69 0 111.5 -30t54.5 -78l18 101h171l-99 -558h-171l19 101q-29 -48 -80 -78
t-118 -30q-54 0 -95 20.5t-66 59.5t-33 95t4 126q11 64 38 114.5t65 85t84.5 53t96.5 18.5zM352 415q-54 0 -94.5 -35t-51.5 -101t16.5 -101t81.5 -35q53 0 94.5 36t52.5 100q11 65 -17.5 100.5t-81.5 35.5z" />
    <glyph glyph-name="uni1EB0" unicode="&#x1eb0;" horiz-adv-x="730" 
d="M563 942l-154 71l36 82l149 -92zM423 750q-61 0 -92.5 36.5t-19.5 104.5l2 12h64q-4 -28 9.5 -42.5t52.5 -14.5t58.5 14.5t24.5 42.5h63l-2 -12q-12 -68 -56 -104.5t-104 -36.5zM459 129h-266l-67 -129h-180l383 702h197l135 -702h-181zM438 259l-43 262l-135 -262h178z
" />
    <glyph glyph-name="uni1EB1" unicode="&#x1eb1;" horiz-adv-x="680" 
d="M558 854l-31 -61l-154 71l36 82zM387 601q-61 0 -92.5 36.5t-19.5 104.5l2 12h64q-4 -28 9.5 -42.5t52.5 -14.5t58.5 14.5t24.5 42.5h63l-2 -12q-12 -68 -56 -104.5t-104 -36.5zM316 565q69 0 111.5 -30t54.5 -78l18 101h171l-99 -558h-171l19 101q-29 -48 -80 -78
t-118 -30q-54 0 -95 20.5t-66 59.5t-33 95t4 126q11 64 38 114.5t65 85t84.5 53t96.5 18.5zM352 415q-54 0 -94.5 -35t-51.5 -101t16.5 -101t81.5 -35q53 0 94.5 36t52.5 100q11 65 -17.5 100.5t-81.5 35.5z" />
    <glyph glyph-name="uni1EB2" unicode="&#x1eb2;" horiz-adv-x="730" 
d="M485 1081q-13 0 -21 -6.5t-15 -27.5l-67 6q5 18 13 35t21 30t33 21t50 8q50 0 67.5 -25.5t9.5 -63.5q-5 -34 -31.5 -57.5l-62.5 -55.5l-36 38q31 26 44 43.5t15 31.5q3 14 -3 18.5t-17 4.5zM423 750q-61 0 -92.5 36.5t-19.5 104.5l2 12h64q-4 -28 9.5 -42.5t52.5 -14.5
t58.5 14.5t24.5 42.5h63l-2 -12q-12 -68 -56 -104.5t-104 -36.5zM459 129h-266l-67 -129h-180l383 702h197l135 -702h-181zM438 259l-43 262l-135 -262h178z" />
    <glyph glyph-name="uni1EB3" unicode="&#x1eb3;" horiz-adv-x="680" 
d="M463 998q50 0 67.5 -25.5t9.5 -63.5q-5 -34 -31.5 -57.5l-62.5 -55.5l-36 38q31 26 44 43.5t15 31.5q3 14 -3 18.5t-17 4.5q-13 0 -21 -6.5t-15 -27.5l-67 6q5 18 13 35t21 30t33 21t50 8zM387 601q-61 0 -92.5 36.5t-19.5 104.5l2 12h64q-4 -28 9.5 -42.5t52.5 -14.5
t58.5 14.5t24.5 42.5h63l-2 -12q-12 -68 -56 -104.5t-104 -36.5zM316 565q69 0 111.5 -30t54.5 -78l18 101h171l-99 -558h-171l19 101q-29 -48 -80 -78t-118 -30q-54 0 -95 20.5t-66 59.5t-33 95t4 126q11 64 38 114.5t65 85t84.5 53t96.5 18.5zM352 415q-54 0 -94.5 -35
t-51.5 -101t16.5 -101t81.5 -35q53 0 94.5 36t52.5 100q11 65 -17.5 100.5t-81.5 35.5z" />
    <glyph glyph-name="uni1EB4" unicode="&#x1eb4;" horiz-adv-x="730" 
d="M419 990q-30 0 -43 -39h-66q22 63 53.5 90t73.5 27q18 0 31.5 -6t25 -13l22 -13t23.5 -6q14 0 25 9.5t17 28.5h67q-21 -62 -53 -89t-74 -27q-19 0 -32.5 6t-25 13l-22 13t-22.5 6zM423 750q-61 0 -92.5 36.5t-19.5 104.5l2 12h64q-4 -28 9.5 -42.5t52.5 -14.5t58.5 14.5
t24.5 42.5h63l-2 -12q-12 -68 -56 -104.5t-104 -36.5zM459 129h-266l-67 -129h-180l383 702h197l135 -702h-181zM438 259l-43 262l-135 -262h178z" />
    <glyph glyph-name="uni1EB5" unicode="&#x1eb5;" horiz-adv-x="680" 
d="M401 919q18 0 31.5 -6t25 -13l22 -13t23.5 -6q14 0 25 9.5t17 28.5h67q-21 -62 -53 -89t-74 -27q-19 0 -32.5 6t-25 13l-22 13t-22.5 6q-30 0 -43 -39h-66q22 63 53.5 90t73.5 27zM387 601q-61 0 -92.5 36.5t-19.5 104.5l2 12h64q-4 -28 9.5 -42.5t52.5 -14.5t58.5 14.5
t24.5 42.5h63l-2 -12q-12 -68 -56 -104.5t-104 -36.5zM316 565q69 0 111.5 -30t54.5 -78l18 101h171l-99 -558h-171l19 101q-29 -48 -80 -78t-118 -30q-54 0 -95 20.5t-66 59.5t-33 95t4 126q11 64 38 114.5t65 85t84.5 53t96.5 18.5zM352 415q-54 0 -94.5 -35t-51.5 -101
t16.5 -101t81.5 -35q53 0 94.5 36t52.5 100q11 65 -17.5 100.5t-81.5 35.5z" />
    <glyph glyph-name="uni1EB6" unicode="&#x1eb6;" horiz-adv-x="730" 
d="M423 753q-66 0 -99.5 39.5t-20.5 112.5l2 12h69q-5 -29 9.5 -45t56.5 -16t63 16t26 45h68l-2 -12q-13 -73 -60 -112.5t-112 -39.5zM480 0l-21 129h-266l-67 -129h-180l383 702h197l135 -702h-181zM438 259l-43 262l-135 -262h178zM302 -73q29 0 45 -19.5t11 -48.5
t-27.5 -47.5t-51.5 -18.5t-44.5 18.5t-10.5 47.5t27.5 48.5t50.5 19.5z" />
    <glyph glyph-name="uni1EB7" unicode="&#x1eb7;" horiz-adv-x="680" 
d="M387 604q-66 0 -99.5 39.5t-20.5 112.5l2 12h69q-5 -29 9.5 -45t56.5 -16t63 16t26 45h68l-2 -12q-13 -73 -60 -112.5t-112 -39.5zM316 565q69 0 111.5 -30t54.5 -78l18 101h171l-99 -558h-171l19 101q-29 -48 -80 -78t-118 -30q-54 0 -95 20.5t-66 59.5t-33 95t4 126
q11 64 38 114.5t65 85t84.5 53t96.5 18.5zM352 415q-54 0 -94.5 -35t-51.5 -101t16.5 -101t81.5 -35q53 0 94.5 36t52.5 100q11 65 -17.5 100.5t-81.5 35.5zM199 -141q5 29 27.5 48.5t50.5 19.5q29 0 45 -19.5t11 -48.5t-27.5 -47.5t-51.5 -18.5t-44.5 18.5t-10.5 47.5z" />
    <glyph glyph-name="uni1EB8" unicode="&#x1eb8;" horiz-adv-x="537" 
d="M268 571l-25 -148h238l-23 -129h-239l-27 -157h269l-24 -137h-440l124 707h440l-24 -136h-269zM127 -141q5 29 27.5 48.5t50.5 19.5q29 0 45 -19.5t11 -48.5t-27.5 -47.5t-51.5 -18.5t-44.5 18.5t-10.5 47.5z" />
    <glyph glyph-name="uni1EB9" unicode="&#x1eb9;" horiz-adv-x="620" 
d="M361 565q63 0 111 -19.5t78 -55.5t41 -86t0 -110q-4 -24 -13 -46h-387q-4 -34 1 -56.5t17 -36t29.5 -19.5t37.5 -6q38 0 66 19.5t42 48.5h181q-16 -44 -45 -81.5t-68 -65t-87.5 -43t-104.5 -15.5q-61 0 -109.5 20t-79 58t-41.5 92.5t1 123.5q12 65 42 116.5t73.5 87.5
t98.5 55t116 19zM422 320q6 29 1 50t-17.5 34.5t-30.5 19.5t-38 6q-45 0 -81.5 -26.5t-51.5 -83.5h218zM247 -73q29 0 45 -19.5t11 -48.5t-27.5 -47.5t-51.5 -18.5t-44.5 18.5t-10.5 47.5t27.5 48.5t50.5 19.5z" />
    <glyph glyph-name="uni1EBA" unicode="&#x1eba;" horiz-adv-x="537" 
d="M385 970q54 0 72.5 -27.5t10.5 -68.5q-6 -36 -34.5 -61.5l-66.5 -59.5l-39 40q33 28 47 47t17 34t-4 20t-18 5q-14 0 -22.5 -7t-16.5 -30l-71 7q6 19 14 37t22 32.5t35.5 23t53.5 8.5zM268 571l-25 -148h238l-23 -129h-239l-27 -157h269l-24 -137h-440l124 707h440
l-24 -136h-269z" />
    <glyph glyph-name="uni1EBB" unicode="&#x1ebb;" horiz-adv-x="620" 
d="M386 750q-14 0 -22.5 -7t-16.5 -30l-71 7q6 19 14 37t22 32.5t35.5 23t53.5 8.5q54 0 72.5 -27.5t10.5 -68.5q-6 -36 -34.5 -61.5l-66.5 -59.5l-39 40q33 28 47 47t17 34t-4 20t-18 5zM361 565q63 0 111 -19.5t78 -55.5t41 -86t0 -110q-4 -24 -13 -46h-387
q-4 -34 1 -56.5t17 -36t29.5 -19.5t37.5 -6q38 0 66 19.5t42 48.5h181q-16 -44 -45 -81.5t-68 -65t-87.5 -43t-104.5 -15.5q-61 0 -109.5 20t-79 58t-41.5 92.5t1 123.5q12 65 42 116.5t73.5 87.5t98.5 55t116 19zM422 320q6 29 1 50t-17.5 34.5t-30.5 19.5t-38 6
q-45 0 -81.5 -26.5t-51.5 -83.5h218z" />
    <glyph glyph-name="uni1EBC" unicode="&#x1ebc;" horiz-adv-x="537" 
d="M318 884q20 0 34.5 -6.5t26.5 -14t23.5 -14t25.5 -6.5t26 10.5t19 30.5h72q-23 -66 -57.5 -95t-79.5 -29q-20 0 -34.5 6.5t-26.5 14t-23.5 13.5t-24.5 6q-32 0 -46 -41h-71q23 68 57 96.5t79 28.5zM268 571l-25 -148h238l-23 -129h-239l-27 -157h269l-24 -137h-440
l124 707h440l-24 -136h-269z" />
    <glyph glyph-name="uni1EBD" unicode="&#x1ebd;" horiz-adv-x="620" 
d="M315 651q-32 0 -46 -41h-71q23 68 57 96.5t79 28.5q20 0 34.5 -6.5t26.5 -14t23.5 -14t25.5 -6.5t26 10.5t19 30.5h72q-23 -66 -57.5 -95t-79.5 -29q-20 0 -34.5 6.5t-26.5 14t-23.5 13.5t-24.5 6zM361 565q63 0 111 -19.5t78 -55.5t41 -86t0 -110q-4 -24 -13 -46h-387
q-4 -34 1 -56.5t17 -36t29.5 -19.5t37.5 -6q38 0 66 19.5t42 48.5h181q-16 -44 -45 -81.5t-68 -65t-87.5 -43t-104.5 -15.5q-61 0 -109.5 20t-79 58t-41.5 92.5t1 123.5q12 65 42 116.5t73.5 87.5t98.5 55t116 19zM422 320q6 29 1 50t-17.5 34.5t-30.5 19.5t-38 6
q-45 0 -81.5 -26.5t-51.5 -83.5h218z" />
    <glyph glyph-name="uni1EBE" unicode="&#x1ebe;" horiz-adv-x="537" 
d="M493 957l-181 -64l-15 56l169 89zM364 799l-107 -52l-18 65l137 68l112 -68l-34 -65zM268 571l-25 -148h238l-23 -129h-239l-27 -157h269l-24 -137h-440l124 707h440l-24 -136h-269z" />
    <glyph glyph-name="uni1EBF" unicode="&#x1ebf;" horiz-adv-x="620" 
d="M328 744l-15 56l169 89l27 -81zM273 598l-18 65l137 68l112 -68l-34 -65l-90 52zM361 565q63 0 111 -19.5t78 -55.5t41 -86t0 -110q-4 -24 -13 -46h-387q-4 -34 1 -56.5t17 -36t29.5 -19.5t37.5 -6q38 0 66 19.5t42 48.5h181q-16 -44 -45 -81.5t-68 -65t-87.5 -43
t-104.5 -15.5q-61 0 -109.5 20t-79 58t-41.5 92.5t1 123.5q12 65 42 116.5t73.5 87.5t98.5 55t116 19zM422 320q6 29 1 50t-17.5 34.5t-30.5 19.5t-38 6q-45 0 -81.5 -26.5t-51.5 -83.5h218z" />
    <glyph glyph-name="uni1EC0" unicode="&#x1ec0;" horiz-adv-x="537" 
d="M502 941l-31 -61l-154 71l36 82zM364 799l-107 -52l-18 65l137 68l112 -68l-34 -65zM268 571l-25 -148h238l-23 -129h-239l-27 -157h269l-24 -137h-440l124 707h440l-24 -136h-269z" />
    <glyph glyph-name="uni1EC1" unicode="&#x1ec1;" horiz-adv-x="620" 
d="M487 731l-154 71l36 82l149 -92zM273 598l-18 65l137 68l112 -68l-34 -65l-90 52zM361 565q63 0 111 -19.5t78 -55.5t41 -86t0 -110q-4 -24 -13 -46h-387q-4 -34 1 -56.5t17 -36t29.5 -19.5t37.5 -6q38 0 66 19.5t42 48.5h181q-16 -44 -45 -81.5t-68 -65t-87.5 -43
t-104.5 -15.5q-61 0 -109.5 20t-79 58t-41.5 92.5t1 123.5q12 65 42 116.5t73.5 87.5t98.5 55t116 19zM422 320q6 29 1 50t-17.5 34.5t-30.5 19.5t-38 6q-45 0 -81.5 -26.5t-51.5 -83.5h218z" />
    <glyph glyph-name="uni1EC2" unicode="&#x1ec2;" horiz-adv-x="537" 
d="M523 1052q50 0 67.5 -25.5t9.5 -63.5q-5 -34 -31.5 -57.5l-62.5 -55.5l-36 38q31 26 44 43.5t15 31.5q3 14 -3 18.5t-17 4.5q-13 0 -21 -6.5t-15 -27.5l-67 6q5 18 13 35t21 30t33 21t50 8zM364 799l-107 -52l-18 65l137 68l112 -68l-34 -65zM268 571l-25 -148h238
l-23 -129h-239l-27 -157h269l-24 -137h-440l124 707h440l-24 -136h-269z" />
    <glyph glyph-name="uni1EC3" unicode="&#x1ec3;" horiz-adv-x="620" 
d="M539 903q50 0 67.5 -25.5t9.5 -63.5q-5 -34 -31.5 -57.5l-62.5 -55.5l-36 38q31 26 44 43.5t15 31.5q3 14 -3 18.5t-17 4.5q-13 0 -21 -6.5t-15 -27.5l-67 6q5 18 13 35t21 30t33 21t50 8zM273 598l-18 65l137 68l112 -68l-34 -65l-90 52zM361 565q63 0 111 -19.5
t78 -55.5t41 -86t0 -110q-4 -24 -13 -46h-387q-4 -34 1 -56.5t17 -36t29.5 -19.5t37.5 -6q38 0 66 19.5t42 48.5h181q-16 -44 -45 -81.5t-68 -65t-87.5 -43t-104.5 -15.5q-61 0 -109.5 20t-79 58t-41.5 92.5t1 123.5q12 65 42 116.5t73.5 87.5t98.5 55t116 19zM422 320
q6 29 1 50t-17.5 34.5t-30.5 19.5t-38 6q-45 0 -81.5 -26.5t-51.5 -83.5h218z" />
    <glyph glyph-name="uni1EC4" unicode="&#x1ec4;" horiz-adv-x="537" 
d="M367 992q16 0 28 -5t21.5 -11.5t19 -11.5t21.5 -5q11 0 21 8t15 25h59q-19 -54 -47 -77.5t-65 -23.5q-16 0 -28 5t-21.5 11.5t-18.5 11.5t-20 5q-27 0 -38 -34h-58q20 55 47.5 78.5t63.5 23.5zM364 799l-107 -52l-18 65l137 68l112 -68l-34 -65zM268 571l-25 -148h238
l-23 -129h-239l-27 -157h269l-24 -137h-440l124 707h440l-24 -136h-269z" />
    <glyph glyph-name="uni1EC5" unicode="&#x1ec5;" horiz-adv-x="620" 
d="M368 775q-27 0 -38 -34h-58q20 55 47.5 78.5t63.5 23.5q16 0 28 -5t21.5 -11.5t19 -11.5t21.5 -5q11 0 21 8t15 25h59q-19 -54 -47 -77.5t-65 -23.5q-16 0 -28 5t-21.5 11.5t-18.5 11.5t-20 5zM273 598l-18 65l137 68l112 -68l-34 -65l-90 52zM361 565q63 0 111 -19.5
t78 -55.5t41 -86t0 -110q-4 -24 -13 -46h-387q-4 -34 1 -56.5t17 -36t29.5 -19.5t37.5 -6q38 0 66 19.5t42 48.5h181q-16 -44 -45 -81.5t-68 -65t-87.5 -43t-104.5 -15.5q-61 0 -109.5 20t-79 58t-41.5 92.5t1 123.5q12 65 42 116.5t73.5 87.5t98.5 55t116 19zM422 320
q6 29 1 50t-17.5 34.5t-30.5 19.5t-38 6q-45 0 -81.5 -26.5t-51.5 -83.5h218z" />
    <glyph glyph-name="uni1EC6" unicode="&#x1ec6;" horiz-adv-x="537" 
d="M366 805l-115 -56l-19 70l147 73l120 -73l-36 -70zM268 571l-25 -148h238l-23 -129h-239l-27 -157h269l-24 -137h-440l124 707h440l-24 -136h-269zM127 -141q5 29 27.5 48.5t50.5 19.5q29 0 45 -19.5t11 -48.5t-27.5 -47.5t-51.5 -18.5t-44.5 18.5t-10.5 47.5z" />
    <glyph glyph-name="uni1EC7" unicode="&#x1ec7;" horiz-adv-x="620" 
d="M267 600l-19 70l147 73l120 -73l-36 -70l-97 56zM361 565q63 0 111 -19.5t78 -55.5t41 -86t0 -110q-4 -24 -13 -46h-387q-4 -34 1 -56.5t17 -36t29.5 -19.5t37.5 -6q38 0 66 19.5t42 48.5h181q-16 -44 -45 -81.5t-68 -65t-87.5 -43t-104.5 -15.5q-61 0 -109.5 20t-79 58
t-41.5 92.5t1 123.5q12 65 42 116.5t73.5 87.5t98.5 55t116 19zM422 320q6 29 1 50t-17.5 34.5t-30.5 19.5t-38 6q-45 0 -81.5 -26.5t-51.5 -83.5h218zM247 -73q29 0 45 -19.5t11 -48.5t-27.5 -47.5t-51.5 -18.5t-44.5 18.5t-10.5 47.5t27.5 48.5t50.5 19.5z" />
    <glyph glyph-name="uni1EC8" unicode="&#x1ec8;" horiz-adv-x="289" 
d="M261 970q54 0 72.5 -27.5t10.5 -68.5q-6 -36 -34.5 -61.5l-66.5 -59.5l-39 40q33 28 47 47t17 34t-4 20t-18 5q-14 0 -22.5 -7t-16.5 -30l-71 7q6 19 14 37t22 32.5t35.5 23t53.5 8.5zM292 707l-124 -707h-171l124 707h171z" />
    <glyph glyph-name="uni1EC9" unicode="&#x1ec9;" horiz-adv-x="282" 
d="M231 821q54 0 72.5 -27.5t10.5 -68.5q-6 -36 -34.5 -61.5l-66.5 -59.5l-39 40q33 28 47 47t17 34t-4 20t-18 5q-14 0 -22.5 -7t-16.5 -30l-71 7q6 19 14 37t22 32.5t35.5 23t53.5 8.5zM276 558l-99 -558h-171l98 558h172z" />
    <glyph glyph-name="uni1ECA" unicode="&#x1eca;" horiz-adv-x="289" 
d="M292 707l-124 -707h-171l124 707h171zM3 -141q5 29 27.5 48.5t50.5 19.5q29 0 45 -19.5t11 -48.5t-27.5 -47.5t-51.5 -18.5t-44.5 18.5t-10.5 47.5z" />
    <glyph glyph-name="uni1ECB" unicode="&#x1ecb;" horiz-adv-x="288" 
d="M119 715q7 38 39 64t79 26t70 -26t16 -64q-6 -38 -38 -63.5t-79 -25.5q-48 0 -71 25.5t-16 63.5zM279 558l-99 -558h-171l98 558h172zM2 -141q5 29 27.5 48.5t50.5 19.5q29 0 45 -19.5t11 -48.5t-27.5 -47.5t-51.5 -18.5t-44.5 18.5t-10.5 47.5z" />
    <glyph glyph-name="uni1ECC" unicode="&#x1ecc;" 
d="M431 718q85 0 149 -29t104.5 -81t54.5 -124t-1 -158q-13 -73 -46.5 -134.5t-84 -105.5t-116.5 -68.5t-143 -24.5q-87 0 -152 29t-105 81t-53.5 124.5t1.5 158.5q13 73 47 134t84.5 105t116.5 68.5t144 24.5zM418 559q-81 0 -138 -52.5t-74 -143.5q-17 -97 24.5 -153.5
t130.5 -56.5q40 0 75 13.5t62.5 39t46.5 61.5t27 81q17 98 -24.5 154.5t-129.5 56.5zM247 -141q5 29 27.5 48.5t50.5 19.5q29 0 45 -19.5t11 -48.5t-27.5 -47.5t-51.5 -18.5t-44.5 18.5t-10.5 47.5z" />
    <glyph glyph-name="uni1ECD" unicode="&#x1ecd;" horiz-adv-x="640" 
d="M366 565q63 0 113.5 -20.5t83.5 -59.5t46 -94.5t1 -126.5q-12 -63 -42.5 -113.5t-75 -85.5t-99.5 -53.5t-116 -18.5q-64 0 -115 20.5t-84 59.5t-46 95t-1 126q11 64 42 114t75.5 85t100.5 53.5t117 18.5zM344 417q-22 0 -44.5 -8t-41.5 -25t-33 -43t-20 -62t-1.5 -61.5
t17.5 -42.5t32.5 -25t42.5 -8t45 8t41 25t33.5 42.5t20.5 61.5t1 62t-18 43t-32.5 25t-42.5 8zM179 -141q5 29 27.5 48.5t50.5 19.5q29 0 45 -19.5t11 -48.5t-27.5 -47.5t-51.5 -18.5t-44.5 18.5t-10.5 47.5z" />
    <glyph glyph-name="uni1ECE" unicode="&#x1ece;" 
d="M481 970q54 0 72.5 -27.5t10.5 -68.5q-6 -36 -34.5 -61.5l-66.5 -59.5l-39 40q33 28 47 47t17 34t-4 20t-18 5q-14 0 -22.5 -7t-16.5 -30l-71 7q6 19 14 37t22 32.5t35.5 23t53.5 8.5zM431 718q85 0 149 -29t104.5 -81t54.5 -124t-1 -158q-13 -73 -46.5 -134.5
t-84 -105.5t-116.5 -68.5t-143 -24.5q-87 0 -152 29t-105 81t-53.5 124.5t1.5 158.5q13 73 47 134t84.5 105t116.5 68.5t144 24.5zM418 559q-81 0 -138 -52.5t-74 -143.5q-17 -97 24.5 -153.5t130.5 -56.5q40 0 75 13.5t62.5 39t46.5 61.5t27 81q17 98 -24.5 154.5
t-129.5 56.5z" />
    <glyph glyph-name="uni1ECF" unicode="&#x1ecf;" horiz-adv-x="640" 
d="M411 821q54 0 72.5 -27.5t10.5 -68.5q-6 -36 -34.5 -61.5l-66.5 -59.5l-39 40q33 28 47 47t17 34t-4 20t-18 5q-14 0 -22.5 -7t-16.5 -30l-71 7q6 19 14 37t22 32.5t35.5 23t53.5 8.5zM366 565q63 0 113.5 -20.5t83.5 -59.5t46 -94.5t1 -126.5q-12 -63 -42.5 -113.5
t-75 -85.5t-99.5 -53.5t-116 -18.5q-64 0 -115 20.5t-84 59.5t-46 95t-1 126q11 64 42 114t75.5 85t100.5 53.5t117 18.5zM344 417q-22 0 -44.5 -8t-41.5 -25t-33 -43t-20 -62t-1.5 -61.5t17.5 -42.5t32.5 -25t42.5 -8t45 8t41 25t33.5 42.5t20.5 61.5t1 62t-18 43t-32.5 25
t-42.5 8z" />
    <glyph glyph-name="uni1ED0" unicode="&#x1ed0;" 
d="M589 957l-181 -64l-15 56l169 89zM460 799l-107 -52l-18 65l137 68l112 -68l-34 -65zM431 718q85 0 149 -29t104.5 -81t54.5 -124t-1 -158q-13 -73 -46.5 -134.5t-84 -105.5t-116.5 -68.5t-143 -24.5q-87 0 -152 29t-105 81t-53.5 124.5t1.5 158.5q13 73 47 134t84.5 105
t116.5 68.5t144 24.5zM418 559q-81 0 -138 -52.5t-74 -143.5q-17 -97 24.5 -153.5t130.5 -56.5q40 0 75 13.5t62.5 39t46.5 61.5t27 81q17 98 -24.5 154.5t-129.5 56.5z" />
    <glyph glyph-name="uni1ED1" unicode="&#x1ed1;" horiz-adv-x="640" 
d="M519 808l-181 -64l-15 56l169 89zM390 650l-107 -52l-18 65l137 68l112 -68l-34 -65zM366 565q63 0 113.5 -20.5t83.5 -59.5t46 -94.5t1 -126.5q-12 -63 -42.5 -113.5t-75 -85.5t-99.5 -53.5t-116 -18.5q-64 0 -115 20.5t-84 59.5t-46 95t-1 126q11 64 42 114t75.5 85
t100.5 53.5t117 18.5zM344 417q-22 0 -44.5 -8t-41.5 -25t-33 -43t-20 -62t-1.5 -61.5t17.5 -42.5t32.5 -25t42.5 -8t45 8t41 25t33.5 42.5t20.5 61.5t1 62t-18 43t-32.5 25t-42.5 8z" />
    <glyph glyph-name="uni1ED2" unicode="&#x1ed2;" 
d="M598 941l-31 -61l-154 71l36 82zM460 799l-107 -52l-18 65l137 68l112 -68l-34 -65zM431 718q85 0 149 -29t104.5 -81t54.5 -124t-1 -158q-13 -73 -46.5 -134.5t-84 -105.5t-116.5 -68.5t-143 -24.5q-87 0 -152 29t-105 81t-53.5 124.5t1.5 158.5q13 73 47 134t84.5 105
t116.5 68.5t144 24.5zM418 559q-81 0 -138 -52.5t-74 -143.5q-17 -97 24.5 -153.5t130.5 -56.5q40 0 75 13.5t62.5 39t46.5 61.5t27 81q17 98 -24.5 154.5t-129.5 56.5z" />
    <glyph glyph-name="uni1ED3" unicode="&#x1ed3;" horiz-adv-x="640" 
d="M528 792l-31 -61l-154 71l36 82zM390 650l-107 -52l-18 65l137 68l112 -68l-34 -65zM366 565q63 0 113.5 -20.5t83.5 -59.5t46 -94.5t1 -126.5q-12 -63 -42.5 -113.5t-75 -85.5t-99.5 -53.5t-116 -18.5q-64 0 -115 20.5t-84 59.5t-46 95t-1 126q11 64 42 114t75.5 85
t100.5 53.5t117 18.5zM344 417q-22 0 -44.5 -8t-41.5 -25t-33 -43t-20 -62t-1.5 -61.5t17.5 -42.5t32.5 -25t42.5 -8t45 8t41 25t33.5 42.5t20.5 61.5t1 62t-18 43t-32.5 25t-42.5 8z" />
    <glyph glyph-name="uni1ED4" unicode="&#x1ed4;" 
d="M619 1052q50 0 67.5 -25.5t9.5 -63.5q-5 -34 -31.5 -57.5l-62.5 -55.5l-36 38q31 26 44 43.5t15 31.5q3 14 -3 18.5t-17 4.5q-13 0 -21 -6.5t-15 -27.5l-67 6q5 18 13 35t21 30t33 21t50 8zM460 799l-107 -52l-18 65l137 68l112 -68l-34 -65zM431 718q85 0 149 -29
t104.5 -81t54.5 -124t-1 -158q-13 -73 -46.5 -134.5t-84 -105.5t-116.5 -68.5t-143 -24.5q-87 0 -152 29t-105 81t-53.5 124.5t1.5 158.5q13 73 47 134t84.5 105t116.5 68.5t144 24.5zM418 559q-81 0 -138 -52.5t-74 -143.5q-17 -97 24.5 -153.5t130.5 -56.5q40 0 75 13.5
t62.5 39t46.5 61.5t27 81q17 98 -24.5 154.5t-129.5 56.5z" />
    <glyph glyph-name="uni1ED5" unicode="&#x1ed5;" horiz-adv-x="640" 
d="M549 903q50 0 67.5 -25.5t9.5 -63.5q-5 -34 -31.5 -57.5l-62.5 -55.5l-36 38q31 26 44 43.5t15 31.5q3 14 -3 18.5t-17 4.5q-13 0 -21 -6.5t-15 -27.5l-67 6q5 18 13 35t21 30t33 21t50 8zM390 650l-107 -52l-18 65l137 68l112 -68l-34 -65zM366 565q63 0 113.5 -20.5
t83.5 -59.5t46 -94.5t1 -126.5q-12 -63 -42.5 -113.5t-75 -85.5t-99.5 -53.5t-116 -18.5q-64 0 -115 20.5t-84 59.5t-46 95t-1 126q11 64 42 114t75.5 85t100.5 53.5t117 18.5zM344 417q-22 0 -44.5 -8t-41.5 -25t-33 -43t-20 -62t-1.5 -61.5t17.5 -42.5t32.5 -25t42.5 -8
t45 8t41 25t33.5 42.5t20.5 61.5t1 62t-18 43t-32.5 25t-42.5 8z" />
    <glyph glyph-name="uni1ED6" unicode="&#x1ed6;" 
d="M463 992q16 0 28 -5t21.5 -11.5t19 -11.5t21.5 -5q11 0 21 8t15 25h59q-19 -54 -47 -77.5t-65 -23.5q-16 0 -28 5t-21.5 11.5t-18.5 11.5t-20 5q-27 0 -38 -34h-58q20 55 47.5 78.5t63.5 23.5zM460 799l-107 -52l-18 65l137 68l112 -68l-34 -65zM431 718q85 0 149 -29
t104.5 -81t54.5 -124t-1 -158q-13 -73 -46.5 -134.5t-84 -105.5t-116.5 -68.5t-143 -24.5q-87 0 -152 29t-105 81t-53.5 124.5t1.5 158.5q13 73 47 134t84.5 105t116.5 68.5t144 24.5zM418 559q-81 0 -138 -52.5t-74 -143.5q-17 -97 24.5 -153.5t130.5 -56.5q40 0 75 13.5
t62.5 39t46.5 61.5t27 81q17 98 -24.5 154.5t-129.5 56.5z" />
    <glyph glyph-name="uni1ED7" unicode="&#x1ed7;" horiz-adv-x="640" 
d="M393 843q16 0 28 -5t21.5 -11.5t19 -11.5t21.5 -5q11 0 21 8t15 25h59q-19 -54 -47 -77.5t-65 -23.5q-16 0 -28 5t-21.5 11.5t-18.5 11.5t-20 5q-27 0 -38 -34h-58q20 55 47.5 78.5t63.5 23.5zM390 650l-107 -52l-18 65l137 68l112 -68l-34 -65zM366 565
q63 0 113.5 -20.5t83.5 -59.5t46 -94.5t1 -126.5q-12 -63 -42.5 -113.5t-75 -85.5t-99.5 -53.5t-116 -18.5q-64 0 -115 20.5t-84 59.5t-46 95t-1 126q11 64 42 114t75.5 85t100.5 53.5t117 18.5zM344 417q-22 0 -44.5 -8t-41.5 -25t-33 -43t-20 -62t-1.5 -61.5t17.5 -42.5
t32.5 -25t42.5 -8t45 8t41 25t33.5 42.5t20.5 61.5t1 62t-18 43t-32.5 25t-42.5 8z" />
    <glyph glyph-name="uni1ED8" unicode="&#x1ed8;" 
d="M462 805l-115 -56l-19 70l147 73l120 -73l-36 -70zM431 718q85 0 149 -29t104.5 -81t54.5 -124t-1 -158q-13 -73 -46.5 -134.5t-84 -105.5t-116.5 -68.5t-143 -24.5q-87 0 -152 29t-105 81t-53.5 124.5t1.5 158.5q13 73 47 134t84.5 105t116.5 68.5t144 24.5zM418 559
q-81 0 -138 -52.5t-74 -143.5q-17 -97 24.5 -153.5t130.5 -56.5q40 0 75 13.5t62.5 39t46.5 61.5t27 81q17 98 -24.5 154.5t-129.5 56.5zM247 -141q5 29 27.5 48.5t50.5 19.5q29 0 45 -19.5t11 -48.5t-27.5 -47.5t-51.5 -18.5t-44.5 18.5t-10.5 47.5z" />
    <glyph glyph-name="uni1ED9" unicode="&#x1ed9;" horiz-adv-x="640" 
d="M392 656l-115 -56l-19 70l147 73l120 -73l-36 -70zM366 565q63 0 113.5 -20.5t83.5 -59.5t46 -94.5t1 -126.5q-12 -63 -42.5 -113.5t-75 -85.5t-99.5 -53.5t-116 -18.5q-64 0 -115 20.5t-84 59.5t-46 95t-1 126q11 64 42 114t75.5 85t100.5 53.5t117 18.5zM344 417
q-22 0 -44.5 -8t-41.5 -25t-33 -43t-20 -62t-1.5 -61.5t17.5 -42.5t32.5 -25t42.5 -8t45 8t41 25t33.5 42.5t20.5 61.5t1 62t-18 43t-32.5 25t-42.5 8zM179 -141q5 29 27.5 48.5t50.5 19.5q29 0 45 -19.5t11 -48.5t-27.5 -47.5t-51.5 -18.5t-44.5 18.5t-10.5 47.5z" />
    <glyph glyph-name="uni1EDA" unicode="&#x1eda;" 
d="M382 756l-17 60l182 96l29 -87zM658 638q55 -53 76.5 -132.5t3.5 -179.5q-13 -73 -46.5 -134.5t-84 -105.5t-116.5 -68.5t-143 -24.5q-87 0 -152 29t-105 81t-53.5 124.5t1.5 158.5q13 73 47 134t84.5 105t116.5 68.5t144 24.5q49 0 95 -11q45 2 75.5 25.5t40.5 81.5h117
q-11 -62 -38 -105t-63 -71zM572 348q17 98 -24.5 154.5t-129.5 56.5q-81 0 -138 -52.5t-74 -143.5q-17 -97 24.5 -153.5t130.5 -56.5q40 0 75 13.5t62.5 39t46.5 61.5t27 81z" />
    <glyph glyph-name="uni1EDB" unicode="&#x1edb;" horiz-adv-x="640" 
d="M312 607l-17 60l182 96l29 -87zM662 665q-11 -62 -38 -105.5t-64 -70.5q35 -39 49 -96t1 -129q-12 -63 -42.5 -113.5t-75 -85.5t-99.5 -53.5t-116 -18.5q-64 0 -115 20.5t-84 59.5t-46 95t-1 126q11 64 42 114t75.5 85t100.5 53.5t117 18.5q38 0 67 -7q44 3 73 26.5
t39 80.5h117zM436 279q6 36 1 62t-18 43t-32.5 25t-42.5 8q-22 0 -44.5 -8t-41.5 -25t-33 -43t-20 -62t-1.5 -61.5t17.5 -42.5t32.5 -25t42.5 -8t45 8t41 25t33.5 42.5t20.5 61.5z" />
    <glyph glyph-name="uni1EDC" unicode="&#x1edc;" 
d="M549 749l-165 76l39 88l159 -99zM658 638q55 -53 76.5 -132.5t3.5 -179.5q-13 -73 -46.5 -134.5t-84 -105.5t-116.5 -68.5t-143 -24.5q-87 0 -152 29t-105 81t-53.5 124.5t1.5 158.5q13 73 47 134t84.5 105t116.5 68.5t144 24.5q49 0 95 -11q45 2 75.5 25.5t40.5 81.5
h117q-11 -62 -38 -105t-63 -71zM572 348q17 98 -24.5 154.5t-129.5 56.5q-81 0 -138 -52.5t-74 -143.5q-17 -97 24.5 -153.5t130.5 -56.5q40 0 75 13.5t62.5 39t46.5 61.5t27 81z" />
    <glyph glyph-name="uni1EDD" unicode="&#x1edd;" horiz-adv-x="640" 
d="M479 600l-165 76l39 88l159 -99zM662 665q-11 -62 -38 -105.5t-64 -70.5q35 -39 49 -96t1 -129q-12 -63 -42.5 -113.5t-75 -85.5t-99.5 -53.5t-116 -18.5q-64 0 -115 20.5t-84 59.5t-46 95t-1 126q11 64 42 114t75.5 85t100.5 53.5t117 18.5q38 0 67 -7q44 3 73 26.5
t39 80.5h117zM436 279q6 36 1 62t-18 43t-32.5 25t-42.5 8q-22 0 -44.5 -8t-41.5 -25t-33 -43t-20 -62t-1.5 -61.5t17.5 -42.5t32.5 -25t42.5 -8t45 8t41 25t33.5 42.5t20.5 61.5z" />
    <glyph glyph-name="uni1EDE" unicode="&#x1ede;" 
d="M466 899q-14 0 -22.5 -7t-16.5 -30l-71 7q6 19 14 37t22 32.5t35.5 23t53.5 8.5q54 0 72.5 -27.5t10.5 -68.5q-6 -36 -34.5 -61.5l-66.5 -59.5l-39 40q33 28 47 47t17 34t-4 20t-18 5zM658 638q55 -53 76.5 -132.5t3.5 -179.5q-13 -73 -46.5 -134.5t-84 -105.5
t-116.5 -68.5t-143 -24.5q-87 0 -152 29t-105 81t-53.5 124.5t1.5 158.5q13 73 47 134t84.5 105t116.5 68.5t144 24.5q49 0 95 -11q45 2 75.5 25.5t40.5 81.5h117q-11 -62 -38 -105t-63 -71zM572 348q17 98 -24.5 154.5t-129.5 56.5q-81 0 -138 -52.5t-74 -143.5
q-17 -97 24.5 -153.5t130.5 -56.5q40 0 75 13.5t62.5 39t46.5 61.5t27 81z" />
    <glyph glyph-name="uni1EDF" unicode="&#x1edf;" horiz-adv-x="640" 
d="M396 750q-14 0 -22.5 -7t-16.5 -30l-71 7q6 19 14 37t22 32.5t35.5 23t53.5 8.5q54 0 72.5 -27.5t10.5 -68.5q-6 -36 -34.5 -61.5l-66.5 -59.5l-39 40q33 28 47 47t17 34t-4 20t-18 5zM662 665q-11 -62 -38 -105.5t-64 -70.5q35 -39 49 -96t1 -129q-12 -63 -42.5 -113.5
t-75 -85.5t-99.5 -53.5t-116 -18.5q-64 0 -115 20.5t-84 59.5t-46 95t-1 126q11 64 42 114t75.5 85t100.5 53.5t117 18.5q38 0 67 -7q44 3 73 26.5t39 80.5h117zM436 279q6 36 1 62t-18 43t-32.5 25t-42.5 8q-22 0 -44.5 -8t-41.5 -25t-33 -43t-20 -62t-1.5 -61.5
t17.5 -42.5t32.5 -25t42.5 -8t45 8t41 25t33.5 42.5t20.5 61.5z" />
    <glyph glyph-name="uni1EE0" unicode="&#x1ee0;" 
d="M373 836q-32 0 -46 -41h-71q23 68 57 96.5t79 28.5q20 0 34.5 -6.5t26.5 -14t23.5 -14t25.5 -6.5t26 10.5t19 30.5h72q-23 -66 -57.5 -95t-79.5 -29q-20 0 -34.5 6.5t-26.5 14t-23.5 13.5t-24.5 6zM658 638q55 -53 76.5 -132.5t3.5 -179.5q-13 -73 -46.5 -134.5
t-84 -105.5t-116.5 -68.5t-143 -24.5q-87 0 -152 29t-105 81t-53.5 124.5t1.5 158.5q13 73 47 134t84.5 105t116.5 68.5t144 24.5q49 0 95 -11q45 2 75.5 25.5t40.5 81.5h117q-11 -62 -38 -105t-63 -71zM572 348q17 98 -24.5 154.5t-129.5 56.5q-81 0 -138 -52.5t-74 -143.5
q-17 -97 24.5 -153.5t130.5 -56.5q40 0 75 13.5t62.5 39t46.5 61.5t27 81z" />
    <glyph glyph-name="uni1EE1" unicode="&#x1ee1;" horiz-adv-x="640" 
d="M294 668q-32 0 -46 -41h-71q23 68 57 96.5t79 28.5q20 0 34.5 -6.5t26.5 -14t23.5 -14t25.5 -6.5t26 10.5t19 30.5h72q-23 -66 -57.5 -95t-79.5 -29q-20 0 -34.5 6.5t-26.5 14t-23.5 13.5t-24.5 6zM662 665q-11 -62 -38 -105.5t-64 -70.5q35 -39 49 -96t1 -129
q-12 -63 -42.5 -113.5t-75 -85.5t-99.5 -53.5t-116 -18.5q-64 0 -115 20.5t-84 59.5t-46 95t-1 126q11 64 42 114t75.5 85t100.5 53.5t117 18.5q38 0 67 -7q44 3 73 26.5t39 80.5h117zM436 279q6 36 1 62t-18 43t-32.5 25t-42.5 8q-22 0 -44.5 -8t-41.5 -25t-33 -43t-20 -62
t-1.5 -61.5t17.5 -42.5t32.5 -25t42.5 -8t45 8t41 25t33.5 42.5t20.5 61.5z" />
    <glyph glyph-name="uni1EE2" unicode="&#x1ee2;" 
d="M658 638q55 -53 76.5 -132.5t3.5 -179.5q-13 -73 -46.5 -134.5t-84 -105.5t-116.5 -68.5t-143 -24.5q-87 0 -152 29t-105 81t-53.5 124.5t1.5 158.5q13 73 47 134t84.5 105t116.5 68.5t144 24.5q49 0 95 -11q45 2 75.5 25.5t40.5 81.5h117q-11 -62 -38 -105t-63 -71z
M572 348q17 98 -24.5 154.5t-129.5 56.5q-81 0 -138 -52.5t-74 -143.5q-17 -97 24.5 -153.5t130.5 -56.5q40 0 75 13.5t62.5 39t46.5 61.5t27 81zM325 -73q29 0 45 -19.5t11 -48.5t-27.5 -47.5t-51.5 -18.5t-44.5 18.5t-10.5 47.5t27.5 48.5t50.5 19.5z" />
    <glyph glyph-name="uni1EE3" unicode="&#x1ee3;" horiz-adv-x="640" 
d="M662 665q-11 -62 -38 -105.5t-64 -70.5q35 -39 49 -96t1 -129q-12 -63 -42.5 -113.5t-75 -85.5t-99.5 -53.5t-116 -18.5q-64 0 -115 20.5t-84 59.5t-46 95t-1 126q11 64 42 114t75.5 85t100.5 53.5t117 18.5q38 0 67 -7q44 3 73 26.5t39 80.5h117zM436 279q6 36 1 62
t-18 43t-32.5 25t-42.5 8q-22 0 -44.5 -8t-41.5 -25t-33 -43t-20 -62t-1.5 -61.5t17.5 -42.5t32.5 -25t42.5 -8t45 8t41 25t33.5 42.5t20.5 61.5zM257 -73q29 0 45 -19.5t11 -48.5t-27.5 -47.5t-51.5 -18.5t-44.5 18.5t-10.5 47.5t27.5 48.5t50.5 19.5z" />
    <glyph glyph-name="uni1EE4" unicode="&#x1ee4;" horiz-adv-x="697" 
d="M288 707l-72 -408q-12 -70 12 -107t85 -37t99 37t50 107l72 408h171l-72 -408q-13 -77 -46.5 -134.5t-80.5 -95.5t-104.5 -57t-120.5 -19t-112.5 19t-81.5 57t-43.5 95.5t2.5 134.5l71 408h171zM192 -141q5 29 27.5 48.5t50.5 19.5q29 0 45 -19.5t11 -48.5t-27.5 -47.5
t-51.5 -18.5t-44.5 18.5t-10.5 47.5z" />
    <glyph glyph-name="uni1EE5" unicode="&#x1ee5;" horiz-adv-x="665" 
d="M656 558l-98 -558h-172l18 102q-32 -49 -84 -78.5t-118 -29.5q-96 0 -141 63t-25 177l57 324h170l-53 -303q-10 -58 14 -89t74 -31q51 0 87 32t47 95l52 296h172zM270 -73q29 0 45 -19.5t11 -48.5t-27.5 -47.5t-51.5 -18.5t-44.5 18.5t-10.5 47.5t27.5 48.5t50.5 19.5z
" />
    <glyph glyph-name="uni1EE6" unicode="&#x1ee6;" horiz-adv-x="697" 
d="M465 970q54 0 72.5 -27.5t10.5 -68.5q-6 -36 -34.5 -61.5l-66.5 -59.5l-39 40q33 28 47 47t17 34t-4 20t-18 5q-14 0 -22.5 -7t-16.5 -30l-71 7q6 19 14 37t22 32.5t35.5 23t53.5 8.5zM288 707l-72 -408q-12 -70 12 -107t85 -37t99 37t50 107l72 408h171l-72 -408
q-13 -77 -46.5 -134.5t-80.5 -95.5t-104.5 -57t-120.5 -19t-112.5 19t-81.5 57t-43.5 95.5t2.5 134.5l71 408h171z" />
    <glyph glyph-name="uni1EE7" unicode="&#x1ee7;" horiz-adv-x="665" 
d="M409 750q-14 0 -22.5 -7t-16.5 -30l-71 7q6 19 14 37t22 32.5t35.5 23t53.5 8.5q54 0 72.5 -27.5t10.5 -68.5q-6 -36 -34.5 -61.5l-66.5 -59.5l-39 40q33 28 47 47t17 34t-4 20t-18 5zM656 558l-98 -558h-172l18 102q-32 -49 -84 -78.5t-118 -29.5q-96 0 -141 63t-25 177
l57 324h170l-53 -303q-10 -58 14 -89t74 -31q51 0 87 32t47 95l52 296h172z" />
    <glyph glyph-name="uni1EE8" unicode="&#x1ee8;" horiz-adv-x="697" 
d="M366 756l-17 60l182 96l29 -87zM836 814q-14 -81 -55 -130.5t-93 -74.5l-55 -310q-13 -77 -46.5 -134.5t-80.5 -95.5t-104.5 -57t-120.5 -19t-112.5 19t-81.5 57t-43.5 95.5t2.5 134.5l71 408h171l-72 -408q-12 -70 12 -107t85 -37t99 37t50 107l72 408h61q48 0 80.5 23
t43.5 84h117z" />
    <glyph glyph-name="uni1EE9" unicode="&#x1ee9;" horiz-adv-x="665" 
d="M325 607l-17 60l182 96l29 -87zM787 665q-14 -81 -55 -130.5t-93 -74.5l-81 -460h-172l18 102q-32 -49 -84 -78.5t-118 -29.5q-96 0 -141 63t-25 177l57 324h170l-53 -303q-10 -58 14 -89t74 -31q51 0 87 32t47 95l52 296h62q48 0 80.5 23t43.5 84h117z" />
    <glyph glyph-name="uni1EEA" unicode="&#x1eea;" horiz-adv-x="697" 
d="M533 749l-165 76l39 88l159 -99zM836 814q-14 -81 -55 -130.5t-93 -74.5l-55 -310q-13 -77 -46.5 -134.5t-80.5 -95.5t-104.5 -57t-120.5 -19t-112.5 19t-81.5 57t-43.5 95.5t2.5 134.5l71 408h171l-72 -408q-12 -70 12 -107t85 -37t99 37t50 107l72 408h61q48 0 80.5 23
t43.5 84h117z" />
    <glyph glyph-name="uni1EEB" unicode="&#x1eeb;" horiz-adv-x="665" 
d="M492 600l-165 76l39 88l159 -99zM787 665q-14 -81 -55 -130.5t-93 -74.5l-81 -460h-172l18 102q-32 -49 -84 -78.5t-118 -29.5q-96 0 -141 63t-25 177l57 324h170l-53 -303q-10 -58 14 -89t74 -31q51 0 87 32t47 95l52 296h62q48 0 80.5 23t43.5 84h117z" />
    <glyph glyph-name="uni1EEC" unicode="&#x1eec;" horiz-adv-x="697" 
d="M450 899q-14 0 -22.5 -7t-16.5 -30l-71 7q6 19 14 37t22 32.5t35.5 23t53.5 8.5q54 0 72.5 -27.5t10.5 -68.5q-6 -36 -34.5 -61.5l-66.5 -59.5l-39 40q33 28 47 47t17 34t-4 20t-18 5zM836 814q-14 -81 -55 -130.5t-93 -74.5l-55 -310q-13 -77 -46.5 -134.5t-80.5 -95.5
t-104.5 -57t-120.5 -19t-112.5 19t-81.5 57t-43.5 95.5t2.5 134.5l71 408h171l-72 -408q-12 -70 12 -107t85 -37t99 37t50 107l72 408h61q48 0 80.5 23t43.5 84h117z" />
    <glyph glyph-name="uni1EED" unicode="&#x1eed;" horiz-adv-x="665" 
d="M409 750q-14 0 -22.5 -7t-16.5 -30l-71 7q6 19 14 37t22 32.5t35.5 23t53.5 8.5q54 0 72.5 -27.5t10.5 -68.5q-6 -36 -34.5 -61.5l-66.5 -59.5l-39 40q33 28 47 47t17 34t-4 20t-18 5zM787 665q-14 -81 -55 -130.5t-93 -74.5l-81 -460h-172l18 102q-32 -49 -84 -78.5
t-118 -29.5q-96 0 -141 63t-25 177l57 324h170l-53 -303q-10 -58 14 -89t74 -31q51 0 87 32t47 95l52 296h62q48 0 80.5 23t43.5 84h117z" />
    <glyph glyph-name="uni1EEE" unicode="&#x1eee;" horiz-adv-x="697" 
d="M379 800q-32 0 -46 -41h-71q23 68 57 96.5t79 28.5q20 0 34.5 -6.5t26.5 -14t23.5 -14t25.5 -6.5t26 10.5t19 30.5h72q-23 -66 -57.5 -95t-79.5 -29q-20 0 -34.5 6.5t-26.5 14t-23.5 13.5t-24.5 6zM836 814q-14 -81 -55 -130.5t-93 -74.5l-55 -310q-13 -77 -46.5 -134.5
t-80.5 -95.5t-104.5 -57t-120.5 -19t-112.5 19t-81.5 57t-43.5 95.5t2.5 134.5l71 408h171l-72 -408q-12 -70 12 -107t85 -37t99 37t50 107l72 408h61q48 0 80.5 23t43.5 84h117z" />
    <glyph glyph-name="uni1EEF" unicode="&#x1eef;" horiz-adv-x="665" 
d="M338 651q-32 0 -46 -41h-71q23 68 57 96.5t79 28.5q20 0 34.5 -6.5t26.5 -14t23.5 -14t25.5 -6.5t26 10.5t19 30.5h72q-23 -66 -57.5 -95t-79.5 -29q-20 0 -34.5 6.5t-26.5 14t-23.5 13.5t-24.5 6zM787 665q-14 -81 -55 -130.5t-93 -74.5l-81 -460h-172l18 102
q-32 -49 -84 -78.5t-118 -29.5q-96 0 -141 63t-25 177l57 324h170l-53 -303q-10 -58 14 -89t74 -31q51 0 87 32t47 95l52 296h62q48 0 80.5 23t43.5 84h117z" />
    <glyph glyph-name="uni1EF0" unicode="&#x1ef0;" horiz-adv-x="697" 
d="M836 814q-14 -81 -55 -130.5t-93 -74.5l-55 -310q-13 -77 -46.5 -134.5t-80.5 -95.5t-104.5 -57t-120.5 -19t-112.5 19t-81.5 57t-43.5 95.5t2.5 134.5l71 408h171l-72 -408q-12 -70 12 -107t85 -37t99 37t50 107l72 408h61q48 0 80.5 23t43.5 84h117zM270 -73
q29 0 45 -19.5t11 -48.5t-27.5 -47.5t-51.5 -18.5t-44.5 18.5t-10.5 47.5t27.5 48.5t50.5 19.5z" />
    <glyph glyph-name="uni1EF1" unicode="&#x1ef1;" horiz-adv-x="665" 
d="M787 665q-14 -81 -55 -130.5t-93 -74.5l-81 -460h-172l18 102q-32 -49 -84 -78.5t-118 -29.5q-96 0 -141 63t-25 177l57 324h170l-53 -303q-10 -58 14 -89t74 -31q51 0 87 32t47 95l52 296h62q48 0 80.5 23t43.5 84h117zM270 -73q29 0 45 -19.5t11 -48.5t-27.5 -47.5
t-51.5 -18.5t-44.5 18.5t-10.5 47.5t27.5 48.5t50.5 19.5z" />
    <glyph glyph-name="Ygrave" unicode="&#x1ef2;" horiz-adv-x="677" 
d="M523 749l-165 76l39 88l159 -99zM732 707l-329 -472l-41 -235h-171l41 235l-162 472h196l86 -288l186 288h194z" />
    <glyph glyph-name="ygrave" unicode="&#x1ef3;" horiz-adv-x="626" 
d="M505 665l-33 -65l-165 76l39 88zM224 558l73 -342l185 342h190l-494 -824h-189l183 287l-139 537h191z" />
    <glyph glyph-name="uni1EF4" unicode="&#x1ef4;" horiz-adv-x="677" 
d="M732 707l-329 -472l-41 -235h-171l41 235l-162 472h196l86 -288l186 288h194zM275 -73q29 0 45 -19.5t11 -48.5t-27.5 -47.5t-51.5 -18.5t-44.5 18.5t-10.5 47.5t27.5 48.5t50.5 19.5z" />
    <glyph glyph-name="uni1EF5" unicode="&#x1ef5;" horiz-adv-x="626" 
d="M224 558l73 -342l185 342h190l-494 -824h-189l183 287l-139 537h191zM327 -141q5 29 27.5 48.5t50.5 19.5q29 0 45 -19.5t11 -48.5t-27.5 -47.5t-51.5 -18.5t-44.5 18.5t-10.5 47.5z" />
    <glyph glyph-name="uni1EF6" unicode="&#x1ef6;" horiz-adv-x="677" 
d="M440 899q-14 0 -22.5 -7t-16.5 -30l-71 7q6 19 14 37t22 32.5t35.5 23t53.5 8.5q54 0 72.5 -27.5t10.5 -68.5q-6 -36 -34.5 -61.5l-66.5 -59.5l-39 40q33 28 47 47t17 34t-4 20t-18 5zM732 707l-329 -472l-41 -235h-171l41 235l-162 472h196l86 -288l186 288h194z" />
    <glyph glyph-name="uni1EF7" unicode="&#x1ef7;" horiz-adv-x="626" 
d="M404 821q54 0 72.5 -27.5t10.5 -68.5q-6 -36 -34.5 -61.5l-66.5 -59.5l-39 40q33 28 47 47t17 34t-4 20t-18 5q-14 0 -22.5 -7t-16.5 -30l-71 7q6 19 14 37t22 32.5t35.5 23t53.5 8.5zM224 558l73 -342l185 342h190l-494 -824h-189l183 287l-139 537h191z" />
    <glyph glyph-name="uni1EF8" unicode="&#x1ef8;" horiz-adv-x="677" 
d="M369 800q-32 0 -46 -41h-71q23 68 57 96.5t79 28.5q20 0 34.5 -6.5t26.5 -14t23.5 -14t25.5 -6.5t26 10.5t19 30.5h72q-23 -66 -57.5 -95t-79.5 -29q-20 0 -34.5 6.5t-26.5 14t-23.5 13.5t-24.5 6zM732 707l-329 -472l-41 -235h-171l41 235l-162 472h196l86 -288l186 288
h194z" />
    <glyph glyph-name="uni1EF9" unicode="&#x1ef9;" horiz-adv-x="626" 
d="M337 735q20 0 34.5 -6.5t26.5 -14t23.5 -14t25.5 -6.5t26 10.5t19 30.5h72q-23 -66 -57.5 -95t-79.5 -29q-20 0 -34.5 6.5t-26.5 14t-23.5 13.5t-24.5 6q-32 0 -46 -41h-71q23 68 57 96.5t79 28.5zM224 558l73 -342l185 342h190l-494 -824h-189l183 287l-139 537h191z
" />
    <glyph glyph-name="endash" unicode="&#x2013;" horiz-adv-x="658" 
d="M619 422l-25 -142h-555l25 142h555z" />
    <glyph glyph-name="emdash" unicode="&#x2014;" horiz-adv-x="893" 
d="M854 422l-25 -142h-790l25 142h790z" />
    <glyph glyph-name="quoteleft" unicode="&#x2018;" horiz-adv-x="241" 
d="M42 572q-5 32 -5 62t5 57q11 66 53 108.5t114 42.5l-11 -63q-52 0 -65 -68l-2 -15h64l-22 -124h-131z" />
    <glyph glyph-name="quoteright" unicode="&#x2019;" horiz-adv-x="241" 
d="M200 842q5 -32 4.5 -61.5t-5.5 -56.5q-11 -66 -52.5 -109t-113.5 -43l11 64q53 0 65 67l2 16h-63l21 123h131z" />
    <glyph glyph-name="quotesinglbase" unicode="&#x201a;" horiz-adv-x="242" 
d="M171 106q13 -40 11.5 -89.5t-21 -93t-58.5 -73t-102 -29.5l11 63q25 0 40.5 11.5t21.5 46.5l2 10h-73l27 154h141z" />
    <glyph glyph-name="quotedblleft" unicode="&#x201c;" horiz-adv-x="432" 
d="M42 572q-5 32 -5 62t5 57q11 66 53 108.5t114 42.5l-11 -63q-52 0 -65 -68l-2 -15h64l-22 -124h-131zM232 572q-5 32 -5 62t5 57q12 66 53.5 108.5t112.5 42.5l-10 -63q-52 0 -65 -68l-2 -15h63l-21 -124h-131z" />
    <glyph glyph-name="quotedblright" unicode="&#x201d;" horiz-adv-x="432" 
d="M200 842q5 -32 4.5 -61.5t-5.5 -56.5q-11 -66 -52.5 -109t-113.5 -43l11 64q53 0 65 67l2 16h-63l21 123h131zM389 842q10 -62 1 -118q-12 -66 -53.5 -109t-113.5 -43l11 64q52 0 64 67l3 16h-64l21 123h131z" />
    <glyph glyph-name="quotedblbase" unicode="&#x201e;" horiz-adv-x="432" 
d="M163 123q5 -32 4.5 -61.5t-5.5 -56.5q-11 -66 -52.5 -109t-113.5 -43l11 64q53 0 65 67l2 16h-63l21 123h131zM352 123q10 -62 1 -118q-12 -66 -53.5 -109t-113.5 -43l11 64q52 0 64 67l3 16h-64l21 123h131z" />
    <glyph glyph-name="dagger" unicode="&#x2020;" horiz-adv-x="645" 
d="M629 429l-206 12l-108 -707h-171l141 707l-210 -12l23 129l205 -12l27 243h171l-60 -243l210 12z" />
    <glyph glyph-name="daggerdbl" unicode="&#x2021;" horiz-adv-x="645" 
d="M423 441l-64 -358l211 13l-23 -131l-206 12l-27 -243h-171l60 243l-210 -12l23 131l205 -13l64 358l-211 -12l23 129l206 -12l26 243h171l-59 -243l211 12l-23 -129z" />
    <glyph glyph-name="bullet" unicode="&#x2022;" horiz-adv-x="466" 
d="M82 333q6 32 23 59.5t41 48t53.5 32.5t60.5 12q32 0 57.5 -12t42 -32.5t23 -48t0.5 -59.5q-6 -31 -22 -58.5t-40 -47.5t-53.5 -31.5t-61.5 -11.5q-31 0 -56.5 11.5t-42.5 31.5t-24 47.5t-1 58.5z" />
    <glyph glyph-name="ellipsis" unicode="&#x2026;" horiz-adv-x="705" 
d="M204 171l-30 -171h-177l30 171h177zM439 171l-30 -171h-177l30 171h177zM674 171l-30 -171h-177l30 171h177z" />
    <glyph glyph-name="perthousand" unicode="&#x2030;" horiz-adv-x="1170" 
d="M256 719q36 0 64.5 -11t47 -32t25.5 -52.5t0 -72.5t-25 -72.5t-44 -52.5t-58.5 -32t-67.5 -11q-36 0 -65 11t-47.5 32t-25.5 52.5t0 72.5t25 72.5t44.5 52.5t58.5 32t68 11zM740 709l-511 -709h-164l511 709h164zM174 551q-6 -32 5 -49t35 -17q25 0 43 17t23 49
q6 32 -5.5 49t-36.5 17t-42 -17t-22 -49zM608 327q72 0 111.5 -42.5t24.5 -125.5q-7 -41 -25 -72.5t-43.5 -53t-58 -32.5t-68.5 -11q-35 0 -63.5 11t-47.5 32.5t-26 53t0 72.5t25 72.5t44.5 52.5t58.5 32t68 11zM974 327q36 0 64.5 -11t47 -32t25.5 -52.5t-1 -72.5
q-7 -41 -25 -72.5t-44 -53t-58 -32.5t-68 -11t-64.5 11t-47 32.5t-26 53t-0.5 72.5q8 41 26 72.5t44.5 52.5t58.5 32t68 11zM525 159q-6 -32 5 -49.5t36 -17.5q24 0 42 17.5t23 49.5q6 31 -5.5 48.5t-35.5 17.5q-25 0 -42.5 -17.5t-22.5 -48.5zM891 159q-6 -32 5 -49.5
t35 -17.5q25 0 43 17.5t23 49.5q6 31 -5.5 48.5t-36.5 17.5q-24 0 -41.5 -17.5t-22.5 -48.5z" />
    <glyph glyph-name="guilsinglleft" unicode="&#x2039;" horiz-adv-x="337" 
d="M99 120l-54 175l115 175h158l-117 -175l55 -175h-157z" />
    <glyph glyph-name="guilsinglright" unicode="&#x203a;" horiz-adv-x="337" 
d="M138 295l-57 175h158l53 -175l-114 -175h-159z" />
    <glyph glyph-name="fraction" unicode="&#x2044;" horiz-adv-x="468" 
d="M571 709l-512 -709h-165l512 709h165z" />
    <glyph glyph-name="uni20A8" unicode="&#x20a8;" horiz-adv-x="1169" 
d="M632 483q-14 -75 -64.5 -130t-136.5 -75l118 -278h-189l-105 267h-39l-48 -267h-171l125 707h292q65 0 110.5 -17t72 -47t35.5 -71t0 -89zM808 391q-4 -23 19 -34.5t59 -19.5l78 -17t76.5 -27t54.5 -48.5t11 -81.5q-6 -36 -26 -67t-51.5 -54t-74.5 -36t-95 -13
q-115 0 -176.5 49.5t-59.5 143.5h168q-2 -32 23 -49t66 -17q33 0 50 13.5t22 33.5q4 24 -19 36t-58.5 20l-77.5 17t-76.5 26.5t-53.5 48t-10 82.5q6 35 26 65.5t52.5 53.5t76.5 36t98 13q59 0 101.5 -14.5t70 -40.5t41.5 -61t14 -77h-168q-1 31 -23.5 48.5t-60.5 17.5
q-32 0 -52.5 -12t-24.5 -35zM457 473q7 41 -12.5 65.5t-71.5 24.5h-105l-32 -179h106q52 0 79.5 22.5t35.5 66.5z" />
    <glyph glyph-name="Euro" unicode="&#x20ac;" horiz-adv-x="802" 
d="M388 153q59 0 104.5 28t74.5 76h180q-23 -59 -60.5 -107.5t-86 -83t-108.5 -53.5t-128 -19q-65 0 -116.5 18t-88 51t-58 79.5t-25.5 103.5h-79l14 79h67q1 8 1.5 14.5t2.5 14.5l6 28h-67l14 79h78q24 57 62 104t86 80t106 51t123 18q68 0 121.5 -19t90.5 -53.5t57 -83
t22 -107.5h-180q-11 48 -47 76.5t-95 28.5q-50 0 -92 -25t-71 -70h175l-13 -79h-196l-6 -28q-2 -8 -2.5 -15t-1.5 -14h196l-15 -79h-174q14 -45 47 -69t82 -24z" />
    <glyph glyph-name="uni20B9" unicode="&#x20b9;" horiz-adv-x="601" 
d="M535 594l-11 -66h85l-17 -98h-89q-13 -41 -37 -74.5t-59.5 -57.5t-84.5 -37t-112 -13l-9 -46q-7 -39 5 -61.5t48 -22.5q34 0 52.5 21t26.5 65h159q-22 -97 -85.5 -155.5t-167.5 -58.5q-112 0 -163.5 57.5t-29.5 181.5l23 130q74 0 123 2.5t79.5 10t46.5 21.5t25 37h-275
l17 98h278l12 66h-278l20 113h523l-19 -113h-86z" />
    <glyph glyph-name="uni20BA" unicode="&#x20ba;" horiz-adv-x="807" 
d="M801 456q-21 -120 -57 -207.5t-91.5 -144.5t-132.5 -84.5t-180 -27.5q-57 0 -119 7.5t-129 20.5l40 228l-130 -22l18 102l130 22l11 62l-131 -23l18 99l131 24l35 198h173l-29 -166l141 26l-19 -102l-140 -25l-11 -62l144 25l-18 -102l-144 -25l-21 -119q20 -5 39 -6
t38 -1q68 0 113 24.5t74 65.5t46 96.5t27 116.5h174z" />
    <glyph glyph-name="uni20BD" unicode="&#x20bd;" horiz-adv-x="679" 
d="M458 707q65 0 110.5 -16t72.5 -44.5t36 -68t1 -86.5q-8 -48 -31.5 -88t-61 -68t-88.5 -43.5t-115 -15.5h-105l-12 -65h154l-22 -128h-154l-15 -84h-171l15 84h-96l23 128h95l12 65h-96l24 132h95l52 298h277zM504 493q7 36 -11 60.5t-68 24.5h-95l-30 -169h95
q50 0 76.5 23t32.5 61z" />
    <glyph glyph-name="uni2113" unicode="&#x2113;" horiz-adv-x="285" 
d="M312 740l-130 -740h-172l130 740h172z" />
    <glyph glyph-name="trademark" unicode="&#x2122;" horiz-adv-x="883" 
d="M363 707l-18 -100h-91l-44 -250h-120l44 250h-91l18 100h302zM881 707l-62 -350h-111l32 201l-120 -201h-82l-47 213l-38 -213h-106l63 350h163l37 -204l122 204h149z" />
    <glyph glyph-name="uni2126" unicode="&#x2126;" horiz-adv-x="792" 
d="M759 378q-14 -75 -49 -138.5t-103 -109.5h103l-23 -130h-270l24 135q51 38 88.5 91t50.5 128q17 98 -23.5 152t-125.5 54t-144.5 -54.5t-76.5 -151.5q-13 -75 5.5 -128t57.5 -91l-24 -135h-270l23 130h102q-52 46 -64.5 109.5t1.5 138.5q14 81 53 144t95 106.5
t125.5 66.5t144.5 23t136.5 -23t102.5 -66.5t58 -106.5t3 -144z" />
    <glyph glyph-name="estimated" unicode="&#x212e;" horiz-adv-x="748" 
d="M320 -7q-75 0 -134.5 23t-98.5 66.5t-54 108t0 146.5q14 79 48 147.5t86 119.5t120 80t150 29t140.5 -27.5t93.5 -73t47 -105t1 -123.5l-11 -63h-488l-31 -178q29 -24 65.5 -37t82.5 -13q73 0 136 28.5t126 81.5l47 -68q-76 -68 -156.5 -105t-169.5 -37zM560 574
q-24 22 -59.5 33t-80.5 11q-48 0 -86 -13.5t-70 -36.5l-29 -159h296z" />
    <glyph glyph-name="partialdiff" unicode="&#x2202;" horiz-adv-x="614" 
d="M336 559q18 0 35.5 -3.5t31.5 -12t25 -23.5t15 -38q1 36 -4.5 66t-21 51t-42 32.5t-68.5 11.5q-14 0 -29 -1.5t-32 -3.5l14 85q35 9 66 13t59 4q129 0 180.5 -86.5t22.5 -247.5q-17 -96 -51.5 -173t-83.5 -130.5t-111.5 -82t-136.5 -28.5q-48 0 -88.5 15.5t-67.5 47.5
t-37.5 80.5t0.5 113.5q13 70 43.5 127t73.5 97.5t96 63t111 22.5zM328 416q-55 0 -91.5 -47t-50.5 -119q-10 -58 10 -83t51 -25q28 0 51 13t40.5 36.5t30 55.5t19.5 70q10 53 -8.5 76t-51.5 23z" />
    <glyph glyph-name="uni2206" unicode="&#x2206;" horiz-adv-x="736" 
d="M500 704l176 -573l-23 -131h-695l23 131l380 573h139zM157 131h343l-104 379z" />
    <glyph glyph-name="product" unicode="&#x220f;" horiz-adv-x="748" 
d="M787 709l-24 -129h-70l-103 -580h-171l102 580h-216l-102 -580h-172l103 580h-71l24 129h700z" />
    <glyph glyph-name="summation" unicode="&#x2211;" horiz-adv-x="536" 
d="M552 574h-307l207 -170l-23 -130l-281 -198h317l-24 -131h-468l35 200l267 189l-203 172l35 198h469z" />
    <glyph glyph-name="minus" unicode="&#x2212;" horiz-adv-x="491" 
d="M485 422l-24 -142h-441l25 142h440z" />
    <glyph glyph-name="radical" unicode="&#x221a;" horiz-adv-x="930" 
d="M988 905l-693 -947h-80l-103 267l-91 -48l-34 79l258 138l93 -243l552 754h98z" />
    <glyph glyph-name="infinity" unicode="&#x221e;" 
d="M606 520q87 -1 126.5 -45.5t24.5 -126.5q-7 -41 -26.5 -73t-48 -54.5t-63 -34t-71.5 -11.5q-67 0 -109 26t-70 62q-36 -39 -84.5 -64t-105.5 -24q-85 1 -125 46t-26 126q8 41 27.5 73.5t47.5 54.5t62.5 33.5t71.5 11.5q36 0 63 -7.5t47.5 -20.5t36 -30t27.5 -36
q36 42 86 68.5t109 25.5zM211 287q26 0 53.5 13.5t52.5 39.5q-18 29 -37 49t-47 20t-47 -16.5t-24 -45.5q-5 -28 8 -44t41 -16zM624 348q5 29 -8.5 45t-41.5 16q-29 0 -59 -16t-56 -48q17 -25 38 -41.5t55 -16.5q28 0 47.5 16t24.5 45z" />
    <glyph glyph-name="integral" unicode="&#x222b;" horiz-adv-x="293" 
d="M179 761q15 53 40.5 88t58.5 56t72.5 29.5t82.5 8.5h16l-40 -147h-19q-29 0 -41 -35l-235 -843q-15 -54 -40 -89.5t-58 -56.5t-73 -30t-83 -9h-17l41 147h19q17 0 25.5 9t15.5 29z" />
    <glyph glyph-name="approxequal" unicode="&#x2248;" horiz-adv-x="636" 
d="M270 590q33 0 58 -10.5t46 -23l40 -23t41 -10.5q27 0 44.5 16.5t28.5 51.5h129q-38 -116 -100 -168t-137 -52q-33 0 -58 10.5t-46 23t-40.5 23t-41.5 10.5q-50 0 -73 -68h-128q39 116 100.5 168t136.5 52zM226 340q33 0 58 -10.5t46 -23l40 -23t41 -10.5q27 0 44.5 16.5
t28.5 51.5h129q-38 -116 -100 -168t-137 -52q-33 0 -58 10.5t-46 23t-40.5 23t-41.5 10.5q-50 0 -73 -68h-128q39 116 100.5 168t136.5 52z" />
    <glyph glyph-name="notequal" unicode="&#x2260;" horiz-adv-x="611" 
d="M531 555h91l-27 -156h-203l-88 -99h274l-27 -155h-385l-91 -102h-86l91 102h-90l27 155h201l89 99h-272l27 156h384l91 102h85z" />
    <glyph glyph-name="lessequal" unicode="&#x2264;" horiz-adv-x="467" 
d="M256 387l170 -185h-211l-172 184l237 186h211zM19 131h396l-23 -133h-396z" />
    <glyph glyph-name="greaterequal" unicode="&#x2265;" horiz-adv-x="467" 
d="M12 202l235 184l-170 186h211l172 -186l-237 -184h-211zM-2 131h395l-23 -133h-395z" />
    <glyph glyph-name="lozenge" unicode="&#x25ca;" horiz-adv-x="565" 
d="M545 353l-309 -262l-216 262l310 262zM185 353l81 -98l114 98l-79 98z" />
    <glyph glyph-name="fi" unicode="&#xfb01;" horiz-adv-x="658" 
d="M406 633q-48 4 -71 -13t-32 -62h331l-98 -558h-171l72 414h-160l-72 -414h-172l73 414h-67l26 144h66l1 6q20 112 96.5 168.5t203.5 47.5zM589 782q47 0 70.5 -23.5t16.5 -61.5t-38.5 -62t-78.5 -24q-48 0 -71 24t-16 62t38 61.5t79 23.5z" />
    <glyph glyph-name="fl" unicode="&#xfb02;" horiz-adv-x="653" 
d="M356 414h-101l-73 -414h-171l73 414h-67l25 144h67l1 6q20 112 99.5 169t211.5 47l-27 -147q-54 4 -78.5 -13t-34.5 -62h100zM680 740l-130 -740h-172l130 740h172z" />
    <glyph glyph-name="uni03020300" horiz-adv-x="0" 
d="M30 829l-31 -61l-154 71l36 82zM-108 687l-107 -52l-18 65l137 68l112 -68l-34 -65z" />
    <glyph glyph-name="uni03020301" horiz-adv-x="0" 
d="M37 842l-181 -64l-15 56l169 89zM-92 684l-107 -52l-18 65l137 68l112 -68l-34 -65z" />
    <glyph glyph-name="uni03020303" horiz-adv-x="0" 
d="M-104 881q16 0 28 -5t21.5 -11.5t19 -11.5t21.5 -5q11 0 21 8t15 25h59q-19 -54 -47 -77.5t-65 -23.5q-16 0 -28 5t-21.5 11.5t-19 11.5t-19.5 5q-27 0 -38 -34h-58q20 55 47.5 78.5t63.5 23.5zM-107 688l-107 -52l-18 65l137 68l112 -68l-34 -65z" />
    <glyph glyph-name="uni03020309" horiz-adv-x="0" 
d="M59 937q50 0 67.5 -25.5t9.5 -63.5q-5 -34 -31.5 -57.5l-62.5 -55.5l-36 38q31 26 44 43.5t15 31.5q3 14 -3 18.5t-17 4.5q-13 0 -21 -6.5t-15 -27.5l-67 6q5 18 13 35t21 30t33 21t50 8zM-100 684l-107 -52l-18 65l137 68l112 -68l-34 -65z" />
    <glyph glyph-name="uni03060300" horiz-adv-x="0" 
d="M36 872l-31 -61l-154 71l36 82zM-135 619q-61 0 -92.5 36.5t-19.5 104.5l2 12h64q-4 -28 9.5 -42.5t52.5 -14.5t58.5 14.5t24.5 42.5h63l-2 -12q-12 -68 -56 -104.5t-104 -36.5z" />
    <glyph glyph-name="uni03060301" horiz-adv-x="0" 
d="M32 882l-181 -64l-15 56l169 89zM-133 619q-61 0 -92.5 36.5t-19.5 104.5l2 12h64q-4 -28 9.5 -42.5t52.5 -14.5t58.5 14.5t24.5 42.5h63l-2 -12q-12 -68 -56 -104.5t-104 -36.5z" />
    <glyph glyph-name="uni03060303" horiz-adv-x="0" 
d="M-120 937q18 0 31.5 -6t25 -13l22 -13t23.5 -6q14 0 25 9.5t17 28.5h67q-21 -62 -53 -89t-74 -27q-19 0 -32.5 6t-25 13l-22 13t-22.5 6q-30 0 -43 -39h-66q22 63 53.5 90t73.5 27zM-134 619q-61 0 -92.5 36.5t-19.5 104.5l2 12h64q-4 -28 9.5 -42.5t52.5 -14.5
t58.5 14.5t24.5 42.5h63l-2 -12q-12 -68 -56 -104.5t-104 -36.5z" />
    <glyph glyph-name="uni03060309" horiz-adv-x="0" 
d="M-61 1014q50 0 67.5 -25.5t9.5 -63.5q-5 -34 -31.5 -57.5l-62.5 -55.5l-36 38q31 26 44 43.5t15 31.5q3 14 -3 18.5t-17 4.5q-13 0 -21 -6.5t-15 -27.5l-67 6q5 18 13 35t21 30t33 21t50 8zM-137 617q-61 0 -92.5 36.5t-19.5 104.5l2 12h64q-4 -28 9.5 -42.5t52.5 -14.5
t58.5 14.5t24.5 42.5h63l-2 -12q-12 -68 -56 -104.5t-104 -36.5z" />
  </font>
</defs>
</svg>
