<?xml version="1.0" standalone="no"?>
<!DOCTYPE svg PUBLIC "-//W3C//DTD SVG 1.1//EN" "http://www.w3.org/Graphics/SVG/1.1/DTD/svg11.dtd" >
<svg>
<metadata>
Created by FontForge 20090622 at Thu Nov 28 10:24:44 2019
 By deploy user
</metadata>
<defs>
<font id="PoppinsVN-900" horiz-adv-x="680" >
  <font-face 
    font-family="PoppinsVN 900"
    font-weight="400"
    font-stretch="normal"
    units-per-em="1000"
    panose-1="0 0 5 0 0 0 0 0 0 0"
    ascent="800"
    descent="-200"
    x-height="564"
    cap-height="708"
    bbox="-430 -346 1331 1116"
    underline-thickness="50"
    underline-position="-50"
    unicode-range="U+000D-U+FB02"
  />
<missing-glyph horiz-adv-x="505" 
d="M414 -270h-320v1010h320v-1010zM170 672v-33h65v-37h-66v-34h167v34h-66v37h66v33h-166zM169 542v-105h167v34h-66v71h-101zM235 471h-33v37h33v-37zM169 410v-34h66v-37h-66v-33h101v70h66v34h-167zM303 349v-67h-134v-34h167v101h-33zM235 226v-57h35v24h33v-48h-101
v81h-33v-114h167v114h-101zM169 51v-114h167v114h-167zM303 -30h-101v48h101v-48zM169 -86v-34h70l-70 -47v-33h167v33h-103l71 47h32v34h-167z" />
    <glyph glyph-name=".notdef" horiz-adv-x="505" 
d="M414 -270h-320v1010h320v-1010zM170 672v-33h65v-37h-66v-34h167v34h-66v37h66v33h-166zM169 542v-105h167v34h-66v71h-101zM235 471h-33v37h33v-37zM169 410v-34h66v-37h-66v-33h101v70h66v34h-167zM303 349v-67h-134v-34h167v101h-33zM235 226v-57h35v24h33v-48h-101
v81h-33v-114h167v114h-101zM169 51v-114h167v114h-167zM303 -30h-101v48h101v-48zM169 -86v-34h70l-70 -47v-33h167v33h-103l71 47h32v34h-167z" />
    <glyph glyph-name=".null" horiz-adv-x="0" 
 />
    <glyph glyph-name=".null" horiz-adv-x="0" 
 />
    <glyph glyph-name="nonmarkingreturn" unicode="&#xd;" horiz-adv-x="250" 
 />
    <glyph glyph-name="space" unicode=" " horiz-adv-x="170" 
 />
    <glyph glyph-name="exclam" unicode="!" horiz-adv-x="435" 
d="M350 755l-26 -474h-190l-26 474h242zM339 212v-212h-220v212h220z" />
    <glyph glyph-name="quotedbl" unicode="&#x22;" horiz-adv-x="490" 
d="M220 803l-13 -235h-148l-14 235h175zM445 803l-13 -235h-148l-14 235h175z" />
    <glyph glyph-name="numbersign" unicode="#" horiz-adv-x="933" 
d="M765 421l-20 -95h110v-202h-154l-26 -124h-206l26 124h-139l-26 -124h-205l26 124h-141v202h185l20 95h-137v202h180l25 117h205l-25 -117h139l25 117h206l-25 -117h115v-202h-158zM559 421h-139l-20 -95h139z" />
    <glyph glyph-name="dollar" unicode="$" horiz-adv-x="665" 
d="M637 209q0 -45 -18.5 -84t-54.5 -68t-88.5 -46.5t-120.5 -17.5v-80h-51v82q-56 5 -104.5 21.5t-84.5 45.5t-58 70t-25 95h236q2 -24 11.5 -38t24.5 -21v99l-89 26t-89 39t-68.5 66t-27.5 106q0 51 22 90.5t59.5 66.5t87.5 42t105 17v80h51v-81q121 -7 192 -64.5
t78 -163.5h-239q-2 24 -10.5 36.5t-20.5 18.5v-99l90 -28t92 -40.5t71.5 -65.5t28.5 -104zM268 514q0 -15 9.5 -26.5t26.5 -20.5v84q-36 -6 -36 -37zM355 162q20 2 32.5 12t12.5 30q0 16 -12.5 27t-32.5 20v-89z" />
    <glyph glyph-name="percent" unicode="%" horiz-adv-x="896" 
d="M201 721q38 0 71 -11t57 -33.5t37.5 -56.5t13.5 -80q0 -45 -13.5 -79t-37.5 -56.5t-57 -33.5t-71 -11q-39 0 -72 11t-57 33.5t-38 56.5t-14 79q0 46 14 80t38 56.5t57 33.5t72 11zM741 711l-373 -711h-212l373 711h212zM165 540q0 -51 34 -51q37 0 37 51q0 52 -37 52
q-34 0 -34 -52zM697 352q39 0 71.5 -11t56.5 -33.5t37.5 -56.5t13.5 -80t-13.5 -80t-37.5 -56.5t-56.5 -33.5t-71.5 -11q-38 0 -71 11t-57 33.5t-38 56.5t-14 80t14 80t38 56.5t57 33.5t71 11zM661 171q0 -52 35 -52q17 0 26.5 13t9.5 39t-9.5 39t-26.5 13q-35 0 -35 -52z
" />
    <glyph glyph-name="ampersand" unicode="&#x26;" horiz-adv-x="700" 
d="M479 0l-40 56q-9 -9 -20 -17q-29 -21 -67.5 -33.5t-87.5 -12.5q-60 0 -105 18.5t-74.5 49t-44.5 71.5t-15 86q0 81 39.5 135.5t102.5 71.5l-13 25q-16 39 -16 87q0 34 14 66t42 57t70 40t97 15q50 0 87.5 -10.5t64 -28t44 -41.5t27.5 -51q11 -29 14.5 -60t1.5 -60h-206
q0 25 -3 41q-4 27 -26 27q-20 0 -20 -20q0 -9 5 -18t16 -26l334 -468h-221zM266 176q23 0 37.5 13t14.5 35q0 21 -14.5 33.5t-37.5 12.5t-37.5 -12.5t-14.5 -33.5q0 -22 14.5 -35t37.5 -13z" />
    <glyph glyph-name="quotesingle" unicode="'" horiz-adv-x="265" 
d="M220 803l-13 -235h-148l-14 235h175z" />
    <glyph glyph-name="parenleft" unicode="(" horiz-adv-x="429" 
d="M14 402q0 99 21.5 186.5t58.5 162.5t88 136t109 106h214v-21q-140 -118 -209 -257.5t-69 -312.5t69 -313t209 -258v-20h-214q-58 45 -109 105.5t-88 135.5t-58.5 163t-21.5 187z" />
    <glyph glyph-name="parenright" unicode=")" horiz-adv-x="432" 
d="M418 403q0 -99 -21.5 -187t-58.5 -163t-87.5 -136t-109.5 -106h-215v20q141 118 210 258t69 313t-69 312.5t-210 257.5v21h215q59 -45 109.5 -106t87.5 -135.5t58.5 -162t21.5 -186.5z" />
    <glyph glyph-name="asterisk" unicode="*" horiz-adv-x="561" 
d="M420 709l67 -121l-111 -36l111 -34l-73 -127l-87 86l28 -117h-139l28 117l-85 -87l-75 129l111 36l-109 32l67 121l92 -83l-31 119h142l-29 -119z" />
    <glyph glyph-name="plus" unicode="+" horiz-adv-x="551" 
d="M531 238h-149v-153h-213v153h-149v203h149v154h213v-154h149v-203z" />
    <glyph glyph-name="comma" unicode="," horiz-adv-x="276" 
d="M196 131q17 -28 28 -64.5t13 -74.5t-6.5 -74t-29.5 -64.5t-56.5 -46t-87.5 -17.5v78q26 0 40.5 10.5t14.5 49.5v11h-87v192h171z" />
    <glyph glyph-name="hyphen" unicode="-" horiz-adv-x="576" 
d="M486 433v-183h-466v183h466z" />
    <glyph glyph-name="period" unicode="." horiz-adv-x="277" 
d="M248 212v-212h-220v212h220z" />
    <glyph glyph-name="slash" unicode="/" horiz-adv-x="399" 
d="M442 955l-265 -1153h-213l266 1153h212z" />
    <glyph glyph-name="zero" unicode="0" horiz-adv-x="662" 
d="M32 363q0 77 17 142.5t53.5 113.5t93.5 75t136 27t136 -27t93.5 -75t53.5 -113.5t17 -142.5q0 -78 -17 -143.5t-53.5 -113.5t-93.5 -75t-136 -27t-136 27t-93.5 75t-53.5 113.5t-17 143.5zM413 363q0 29 -2.5 56t-11 47.5t-24.5 32.5t-43 12t-43.5 -12t-25 -32.5
t-11 -47.5t-2.5 -56q0 -30 2.5 -57t11 -47.5t25 -32.5t43.5 -12t43 12t24.5 32.5t11 47.5t2.5 57z" />
    <glyph glyph-name="one" unicode="1" horiz-adv-x="399" 
d="M10 500v208h339v-708h-233v500h-106z" />
    <glyph glyph-name="two" unicode="2" horiz-adv-x="566" 
d="M28 177l104 81.5t91 82t64.5 78.5t24.5 72q0 29 -10.5 39.5t-24.5 10.5q-19 0 -28 -16.5t-9 -66.5h-215q3 73 26 124t60 83.5t85 47t99 14.5q68 0 114.5 -18.5t75 -48.5t41 -68.5t12.5 -78.5q0 -51 -18.5 -97.5t-49 -87.5t-70.5 -76.5t-84 -62.5h229v-179h-517v167z" />
    <glyph glyph-name="three" unicode="3" horiz-adv-x="615" 
d="M303 747q61 0 107 -16t77.5 -43.5t47.5 -64.5t16 -80q0 -39 -10.5 -67.5t-26.5 -48t-35 -31t-35 -16.5v-4q52 -19 86 -58.5t34 -108.5q0 -48 -17 -88t-49 -68.5t-77.5 -44t-103.5 -15.5q-61 0 -112.5 14t-88 45t-57.5 79.5t-22 117.5h216q-2 -35 10 -54t44 -19
q18 0 30 13t12 36q0 27 -17.5 42t-63.5 15h-37v179h36q7 0 18.5 0.5t22.5 5.5t19 16t8 32q0 27 -11.5 38t-25.5 11q-24 0 -30.5 -20t-6.5 -42h-216q3 120 69 182.5t189 62.5z" />
    <glyph glyph-name="four" unicode="4" horiz-adv-x="704" 
d="M52 110v185l298 425h239v-418h72v-192h-72v-110h-224v110h-313zM383 467l-108 -165h108v165z" />
    <glyph glyph-name="five" unicode="5" horiz-adv-x="660" 
d="M584 536h-290v-84q19 17 49.5 27t68.5 10q53 0 92.5 -19.5t65 -52t38 -75t12.5 -89.5q0 -121 -67.5 -187t-185.5 -66q-66 0 -117.5 17.5t-86.5 48.5t-53 74t-17 94h216q0 -12 9.5 -28t37.5 -16q26 0 37.5 19t11.5 48q0 30 -14 44.5t-38 14.5q-23 0 -33 -10.5t-10 -22.5
h-216v448h490v-195z" />
    <glyph glyph-name="six" unicode="6" horiz-adv-x="633" 
d="M365 509q-5 29 -16.5 43.5t-36.5 14.5q-40 0 -51.5 -42.5t-11.5 -115.5q18 27 51.5 43.5t77.5 16.5q47 0 85.5 -14.5t66.5 -43t43.5 -72t15.5 -100.5t-18 -102.5t-51.5 -77.5t-81 -49t-107.5 -17q-85 0 -139 28.5t-85 78t-43 116.5t-12 144q0 101 15.5 173.5t48.5 119.5
t85 69t125 22q64 0 109.5 -20t75 -53t44 -75.5t17.5 -86.5h-207zM264 242q0 -31 16 -45t43 -14t43 14t16 45q0 28 -16.5 42.5t-42.5 14.5t-42.5 -14.5t-16.5 -42.5z" />
    <glyph glyph-name="seven" unicode="7" horiz-adv-x="512" 
d="M502 554l-244 -554h-228l246 527h-256v190h482v-163z" />
    <glyph glyph-name="eight" unicode="8" horiz-adv-x="657" 
d="M64 553q0 36 15.5 72t48 65t82.5 47.5t118 18.5t118 -18.5t82.5 -47.5t48 -65t15.5 -72q0 -55 -23.5 -92t-61.5 -59q101 -59 101 -177q0 -59 -23 -103t-61.5 -73.5t-89 -44.5t-106.5 -15q-55 0 -106 15t-89.5 44.5t-61.5 73.5t-23 103q0 118 101 177q-38 22 -61.5 59
t-23.5 92zM282 515q0 -31 13.5 -45t32.5 -14t32.5 14t13.5 45q0 29 -13 45t-33 16t-33 -16t-13 -45zM263 238q0 -29 16.5 -48.5t48.5 -19.5t48.5 19.5t16.5 48.5q0 30 -17.5 49.5t-47.5 19.5t-47.5 -19.5t-17.5 -49.5z" />
    <glyph glyph-name="nine" unicode="9" horiz-adv-x="597" 
d="M254 228q5 -29 18 -43.5t38 -14.5q20 0 32 11t18 31.5t8 50t2 65.5q-18 -27 -51.5 -43.5t-77.5 -16.5q-46 0 -85 14.5t-67 43t-43.5 72t-15.5 100.5t18 102.5t51.5 77.5t81 49t107.5 17q85 0 139 -27t85 -74.5t43 -113t12 -142.5q0 -93 -13 -166.5t-43 -124t-79 -77
t-122 -26.5q-64 0 -112 20t-81 53t-50 75.5t-20 86.5h207zM355 495q0 31 -16 45t-43 14t-43 -14t-16 -45q0 -28 16.5 -42.5t42.5 -14.5t42.5 14.5t16.5 42.5z" />
    <glyph glyph-name="colon" unicode=":" horiz-adv-x="332" 
d="M282 603v-212h-220v212h220zM282 212v-212h-220v212h220z" />
    <glyph glyph-name="semicolon" unicode=";" horiz-adv-x="433" 
d="M332 593v-212h-220v212h220zM295 131q17 -28 28 -64.5t13 -74.5t-6.5 -74t-29.5 -64.5t-56.5 -46t-87.5 -17.5v78q26 0 40.5 10.5t14.5 49.5v11h-87v192h171z" />
    <glyph glyph-name="less" unicode="&#x3c;" horiz-adv-x="497" 
d="M200 125l-180 215l180 216h277l-180 -216l180 -215h-277z" />
    <glyph glyph-name="equal" unicode="=" horiz-adv-x="626" 
d="M606 580v-201h-586v201h586zM606 300v-201h-586v201h586z" />
    <glyph glyph-name="greater" unicode="&#x3e;" horiz-adv-x="497" 
d="M20 556h277l180 -216l-180 -215h-277l180 215z" />
    <glyph glyph-name="question" unicode="?" horiz-adv-x="538" 
d="M275 773q53 0 98 -13t77 -40t50 -67.5t18 -95.5q0 -45 -15.5 -81t-44 -62.5t-68 -41t-87.5 -15.5v-71h-208v212h84q58 0 90 13t32 45q0 18 -10 27.5t-24 9.5q-20 0 -29 -13.5t-9 -31.5h-209q-2 45 12.5 85.5t46 71.5t80.5 49.5t116 18.5zM310 212v-212h-220v212h220z" />
    <glyph glyph-name="at" unicode="@" horiz-adv-x="1353" 
d="M762 843q126 0 231 -29.5t180 -89t116.5 -149t41.5 -208.5q0 -78 -29 -146t-77.5 -118.5t-112 -79.5t-132.5 -29q-75 0 -128 30.5t-72 95.5q-30 -58 -77 -92t-122 -34q-51 0 -92.5 20.5t-69 58t-39 89.5t-3.5 116t36.5 117t74 91.5t105 59.5t128.5 21q55 0 103 -14
t82 -43.5t50.5 -75t9.5 -108.5l-8 -68q-5 -41 4.5 -56t33.5 -15q19 0 38.5 9.5t35.5 30.5t26 53.5t10 78.5q0 69 -24.5 125t-72.5 95.5t-118.5 61.5t-163.5 22q-116 0 -204 -34t-147 -93.5t-89 -139t-30 -169.5q0 -71 22 -132.5t70.5 -106.5t125 -70.5t185.5 -23.5l-42 -179
q-144 2 -251.5 39t-179.5 104t-108 160.5t-36 208.5q0 153 60.5 268.5t160.5 192.5t230 116t268 39zM752 282q4 30 -2.5 48.5t-17.5 28.5t-25 13.5t-26 3.5t-26.5 -3.5t-28 -14t-24 -29t-13.5 -48.5q-4 -30 2.5 -48t17.5 -28.5t25.5 -14t26.5 -3.5t26 3.5t27.5 14t24 29
t13.5 48.5z" />
    <glyph glyph-name="A" unicode="A" horiz-adv-x="773" 
d="M504 107h-236l-35 -107h-233l259 708h256l258 -708h-234zM450 274l-64 197l-64 -197h128z" />
    <glyph glyph-name="B" unicode="B" horiz-adv-x="684" 
d="M524 363q66 -16 100.5 -62.5t34.5 -106.5q0 -94 -61 -144t-177 -50h-371v708h361q106 0 169 -46t63 -138q0 -64 -33 -105.5t-86 -55.5zM272 432h86q59 0 59 49q0 51 -59 51h-86v-100zM373 178q30 0 44.5 11.5t14.5 37.5q0 51 -59 51h-101v-100h101z" />
    <glyph glyph-name="C" unicode="C" horiz-adv-x="753" 
d="M380 715q70 0 128.5 -20t102.5 -57t72.5 -88t39.5 -114h-234q-16 35 -45.5 54.5t-67.5 19.5q-57 0 -89 -42t-32 -113t32 -113t89 -42q38 0 67.5 19.5t45.5 54.5h234q-11 -63 -39.5 -114t-72.5 -88t-102.5 -57t-128.5 -20q-81 0 -146 26.5t-110.5 74.5t-69.5 114t-24 145
t24 145t69.5 114t110.5 74.5t146 26.5z" />
    <glyph glyph-name="D" unicode="D" horiz-adv-x="743" 
d="M713 356q0 -76 -25.5 -141t-73.5 -113t-116 -75t-153 -27h-295v708h295q85 0 153 -26.5t116 -73t73.5 -111t25.5 -141.5zM325 198q74 0 118.5 40t44.5 118t-44.5 118t-118.5 40h-53v-316h53z" />
    <glyph glyph-name="E" unicode="E" horiz-adv-x="556" 
d="M272 532v-88h220v-167h-220v-100h250v-177h-472v708h472v-176h-250z" />
    <glyph glyph-name="F" unicode="F" horiz-adv-x="575" 
d="M550 708v-176h-278v-98h200v-167h-200v-267h-222v708h500z" />
    <glyph glyph-name="G" unicode="G" horiz-adv-x="752" 
d="M388 715q71 0 128 -17.5t99.5 -50t68.5 -78.5t34 -103h-234q-13 20 -36.5 32t-58.5 12q-65 0 -99.5 -42t-34.5 -113q0 -83 38.5 -124t120.5 -41q38 0 68.5 14.5t55.5 47.5h-177v157h361v-222q-18 -32 -46.5 -66t-69 -62t-94 -46t-122.5 -18q-84 0 -150.5 26.5t-113 74.5
t-71.5 114t-25 145t24.5 145t71 114t113 74.5t149.5 26.5z" />
    <glyph glyph-name="H" unicode="H" horiz-adv-x="755" 
d="M705 708v-708h-222v276h-211v-276h-222v708h222v-255h211v255h222z" />
    <glyph glyph-name="I" unicode="I" horiz-adv-x="322" 
d="M272 708v-708h-222v708h222z" />
    <glyph glyph-name="J" unicode="J" horiz-adv-x="590" 
d="M544 708v-457q0 -130 -68 -194t-185 -64q-62 0 -114 17.5t-89 52t-57.5 86.5t-20.5 122h219q0 -47 15 -62.5t37 -15.5q18 0 30 11.5t12 46.5v457h221z" />
    <glyph glyph-name="K" unicode="K" horiz-adv-x="755" 
d="M483 364l262 -364h-267l-206 307v-307h-222v708h222v-299l208 299h265z" />
    <glyph glyph-name="L" unicode="L" horiz-adv-x="506" 
d="M272 168h214v-168h-436v708h222v-540z" />
    <glyph glyph-name="M" unicode="M" horiz-adv-x="951" 
d="M901 708v-708h-221v353l-109 -353h-190l-109 353v-353h-222v708h272l156 -425l152 425h271z" />
    <glyph glyph-name="N" unicode="N" horiz-adv-x="779" 
d="M729 0h-222l-235 356v-356h-222v708h222l235 -362v362h222v-708z" />
    <glyph glyph-name="O" unicode="O" horiz-adv-x="788" 
d="M395 720q76 0 142 -27t115 -75t77.5 -114.5t28.5 -146.5t-28.5 -147t-78 -115t-115.5 -75t-141 -27t-141.5 27t-116 75t-78.5 115t-29 147t29 146.5t78.5 114.5t116 75t141.5 27zM395 515q-69 0 -104 -43t-35 -115q0 -71 35 -114t104 -43q67 0 102.5 43t35.5 114
q0 72 -35.5 115t-102.5 43z" />
    <glyph glyph-name="P" unicode="P" horiz-adv-x="649" 
d="M272 225v-225h-222v708h310q67 0 117.5 -18t84 -50t50.5 -76.5t17 -98.5q0 -49 -17 -92.5t-50.5 -76.5t-84 -52t-117.5 -19h-88zM335 400q38 0 53.5 18t15.5 47t-15.5 47t-53.5 18h-63v-130h63z" />
    <glyph glyph-name="Q" unicode="Q" horiz-adv-x="788" 
d="M516 -115l-68 112q-13 -2 -26 -3t-27 -1q-75 0 -141.5 27t-116 75t-78.5 115t-29 147t29 146.5t78.5 114.5t116 75t141.5 27q76 0 142 -27t115 -75t77.5 -114.5t28.5 -146.5q0 -88 -33.5 -158.5t-90.5 -119.5l144 -194h-262zM256 357q0 -71 35 -114t104 -43
q67 0 102.5 43t35.5 114q0 72 -35.5 115t-102.5 43q-69 0 -104 -43t-35 -115z" />
    <glyph glyph-name="R" unicode="R" horiz-adv-x="670" 
d="M406 0l-134 254v-254h-222v708h330q67 0 117.5 -18t84 -49.5t50.5 -73.5t17 -91q0 -70 -38.5 -125t-114.5 -80l154 -271h-244zM272 402h88q32 0 48 14t16 46q0 27 -16 43.5t-48 16.5h-88v-120z" />
    <glyph glyph-name="S" unicode="S" horiz-adv-x="625" 
d="M597 209q0 -45 -17.5 -84.5t-51.5 -68.5t-83.5 -46t-113.5 -17q-61 0 -114 14t-92.5 43t-64 73t-28.5 104h236q2 -19 7.5 -31t13 -19t16.5 -9t17 -2q17 0 27.5 8.5t10.5 26.5q0 24 -24.5 38.5t-61 27l-79.5 28t-79.5 41t-61 65.5t-24.5 103q0 53 21 93.5t58 67.5t86 41
t106 14q127 0 201.5 -58t82.5 -171h-239q-3 34 -16.5 45t-29.5 11q-14 0 -23 -8t-9 -26q0 -23 24.5 -37t61 -27l79 -29t79 -42t61 -66.5t24.5 -102.5z" />
    <glyph glyph-name="T" unicode="T" horiz-adv-x="616" 
d="M606 708v-176h-188v-532h-222v532h-186v176h596z" />
    <glyph glyph-name="U" unicode="U" horiz-adv-x="719" 
d="M267 708v-399q0 -46 20 -76t71 -30t72.5 30t21.5 76v399h221v-399q0 -78 -25 -137.5t-68.5 -99t-102 -59.5t-124.5 -20t-122.5 20t-97.5 59.5t-64 99t-23 137.5v399h221z" />
    <glyph glyph-name="V" unicode="V" horiz-adv-x="763" 
d="M236 708l146 -487l145 487h236l-238 -708h-287l-238 708h236z" />
    <glyph glyph-name="W" unicode="W" horiz-adv-x="1100" 
d="M1070 708l-162 -708h-276l-82 402l-82 -402h-276l-162 708h239l64 -446l96 446h242l96 -446l64 446h239z" />
    <glyph glyph-name="X" unicode="X" horiz-adv-x="764" 
d="M501 0l-130 184l-108 -184h-253l233 365l-243 343h263l125 -177l104 177h253l-229 -358l248 -350h-263z" />
    <glyph glyph-name="Y" unicode="Y" horiz-adv-x="730" 
d="M730 708l-254 -493v-215h-222v215l-254 493h254l113 -251l113 251h250z" />
    <glyph glyph-name="Z" unicode="Z" horiz-adv-x="630" 
d="M296 177h284v-177h-530v167l280 365h-280v176h530v-167z" />
    <glyph glyph-name="bracketleft" unicode="[" horiz-adv-x="533" 
d="M477 955v-178h-174v-798h174v-178h-382v1154h382z" />
    <glyph glyph-name="backslash" unicode="\" horiz-adv-x="878" 
d="M440 -198l-240 1153h212l240 -1153h-212z" />
    <glyph glyph-name="bracketright" unicode="]" horiz-adv-x="530" 
d="M54 -199v178h175v798h-175v178h382v-1154h-382z" />
    <glyph glyph-name="asciicircum" unicode="^" horiz-adv-x="758" 
d="M245 162h-220l246 549h218l244 -549h-220l-133 298z" />
    <glyph glyph-name="underscore" unicode="_" horiz-adv-x="764" 
d="M724 -42v-216h-675v216h675z" />
    <glyph glyph-name="grave" unicode="`" horiz-adv-x="324" 
d="M285 686l-38 -84l-195 68l52 114z" />
    <glyph glyph-name="a" unicode="a" 
d="M253 571q57 0 96.5 -23t59.5 -61v77h221v-564h-221v77q-20 -38 -59.5 -61t-96.5 -23q-49 0 -91.5 19.5t-74 56.5t-49.5 91t-18 122t18 122t49.5 91t74 56.5t91.5 19.5zM327 377q-35 0 -58.5 -24t-23.5 -71t23.5 -71t58.5 -24t58.5 24t23.5 71t-23.5 71t-58.5 24z" />
    <glyph glyph-name="b" unicode="b" 
d="M427 571q49 0 91.5 -19.5t74 -56.5t49.5 -91t18 -122t-18 -122t-49.5 -91t-74 -56.5t-91.5 -19.5q-57 0 -96 23t-59 61v-77h-222v740h222v-253q20 38 59 61t96 23zM353 377q-35 0 -58.5 -24t-23.5 -71t23.5 -71t58.5 -24t58.5 24t23.5 71t-23.5 71t-58.5 24z" />
    <glyph glyph-name="c" unicode="c" horiz-adv-x="609" 
d="M308 571q54 0 101 -15.5t83.5 -45.5t61.5 -73.5t35 -99.5h-235q-6 20 -18 32t-33 12q-26 0 -42 -24t-16 -75t16 -75t42 -24q21 0 33 12t18 32h235q-10 -55 -35 -98.5t-61.5 -73.5t-83.5 -46t-101 -16q-63 0 -116 20t-91.5 57t-59.5 91t-21 121q0 68 21 121.5t59.5 90.5
t91.5 57t116 20z" />
    <glyph glyph-name="d" unicode="d" 
d="M253 571q57 0 96 -23t59 -61v253h222v-740h-222v77q-20 -38 -59 -61t-96 -23q-49 0 -91.5 19.5t-74 56.5t-49.5 91t-18 122t18 122t49.5 91t74 56.5t91.5 19.5zM327 377q-35 0 -58.5 -24t-23.5 -71t23.5 -71t58.5 -24t58.5 24t23.5 71t-23.5 71t-58.5 24z" />
    <glyph glyph-name="e" unicode="e" horiz-adv-x="616" 
d="M596 287q0 -21 -5 -44h-355q3 -45 20.5 -59t40.5 -14q22 0 34 10t18 23h235q-9 -45 -33.5 -83.5t-60.5 -66.5t-82.5 -44t-99.5 -16q-63 0 -116 20t-91.5 57t-59.5 91t-21 121q0 68 21 121.5t59.5 90.5t91.5 57t116 20t116 -19.5t91.5 -56t59.5 -89.5t21 -119zM371 334
q0 34 -19 48.5t-44 14.5q-61 0 -70 -63h133z" />
    <glyph glyph-name="f" unicode="f" horiz-adv-x="385" 
d="M375 604q-38 5 -57 -4t-24 -36h81v-185h-83v-379h-222v379h-60v185h60q2 121 81.5 181.5t223.5 47.5v-189z" />
    <glyph glyph-name="g" unicode="g" 
d="M253 571q57 0 96.5 -23t59.5 -61v77h221v-554q0 -56 -15.5 -108t-49.5 -91.5t-89 -63.5t-134 -24q-69 0 -123.5 17t-93 47.5t-61 74t-28.5 97.5h218q9 -44 72 -44q17 0 32 3.5t26.5 14t18 29t6.5 48.5v67q-20 -38 -59.5 -61t-96.5 -23q-49 0 -91.5 19.5t-74 56.5
t-49.5 91t-18 122t18 122t49.5 91t74 56.5t91.5 19.5zM327 377q-35 0 -58.5 -24t-23.5 -71t23.5 -71t58.5 -24t58.5 24t23.5 71t-23.5 71t-58.5 24z" />
    <glyph glyph-name="h" unicode="h" horiz-adv-x="697" 
d="M445 568q49 0 87 -17t64.5 -48.5t40.5 -76t14 -99.5v-327h-221v299q0 41 -21.5 64t-57.5 23q-37 0 -58 -23t-21 -64v-299h-222v740h222v-262q24 37 66.5 63.5t106.5 26.5z" />
    <glyph glyph-name="i" unicode="i" horiz-adv-x="322" 
d="M34 718q0 47 34 79t94 32q59 0 93 -32t34 -79q0 -46 -34 -77.5t-93 -31.5q-60 0 -94 31.5t-34 77.5zM272 564v-564h-222v564h222z" />
    <glyph glyph-name="j" unicode="j" horiz-adv-x="320" 
d="M160 609q-60 0 -94 31.5t-34 77.5q0 47 34 79t94 32q59 0 93 -32t34 -79q0 -46 -34 -77.5t-93 -31.5zM-34 -81h43q41 0 41 38v607h222v-603q0 -66 -17.5 -110t-49 -71t-73.5 -38.5t-92 -11.5h-74v189z" />
    <glyph glyph-name="k" unicode="k" horiz-adv-x="676" 
d="M411 0l-139 225v-225h-222v740h222v-387l141 211h258l-211 -284l216 -280h-265z" />
    <glyph glyph-name="l" unicode="l" horiz-adv-x="322" 
d="M272 740v-740h-222v740h222z" />
    <glyph glyph-name="m" unicode="m" horiz-adv-x="1076" 
d="M803 568q55 0 97 -17t71 -48.5t44 -76t15 -99.5v-327h-221v299q0 36 -21.5 56.5t-57.5 20.5q-37 0 -58 -20.5t-21 -56.5v-299h-221v299q0 36 -21.5 56.5t-57.5 20.5q-37 0 -58 -20.5t-21 -56.5v-299h-222v564h222v-76q23 33 63 56.5t100 23.5q62 0 108.5 -26.5
t74.5 -74.5q29 41 75.5 71t109.5 30z" />
    <glyph glyph-name="n" unicode="n" horiz-adv-x="697" 
d="M445 568q49 0 87 -17t64.5 -48.5t40.5 -76t14 -99.5v-327h-221v299q0 41 -21.5 64t-57.5 23q-37 0 -58 -23t-21 -64v-299h-222v564h222v-86q24 37 66.5 63.5t106.5 26.5z" />
    <glyph glyph-name="o" unicode="o" horiz-adv-x="636" 
d="M318 571q64 0 118.5 -20t94.5 -57t62.5 -90.5t22.5 -121.5q0 -67 -22.5 -121t-62.5 -91t-94.5 -57t-118.5 -20t-118.5 20t-94.5 57t-62.5 91t-22.5 121q0 68 22.5 121.5t62.5 90.5t94.5 57t118.5 20zM318 379q-29 0 -51 -23t-22 -74t21.5 -74t51.5 -23q29 0 51 23t22 74
t-22 74t-51 23z" />
    <glyph glyph-name="p" unicode="p" 
d="M427 571q49 0 91.5 -19.5t74 -56.5t49.5 -91t18 -122t-18 -122t-49.5 -91t-74 -56.5t-91.5 -19.5q-57 0 -96 23t-59 61v-347h-222v834h222v-77q20 38 59 61t96 23zM353 377q-35 0 -58.5 -24t-23.5 -71t23.5 -71t58.5 -24t58.5 24t23.5 71t-23.5 71t-58.5 24z" />
    <glyph glyph-name="q" unicode="q" 
d="M269 568q44 0 78 -12t62 -42v50h221v-834h-221v332q-30 -35 -63 -51.5t-77 -16.5q-50 0 -95 20.5t-79.5 58t-54.5 89.5t-20 116t20 117t54.5 91.5t79.5 60t95 21.5zM327 376q-12 0 -26.5 -5t-27 -17t-20.5 -30.5t-8 -45.5t8 -44.5t20.5 -28t27 -14.5t26.5 -4t26.5 4.5
t27 16t20.5 29.5t8 45t-8 45t-20.5 29t-27 15.5t-26.5 4.5z" />
    <glyph glyph-name="r" unicode="r" horiz-adv-x="467" 
d="M272 460q33 48 81.5 78t103.5 30v-237h-63q-60 0 -91 -21t-31 -79v-231h-222v564h222v-104z" />
    <glyph glyph-name="s" unicode="s" horiz-adv-x="579" 
d="M272 571q60 0 106.5 -15.5t80 -42.5t54 -64t29.5 -80h-207q-8 27 -26.5 37.5t-41.5 10.5q-31 0 -31 -24q0 -17 23.5 -26t58.5 -16t75.5 -16.5t75.5 -29t58.5 -53t23.5 -87.5q0 -37 -16 -69t-46.5 -54.5t-74.5 -35.5t-100 -13q-123 0 -194.5 51.5t-88.5 150.5h213
q4 -29 24 -39t45 -10q34 0 34 24q0 19 -23 28t-57.5 15.5t-75 15t-75 27t-57.5 51t-23 87.5q0 37 15 69.5t44.5 56.5t73.5 37.5t103 13.5z" />
    <glyph glyph-name="t" unicode="t" horiz-adv-x="436" 
d="M401 189v-189h-84q-49 0 -91.5 11.5t-74 38.5t-49 71t-17.5 110v148h-70v185h70v136h222v-136h92v-185h-92v-152q0 -38 41 -38h53z" />
    <glyph glyph-name="u" unicode="u" horiz-adv-x="697" 
d="M647 564v-564h-222v86q-24 -37 -66.5 -63.5t-106.5 -26.5q-49 0 -87 17t-64.5 48.5t-40.5 76t-14 99.5v327h221v-299q0 -41 21.5 -64t57.5 -23q37 0 58 23t21 64v299h222z" />
    <glyph glyph-name="v" unicode="v" horiz-adv-x="671" 
d="M336 211l90 353h236l-188 -564h-277l-188 564h236z" />
    <glyph glyph-name="w" unicode="w" horiz-adv-x="903" 
d="M906 564l-134 -564h-250l-68 318l-72 -318h-250l-133 564h220l47 -343l73 343h237l77 -347l48 347h205z" />
    <glyph glyph-name="x" unicode="x" horiz-adv-x="668" 
d="M420 0l-95 127l-71 -127h-244l189 297l-199 267h248l95 -128l72 128h244l-195 -290l204 -274h-248z" />
    <glyph glyph-name="y" unicode="y" horiz-adv-x="677" 
d="M237 564l106 -286l99 286h245l-361 -834h-243l142 298l-235 536h247z" />
    <glyph glyph-name="z" unicode="z" horiz-adv-x="518" 
d="M263 184h235v-184h-478v174l215 206h-212v184h465v-174z" />
    <glyph glyph-name="braceleft" unicode="{" horiz-adv-x="513" 
d="M247 371q54 -10 80.5 -40t26.5 -89q0 -49 -8 -94t-8 -96q0 -55 11 -97t30.5 -73t45 -51.5t54.5 -31.5v-16h-207q-14 6 -37.5 23.5t-45.5 49.5t-38 81t-16 118q0 27 2.5 51t6 47t6 46t2.5 49q0 34 -21.5 61t-73.5 27v72q27 0 45.5 7.5t29.5 19.5t15.5 28t4.5 33
q0 26 -2.5 49t-6 46t-6 47t-2.5 51q0 69 16 118t38 81t45.5 49.5t37.5 23.5h207v-16q-29 -11 -54.5 -31.5t-45 -51.5t-30.5 -73t-11 -97q0 -51 8 -96t8 -94q0 -59 -25.5 -88.5t-81.5 -40.5v-2z" />
    <glyph glyph-name="bar" unicode="|" horiz-adv-x="262" 
d="M242 -144h-222v972h222v-972z" />
    <glyph glyph-name="braceright" unicode="}" horiz-adv-x="489" 
d="M268 373q-55 11 -81 35t-26 74q0 49 8 94t8 96t-11 96t-30 80.5t-45 60.5t-55 36v16h206q14 -6 37.5 -23.5t45.5 -49.5t38 -81t16 -118q0 -27 -2.5 -51t-6 -47t-6 -46t-2.5 -49q0 -17 5.5 -34t16.5 -29.5t29.5 -20t43.5 -4.5v-72q-25 3 -43.5 -4t-29.5 -20t-16.5 -30
t-5.5 -34q0 -26 2.5 -49t6 -46t6 -47t2.5 -51q0 -69 -16 -118t-38 -81t-45.5 -49.5t-37.5 -23.5h-206v16q29 11 55 36t45 60.5t30 80.5t11 96t-8 96t-8 94q0 50 26.5 74.5t80.5 34.5v2z" />
    <glyph glyph-name="asciitilde" unicode="~" horiz-adv-x="711" 
d="M255 445q36 0 65.5 -10.5t54.5 -23l47 -23t44 -10.5q27 0 40.5 15.5t18.5 53.5h166q-11 -70 -33 -120.5t-52.5 -82t-68.5 -46.5t-82 -15q-36 0 -65 10.5t-54 23l-47.5 23t-44.5 10.5q-27 0 -40.5 -16t-19.5 -53h-164q11 71 33 121t52.5 81.5t68.5 46.5t81 15z" />
    <glyph glyph-name="exclamdown" unicode="&#xa1;" horiz-adv-x="463" 
d="M119 568h220v-212h-220v212zM134 287h190l26 -474h-242z" />
    <glyph glyph-name="cent" unicode="&#xa2;" horiz-adv-x="579" 
d="M301 170q15 0 32.5 8t22.5 27h203q-3 -47 -21.5 -83.5t-47.5 -63t-66.5 -42.5t-79.5 -21v-78h-91v78q-106 11 -169.5 77t-63.5 182q0 115 63.5 180.5t169.5 76.5v78h91v-78q42 -5 79.5 -21t66.5 -42t47.5 -62.5t21.5 -83.5h-203q-8 20 -24 27.5t-31 7.5q-35 0 -52 -22.5
t-17 -61.5t17 -61t52 -22z" />
    <glyph glyph-name="sterling" unicode="&#xa3;" horiz-adv-x="679" 
d="M615 165v-171h-552l-27 104q46 35 69.5 76t28.5 100h-103v147h77q-7 29 -12 60.5t-5 66.5q0 53 19 94.5t52.5 70t80.5 43.5t103 15q64 0 112.5 -18t81.5 -50t51.5 -76t21.5 -96h-204q-3 26 -15.5 43t-39.5 17q-29 0 -40.5 -18.5t-11.5 -50.5q0 -20 7 -46l15 -55h168v-147
h-150q-5 -26 -19 -56t-43 -53h335z" />
    <glyph glyph-name="currency" unicode="&#xa4;" horiz-adv-x="603" 
d="M532 379q0 -33 -10 -60.5t-28 -50.5l49 -49l-80 -81l-68 68q-39 -13 -91 -13q-51 0 -95 14l-69 -69l-80 81l52 52q-36 45 -36 108q0 64 37 109l-53 53l80 81l73 -73q41 12 91 12q46 0 87 -11l72 72l80 -81l-51 -50q40 -45 40 -112zM304 320q23 0 40.5 12.5t17.5 44.5
q0 33 -17.5 46t-40.5 13t-40.5 -13t-17.5 -46q0 -32 17.5 -44.5t40.5 -12.5z" />
    <glyph glyph-name="yen" unicode="&#xa5;" horiz-adv-x="730" 
d="M598 452h77v-144h-151l-19 -36h170v-144h-199v-128h-222v128h-201v144h172l-19 36h-153v144h79l-132 256h254l113 -284l113 284h250z" />
    <glyph glyph-name="brokenbar" unicode="&#xa6;" horiz-adv-x="432" 
d="M105 828h222v-430h-222v430zM327 -144h-222v431h222v-431z" />
    <glyph glyph-name="section" unicode="&#xa7;" horiz-adv-x="595" 
d="M575 244q0 -44 -20 -79.5t-77 -63.5q31 -34 44.5 -71t13.5 -74q0 -42 -16 -77t-47 -60.5t-77 -39.5t-105 -14q-56 0 -98.5 16t-72.5 44t-46.5 66.5t-20.5 83.5h219q2 -34 9 -44t15 -10q16 0 16 24q0 14 -7.5 26t-25 25t-46 29t-70.5 37q-66 34 -104 79.5t-38 102.5
q0 43 20 82t75 62q-30 33 -43.5 70.5t-13.5 73.5q0 42 16 77t47 60.5t77 39.5t105 14q56 0 98.5 -16t72.5 -44t46.5 -66.5t20.5 -83.5h-219q-2 34 -9 44t-15 10q-16 0 -16 -24q0 -14 7.5 -26t25 -25t46 -28.5t70.5 -36.5q65 -35 104 -80.5t39 -102.5zM297 189q20 0 31 16
t11 39t-9.5 39t-29.5 16t-31 -15.5t-11 -39.5q0 -23 10 -39t29 -16z" />
    <glyph glyph-name="dieresis" unicode="&#xa8;" horiz-adv-x="417" 
d="M10 705q0 38 24.5 62.5t60.5 24.5q38 0 62.5 -24.5t24.5 -62.5q0 -36 -24.5 -60.5t-62.5 -24.5q-36 0 -60.5 24.5t-24.5 60.5zM235 705q0 38 24.5 62.5t60.5 24.5q38 0 62.5 -24.5t24.5 -62.5q0 -36 -24.5 -60.5t-62.5 -24.5q-36 0 -60.5 24.5t-24.5 60.5z" />
    <glyph glyph-name="copyright" unicode="&#xa9;" horiz-adv-x="771" 
d="M386 720q79 0 144.5 -26.5t112 -74.5t72.5 -114.5t26 -146.5t-26 -147t-72.5 -115t-112 -75t-144.5 -27t-144.5 27t-112.5 75t-73 115t-26 147t26 146.5t73 114.5t112.5 74.5t144.5 26.5zM386 655q-66 0 -119 -21t-90 -59.5t-57 -93.5t-20 -123q0 -67 20 -122.5t57 -94.5
t90 -60.5t119 -21.5t119 21.5t90 60.5t57 94.5t20 122.5q0 68 -20 123t-57 93.5t-90 59.5t-119 21zM390 578q-51 0 -92.5 -15.5t-71 -44t-46 -69.5t-16.5 -92t16.5 -92t46 -69.5t71 -44t92.5 -15.5q40 0 76 12.5t64 36t47 56.5t25 75h-184q-4 -13 -12.5 -24t-25.5 -11
q-21 0 -33 18.5t-12 57.5t12 57.5t33 18.5q17 0 25.5 -11t12.5 -24h184q-6 42 -25 75t-47 56.5t-64 36t-76 12.5z" />
    <glyph glyph-name="ordfeminine" unicode="&#xaa;" horiz-adv-x="481" 
d="M184 712q42 0 68 -13.5t45 -40.5v50h164v-353h-164v49q-19 -27 -44 -40.5t-67 -13.5q-35 0 -65 11.5t-52.5 34t-35.5 56.5t-13 78t12.5 78t35 57t52.5 35t64 12zM243 582q-22 0 -38 -13.5t-16 -39.5t16 -37t38 -11t38 12.5t16 38.5q0 25 -16 37.5t-38 12.5z" />
    <glyph glyph-name="guillemotleft" unicode="&#xab;" horiz-adv-x="618" 
d="M122 120l-77 175l77 175h201l-79 -175l79 -175h-201zM377 120l-77 175l77 175h201l-79 -175l79 -175h-201z" />
    <glyph glyph-name="logicalnot" unicode="&#xac;" horiz-adv-x="794" 
d="M729 448v-293h-222v127h-486v166h708z" />
    <glyph glyph-name="registered" unicode="&#xae;" horiz-adv-x="819" 
d="M410 720q85 0 154.5 -26.5t119.5 -74.5t77.5 -114.5t27.5 -146.5t-27.5 -147t-77.5 -115t-119.5 -75t-154.5 -27t-155 27t-120 75t-77.5 115t-27.5 147t27.5 146.5t77.5 114.5t120 74.5t155 26.5zM410 59q72 0 129 21.5t97.5 60.5t62 94.5t21.5 122.5q0 68 -21.5 123
t-62 93.5t-97.5 59.5t-129 21t-129.5 -21t-97.5 -59.5t-61.5 -93.5t-21.5 -123q0 -67 21.5 -122.5t61.5 -94.5t97.5 -60.5t129.5 -21.5zM596 439q0 -36 -19.5 -69.5t-64.5 -50.5l93 -166h-146l-73 137v-137h-135v418h186q44 0 74 -11.5t49 -30.5t27.5 -42.5t8.5 -47.5z
M386 390h37q20 0 27.5 8t7.5 21q0 12 -7.5 21t-27.5 9h-37v-59z" />
    <glyph glyph-name="macron" unicode="&#xaf;" horiz-adv-x="451" 
d="M441 769v-147h-431v147h431z" />
    <glyph glyph-name="degree" unicode="&#xb0;" horiz-adv-x="496" 
d="M249 715q51 0 92 -12.5t70.5 -35.5t45.5 -57t16 -77q0 -86 -59 -136t-161 -50q-51 0 -93 13t-72.5 37t-47.5 58.5t-17 77.5t16 77t46 57t71.5 35.5t92.5 12.5zM250 600q-20 0 -39 -15.5t-19 -53.5q0 -18 6 -31t15 -21t19.5 -11.5t20.5 -3.5q18 0 34.5 15t16.5 52
q0 38 -18 53.5t-36 15.5z" />
    <glyph glyph-name="plusminus" unicode="&#xb1;" horiz-adv-x="551" 
d="M382 344v-47h149v-201h-511v201h149v47h-149v201h149v85h213v-85h149v-201h-149z" />
    <glyph glyph-name="uni00B2" unicode="&#xb2;" horiz-adv-x="422" 
d="M223 477h170v-125h-345v122l135 70q26 13 36.5 26t10.5 25q0 8 -9 8q-17 0 -18 -34h-163q5 65 57.5 106.5t145.5 41.5q45 0 75.5 -10t49 -25.5t27 -35t8.5 -37.5q0 -36 -32.5 -62.5t-107.5 -54.5z" />
    <glyph glyph-name="uni00B3" unicode="&#xb3;" horiz-adv-x="403" 
d="M209 717q81 0 124 -29t43 -77q0 -62 -75 -74v-4q47 -11 65.5 -30.5t18.5 -50.5q0 -51 -46.5 -77t-125.5 -26q-56 0 -93 9.5t-60 27t-33.5 42t-13.5 54.5h172q0 -12 3.5 -16t10.5 -4q5 0 9 4t4 17q0 14 -6.5 19.5t-20.5 5.5h-30v54h21q26 0 26 26q0 17 -12 17
q-14 0 -14 -28h-156q0 26 9 51t31 44.5t58.5 32t90.5 12.5z" />
    <glyph glyph-name="acute" unicode="&#xb4;" horiz-adv-x="279" 
d="M247 680l-208 -70l-32 77l200 98z" />
    <glyph glyph-name="uni00B5" unicode="&#xb5;" horiz-adv-x="751" 
d="M676 564v-564h-222v77q-22 -32 -61 -55.5t-97 -25.5v-266h-221v834h221v-298q0 -36 21.5 -57t57.5 -21q37 0 58 21t21 57v298h222z" />
    <glyph glyph-name="paragraph" unicode="&#xb6;" horiz-adv-x="778" 
d="M703 0h-177v542h-58v-542h-176v265h-31q-64 0 -109.5 19t-74.5 50.5t-42 71t-13 80.5t13 80.5t41.5 71t74 51t110.5 19.5h442v-708z" />
    <glyph glyph-name="periodcentered" unicode="&#xb7;" horiz-adv-x="307" 
d="M263 407v-212h-220v212h220z" />
    <glyph glyph-name="cedilla" unicode="&#xb8;" horiz-adv-x="343" 
d="M203 -27q18 0 40.5 -5.5t42.5 -19.5t33.5 -37.5t13.5 -59.5t-14 -59.5t-36 -37.5t-48.5 -19.5t-51.5 -5.5h-173v113h150q26 0 26 16q0 15 -26 15h-85v134h128v-34z" />
    <glyph glyph-name="uni00B9" unicode="&#xb9;" horiz-adv-x="285" 
d="M20 577v127h230v-352h-164v225h-66z" />
    <glyph glyph-name="ordmasculine" unicode="&#xba;" horiz-adv-x="470" 
d="M235 709q50 0 90 -13.5t68 -37.5t42.5 -57t14.5 -72q0 -38 -14.5 -71.5t-42.5 -58t-68 -38.5t-90 -14t-90 14t-67.5 38.5t-42.5 58t-15 71.5q0 39 15 72t42.5 57t67.5 37.5t90 13.5zM235 584q-20 0 -34 -13t-14 -42t14 -42.5t34 -13.5t34 13.5t14 42.5t-14 42t-34 13z
" />
    <glyph glyph-name="guillemotright" unicode="&#xbb;" horiz-adv-x="618" 
d="M130 295l-80 175h202l76 -175l-76 -175h-202zM385 295l-80 175h202l76 -175l-76 -175h-202z" />
    <glyph glyph-name="onequarter" unicode="&#xbc;" horiz-adv-x="879" 
d="M714 708l-387 -708h-217l388 708h216zM45 577v127h230v-352h-164v225h-66zM857 58h-35v-58h-165v58h-203v84l141 209h227v-205h35v-88zM666 250l-59 -99h59v99z" />
    <glyph glyph-name="onehalf" unicode="&#xbd;" horiz-adv-x="928" 
d="M724 711l-397 -711h-217l398 711h216zM111 577h-66v127h230v-352h-164v225zM677 124h170v-125h-345v122l135 70q26 13 36.5 26t10.5 25q0 8 -9 8q-17 0 -18 -34h-163q5 65 57.5 106.5t145.5 41.5q45 0 75.5 -10t49 -25.5t27 -35t8.5 -37.5q0 -36 -32.5 -62.5
t-107.5 -54.5z" />
    <glyph glyph-name="threequarters" unicode="&#xbe;" horiz-adv-x="1024" 
d="M262 717q81 0 124 -29t43 -77q0 -62 -75 -74v-4q47 -11 65.5 -30.5t18.5 -50.5q0 -51 -46.5 -77t-125.5 -26q-56 0 -93 9.5t-60 27t-33.5 42t-13.5 54.5h172q0 -12 3.5 -16t10.5 -4q5 0 9 4t4 17q0 14 -6.5 19.5t-20.5 5.5h-30v54h21q26 0 26 26q0 17 -12 17
q-14 0 -14 -28h-156q0 26 9 51t31 44.5t58.5 32t90.5 12.5zM847 711l-370 -711h-216l369 711h217zM1009 58h-35v-58h-164v58h-204v84l121 209h247v-205h35v-88zM819 270l-59 -124h59v124z" />
    <glyph glyph-name="questiondown" unicode="&#xbf;" horiz-adv-x="538" 
d="M293 361v212h220v-212h-220zM328 -200q-53 0 -97.5 13t-77 40t-50.5 67.5t-18 95.5q0 45 15.5 81t44 62.5t68 41t87.5 15.5v71h208v-212h-84q-58 0 -90 -13t-32 -45q0 -18 10 -27.5t24 -9.5q20 0 29 13.5t9 31.5h209q2 -45 -12.5 -85.5t-46 -71.5t-80.5 -49.5t-116 -18.5
z" />
    <glyph glyph-name="Agrave" unicode="&#xc0;" horiz-adv-x="773" 
d="M463 746l-195 68l52 114l181 -98zM504 107h-236l-35 -107h-233l259 708h256l258 -708h-234zM450 274l-64 197l-64 -197h128z" />
    <glyph glyph-name="Aacute" unicode="&#xc1;" horiz-adv-x="773" 
d="M307 754l-32 77l200 98l40 -105zM504 107h-236l-35 -107h-233l259 708h256l258 -708h-234zM450 274l-64 197l-64 -197h128z" />
    <glyph glyph-name="Acircumflex" unicode="&#xc2;" horiz-adv-x="773" 
d="M281 746l-31 89l137 70l136 -70l-34 -89l-102 43zM504 107h-236l-35 -107h-233l259 708h256l258 -708h-234zM450 274l-64 197l-64 -197h128z" />
    <glyph glyph-name="Atilde" unicode="&#xc3;" horiz-adv-x="773" 
d="M324 795q-30 0 -37 -39h-89q14 80 48 112.5t85 32.5q20 0 36.5 -6t31 -13l27 -13t24.5 -6q30 0 36 39h90q-14 -80 -48 -112t-85 -32q-20 0 -36.5 6t-31 12.5l-27 12.5t-24.5 6zM504 107h-236l-35 -107h-233l259 708h256l258 -708h-234zM450 274l-64 197l-64 -197h128z
" />
    <glyph glyph-name="Adieresis" unicode="&#xc4;" horiz-adv-x="773" 
d="M273 764q-36 0 -60.5 24.5t-24.5 60.5q0 38 24.5 62.5t60.5 24.5q38 0 62.5 -24.5t24.5 -62.5q0 -36 -24.5 -60.5t-62.5 -24.5zM498 764q-36 0 -60.5 24.5t-24.5 60.5q0 38 24.5 62.5t60.5 24.5q38 0 62.5 -24.5t24.5 -62.5q0 -36 -24.5 -60.5t-62.5 -24.5zM504 107h-236
l-35 -107h-233l259 708h256l258 -708h-234zM450 274l-64 197l-64 -197h128z" />
    <glyph glyph-name="Aring" unicode="&#xc5;" horiz-adv-x="773" 
d="M386 737q-27 0 -51 9t-42 26t-28.5 41.5t-10.5 55.5t10.5 55.5t28.5 41.5t42 26t51 9t51 -9t42 -26t28.5 -41.5t10.5 -55.5t-10.5 -55.5t-28.5 -41.5t-42 -26t-51 -9zM386 916q-20 0 -33 -12.5t-13 -34.5q0 -21 13 -34t33 -13t33 13t13 34q0 22 -13 34.5t-33 12.5z
M504 107h-236l-35 -107h-233l259 708h256l258 -708h-234zM450 274l-64 197l-64 -197h128z" />
    <glyph glyph-name="AE" unicode="&#xc6;" horiz-adv-x="986" 
d="M712 532v-85h210v-167h-210v-103h240v-177h-462v97h-204l-45 -97h-241l339 708h613v-176h-240zM490 264v273l-127 -273h127z" />
    <glyph glyph-name="Ccedilla" unicode="&#xc7;" horiz-adv-x="753" 
d="M376 200q38 0 67.5 19.5t45.5 54.5h234q-19 -110 -90.5 -183t-184.5 -91v-27q18 0 40.5 -5.5t42.5 -19.5t33.5 -37.5t13.5 -59.5t-14 -59.5t-36 -37.5t-48.5 -19.5t-51.5 -5.5h-173v113h150q26 0 26 16q0 15 -26 15h-85v126q-68 9 -121.5 39t-91 76.5t-57.5 107.5
t-20 133q0 79 24 145t69.5 114t110.5 74.5t146 26.5q70 0 128.5 -20t102.5 -57t72.5 -88t39.5 -114h-234q-16 35 -45.5 54.5t-67.5 19.5q-57 0 -89 -42t-32 -113t32 -113t89 -42z" />
    <glyph glyph-name="Egrave" unicode="&#xc8;" horiz-adv-x="556" 
d="M392 830l-38 -84l-195 68l52 114zM272 532v-88h220v-167h-220v-100h250v-177h-472v708h472v-176h-250z" />
    <glyph glyph-name="Eacute" unicode="&#xc9;" horiz-adv-x="556" 
d="M406 824l-208 -70l-32 77l200 98zM272 532v-88h220v-167h-220v-100h250v-177h-472v708h472v-176h-250z" />
    <glyph glyph-name="Ecircumflex" unicode="&#xca;" horiz-adv-x="556" 
d="M278 789l-106 -43l-31 89l137 70l136 -70l-34 -89zM272 532v-88h220v-167h-220v-100h250v-177h-472v708h472v-176h-250z" />
    <glyph glyph-name="Edieresis" unicode="&#xcb;" horiz-adv-x="556" 
d="M88 849q0 38 24.5 62.5t60.5 24.5q38 0 62.5 -24.5t24.5 -62.5q0 -36 -24.5 -60.5t-62.5 -24.5q-36 0 -60.5 24.5t-24.5 60.5zM313 849q0 38 24.5 62.5t60.5 24.5q38 0 62.5 -24.5t24.5 -62.5q0 -36 -24.5 -60.5t-62.5 -24.5q-36 0 -60.5 24.5t-24.5 60.5zM272 532v-88
h220v-167h-220v-100h250v-177h-472v708h472v-176h-250z" />
    <glyph glyph-name="Igrave" unicode="&#xcc;" horiz-adv-x="322" 
d="M275 830l-38 -84l-195 68l52 114zM272 708v-708h-222v708h222z" />
    <glyph glyph-name="Iacute" unicode="&#xcd;" horiz-adv-x="322" 
d="M289 824l-208 -70l-32 77l200 98zM272 708v-708h-222v708h222z" />
    <glyph glyph-name="Icircumflex" unicode="&#xce;" horiz-adv-x="322" 
d="M161 789l-106 -43l-31 89l137 70l136 -70l-34 -89zM272 708v-708h-222v708h222z" />
    <glyph glyph-name="Idieresis" unicode="&#xcf;" horiz-adv-x="322" 
d="M-37 849q0 38 24.5 62.5t60.5 24.5q38 0 62.5 -24.5t24.5 -62.5q0 -36 -24.5 -60.5t-62.5 -24.5q-36 0 -60.5 24.5t-24.5 60.5zM188 849q0 38 24.5 62.5t60.5 24.5q38 0 62.5 -24.5t24.5 -62.5q0 -36 -24.5 -60.5t-62.5 -24.5q-36 0 -60.5 24.5t-24.5 60.5zM272 708v-708
h-222v708h222z" />
    <glyph glyph-name="Eth" unicode="&#xd0;" horiz-adv-x="743" 
d="M345 708q85 0 153 -26.5t116 -73t73.5 -111t25.5 -141.5q0 -76 -25.5 -141t-73.5 -113t-116 -75t-153 -27h-295v268h-50v176h50v264h295zM325 198q74 0 118.5 40t44.5 118t-44.5 118t-118.5 40h-53v-70h130v-176h-130v-70h53z" />
    <glyph glyph-name="Ntilde" unicode="&#xd1;" horiz-adv-x="779" 
d="M334 901q20 0 36.5 -6t31 -13l27 -13t24.5 -6q30 0 36 39h90q-14 -80 -48 -112t-85 -32q-20 0 -36.5 6t-31 12.5l-27 12.5t-24.5 6q-30 0 -37 -39h-89q14 80 48 112.5t85 32.5zM729 0h-222l-235 356v-356h-222v708h222l235 -362v362h222v-708z" />
    <glyph glyph-name="Ograve" unicode="&#xd2;" horiz-adv-x="788" 
d="M508 830l-38 -84l-195 68l52 114zM395 720q76 0 142 -27t115 -75t77.5 -114.5t28.5 -146.5t-28.5 -147t-78 -115t-115.5 -75t-141 -27t-141.5 27t-116 75t-78.5 115t-29 147t29 146.5t78.5 114.5t116 75t141.5 27zM395 515q-69 0 -104 -43t-35 -115q0 -71 35 -114
t104 -43q67 0 102.5 43t35.5 114q0 72 -35.5 115t-102.5 43z" />
    <glyph glyph-name="Oacute" unicode="&#xd3;" horiz-adv-x="788" 
d="M522 824l-208 -70l-32 77l200 98zM395 720q76 0 142 -27t115 -75t77.5 -114.5t28.5 -146.5t-28.5 -147t-78 -115t-115.5 -75t-141 -27t-141.5 27t-116 75t-78.5 115t-29 147t29 146.5t78.5 114.5t116 75t141.5 27zM395 515q-69 0 -104 -43t-35 -115q0 -71 35 -114
t104 -43q67 0 102.5 43t35.5 114q0 72 -35.5 115t-102.5 43z" />
    <glyph glyph-name="Ocircumflex" unicode="&#xd4;" horiz-adv-x="788" 
d="M394 789l-106 -43l-31 89l137 70l136 -70l-34 -89zM395 720q76 0 142 -27t115 -75t77.5 -114.5t28.5 -146.5t-28.5 -147t-78 -115t-115.5 -75t-141 -27t-141.5 27t-116 75t-78.5 115t-29 147t29 146.5t78.5 114.5t116 75t141.5 27zM395 515q-69 0 -104 -43t-35 -115
q0 -71 35 -114t104 -43q67 0 102.5 43t35.5 114q0 72 -35.5 115t-102.5 43z" />
    <glyph glyph-name="Otilde" unicode="&#xd5;" horiz-adv-x="788" 
d="M338 901q20 0 36.5 -6t31 -13l27 -13t24.5 -6q30 0 36 39h90q-14 -80 -48 -112t-85 -32q-20 0 -36.5 6t-31 12.5l-27 12.5t-24.5 6q-30 0 -37 -39h-89q14 80 48 112.5t85 32.5zM395 720q76 0 142 -27t115 -75t77.5 -114.5t28.5 -146.5t-28.5 -147t-78 -115t-115.5 -75
t-141 -27t-141.5 27t-116 75t-78.5 115t-29 147t29 146.5t78.5 114.5t116 75t141.5 27zM395 515q-69 0 -104 -43t-35 -115q0 -71 35 -114t104 -43q67 0 102.5 43t35.5 114q0 72 -35.5 115t-102.5 43z" />
    <glyph glyph-name="Odieresis" unicode="&#xd6;" horiz-adv-x="788" 
d="M196 849q0 38 24.5 62.5t60.5 24.5q38 0 62.5 -24.5t24.5 -62.5q0 -36 -24.5 -60.5t-62.5 -24.5q-36 0 -60.5 24.5t-24.5 60.5zM421 849q0 38 24.5 62.5t60.5 24.5q38 0 62.5 -24.5t24.5 -62.5q0 -36 -24.5 -60.5t-62.5 -24.5q-36 0 -60.5 24.5t-24.5 60.5zM395 720
q76 0 142 -27t115 -75t77.5 -114.5t28.5 -146.5t-28.5 -147t-78 -115t-115.5 -75t-141 -27t-141.5 27t-116 75t-78.5 115t-29 147t29 146.5t78.5 114.5t116 75t141.5 27zM395 515q-69 0 -104 -43t-35 -115q0 -71 35 -114t104 -43q67 0 102.5 43t35.5 114q0 72 -35.5 115
t-102.5 43z" />
    <glyph glyph-name="multiply" unicode="&#xd7;" horiz-adv-x="581" 
d="M414 78l-127 126l-124 -125l-143 142l124 126l-120 120l147 145l118 -118l117 118l144 -142l-118 -119l129 -128z" />
    <glyph glyph-name="Oslash" unicode="&#xd8;" horiz-adv-x="788" 
d="M669 600q42 -48 65 -109t23 -134q0 -80 -28.5 -147t-78 -115t-115.5 -75t-141 -27q-59 0 -112 16.5t-98 46.5l-50 -55h-116l101 112q-42 48 -66 109.5t-24 134.5q0 80 29 146.5t78.5 114.5t116 75t141.5 27q60 0 113 -16.5t98 -46.5l49 55h115zM255 357q0 -44 13 -76
l195 218q-30 16 -69 16q-69 0 -104 -43t-35 -115zM532 357q0 44 -13 76l-194 -218q30 -15 69 -15q67 0 102.5 43t35.5 114z" />
    <glyph glyph-name="Ugrave" unicode="&#xd9;" horiz-adv-x="719" 
d="M474 830l-38 -84l-195 68l52 114zM267 708v-399q0 -46 20 -76t71 -30t72.5 30t21.5 76v399h221v-399q0 -78 -25 -137.5t-68.5 -99t-102 -59.5t-124.5 -20t-122.5 20t-97.5 59.5t-64 99t-23 137.5v399h221z" />
    <glyph glyph-name="Uacute" unicode="&#xda;" horiz-adv-x="719" 
d="M488 824l-208 -70l-32 77l200 98zM267 708v-399q0 -46 20 -76t71 -30t72.5 30t21.5 76v399h221v-399q0 -78 -25 -137.5t-68.5 -99t-102 -59.5t-124.5 -20t-122.5 20t-97.5 59.5t-64 99t-23 137.5v399h221z" />
    <glyph glyph-name="Ucircumflex" unicode="&#xdb;" horiz-adv-x="719" 
d="M360 789l-106 -43l-31 89l137 70l136 -70l-34 -89zM267 708v-399q0 -46 20 -76t71 -30t72.5 30t21.5 76v399h221v-399q0 -78 -25 -137.5t-68.5 -99t-102 -59.5t-124.5 -20t-122.5 20t-97.5 59.5t-64 99t-23 137.5v399h221z" />
    <glyph glyph-name="Udieresis" unicode="&#xdc;" horiz-adv-x="719" 
d="M161 849q0 38 24.5 62.5t60.5 24.5q38 0 62.5 -24.5t24.5 -62.5q0 -36 -24.5 -60.5t-62.5 -24.5q-36 0 -60.5 24.5t-24.5 60.5zM386 849q0 38 24.5 62.5t60.5 24.5q38 0 62.5 -24.5t24.5 -62.5q0 -36 -24.5 -60.5t-62.5 -24.5q-36 0 -60.5 24.5t-24.5 60.5zM267 708v-399
q0 -46 20 -76t71 -30t72.5 30t21.5 76v399h221v-399q0 -78 -25 -137.5t-68.5 -99t-102 -59.5t-124.5 -20t-122.5 20t-97.5 59.5t-64 99t-23 137.5v399h221z" />
    <glyph glyph-name="Yacute" unicode="&#xdd;" horiz-adv-x="730" 
d="M285 754l-32 77l200 98l40 -105zM730 708l-254 -493v-215h-222v215l-254 493h254l113 -251l113 251h250z" />
    <glyph glyph-name="Thorn" unicode="&#xde;" horiz-adv-x="649" 
d="M272 125v-125h-222v708h220v-120h90q67 0 117.5 -17t84 -48t50.5 -74t17 -94q0 -47 -17 -89t-50.5 -73.5t-84 -49.5t-117.5 -18h-88zM335 290q38 0 53.5 18t15.5 47t-15.5 47t-53.5 18h-63v-130h63z" />
    <glyph glyph-name="germandbls" unicode="&#xdf;" horiz-adv-x="773" 
d="M601 423q43 -23 74 -46.5t50.5 -50.5t28.5 -58.5t9 -70.5q0 -42 -15 -79t-43 -64.5t-69 -43.5t-93 -16q-120 0 -177 61t-59 164h180q4 -20 14 -26.5t20 -6.5q14 0 20.5 8.5t6.5 20.5q0 20 -12.5 31t-42.5 26l-144 74v84l11 8q17 12 23 24.5t6 26.5q0 25 -14.5 42
t-41.5 17q-26 0 -44.5 -17.5t-18.5 -54.5l2 -476h-222v428q0 168 79 245t231 77q65 0 113.5 -15.5t80 -40t47 -56.5t15.5 -65q0 -37 -15 -66.5t-56 -53.5z" />
    <glyph glyph-name="agrave" unicode="&#xe0;" 
d="M454 686l-38 -84l-195 68l52 114zM253 571q57 0 96.5 -23t59.5 -61v77h221v-564h-221v77q-20 -38 -59.5 -61t-96.5 -23q-49 0 -91.5 19.5t-74 56.5t-49.5 91t-18 122t18 122t49.5 91t74 56.5t91.5 19.5zM327 377q-35 0 -58.5 -24t-23.5 -71t23.5 -71t58.5 -24t58.5 24
t23.5 71t-23.5 71t-58.5 24z" />
    <glyph glyph-name="aacute" unicode="&#xe1;" 
d="M468 680l-208 -70l-32 77l200 98zM253 571q57 0 96.5 -23t59.5 -61v77h221v-564h-221v77q-20 -38 -59.5 -61t-96.5 -23q-49 0 -91.5 19.5t-74 56.5t-49.5 91t-18 122t18 122t49.5 91t74 56.5t91.5 19.5zM327 377q-35 0 -58.5 -24t-23.5 -71t23.5 -71t58.5 -24t58.5 24
t23.5 71t-23.5 71t-58.5 24z" />
    <glyph glyph-name="acircumflex" unicode="&#xe2;" 
d="M340 645l-106 -43l-31 89l137 70l136 -70l-34 -89zM253 571q57 0 96.5 -23t59.5 -61v77h221v-564h-221v77q-20 -38 -59.5 -61t-96.5 -23q-49 0 -91.5 19.5t-74 56.5t-49.5 91t-18 122t18 122t49.5 91t74 56.5t91.5 19.5zM327 377q-35 0 -58.5 -24t-23.5 -71t23.5 -71
t58.5 -24t58.5 24t23.5 71t-23.5 71t-58.5 24z" />
    <glyph glyph-name="atilde" unicode="&#xe3;" 
d="M284 757q20 0 36.5 -6t31 -13l27 -13t24.5 -6q30 0 36 39h90q-14 -80 -48 -112t-85 -32q-20 0 -36.5 6t-31 12.5l-27 12.5t-24.5 6q-30 0 -37 -39h-89q14 80 48 112.5t85 32.5zM253 571q57 0 96.5 -23t59.5 -61v77h221v-564h-221v77q-20 -38 -59.5 -61t-96.5 -23
q-49 0 -91.5 19.5t-74 56.5t-49.5 91t-18 122t18 122t49.5 91t74 56.5t91.5 19.5zM327 377q-35 0 -58.5 -24t-23.5 -71t23.5 -71t58.5 -24t58.5 24t23.5 71t-23.5 71t-58.5 24z" />
    <glyph glyph-name="adieresis" unicode="&#xe4;" 
d="M127 705q0 38 24.5 62.5t60.5 24.5q38 0 62.5 -24.5t24.5 -62.5q0 -36 -24.5 -60.5t-62.5 -24.5q-36 0 -60.5 24.5t-24.5 60.5zM352 705q0 38 24.5 62.5t60.5 24.5q38 0 62.5 -24.5t24.5 -62.5q0 -36 -24.5 -60.5t-62.5 -24.5q-36 0 -60.5 24.5t-24.5 60.5zM253 571
q57 0 96.5 -23t59.5 -61v77h221v-564h-221v77q-20 -38 -59.5 -61t-96.5 -23q-49 0 -91.5 19.5t-74 56.5t-49.5 91t-18 122t18 122t49.5 91t74 56.5t91.5 19.5zM327 377q-35 0 -58.5 -24t-23.5 -71t23.5 -71t58.5 -24t58.5 24t23.5 71t-23.5 71t-58.5 24z" />
    <glyph glyph-name="aring" unicode="&#xe5;" 
d="M325 857q27 0 51 -9t42 -26t28.5 -41.5t10.5 -55.5t-10.5 -55.5t-28.5 -41.5t-42 -26t-51 -9t-51 9t-42 26t-28.5 41.5t-10.5 55.5t10.5 55.5t28.5 41.5t42 26t51 9zM325 772q-20 0 -33 -12.5t-13 -34.5q0 -21 13 -34t33 -13t33 13t13 34q0 22 -13 34.5t-33 12.5z
M253 571q57 0 96.5 -23t59.5 -61v77h221v-564h-221v77q-20 -38 -59.5 -61t-96.5 -23q-49 0 -91.5 19.5t-74 56.5t-49.5 91t-18 122t18 122t49.5 91t74 56.5t91.5 19.5zM327 377q-35 0 -58.5 -24t-23.5 -71t23.5 -71t58.5 -24t58.5 24t23.5 71t-23.5 71t-58.5 24z" />
    <glyph glyph-name="ae" unicode="&#xe6;" horiz-adv-x="1054" 
d="M1034 287q0 -21 -5 -44h-391q5 -45 26.5 -60.5t52.5 -15.5q29 0 45.5 9.5t24.5 26.5h235q-9 -45 -29 -83.5t-49 -66.5t-66.5 -44t-81.5 -16q-61 0 -103 22.5t-63 61.5v-77h-221v77q-20 -38 -59.5 -61t-96.5 -23q-49 0 -91.5 19.5t-74 56.5t-49.5 91t-18 122t18 122
t49.5 91t74 56.5t91.5 19.5q57 0 96.5 -23t59.5 -61v77h221v-77q20 40 62.5 62t103.5 22q52 0 96 -19.5t75.5 -56t49 -89.5t17.5 -119zM809 334q0 33 -25.5 48t-59.5 15q-29 0 -53 -13t-32 -50h170zM327 187q35 0 58.5 24t23.5 71t-23.5 71t-58.5 24t-58.5 -24t-23.5 -71
t23.5 -71t58.5 -24z" />
    <glyph glyph-name="ccedilla" unicode="&#xe7;" horiz-adv-x="609" 
d="M303 183q21 0 33 12t18 32h235q-19 -104 -86.5 -164.5t-166.5 -68.5v-21q18 0 40.5 -5.5t42.5 -19.5t33.5 -37.5t13.5 -59.5t-14 -59.5t-36 -37.5t-48.5 -19.5t-51.5 -5.5h-173v113h150q26 0 26 16q0 15 -26 15h-85v134h1q-87 26 -138 97t-51 178q0 68 21 121.5
t59.5 90.5t91.5 57t116 20q54 0 101 -15.5t83.5 -45.5t61.5 -73.5t35 -99.5h-235q-6 20 -18 32t-33 12q-26 0 -42 -24t-16 -75t16 -75t42 -24z" />
    <glyph glyph-name="egrave" unicode="&#xe8;" horiz-adv-x="616" 
d="M384 602l-195 68l52 114l181 -98zM596 287q0 -21 -5 -44h-355q3 -45 20.5 -59t40.5 -14q22 0 34 10t18 23h235q-9 -45 -33.5 -83.5t-60.5 -66.5t-82.5 -44t-99.5 -16q-63 0 -116 20t-91.5 57t-59.5 91t-21 121q0 68 21 121.5t59.5 90.5t91.5 57t116 20t116 -19.5
t91.5 -56t59.5 -89.5t21 -119zM371 334q0 34 -19 48.5t-44 14.5q-61 0 -70 -63h133z" />
    <glyph glyph-name="eacute" unicode="&#xe9;" horiz-adv-x="616" 
d="M228 610l-32 77l200 98l40 -105zM596 287q0 -21 -5 -44h-355q3 -45 20.5 -59t40.5 -14q22 0 34 10t18 23h235q-9 -45 -33.5 -83.5t-60.5 -66.5t-82.5 -44t-99.5 -16q-63 0 -116 20t-91.5 57t-59.5 91t-21 121q0 68 21 121.5t59.5 90.5t91.5 57t116 20t116 -19.5t91.5 -56
t59.5 -89.5t21 -119zM371 334q0 34 -19 48.5t-44 14.5q-61 0 -70 -63h133z" />
    <glyph glyph-name="ecircumflex" unicode="&#xea;" horiz-adv-x="616" 
d="M202 602l-31 89l137 70l136 -70l-34 -89l-102 43zM596 287q0 -21 -5 -44h-355q3 -45 20.5 -59t40.5 -14q22 0 34 10t18 23h235q-9 -45 -33.5 -83.5t-60.5 -66.5t-82.5 -44t-99.5 -16q-63 0 -116 20t-91.5 57t-59.5 91t-21 121q0 68 21 121.5t59.5 90.5t91.5 57t116 20
t116 -19.5t91.5 -56t59.5 -89.5t21 -119zM371 334q0 34 -19 48.5t-44 14.5q-61 0 -70 -63h133z" />
    <glyph glyph-name="edieresis" unicode="&#xeb;" horiz-adv-x="616" 
d="M195 620q-36 0 -60.5 24.5t-24.5 60.5q0 38 24.5 62.5t60.5 24.5q38 0 62.5 -24.5t24.5 -62.5q0 -36 -24.5 -60.5t-62.5 -24.5zM420 620q-36 0 -60.5 24.5t-24.5 60.5q0 38 24.5 62.5t60.5 24.5q38 0 62.5 -24.5t24.5 -62.5q0 -36 -24.5 -60.5t-62.5 -24.5zM596 287
q0 -21 -5 -44h-355q3 -45 20.5 -59t40.5 -14q22 0 34 10t18 23h235q-9 -45 -33.5 -83.5t-60.5 -66.5t-82.5 -44t-99.5 -16q-63 0 -116 20t-91.5 57t-59.5 91t-21 121q0 68 21 121.5t59.5 90.5t91.5 57t116 20t116 -19.5t91.5 -56t59.5 -89.5t21 -119zM371 334q0 34 -19 48.5
t-44 14.5q-61 0 -70 -63h133z" />
    <glyph glyph-name="igrave" unicode="&#xec;" horiz-adv-x="372" 
d="M300 686l-38 -84l-195 68l52 114zM297 564v-564h-222v564h222z" />
    <glyph glyph-name="iacute" unicode="&#xed;" horiz-adv-x="372" 
d="M314 680l-208 -70l-32 77l200 98zM297 564v-564h-222v564h222z" />
    <glyph glyph-name="icircumflex" unicode="&#xee;" horiz-adv-x="372" 
d="M186 645l-106 -43l-31 89l137 70l136 -70l-34 -89zM297 564v-564h-222v564h222z" />
    <glyph glyph-name="idieresis" unicode="&#xef;" horiz-adv-x="372" 
d="M-12 705q0 38 24.5 62.5t60.5 24.5q38 0 62.5 -24.5t24.5 -62.5q0 -36 -24.5 -60.5t-62.5 -24.5q-36 0 -60.5 24.5t-24.5 60.5zM213 705q0 38 24.5 62.5t60.5 24.5q38 0 62.5 -24.5t24.5 -62.5q0 -36 -24.5 -60.5t-62.5 -24.5q-36 0 -60.5 24.5t-24.5 60.5zM297 564v-564
h-222v564h222z" />
    <glyph glyph-name="eth" unicode="&#xf0;" horiz-adv-x="643" 
d="M508 657q51 -73 83 -161t32 -179q0 -79 -23.5 -139t-64 -101t-94 -62t-113.5 -21q-61 0 -117 20t-98.5 57.5t-67.5 91.5t-25 121t22 119.5t60 89t89 56t110 19.5q17 0 37 -2t42 -6q-6 13 -14 26l-16 26l-86 -24v72l44 13q-32 41 -61 67h193l22 -24l67 19v-72zM328 186
q26 0 47.5 21t21.5 75q0 27 -7 45t-18 29.5t-23.5 16t-24.5 4.5q-13 0 -27 -4.5t-25 -16t-18.5 -29.5t-7.5 -45t8 -45.5t20.5 -29.5t27 -16t26.5 -5z" />
    <glyph glyph-name="ntilde" unicode="&#xf1;" horiz-adv-x="697" 
d="M286 651q-30 0 -37 -39h-89q14 80 48 112.5t85 32.5q20 0 36.5 -6t31 -13l27 -13t24.5 -6q30 0 36 39h90q-14 -80 -48 -112t-85 -32q-20 0 -36.5 6t-31 12.5l-27 12.5t-24.5 6zM445 568q49 0 87 -17t64.5 -48.5t40.5 -76t14 -99.5v-327h-221v299q0 41 -21.5 64t-57.5 23
q-37 0 -58 -23t-21 -64v-299h-222v564h222v-86q24 37 66.5 63.5t106.5 26.5z" />
    <glyph glyph-name="ograve" unicode="&#xf2;" horiz-adv-x="636" 
d="M432 686l-38 -84l-195 68l52 114zM318 571q64 0 118.5 -20t94.5 -57t62.5 -90.5t22.5 -121.5q0 -67 -22.5 -121t-62.5 -91t-94.5 -57t-118.5 -20t-118.5 20t-94.5 57t-62.5 91t-22.5 121q0 68 22.5 121.5t62.5 90.5t94.5 57t118.5 20zM318 379q-29 0 -51 -23t-22 -74
t21.5 -74t51.5 -23q29 0 51 23t22 74t-22 74t-51 23z" />
    <glyph glyph-name="oacute" unicode="&#xf3;" horiz-adv-x="636" 
d="M446 680l-208 -70l-32 77l200 98zM318 571q64 0 118.5 -20t94.5 -57t62.5 -90.5t22.5 -121.5q0 -67 -22.5 -121t-62.5 -91t-94.5 -57t-118.5 -20t-118.5 20t-94.5 57t-62.5 91t-22.5 121q0 68 22.5 121.5t62.5 90.5t94.5 57t118.5 20zM318 379q-29 0 -51 -23t-22 -74
t21.5 -74t51.5 -23q29 0 51 23t22 74t-22 74t-51 23z" />
    <glyph glyph-name="ocircumflex" unicode="&#xf4;" horiz-adv-x="636" 
d="M318 645l-106 -43l-31 89l137 70l136 -70l-34 -89zM318 571q64 0 118.5 -20t94.5 -57t62.5 -90.5t22.5 -121.5q0 -67 -22.5 -121t-62.5 -91t-94.5 -57t-118.5 -20t-118.5 20t-94.5 57t-62.5 91t-22.5 121q0 68 22.5 121.5t62.5 90.5t94.5 57t118.5 20zM318 379
q-29 0 -51 -23t-22 -74t21.5 -74t51.5 -23q29 0 51 23t22 74t-22 74t-51 23z" />
    <glyph glyph-name="otilde" unicode="&#xf5;" horiz-adv-x="636" 
d="M262 757q20 0 36.5 -6t31 -13l27 -13t24.5 -6q30 0 36 39h90q-14 -80 -48 -112t-85 -32q-20 0 -36.5 6t-31 12.5l-27 12.5t-24.5 6q-30 0 -37 -39h-89q14 80 48 112.5t85 32.5zM318 571q64 0 118.5 -20t94.5 -57t62.5 -90.5t22.5 -121.5q0 -67 -22.5 -121t-62.5 -91
t-94.5 -57t-118.5 -20t-118.5 20t-94.5 57t-62.5 91t-22.5 121q0 68 22.5 121.5t62.5 90.5t94.5 57t118.5 20zM318 379q-29 0 -51 -23t-22 -74t21.5 -74t51.5 -23q29 0 51 23t22 74t-22 74t-51 23z" />
    <glyph glyph-name="odieresis" unicode="&#xf6;" horiz-adv-x="636" 
d="M120 705q0 38 24.5 62.5t60.5 24.5q38 0 62.5 -24.5t24.5 -62.5q0 -36 -24.5 -60.5t-62.5 -24.5q-36 0 -60.5 24.5t-24.5 60.5zM345 705q0 38 24.5 62.5t60.5 24.5q38 0 62.5 -24.5t24.5 -62.5q0 -36 -24.5 -60.5t-62.5 -24.5q-36 0 -60.5 24.5t-24.5 60.5zM318 571
q64 0 118.5 -20t94.5 -57t62.5 -90.5t22.5 -121.5q0 -67 -22.5 -121t-62.5 -91t-94.5 -57t-118.5 -20t-118.5 20t-94.5 57t-62.5 91t-22.5 121q0 68 22.5 121.5t62.5 90.5t94.5 57t118.5 20zM318 379q-29 0 -51 -23t-22 -74t21.5 -74t51.5 -23q29 0 51 23t22 74t-22 74
t-51 23z" />
    <glyph glyph-name="divide" unicode="&#xf7;" horiz-adv-x="551" 
d="M384 681v-212h-220v212h220zM531 441v-201h-511v201h511zM384 212v-212h-220v212h220z" />
    <glyph glyph-name="oslash" unicode="&#xf8;" horiz-adv-x="621" 
d="M540 476q32 -37 50 -85.5t18 -108.5q0 -67 -22.5 -121t-62.5 -91t-94.5 -57t-118.5 -20q-98 0 -172 46l-35 -39h-103l80 87q-32 37 -50 86t-18 109q0 68 22.5 121.5t62.5 90.5t94.5 57t118.5 20q98 0 172 -46l36 39h103zM237 282v-11.5t1 -10.5l103 112q-13 7 -31 7
q-29 0 -51 -23t-22 -74zM383 282v11t-1 10l-103 -111q14 -7 31 -7q29 0 51 23t22 74z" />
    <glyph glyph-name="ugrave" unicode="&#xf9;" horiz-adv-x="697" 
d="M425 602l-195 68l52 114l181 -98zM647 564v-564h-222v86q-24 -37 -66.5 -63.5t-106.5 -26.5q-49 0 -87 17t-64.5 48.5t-40.5 76t-14 99.5v327h221v-299q0 -41 21.5 -64t57.5 -23q37 0 58 23t21 64v299h222z" />
    <glyph glyph-name="uacute" unicode="&#xfa;" horiz-adv-x="697" 
d="M269 610l-32 77l200 98l40 -105zM647 564v-564h-222v86q-24 -37 -66.5 -63.5t-106.5 -26.5q-49 0 -87 17t-64.5 48.5t-40.5 76t-14 99.5v327h221v-299q0 -41 21.5 -64t57.5 -23q37 0 58 23t21 64v299h222z" />
    <glyph glyph-name="ucircumflex" unicode="&#xfb;" horiz-adv-x="697" 
d="M243 602l-31 89l137 70l136 -70l-34 -89l-102 43zM647 564v-564h-222v86q-24 -37 -66.5 -63.5t-106.5 -26.5q-49 0 -87 17t-64.5 48.5t-40.5 76t-14 99.5v327h221v-299q0 -41 21.5 -64t57.5 -23q37 0 58 23t21 64v299h222z" />
    <glyph glyph-name="udieresis" unicode="&#xfc;" horiz-adv-x="697" 
d="M233 620q-36 0 -60.5 24.5t-24.5 60.5q0 38 24.5 62.5t60.5 24.5q38 0 62.5 -24.5t24.5 -62.5q0 -36 -24.5 -60.5t-62.5 -24.5zM458 620q-36 0 -60.5 24.5t-24.5 60.5q0 38 24.5 62.5t60.5 24.5q38 0 62.5 -24.5t24.5 -62.5q0 -36 -24.5 -60.5t-62.5 -24.5zM647 564v-564
h-222v86q-24 -37 -66.5 -63.5t-106.5 -26.5q-49 0 -87 17t-64.5 48.5t-40.5 76t-14 99.5v327h221v-299q0 -41 21.5 -64t57.5 -23q37 0 58 23t21 64v299h222z" />
    <glyph glyph-name="yacute" unicode="&#xfd;" horiz-adv-x="677" 
d="M467 680l-208 -70l-32 77l200 98zM237 564l106 -286l99 286h245l-361 -834h-243l142 298l-235 536h247z" />
    <glyph glyph-name="thorn" unicode="&#xfe;" 
d="M411 568q50 0 95.5 -21.5t79.5 -60t54 -91.5t20 -117t-20 -116t-54 -89.5t-79.5 -58t-95.5 -20.5q-45 0 -77.5 16.5t-61.5 51.5v-332h-222v1010h222v-226q28 30 61 42t78 12zM354 376q-13 0 -27.5 -4.5t-26.5 -15.5t-20 -29t-8 -45t8 -45t20 -29.5t26.5 -16t27.5 -4.5
q12 0 26.5 4t26.5 14.5t20 28t8 44.5t-8 45.5t-20 30.5t-26.5 17t-26.5 5z" />
    <glyph glyph-name="ydieresis" unicode="&#xff;" horiz-adv-x="677" 
d="M140 705q0 38 24.5 62.5t60.5 24.5q38 0 62.5 -24.5t24.5 -62.5q0 -36 -24.5 -60.5t-62.5 -24.5q-36 0 -60.5 24.5t-24.5 60.5zM365 705q0 38 24.5 62.5t60.5 24.5q38 0 62.5 -24.5t24.5 -62.5q0 -36 -24.5 -60.5t-62.5 -24.5q-36 0 -60.5 24.5t-24.5 60.5zM237 564
l106 -286l99 286h245l-361 -834h-243l142 298l-235 536h247z" />
    <glyph glyph-name="Amacron" unicode="&#x100;" horiz-adv-x="773" 
d="M602 766h-431v147h431v-147zM504 107h-236l-35 -107h-233l259 708h256l258 -708h-234zM450 274l-64 197l-64 -197h128z" />
    <glyph glyph-name="amacron" unicode="&#x101;" 
d="M541 769v-147h-431v147h431zM253 571q57 0 96.5 -23t59.5 -61v77h221v-564h-221v77q-20 -38 -59.5 -61t-96.5 -23q-49 0 -91.5 19.5t-74 56.5t-49.5 91t-18 122t18 122t49.5 91t74 56.5t91.5 19.5zM327 377q-35 0 -58.5 -24t-23.5 -71t23.5 -71t58.5 -24t58.5 24t23.5 71
t-23.5 71t-58.5 24z" />
    <glyph glyph-name="Abreve" unicode="&#x102;" horiz-adv-x="773" 
d="M387 744q-33 0 -61 10t-49 31t-33 52.5t-12 74.5v14h85q0 -24 14.5 -37.5t55.5 -13.5t55.5 13.5t14.5 37.5h85v-14q0 -43 -12 -74.5t-33 -52.5t-49 -31t-61 -10zM504 107h-236l-35 -107h-233l259 708h256l258 -708h-234zM450 274l-64 197l-64 -197h128z" />
    <glyph glyph-name="abreve" unicode="&#x103;" 
d="M340 600q-33 0 -61 10t-49 31t-33 52.5t-12 74.5v14h85q0 -24 14.5 -37.5t55.5 -13.5t55.5 13.5t14.5 37.5h85v-14q0 -43 -12 -74.5t-33 -52.5t-49 -31t-61 -10zM253 571q57 0 96.5 -23t59.5 -61v77h221v-564h-221v77q-20 -38 -59.5 -61t-96.5 -23q-49 0 -91.5 19.5
t-74 56.5t-49.5 91t-18 122t18 122t49.5 91t74 56.5t91.5 19.5zM327 377q-35 0 -58.5 -24t-23.5 -71t23.5 -71t58.5 -24t58.5 24t23.5 71t-23.5 71t-58.5 24z" />
    <glyph glyph-name="Aogonek" unicode="&#x104;" horiz-adv-x="773" 
d="M812 -106v-113h-168q-25 0 -51.5 5.5t-48.5 19.5t-36 37.5t-14 59.5q0 59 46 95l-35 109h-237l-35 -107h-233l259 708h256l252 -693v-90h-100q-26 0 -26 -15q0 -16 26 -16h145zM450 274l-64 197l-64 -197h128z" />
    <glyph glyph-name="aogonek" unicode="&#x105;" 
d="M675 -106v-113h-168q-25 0 -51.5 5.5t-48.5 19.5t-36 37.5t-14 59.5q0 38 15 62t37 38v74q-20 -38 -59.5 -61t-96.5 -23q-49 0 -91.5 19.5t-74 56.5t-49.5 91t-18 122t18 122t49.5 91t74 56.5t91.5 19.5q57 0 96.5 -23t59.5 -61v77h221v-639h-100q-26 0 -26 -15
q0 -16 26 -16h145zM327 187q35 0 58.5 24t23.5 71t-23.5 71t-58.5 24t-58.5 -24t-23.5 -71t23.5 -71t58.5 -24z" />
    <glyph glyph-name="Cacute" unicode="&#x106;" horiz-adv-x="753" 
d="M505 824l-208 -70l-32 77l200 98zM380 715q70 0 128.5 -20t102.5 -57t72.5 -88t39.5 -114h-234q-16 35 -45.5 54.5t-67.5 19.5q-57 0 -89 -42t-32 -113t32 -113t89 -42q38 0 67.5 19.5t45.5 54.5h234q-11 -63 -39.5 -114t-72.5 -88t-102.5 -57t-128.5 -20
q-81 0 -146 26.5t-110.5 74.5t-69.5 114t-24 145t24 145t69.5 114t110.5 74.5t146 26.5z" />
    <glyph glyph-name="cacute" unicode="&#x107;" horiz-adv-x="609" 
d="M433 680l-208 -70l-32 77l200 98zM308 571q54 0 101 -15.5t83.5 -45.5t61.5 -73.5t35 -99.5h-235q-6 20 -18 32t-33 12q-26 0 -42 -24t-16 -75t16 -75t42 -24q21 0 33 12t18 32h235q-10 -55 -35 -98.5t-61.5 -73.5t-83.5 -46t-101 -16q-63 0 -116 20t-91.5 57t-59.5 91
t-21 121q0 68 21 121.5t59.5 90.5t91.5 57t116 20z" />
    <glyph glyph-name="Cdotaccent" unicode="&#x10a;" horiz-adv-x="753" 
d="M290 849q0 38 24.5 62.5t60.5 24.5q38 0 62.5 -24.5t24.5 -62.5q0 -36 -24.5 -60.5t-62.5 -24.5q-36 0 -60.5 24.5t-24.5 60.5zM380 715q70 0 128.5 -20t102.5 -57t72.5 -88t39.5 -114h-234q-16 35 -45.5 54.5t-67.5 19.5q-57 0 -89 -42t-32 -113t32 -113t89 -42
q38 0 67.5 19.5t45.5 54.5h234q-11 -63 -39.5 -114t-72.5 -88t-102.5 -57t-128.5 -20q-81 0 -146 26.5t-110.5 74.5t-69.5 114t-24 145t24 145t69.5 114t110.5 74.5t146 26.5z" />
    <glyph glyph-name="cdotaccent" unicode="&#x10b;" horiz-adv-x="609" 
d="M218 705q0 38 24.5 62.5t60.5 24.5q38 0 62.5 -24.5t24.5 -62.5q0 -36 -24.5 -60.5t-62.5 -24.5q-36 0 -60.5 24.5t-24.5 60.5zM308 571q54 0 101 -15.5t83.5 -45.5t61.5 -73.5t35 -99.5h-235q-6 20 -18 32t-33 12q-26 0 -42 -24t-16 -75t16 -75t42 -24q21 0 33 12t18 32
h235q-10 -55 -35 -98.5t-61.5 -73.5t-83.5 -46t-101 -16q-63 0 -116 20t-91.5 57t-59.5 91t-21 121q0 68 21 121.5t59.5 90.5t91.5 57t116 20z" />
    <glyph glyph-name="Ccaron" unicode="&#x10c;" horiz-adv-x="753" 
d="M542 821l-165 -85l-166 85v144l166 -88l165 88v-144zM380 715q70 0 128.5 -20t102.5 -57t72.5 -88t39.5 -114h-234q-16 35 -45.5 54.5t-67.5 19.5q-57 0 -89 -42t-32 -113t32 -113t89 -42q38 0 67.5 19.5t45.5 54.5h234q-11 -63 -39.5 -114t-72.5 -88t-102.5 -57
t-128.5 -20q-81 0 -146 26.5t-110.5 74.5t-69.5 114t-24 145t24 145t69.5 114t110.5 74.5t146 26.5z" />
    <glyph glyph-name="ccaron" unicode="&#x10d;" horiz-adv-x="609" 
d="M470 677l-165 -85l-166 85v144l166 -88l165 88v-144zM308 571q54 0 101 -15.5t83.5 -45.5t61.5 -73.5t35 -99.5h-235q-6 20 -18 32t-33 12q-26 0 -42 -24t-16 -75t16 -75t42 -24q21 0 33 12t18 32h235q-10 -55 -35 -98.5t-61.5 -73.5t-83.5 -46t-101 -16q-63 0 -116 20
t-91.5 57t-59.5 91t-21 121q0 68 21 121.5t59.5 90.5t91.5 57t116 20z" />
    <glyph glyph-name="Dcaron" unicode="&#x10e;" horiz-adv-x="743" 
d="M547 821l-165 -85l-166 85v144l166 -88l165 88v-144zM713 356q0 -76 -25.5 -141t-73.5 -113t-116 -75t-153 -27h-295v708h295q85 0 153 -26.5t116 -73t73.5 -111t25.5 -141.5zM325 198q74 0 118.5 40t44.5 118t-44.5 118t-118.5 40h-53v-316h53z" />
    <glyph glyph-name="dcaron" unicode="&#x10f;" horiz-adv-x="882" 
d="M253 571q57 0 96 -23t59 -61v253h222v-740h-222v77q-20 -38 -59 -61t-96 -23q-49 0 -91.5 19.5t-74 56.5t-49.5 91t-18 122t18 122t49.5 91t74 56.5t91.5 19.5zM846 740q14 -35 20 -68.5t6 -65.5q0 -36 -9.5 -68.5t-30 -56.5t-51.5 -38t-74 -14v79q55 0 55 74v12h-72v146
h156zM327 377q-35 0 -58.5 -24t-23.5 -71t23.5 -71t58.5 -24t58.5 24t23.5 71t-23.5 71t-58.5 24z" />
    <glyph glyph-name="Dcroat" unicode="&#x110;" horiz-adv-x="743" 
d="M345 708q85 0 153 -26.5t116 -73t73.5 -111t25.5 -141.5q0 -76 -25.5 -141t-73.5 -113t-116 -75t-153 -27h-295v268h-50v176h50v264h295zM325 198q74 0 118.5 40t44.5 118t-44.5 118t-118.5 40h-53v-70h130v-176h-130v-70h53z" />
    <glyph glyph-name="dcroat" unicode="&#x111;" horiz-adv-x="704" 
d="M664 592h-34v-592h-222v77q-20 -38 -59 -61t-96 -23q-49 0 -91.5 19.5t-74 56.5t-49.5 91t-18 122t18 122t49.5 91t74 56.5t91.5 19.5q57 0 96 -23t59 -61v105h-89v96h89v52h222v-52h34v-96zM327 187q35 0 58.5 24t23.5 71t-23.5 71t-58.5 24t-58.5 -24t-23.5 -71
t23.5 -71t58.5 -24z" />
    <glyph glyph-name="Emacron" unicode="&#x112;" horiz-adv-x="556" 
d="M502 913v-147h-431v147h431zM272 532v-88h220v-167h-220v-100h250v-177h-472v708h472v-176h-250z" />
    <glyph glyph-name="emacron" unicode="&#x113;" horiz-adv-x="616" 
d="M524 622h-431v147h431v-147zM596 287q0 -21 -5 -44h-355q3 -45 20.5 -59t40.5 -14q22 0 34 10t18 23h235q-9 -45 -33.5 -83.5t-60.5 -66.5t-82.5 -44t-99.5 -16q-63 0 -116 20t-91.5 57t-59.5 91t-21 121q0 68 21 121.5t59.5 90.5t91.5 57t116 20t116 -19.5t91.5 -56
t59.5 -89.5t21 -119zM371 334q0 34 -19 48.5t-44 14.5q-61 0 -70 -63h133z" />
    <glyph glyph-name="Ebreve" unicode="&#x114;" horiz-adv-x="556" 
d="M278 744q-33 0 -61 10t-49 31t-33 52.5t-12 74.5v14h85q0 -24 14.5 -37.5t55.5 -13.5t55.5 13.5t14.5 37.5h85v-14q0 -43 -12 -74.5t-33 -52.5t-49 -31t-61 -10zM272 532v-88h220v-167h-220v-100h250v-177h-472v708h472v-176h-250z" />
    <glyph glyph-name="ebreve" unicode="&#x115;" horiz-adv-x="616" 
d="M308 600q-33 0 -61 10t-49 31t-33 52.5t-12 74.5v14h85q0 -24 14.5 -37.5t55.5 -13.5t55.5 13.5t14.5 37.5h85v-14q0 -43 -12 -74.5t-33 -52.5t-49 -31t-61 -10zM596 287q0 -21 -5 -44h-355q3 -45 20.5 -59t40.5 -14q22 0 34 10t18 23h235q-9 -45 -33.5 -83.5
t-60.5 -66.5t-82.5 -44t-99.5 -16q-63 0 -116 20t-91.5 57t-59.5 91t-21 121q0 68 21 121.5t59.5 90.5t91.5 57t116 20t116 -19.5t91.5 -56t59.5 -89.5t21 -119zM371 334q0 34 -19 48.5t-44 14.5q-61 0 -70 -63h133z" />
    <glyph glyph-name="Edotaccent" unicode="&#x116;" horiz-adv-x="556" 
d="M200 849q0 38 24.5 62.5t60.5 24.5q38 0 62.5 -24.5t24.5 -62.5q0 -36 -24.5 -60.5t-62.5 -24.5q-36 0 -60.5 24.5t-24.5 60.5zM272 532v-88h220v-167h-220v-100h250v-177h-472v708h472v-176h-250z" />
    <glyph glyph-name="edotaccent" unicode="&#x117;" horiz-adv-x="616" 
d="M307 620q-36 0 -60.5 24.5t-24.5 60.5q0 38 24.5 62.5t60.5 24.5q38 0 62.5 -24.5t24.5 -62.5q0 -36 -24.5 -60.5t-62.5 -24.5zM596 287q0 -21 -5 -44h-355q3 -45 20.5 -59t40.5 -14q22 0 34 10t18 23h235q-9 -45 -33.5 -83.5t-60.5 -66.5t-82.5 -44t-99.5 -16
q-63 0 -116 20t-91.5 57t-59.5 91t-21 121q0 68 21 121.5t59.5 90.5t91.5 57t116 20t116 -19.5t91.5 -56t59.5 -89.5t21 -119zM371 334q0 34 -19 48.5t-44 14.5q-61 0 -70 -63h133z" />
    <glyph glyph-name="Eogonek" unicode="&#x118;" horiz-adv-x="556" 
d="M272 532v-88h220v-167h-220v-100h250v-177h-145q-26 0 -26 -15q0 -16 26 -16h145v-113h-168q-25 0 -51.5 5.5t-48.5 19.5t-36 37.5t-14 59.5q0 6 0.5 11.5t1.5 10.5h-156v708h472v-176h-250z" />
    <glyph glyph-name="eogonek" unicode="&#x119;" horiz-adv-x="616" 
d="M596 287q0 -21 -5 -44h-354q3 -44 21.5 -58.5t39.5 -14.5q22 0 33.5 10t17.5 23h235q-15 -72 -66.5 -126t-129.5 -74q-9 -2 -15 -6.5t-6 -13.5t8 -14t28 -5h125v-113h-158q-25 0 -51.5 5.5t-48.5 19.5t-36 37.5t-14 59.5v31q-91 24 -145.5 95.5t-54.5 182.5
q0 68 21 121.5t59.5 90.5t91.5 57t116 20t116 -19.5t91.5 -56t59.5 -89.5t21 -119zM371 334q0 34 -19 48.5t-44 14.5q-61 0 -70 -63h133z" />
    <glyph glyph-name="Ecaron" unicode="&#x11a;" horiz-adv-x="556" 
d="M452 821l-165 -85l-166 85v144l166 -88l165 88v-144zM272 532v-88h220v-167h-220v-100h250v-177h-472v708h472v-176h-250z" />
    <glyph glyph-name="ecaron" unicode="&#x11b;" horiz-adv-x="616" 
d="M309 592l-166 85v144l166 -88l165 88v-144zM596 287q0 -21 -5 -44h-355q3 -45 20.5 -59t40.5 -14q22 0 34 10t18 23h235q-9 -45 -33.5 -83.5t-60.5 -66.5t-82.5 -44t-99.5 -16q-63 0 -116 20t-91.5 57t-59.5 91t-21 121q0 68 21 121.5t59.5 90.5t91.5 57t116 20
t116 -19.5t91.5 -56t59.5 -89.5t21 -119zM371 334q0 34 -19 48.5t-44 14.5q-61 0 -70 -63h133z" />
    <glyph glyph-name="Gbreve" unicode="&#x11e;" horiz-adv-x="752" 
d="M376 744q-33 0 -61 10t-49 31t-33 52.5t-12 74.5v14h85q0 -24 14.5 -37.5t55.5 -13.5t55.5 13.5t14.5 37.5h85v-14q0 -43 -12 -74.5t-33 -52.5t-49 -31t-61 -10zM388 715q71 0 128 -17.5t99.5 -50t68.5 -78.5t34 -103h-234q-13 20 -36.5 32t-58.5 12q-65 0 -99.5 -42
t-34.5 -113q0 -83 38.5 -124t120.5 -41q38 0 68.5 14.5t55.5 47.5h-177v157h361v-222q-18 -32 -46.5 -66t-69 -62t-94 -46t-122.5 -18q-84 0 -150.5 26.5t-113 74.5t-71.5 114t-25 145t24.5 145t71 114t113 74.5t149.5 26.5z" />
    <glyph glyph-name="gbreve" unicode="&#x11f;" 
d="M340 600q-33 0 -61 10t-49 31t-33 52.5t-12 74.5v14h85q0 -24 14.5 -37.5t55.5 -13.5t55.5 13.5t14.5 37.5h85v-14q0 -43 -12 -74.5t-33 -52.5t-49 -31t-61 -10zM253 571q57 0 96.5 -23t59.5 -61v77h221v-554q0 -56 -15.5 -108t-49.5 -91.5t-89 -63.5t-134 -24
q-69 0 -123.5 17t-93 47.5t-61 74t-28.5 97.5h218q9 -44 72 -44q17 0 32 3.5t26.5 14t18 29t6.5 48.5v67q-20 -38 -59.5 -61t-96.5 -23q-49 0 -91.5 19.5t-74 56.5t-49.5 91t-18 122t18 122t49.5 91t74 56.5t91.5 19.5zM327 377q-35 0 -58.5 -24t-23.5 -71t23.5 -71
t58.5 -24t58.5 24t23.5 71t-23.5 71t-58.5 24z" />
    <glyph glyph-name="Gdotaccent" unicode="&#x120;" horiz-adv-x="752" 
d="M290 849q0 38 24.5 62.5t60.5 24.5q38 0 62.5 -24.5t24.5 -62.5q0 -36 -24.5 -60.5t-62.5 -24.5q-36 0 -60.5 24.5t-24.5 60.5zM388 715q71 0 128 -17.5t99.5 -50t68.5 -78.5t34 -103h-234q-13 20 -36.5 32t-58.5 12q-65 0 -99.5 -42t-34.5 -113q0 -83 38.5 -124
t120.5 -41q38 0 68.5 14.5t55.5 47.5h-177v157h361v-222q-18 -32 -46.5 -66t-69 -62t-94 -46t-122.5 -18q-84 0 -150.5 26.5t-113 74.5t-71.5 114t-25 145t24.5 145t71 114t113 74.5t149.5 26.5z" />
    <glyph glyph-name="gdotaccent" unicode="&#x121;" 
d="M239 705q0 38 24.5 62.5t60.5 24.5q38 0 62.5 -24.5t24.5 -62.5q0 -36 -24.5 -60.5t-62.5 -24.5q-36 0 -60.5 24.5t-24.5 60.5zM253 571q57 0 96.5 -23t59.5 -61v77h221v-554q0 -56 -15.5 -108t-49.5 -91.5t-89 -63.5t-134 -24q-69 0 -123.5 17t-93 47.5t-61 74
t-28.5 97.5h218q9 -44 72 -44q17 0 32 3.5t26.5 14t18 29t6.5 48.5v67q-20 -38 -59.5 -61t-96.5 -23q-49 0 -91.5 19.5t-74 56.5t-49.5 91t-18 122t18 122t49.5 91t74 56.5t91.5 19.5zM327 377q-35 0 -58.5 -24t-23.5 -71t23.5 -71t58.5 -24t58.5 24t23.5 71t-23.5 71
t-58.5 24z" />
    <glyph glyph-name="Gcommaaccent" unicode="&#x122;" horiz-adv-x="756" 
d="M388 715q71 0 128 -17.5t99.5 -50t68.5 -78.5t34 -103h-234q-13 20 -36.5 32t-58.5 12q-65 0 -99.5 -42t-34.5 -113q0 -83 38.5 -124t120.5 -41q38 0 68.5 14.5t55.5 47.5h-177v157h361v-222q-18 -32 -46.5 -66t-69 -62t-94 -46t-122.5 -18q-84 0 -150.5 26.5t-113 74.5
t-71.5 114t-25 145t24.5 145t71 114t113 74.5t149.5 26.5zM454 -35q14 -35 20 -69t6 -66q0 -36 -9.5 -68t-30 -56t-51.5 -38t-74 -14v78q26 0 40.5 18t14.5 57v11h-72v147h156z" />
    <glyph glyph-name="gcommaaccent" unicode="&#x123;" 
d="M282 599q-14 35 -19.5 69t-5.5 66q0 36 9.5 68t30 56t51.5 38t73 14v-78q-26 0 -40.5 -18t-14.5 -57v-11h72v-147h-156zM253 571q57 0 96.5 -23t59.5 -61v77h221v-554q0 -56 -15.5 -108t-49.5 -91.5t-89 -63.5t-134 -24q-69 0 -123.5 17t-93 47.5t-61 74t-28.5 97.5h218
q9 -44 72 -44q17 0 32 3.5t26.5 14t18 29t6.5 48.5v67q-20 -38 -59.5 -61t-96.5 -23q-49 0 -91.5 19.5t-74 56.5t-49.5 91t-18 122t18 122t49.5 91t74 56.5t91.5 19.5zM327 377q-35 0 -58.5 -24t-23.5 -71t23.5 -71t58.5 -24t58.5 24t23.5 71t-23.5 71t-58.5 24z" />
    <glyph glyph-name="Itilde" unicode="&#x128;" horiz-adv-x="322" 
d="M105 901q20 0 36.5 -6t31 -13l27 -13t24.5 -6q30 0 36 39h90q-14 -80 -48 -112t-85 -32q-20 0 -36.5 6t-31 12.5l-27 12.5t-24.5 6q-30 0 -37 -39h-89q14 80 48 112.5t85 32.5zM272 708v-708h-222v708h222z" />
    <glyph glyph-name="itilde" unicode="&#x129;" horiz-adv-x="372" 
d="M130 757q20 0 36.5 -6t31 -13l27 -13t24.5 -6q30 0 36 39h90q-14 -80 -48 -112t-85 -32q-20 0 -36.5 6t-31 12.5l-27 12.5t-24.5 6q-30 0 -37 -39h-89q14 80 48 112.5t85 32.5zM297 564v-564h-222v564h222z" />
    <glyph glyph-name="Imacron" unicode="&#x12a;" horiz-adv-x="322" 
d="M377 913v-147h-431v147h431zM272 708v-708h-222v708h222z" />
    <glyph glyph-name="imacron" unicode="&#x12b;" horiz-adv-x="372" 
d="M402 769v-147h-431v147h431zM297 564v-564h-222v564h222z" />
    <glyph glyph-name="Ibreve" unicode="&#x12c;" horiz-adv-x="322" 
d="M161 744q-33 0 -61 10t-49 31t-33 52.5t-12 74.5v14h85q0 -24 14.5 -37.5t55.5 -13.5t55.5 13.5t14.5 37.5h85v-14q0 -43 -12 -74.5t-33 -52.5t-49 -31t-61 -10zM272 708v-708h-222v708h222z" />
    <glyph glyph-name="ibreve" unicode="&#x12d;" horiz-adv-x="372" 
d="M186 600q-33 0 -61 10t-49 31t-33 52.5t-12 74.5v14h85q0 -24 14.5 -37.5t55.5 -13.5t55.5 13.5t14.5 37.5h85v-14q0 -43 -12 -74.5t-33 -52.5t-49 -31t-61 -10zM297 564v-564h-222v564h222z" />
    <glyph glyph-name="Iogonek" unicode="&#x12e;" horiz-adv-x="322" 
d="M317 -106v-113h-168q-25 0 -51.5 5.5t-48.5 19.5t-36 37.5t-14 59.5q0 38 15 61.5t36 37.5v706h222v-783h-100q-26 0 -26 -15q0 -16 26 -16h145z" />
    <glyph glyph-name="iogonek" unicode="&#x12f;" horiz-adv-x="322" 
d="M162 609q-60 0 -94 31.5t-34 77.5q0 47 34 79t94 32q59 0 93 -32t34 -79q0 -46 -34 -77.5t-93 -31.5zM317 -106v-113h-168q-25 0 -51.5 5.5t-48.5 19.5t-36 37.5t-14 59.5q0 38 15 61.5t36 37.5v562h222v-639h-100q-26 0 -26 -15q0 -16 26 -16h145z" />
    <glyph glyph-name="Idotaccent" unicode="&#x130;" horiz-adv-x="322" 
d="M75 849q0 38 24.5 62.5t60.5 24.5q38 0 62.5 -24.5t24.5 -62.5q0 -36 -24.5 -60.5t-62.5 -24.5q-36 0 -60.5 24.5t-24.5 60.5zM272 708v-708h-222v708h222z" />
    <glyph glyph-name="dotlessi" unicode="&#x131;" horiz-adv-x="372" 
d="M297 564v-564h-222v564h222z" />
    <glyph glyph-name="Kcommaaccent" unicode="&#x136;" horiz-adv-x="798" 
d="M483 364l262 -364h-267l-206 307v-307h-222v708h222v-299l208 299h265zM475 -35q14 -35 19.5 -69t5.5 -66q0 -36 -9.5 -68t-30 -56t-51.5 -38t-73 -14v78q26 0 40.5 18t14.5 57v11h-72v147h156z" />
    <glyph glyph-name="kcommaaccent" unicode="&#x137;" horiz-adv-x="676" 
d="M272 0h-222v740h222v-387l141 211h258l-211 -284l216 -280h-265l-139 225v-225zM418 -35q14 -35 19.5 -69t5.5 -66q0 -36 -9.5 -68t-30 -56t-51.5 -38t-73 -14v78q26 0 40.5 18t14.5 57v11h-72v147h156z" />
    <glyph glyph-name="Lacute" unicode="&#x139;" horiz-adv-x="506" 
d="M381 824l-208 -70l-32 77l200 98zM272 168h214v-168h-436v708h222v-540z" />
    <glyph glyph-name="lacute" unicode="&#x13a;" horiz-adv-x="322" 
d="M272 674v-674h-222v685l-1 2h1v53h107l92 45l17 -45h6v-15l17 -45z" />
    <glyph glyph-name="Lcommaaccent" unicode="&#x13b;" horiz-adv-x="511" 
d="M272 168h214v-168h-436v708h222v-540zM366 -35q14 -35 20 -69t6 -66q0 -36 -9.5 -68t-30 -56t-51.5 -38t-74 -14v78q26 0 40.5 18t14.5 57v11h-72v147h156z" />
    <glyph glyph-name="lcommaaccent" unicode="&#x13c;" horiz-adv-x="322" 
d="M272 740v-740h-222v740h222zM243 -35q14 -35 19.5 -69t5.5 -66q0 -36 -9.5 -68t-30 -56t-51.5 -38t-73 -14v78q26 0 40.5 18t14.5 57v11h-72v147h156z" />
    <glyph glyph-name="Lcaron" unicode="&#x13d;" horiz-adv-x="577" 
d="M272 168h214v-168h-436v708h222v-540zM525 708q14 -35 19.5 -68.5t5.5 -65.5q0 -36 -9.5 -68.5t-30 -56.5t-51.5 -38t-73 -14v79q26 0 40.5 18t14.5 56v12h-72v146h156z" />
    <glyph glyph-name="lcaron" unicode="&#x13e;" horiz-adv-x="516" 
d="M272 740v-740h-222v740h222zM481 740q14 -35 19.5 -68.5t5.5 -65.5q0 -36 -9.5 -68.5t-30 -56.5t-51.5 -38t-73 -14v79q26 0 40.5 18t14.5 56v12h-72v146h156z" />
    <glyph glyph-name="Ldot" unicode="&#x13f;" horiz-adv-x="506" 
d="M272 168h214v-168h-436v708h222v-540zM314 353q0 38 24.5 62.5t60.5 24.5q38 0 62.5 -24.5t24.5 -62.5q0 -36 -24.5 -60.5t-62.5 -24.5q-36 0 -60.5 24.5t-24.5 60.5z" />
    <glyph glyph-name="ldot" unicode="&#x140;" horiz-adv-x="394" 
d="M272 740v-740h-222v740h222zM272 369q0 38 24.5 62.5t60.5 24.5q38 0 62.5 -24.5t24.5 -62.5q0 -36 -24.5 -60.5t-62.5 -24.5q-36 0 -60.5 24.5t-24.5 60.5z" />
    <glyph glyph-name="Lslash" unicode="&#x141;" horiz-adv-x="521" 
d="M501 168v-168h-436v236l-55 -15v216l55 15v256h222v-195l75 21v-216l-75 -21v-129h214z" />
    <glyph glyph-name="lslash" unicode="&#x142;" horiz-adv-x="372" 
d="M362 318l-65 -18v-300h-222v239l-65 -18v216l65 18v285h222v-224l65 18v-216z" />
    <glyph glyph-name="Nacute" unicode="&#x143;" horiz-adv-x="779" 
d="M518 824l-208 -70l-32 77l200 98zM729 0h-222l-235 356v-356h-222v708h222l235 -362v362h222v-708z" />
    <glyph glyph-name="nacute" unicode="&#x144;" horiz-adv-x="697" 
d="M269 610l-32 77l200 98l40 -105zM445 568q49 0 87 -17t64.5 -48.5t40.5 -76t14 -99.5v-327h-221v299q0 41 -21.5 64t-57.5 23q-37 0 -58 -23t-21 -64v-299h-222v564h222v-86q24 37 66.5 63.5t106.5 26.5z" />
    <glyph glyph-name="Ncommaaccent" unicode="&#x145;" horiz-adv-x="829" 
d="M729 0h-222l-235 356v-356h-222v708h222l235 -362v362h222v-708zM490 -35q14 -35 20 -69t6 -66q0 -36 -9.5 -68t-30 -56t-51.5 -38t-74 -14v78q26 0 40.5 18t14.5 57v11h-72v147h156z" />
    <glyph glyph-name="ncommaaccent" unicode="&#x146;" horiz-adv-x="697" 
d="M445 568q49 0 87 -17t64.5 -48.5t40.5 -76t14 -99.5v-327h-221v299q0 41 -21.5 64t-57.5 23q-37 0 -58 -23t-21 -64v-299h-222v564h222v-86q24 37 66.5 63.5t106.5 26.5zM449 -35q14 -35 19.5 -69t5.5 -66q0 -36 -9.5 -68t-30 -56t-51.5 -38t-73 -14v78q26 0 40.5 18
t14.5 57v11h-72v147h156z" />
    <glyph glyph-name="Ncaron" unicode="&#x147;" horiz-adv-x="779" 
d="M555 821l-165 -85l-166 85v144l166 -88l165 88v-144zM729 0h-222l-235 356v-356h-222v708h222l235 -362v362h222v-708z" />
    <glyph glyph-name="ncaron" unicode="&#x148;" horiz-adv-x="697" 
d="M351 592l-166 85v144l166 -88l165 88v-144zM445 568q49 0 87 -17t64.5 -48.5t40.5 -76t14 -99.5v-327h-221v299q0 41 -21.5 64t-57.5 23q-37 0 -58 -23t-21 -64v-299h-222v564h222v-86q24 37 66.5 63.5t106.5 26.5z" />
    <glyph glyph-name="Omacron" unicode="&#x14c;" horiz-adv-x="788" 
d="M610 913v-147h-431v147h431zM395 720q76 0 142 -27t115 -75t77.5 -114.5t28.5 -146.5t-28.5 -147t-78 -115t-115.5 -75t-141 -27t-141.5 27t-116 75t-78.5 115t-29 147t29 146.5t78.5 114.5t116 75t141.5 27zM395 515q-69 0 -104 -43t-35 -115q0 -71 35 -114t104 -43
q67 0 102.5 43t35.5 114q0 72 -35.5 115t-102.5 43z" />
    <glyph glyph-name="omacron" unicode="&#x14d;" horiz-adv-x="636" 
d="M534 769v-147h-431v147h431zM318 571q64 0 118.5 -20t94.5 -57t62.5 -90.5t22.5 -121.5q0 -67 -22.5 -121t-62.5 -91t-94.5 -57t-118.5 -20t-118.5 20t-94.5 57t-62.5 91t-22.5 121q0 68 22.5 121.5t62.5 90.5t94.5 57t118.5 20zM318 379q-29 0 -51 -23t-22 -74t21.5 -74
t51.5 -23q29 0 51 23t22 74t-22 74t-51 23z" />
    <glyph glyph-name="Obreve" unicode="&#x14e;" horiz-adv-x="788" 
d="M394 744q-33 0 -61 10t-49 31t-33 52.5t-12 74.5v14h85q0 -24 14.5 -37.5t55.5 -13.5t55.5 13.5t14.5 37.5h85v-14q0 -43 -12 -74.5t-33 -52.5t-49 -31t-61 -10zM395 720q76 0 142 -27t115 -75t77.5 -114.5t28.5 -146.5t-28.5 -147t-78 -115t-115.5 -75t-141 -27
t-141.5 27t-116 75t-78.5 115t-29 147t29 146.5t78.5 114.5t116 75t141.5 27zM395 515q-69 0 -104 -43t-35 -115q0 -71 35 -114t104 -43q67 0 102.5 43t35.5 114q0 72 -35.5 115t-102.5 43z" />
    <glyph glyph-name="obreve" unicode="&#x14f;" horiz-adv-x="636" 
d="M318 600q-33 0 -61 10t-49 31t-33 52.5t-12 74.5v14h85q0 -24 14.5 -37.5t55.5 -13.5t55.5 13.5t14.5 37.5h85v-14q0 -43 -12 -74.5t-33 -52.5t-49 -31t-61 -10zM318 571q64 0 118.5 -20t94.5 -57t62.5 -90.5t22.5 -121.5q0 -67 -22.5 -121t-62.5 -91t-94.5 -57
t-118.5 -20t-118.5 20t-94.5 57t-62.5 91t-22.5 121q0 68 22.5 121.5t62.5 90.5t94.5 57t118.5 20zM318 379q-29 0 -51 -23t-22 -74t21.5 -74t51.5 -23q29 0 51 23t22 74t-22 74t-51 23z" />
    <glyph glyph-name="Ohungarumlaut" unicode="&#x150;" horiz-adv-x="788" 
d="M340 745h-133l80 244h168zM560 745h-133l105 244h168zM395 720q76 0 142 -27t115 -75t77.5 -114.5t28.5 -146.5t-28.5 -147t-78 -115t-115.5 -75t-141 -27t-141.5 27t-116 75t-78.5 115t-29 147t29 146.5t78.5 114.5t116 75t141.5 27zM395 515q-69 0 -104 -43t-35 -115
q0 -71 35 -114t104 -43q67 0 102.5 43t35.5 114q0 72 -35.5 115t-102.5 43z" />
    <glyph glyph-name="ohungarumlaut" unicode="&#x151;" horiz-adv-x="636" 
d="M275 601h-133l80 244h168zM495 601h-133l105 244h168zM318 571q64 0 118.5 -20t94.5 -57t62.5 -90.5t22.5 -121.5q0 -67 -22.5 -121t-62.5 -91t-94.5 -57t-118.5 -20t-118.5 20t-94.5 57t-62.5 91t-22.5 121q0 68 22.5 121.5t62.5 90.5t94.5 57t118.5 20zM318 379
q-29 0 -51 -23t-22 -74t21.5 -74t51.5 -23q29 0 51 23t22 74t-22 74t-51 23z" />
    <glyph glyph-name="OE" unicode="&#x152;" horiz-adv-x="1049" 
d="M765 444h220v-167h-220v-100h250v-177h-472v37q-33 -25 -76.5 -36t-88.5 -13q-76 0 -139.5 27t-110 75.5t-72.5 115.5t-26 148t26 148t72.5 115.5t110 75.5t139.5 27q45 0 88.5 -12t76.5 -37v37h472v-176h-250v-88zM395 193q67 0 102.5 43.5t35.5 117.5t-35.5 117.5
t-102.5 43.5q-69 0 -104 -43.5t-35 -117.5t35 -117.5t104 -43.5z" />
    <glyph glyph-name="oe" unicode="&#x153;" horiz-adv-x="1022" 
d="M976 287q0 -21 -5 -44h-355q3 -45 20.5 -59t40.5 -14q22 0 34 10t18 23h235q-9 -45 -33.5 -83.5t-60.5 -66.5t-82.5 -44t-99.5 -16q-54 0 -100 14.5t-83 41.5q-38 -27 -85.5 -41.5t-101.5 -14.5q-64 0 -118.5 20t-94.5 57t-62.5 91t-22.5 121q0 68 22.5 121.5t62.5 90.5
t94.5 57t118.5 20q54 0 101.5 -14.5t85.5 -41.5q37 27 83 41.5t100 14.5q63 0 116 -19.5t91.5 -56t59.5 -89.5t21 -119zM751 334q0 34 -19 48.5t-44 14.5q-61 0 -70 -63h133zM318 185q29 0 51 23t22 74t-22 74t-51 23t-51 -23t-22 -74t21.5 -74t51.5 -23z" />
    <glyph glyph-name="Racute" unicode="&#x154;" horiz-adv-x="670" 
d="M255 754l-32 77l200 98l40 -105zM406 0l-134 254v-254h-222v708h330q67 0 117.5 -18t84 -49.5t50.5 -73.5t17 -91q0 -70 -38.5 -125t-114.5 -80l154 -271h-244zM272 402h88q32 0 48 14t16 46q0 27 -16 43.5t-48 16.5h-88v-120z" />
    <glyph glyph-name="racute" unicode="&#x155;" horiz-adv-x="467" 
d="M154 610l-32 77l200 98l40 -105zM272 460q33 48 81.5 78t103.5 30v-237h-63q-60 0 -91 -21t-31 -79v-231h-222v564h222v-104z" />
    <glyph glyph-name="Rcommaaccent" unicode="&#x156;" horiz-adv-x="701" 
d="M272 0h-222v708h330q67 0 117.5 -18t84 -49.5t50.5 -73.5t17 -91q0 -70 -38.5 -125t-114.5 -80l154 -271h-244l-134 254v-254zM272 402h88q32 0 48 14t16 46q0 27 -16 43.5t-48 16.5h-88v-120zM426 -35q14 -35 20 -69t6 -66q0 -36 -9.5 -68t-30 -56t-51.5 -38t-74 -14v78
q26 0 40.5 18t14.5 57v11h-72v147h156z" />
    <glyph glyph-name="rcommaaccent" unicode="&#x157;" horiz-adv-x="467" 
d="M272 460q33 48 81.5 78t103.5 30v-237h-63q-60 0 -91 -21t-31 -79v-231h-222v564h222v-104zM236 -35q14 -35 19.5 -69t5.5 -66q0 -36 -9.5 -68t-30 -56t-51.5 -38t-73 -14v78q26 0 40.5 18t14.5 57v11h-72v147h156z" />
    <glyph glyph-name="Rcaron" unicode="&#x158;" horiz-adv-x="670" 
d="M351 736l-166 85v144l166 -88l165 88v-144zM406 0l-134 254v-254h-222v708h330q67 0 117.5 -18t84 -49.5t50.5 -73.5t17 -91q0 -70 -38.5 -125t-114.5 -80l154 -271h-244zM272 402h88q32 0 48 14t16 46q0 27 -16 43.5t-48 16.5h-88v-120z" />
    <glyph glyph-name="rcaron" unicode="&#x159;" horiz-adv-x="467" 
d="M254 592l-166 85v144l166 -88l165 88v-144zM272 460q33 48 81.5 78t103.5 30v-237h-63q-60 0 -91 -21t-31 -79v-231h-222v564h222v-104z" />
    <glyph glyph-name="Sacute" unicode="&#x15a;" horiz-adv-x="625" 
d="M441 824l-208 -70l-32 77l200 98zM597 209q0 -45 -17.5 -84.5t-51.5 -68.5t-83.5 -46t-113.5 -17q-61 0 -114 14t-92.5 43t-64 73t-28.5 104h236q2 -19 7.5 -31t13 -19t16.5 -9t17 -2q17 0 27.5 8.5t10.5 26.5q0 24 -24.5 38.5t-61 27l-79.5 28t-79.5 41t-61 65.5
t-24.5 103q0 53 21 93.5t58 67.5t86 41t106 14q127 0 201.5 -58t82.5 -171h-239q-3 34 -16.5 45t-29.5 11q-14 0 -23 -8t-9 -26q0 -23 24.5 -37t61 -27l79 -29t79 -42t61 -66.5t24.5 -102.5z" />
    <glyph glyph-name="sacute" unicode="&#x15b;" horiz-adv-x="579" 
d="M418 680l-208 -70l-32 77l200 98zM272 571q60 0 106.5 -15.5t80 -42.5t54 -64t29.5 -80h-207q-8 27 -26.5 37.5t-41.5 10.5q-31 0 -31 -24q0 -17 23.5 -26t58.5 -16t75.5 -16.5t75.5 -29t58.5 -53t23.5 -87.5q0 -37 -16 -69t-46.5 -54.5t-74.5 -35.5t-100 -13
q-123 0 -194.5 51.5t-88.5 150.5h213q4 -29 24 -39t45 -10q34 0 34 24q0 19 -23 28t-57.5 15.5t-75 15t-75 27t-57.5 51t-23 87.5q0 37 15 69.5t44.5 56.5t73.5 37.5t103 13.5z" />
    <glyph glyph-name="Scedilla" unicode="&#x15e;" horiz-adv-x="625" 
d="M597 209q0 -39 -13.5 -74.5t-39 -63t-63.5 -46.5t-88 -27v-25q18 0 40.5 -5.5t42.5 -19.5t33.5 -37.5t13.5 -59.5t-14 -59.5t-36 -37.5t-48.5 -19.5t-51.5 -5.5h-173v113h150q26 0 26 16q0 15 -26 15h-85v124q-48 7 -89.5 24.5t-72 46t-49.5 68.5t-22 91h236
q2 -19 7.5 -31t13 -19t16.5 -9t17 -2q17 0 27.5 8.5t10.5 26.5q0 24 -24.5 38.5t-61 27l-79.5 28t-79.5 41t-61 65.5t-24.5 103q0 53 21 93.5t58 67.5t86 41t106 14q127 0 201.5 -58t82.5 -171h-239q-3 34 -16.5 45t-29.5 11q-14 0 -23 -8t-9 -26q0 -23 24.5 -37t61 -27
l79 -29t79 -42t61 -66.5t24.5 -102.5z" />
    <glyph glyph-name="scedilla" unicode="&#x15f;" horiz-adv-x="579" 
d="M551 165q0 -67 -48.5 -112.5t-139.5 -56.5v-23q18 0 40.5 -5.5t42.5 -19.5t33.5 -37.5t13.5 -59.5t-14 -59.5t-36 -37.5t-48.5 -19.5t-51.5 -5.5h-173v113h150q26 0 26 16q0 15 -26 15h-85v126q-88 15 -139 65t-65 131h213q4 -29 24 -39t45 -10q34 0 34 24q0 19 -23 28
t-57.5 15.5t-75 15t-75 27t-57.5 51t-23 87.5q0 37 15 69.5t44.5 56.5t73.5 37.5t103 13.5q60 0 106.5 -15.5t80 -42.5t54 -64t29.5 -80h-207q-8 27 -26.5 37.5t-41.5 10.5q-31 0 -31 -24q0 -17 23.5 -26t58.5 -16t75.5 -16.5t75.5 -29t58.5 -53t23.5 -87.5z" />
    <glyph glyph-name="Scaron" unicode="&#x160;" horiz-adv-x="625" 
d="M479 821l-165 -85l-166 85v144l166 -88l165 88v-144zM597 209q0 -45 -17.5 -84.5t-51.5 -68.5t-83.5 -46t-113.5 -17q-61 0 -114 14t-92.5 43t-64 73t-28.5 104h236q2 -19 7.5 -31t13 -19t16.5 -9t17 -2q17 0 27.5 8.5t10.5 26.5q0 24 -24.5 38.5t-61 27l-79.5 28
t-79.5 41t-61 65.5t-24.5 103q0 53 21 93.5t58 67.5t86 41t106 14q127 0 201.5 -58t82.5 -171h-239q-3 34 -16.5 45t-29.5 11q-14 0 -23 -8t-9 -26q0 -23 24.5 -37t61 -27l79 -29t79 -42t61 -66.5t24.5 -102.5z" />
    <glyph glyph-name="scaron" unicode="&#x161;" horiz-adv-x="579" 
d="M457 677l-165 -85l-166 85v144l166 -88l165 88v-144zM272 571q60 0 106.5 -15.5t80 -42.5t54 -64t29.5 -80h-207q-8 27 -26.5 37.5t-41.5 10.5q-31 0 -31 -24q0 -17 23.5 -26t58.5 -16t75.5 -16.5t75.5 -29t58.5 -53t23.5 -87.5q0 -37 -16 -69t-46.5 -54.5t-74.5 -35.5
t-100 -13q-123 0 -194.5 51.5t-88.5 150.5h213q4 -29 24 -39t45 -10q34 0 34 24q0 19 -23 28t-57.5 15.5t-75 15t-75 27t-57.5 51t-23 87.5q0 37 15 69.5t44.5 56.5t73.5 37.5t103 13.5z" />
    <glyph glyph-name="uni0162" unicode="&#x162;" horiz-adv-x="616" 
d="M418 532v-532q26 -20 38.5 -43t12.5 -54q0 -36 -14 -59.5t-36 -37.5t-48.5 -19.5t-51.5 -5.5h-168v113h150q12 0 16.5 4t4.5 12t-4.5 11.5t-16.5 3.5h-105v607h-186v176h596v-176h-188z" />
    <glyph glyph-name="uni0163" unicode="&#x163;" horiz-adv-x="436" 
d="M312 -27q18 0 40.5 -5.5t42.5 -19.5t33.5 -37.5t13.5 -59.5t-14 -59.5t-36 -37.5t-48.5 -19.5t-51.5 -5.5h-173v113h150q26 0 26 16q0 15 -26 15h-85v155q-46 24 -72.5 73t-26.5 130v148h-70v185h70v136h222v-136h92v-185h-92v-152q0 -38 41 -38h53v-189h-84h-5v-27z" />
    <glyph glyph-name="Tcaron" unicode="&#x164;" horiz-adv-x="616" 
d="M474 821l-165 -85l-166 85v144l166 -88l165 88v-144zM606 708v-176h-188v-532h-222v532h-186v176h596z" />
    <glyph glyph-name="tcaron" unicode="&#x165;" horiz-adv-x="436" 
d="M494 890q14 -35 20 -63.5t6 -60.5q0 -33 -9.5 -61.5t-30 -50t-51.5 -33.5t-74 -12v79q55 0 55 39v17h-72v146h156zM307 227q0 -38 41 -38h53v-189h-84q-49 0 -91.5 11.5t-74 38.5t-49 71t-17.5 110v148h-70v185h70v136h222v-136h92v-185h-92v-152z" />
    <glyph glyph-name="Utilde" unicode="&#x168;" horiz-adv-x="719" 
d="M304 901q20 0 36.5 -6t31 -13l27 -13t24.5 -6q30 0 36 39h90q-14 -80 -48 -112t-85 -32q-20 0 -36.5 6t-31 12.5l-27 12.5t-24.5 6q-30 0 -37 -39h-89q14 80 48 112.5t85 32.5zM267 708v-399q0 -46 20 -76t71 -30t72.5 30t21.5 76v399h221v-399q0 -78 -25 -137.5
t-68.5 -99t-102 -59.5t-124.5 -20t-122.5 20t-97.5 59.5t-64 99t-23 137.5v399h221z" />
    <glyph glyph-name="utilde" unicode="&#x169;" horiz-adv-x="697" 
d="M286 651q-30 0 -37 -39h-89q14 80 48 112.5t85 32.5q20 0 36.5 -6t31 -13l27 -13t24.5 -6q30 0 36 39h90q-14 -80 -48 -112t-85 -32q-20 0 -36.5 6t-31 12.5l-27 12.5t-24.5 6zM647 564v-564h-222v86q-24 -37 -66.5 -63.5t-106.5 -26.5q-49 0 -87 17t-64.5 48.5t-40.5 76
t-14 99.5v327h221v-299q0 -41 21.5 -64t57.5 -23q37 0 58 23t21 64v299h222z" />
    <glyph glyph-name="Umacron" unicode="&#x16a;" horiz-adv-x="719" 
d="M575 913v-147h-431v147h431zM267 708v-399q0 -46 20 -76t71 -30t72.5 30t21.5 76v399h221v-399q0 -78 -25 -137.5t-68.5 -99t-102 -59.5t-124.5 -20t-122.5 20t-97.5 59.5t-64 99t-23 137.5v399h221z" />
    <glyph glyph-name="umacron" unicode="&#x16b;" horiz-adv-x="697" 
d="M562 622h-431v147h431v-147zM647 564v-564h-222v86q-24 -37 -66.5 -63.5t-106.5 -26.5q-49 0 -87 17t-64.5 48.5t-40.5 76t-14 99.5v327h221v-299q0 -41 21.5 -64t57.5 -23q37 0 58 23t21 64v299h222z" />
    <glyph glyph-name="Ubreve" unicode="&#x16c;" horiz-adv-x="719" 
d="M360 744q-33 0 -61 10t-49 31t-33 52.5t-12 74.5v14h85q0 -24 14.5 -37.5t55.5 -13.5t55.5 13.5t14.5 37.5h85v-14q0 -43 -12 -74.5t-33 -52.5t-49 -31t-61 -10zM267 708v-399q0 -46 20 -76t71 -30t72.5 30t21.5 76v399h221v-399q0 -78 -25 -137.5t-68.5 -99t-102 -59.5
t-124.5 -20t-122.5 20t-97.5 59.5t-64 99t-23 137.5v399h221z" />
    <glyph glyph-name="ubreve" unicode="&#x16d;" horiz-adv-x="697" 
d="M349 600q-33 0 -61 10t-49 31t-33 52.5t-12 74.5v14h85q0 -24 14.5 -37.5t55.5 -13.5t55.5 13.5t14.5 37.5h85v-14q0 -43 -12 -74.5t-33 -52.5t-49 -31t-61 -10zM647 564v-564h-222v86q-24 -37 -66.5 -63.5t-106.5 -26.5q-49 0 -87 17t-64.5 48.5t-40.5 76t-14 99.5v327
h221v-299q0 -41 21.5 -64t57.5 -23q37 0 58 23t21 64v299h222z" />
    <glyph glyph-name="Uring" unicode="&#x16e;" horiz-adv-x="719" 
d="M359 1001q27 0 51 -9t42 -26t28.5 -41.5t10.5 -55.5t-10.5 -55.5t-28.5 -41.5t-42 -26t-51 -9t-51 9t-42 26t-28.5 41.5t-10.5 55.5t10.5 55.5t28.5 41.5t42 26t51 9zM359 916q-20 0 -33 -12.5t-13 -34.5q0 -21 13 -34t33 -13t33 13t13 34q0 22 -13 34.5t-33 12.5z
M267 708v-399q0 -46 20 -76t71 -30t72.5 30t21.5 76v399h221v-399q0 -78 -25 -137.5t-68.5 -99t-102 -59.5t-124.5 -20t-122.5 20t-97.5 59.5t-64 99t-23 137.5v399h221z" />
    <glyph glyph-name="uring" unicode="&#x16f;" horiz-adv-x="697" 
d="M346 593q-27 0 -51 9t-42 26t-28.5 41.5t-10.5 55.5t10.5 55.5t28.5 41.5t42 26t51 9t51 -9t42 -26t28.5 -41.5t10.5 -55.5t-10.5 -55.5t-28.5 -41.5t-42 -26t-51 -9zM346 772q-20 0 -33 -12.5t-13 -34.5q0 -21 13 -34t33 -13t33 13t13 34q0 22 -13 34.5t-33 12.5z
M647 564v-564h-222v86q-24 -37 -66.5 -63.5t-106.5 -26.5q-49 0 -87 17t-64.5 48.5t-40.5 76t-14 99.5v327h221v-299q0 -41 21.5 -64t57.5 -23q37 0 58 23t21 64v299h222z" />
    <glyph glyph-name="Uhungarumlaut" unicode="&#x170;" horiz-adv-x="719" 
d="M246 745h-133l80 244h168zM466 745h-133l105 244h168zM267 708v-399q0 -46 20 -76t71 -30t72.5 30t21.5 76v399h221v-399q0 -78 -25 -137.5t-68.5 -99t-102 -59.5t-124.5 -20t-122.5 20t-97.5 59.5t-64 99t-23 137.5v399h221z" />
    <glyph glyph-name="uhungarumlaut" unicode="&#x171;" horiz-adv-x="697" 
d="M233 601h-133l80 244h168zM320 601l105 244h168l-140 -244h-133zM647 564v-564h-222v86q-24 -37 -66.5 -63.5t-106.5 -26.5q-49 0 -87 17t-64.5 48.5t-40.5 76t-14 99.5v327h221v-299q0 -41 21.5 -64t57.5 -23q37 0 58 23t21 64v299h222z" />
    <glyph glyph-name="Uogonek" unicode="&#x172;" horiz-adv-x="768" 
d="M435 -141q-22 0 -45.5 7.5t-43 23t-32 39.5t-12.5 58v14q-47 11 -89 36t-73.5 63.5t-50 90.5t-18.5 118v399h221v-399q0 -46 20 -76t71 -30t72.5 30t21.5 76v399h221v-399q0 -63 -18.5 -113.5t-49 -88t-69 -62t-77.5 -35.5q-21 -6 -27.5 -11.5t-6.5 -12.5q0 -15 28 -15
h133v-112h-176z" />
    <glyph glyph-name="uogonek" unicode="&#x173;" horiz-adv-x="697" 
d="M692 -106v-113h-168q-25 0 -51.5 5.5t-48.5 19.5t-36 37.5t-14 59.5q0 38 15 61.5t36 37.5v84q-24 -37 -66.5 -63.5t-106.5 -26.5q-49 0 -87 17t-64.5 48.5t-40.5 76t-14 99.5v327h221v-299q0 -41 21.5 -64t57.5 -23q37 0 58 23t21 64v299h222v-639h-100q-26 0 -26 -15
q0 -16 26 -16h145z" />
    <glyph glyph-name="Wcircumflex" unicode="&#x174;" horiz-adv-x="1100" 
d="M444 746l-31 89l137 70l136 -70l-34 -89l-102 43zM1070 708l-162 -708h-276l-82 402l-82 -402h-276l-162 708h239l64 -446l96 446h242l96 -446l64 446h239z" />
    <glyph glyph-name="wcircumflex" unicode="&#x175;" horiz-adv-x="903" 
d="M346 602l-31 89l137 70l136 -70l-34 -89l-102 43zM906 564l-134 -564h-250l-68 318l-72 -318h-250l-133 564h220l47 -343l73 343h237l77 -347l48 347h205z" />
    <glyph glyph-name="Ycircumflex" unicode="&#x176;" horiz-adv-x="730" 
d="M259 746l-31 89l137 70l136 -70l-34 -89l-102 43zM730 708l-254 -493v-215h-222v215l-254 493h254l113 -251l113 251h250z" />
    <glyph glyph-name="ycircumflex" unicode="&#x177;" horiz-adv-x="677" 
d="M339 645l-106 -43l-31 89l137 70l136 -70l-34 -89zM237 564l106 -286l99 286h245l-361 -834h-243l142 298l-235 536h247z" />
    <glyph glyph-name="Ydieresis" unicode="&#x178;" horiz-adv-x="730" 
d="M252 764q-36 0 -60.5 24.5t-24.5 60.5q0 38 24.5 62.5t60.5 24.5q38 0 62.5 -24.5t24.5 -62.5q0 -36 -24.5 -60.5t-62.5 -24.5zM477 764q-36 0 -60.5 24.5t-24.5 60.5q0 38 24.5 62.5t60.5 24.5q38 0 62.5 -24.5t24.5 -62.5q0 -36 -24.5 -60.5t-62.5 -24.5zM730 708
l-254 -493v-215h-222v215l-254 493h254l113 -251l113 251h250z" />
    <glyph glyph-name="Zacute" unicode="&#x179;" horiz-adv-x="630" 
d="M443 824l-208 -70l-32 77l200 98zM296 177h284v-177h-530v167l280 365h-280v176h530v-167z" />
    <glyph glyph-name="zacute" unicode="&#x17a;" horiz-adv-x="518" 
d="M387 680l-208 -70l-32 77l200 98zM263 184h235v-184h-478v174l215 206h-212v184h465v-174z" />
    <glyph glyph-name="Zdotaccent" unicode="&#x17b;" horiz-adv-x="630" 
d="M229 849q0 38 24.5 62.5t60.5 24.5q38 0 62.5 -24.5t24.5 -62.5q0 -36 -24.5 -60.5t-62.5 -24.5q-36 0 -60.5 24.5t-24.5 60.5zM296 177h284v-177h-530v167l280 365h-280v176h530v-167z" />
    <glyph glyph-name="zdotaccent" unicode="&#x17c;" horiz-adv-x="518" 
d="M173 705q0 38 24.5 62.5t60.5 24.5q38 0 62.5 -24.5t24.5 -62.5q0 -36 -24.5 -60.5t-62.5 -24.5q-36 0 -60.5 24.5t-24.5 60.5zM263 184h235v-184h-478v174l215 206h-212v184h465v-174z" />
    <glyph glyph-name="Zcaron" unicode="&#x17d;" horiz-adv-x="630" 
d="M481 821l-165 -85l-166 85v144l166 -88l165 88v-144zM296 177h284v-177h-530v167l280 365h-280v176h530v-167z" />
    <glyph glyph-name="zcaron" unicode="&#x17e;" horiz-adv-x="518" 
d="M425 677l-165 -85l-166 85v144l166 -88l165 88v-144zM263 184h235v-184h-478v174l215 206h-212v184h465v-174z" />
    <glyph glyph-name="florin" unicode="&#x192;" horiz-adv-x="340" 
d="M299 564h63l-19 -185h-63l-50 -477q-7 -64 -30.5 -105t-59.5 -65t-81.5 -33t-95.5 -9h-33l18 190h38q10 0 15 6.5t7 15.5l51 477h-41l19 185h41l1 5q13 118 86 171t213 53l-19 -189q-26 0 -41.5 -7t-17.5 -28z" />
    <glyph glyph-name="Ohorn" unicode="&#x1a0;" horiz-adv-x="788" 
d="M656 615q48 -48 75 -113.5t27 -144.5q0 -80 -28.5 -147t-78 -115t-115.5 -75t-141 -27t-141.5 27t-116 75t-78.5 115t-29 147t29 146.5t78.5 114.5t116 75t141.5 27q50 0 95 -12q44 2 68.5 24t24.5 78h149q0 -68 -21 -115.5t-55 -79.5zM395 200q67 0 102.5 43t35.5 114
q0 72 -35.5 115t-102.5 43q-69 0 -104 -43t-35 -115q0 -71 35 -114t104 -43z" />
    <glyph glyph-name="ohorn" unicode="&#x1a1;" horiz-adv-x="636" 
d="M639 666q0 -70 -23 -119t-59 -81q28 -36 43.5 -82t15.5 -102q0 -67 -22.5 -121t-62.5 -91t-94.5 -57t-118.5 -20t-118.5 20t-94.5 57t-62.5 91t-22.5 121q0 68 22.5 121.5t62.5 90.5t94.5 57t118.5 20q40 0 72 -7q47 1 73.5 22.5t26.5 79.5h149zM318 185q29 0 51 23
t22 74t-22 74t-51 23t-51 -23t-22 -74t21.5 -74t51.5 -23z" />
    <glyph glyph-name="Uhorn" unicode="&#x1af;" horiz-adv-x="719" 
d="M767 810q0 -76 -26 -127t-68 -82v-292q0 -78 -25 -137.5t-68.5 -99t-102 -59.5t-124.5 -20t-122.5 20t-97.5 59.5t-64 99t-23 137.5v399h221v-399q0 -46 20 -76t71 -30t72.5 30t21.5 76v399h61q49 0 77 21t28 81h149z" />
    <glyph glyph-name="uhorn" unicode="&#x1b0;" horiz-adv-x="697" 
d="M804 666q0 -51 -12.5 -91t-34 -70t-50 -50t-60.5 -32v-423h-222v86q-24 -37 -66.5 -63.5t-106.5 -26.5q-49 0 -87 17t-64.5 48.5t-40.5 76t-14 99.5v327h221v-299q0 -41 21.5 -64t57.5 -23q37 0 58 23t21 64v299h125q49 0 77 21t28 81h149z" />
    <glyph glyph-name="AEacute" unicode="&#x1fc;" horiz-adv-x="986" 
d="M376 754l-32 77l200 98l40 -105zM712 532v-85h210v-167h-210v-103h240v-177h-462v97h-204l-45 -97h-241l339 708h613v-176h-240zM490 264v273l-127 -273h127z" />
    <glyph glyph-name="aeacute" unicode="&#x1fd;" horiz-adv-x="1054" 
d="M427 610l-32 77l200 98l40 -105zM1034 287q0 -21 -5 -44h-391q5 -45 26.5 -60.5t52.5 -15.5q29 0 45.5 9.5t24.5 26.5h235q-9 -45 -29 -83.5t-49 -66.5t-66.5 -44t-81.5 -16q-61 0 -103 22.5t-63 61.5v-77h-221v77q-20 -38 -59.5 -61t-96.5 -23q-49 0 -91.5 19.5
t-74 56.5t-49.5 91t-18 122t18 122t49.5 91t74 56.5t91.5 19.5q57 0 96.5 -23t59.5 -61v77h221v-77q20 40 62.5 62t103.5 22q52 0 96 -19.5t75.5 -56t49 -89.5t17.5 -119zM809 334q0 33 -25.5 48t-59.5 15q-29 0 -53 -13t-32 -50h170zM327 187q35 0 58.5 24t23.5 71
t-23.5 71t-58.5 24t-58.5 -24t-23.5 -71t23.5 -71t58.5 -24z" />
    <glyph glyph-name="Scommaaccent" unicode="&#x218;" horiz-adv-x="685" 
d="M597 209q0 -45 -17.5 -84.5t-51.5 -68.5t-83.5 -46t-113.5 -17q-61 0 -114 14t-92.5 43t-64 73t-28.5 104h236q2 -19 7.5 -31t13 -19t16.5 -9t17 -2q17 0 27.5 8.5t10.5 26.5q0 24 -24.5 38.5t-61 27l-79.5 28t-79.5 41t-61 65.5t-24.5 103q0 53 21 93.5t58 67.5t86 41
t106 14q127 0 201.5 -58t82.5 -171h-239q-3 34 -16.5 45t-29.5 11q-14 0 -23 -8t-9 -26q0 -23 24.5 -37t61 -27l79 -29t79 -42t61 -66.5t24.5 -102.5zM419 -35q14 -35 20 -69t6 -66q0 -36 -9.5 -68t-30 -56t-51.5 -38t-74 -14v78q26 0 40.5 18t14.5 57v11h-72v147h156z" />
    <glyph glyph-name="scommaaccent" unicode="&#x219;" horiz-adv-x="579" 
d="M272 571q60 0 106.5 -15.5t80 -42.5t54 -64t29.5 -80h-207q-8 27 -26.5 37.5t-41.5 10.5q-31 0 -31 -24q0 -17 23.5 -26t58.5 -16t75.5 -16.5t75.5 -29t58.5 -53t23.5 -87.5q0 -37 -16 -69t-46.5 -54.5t-74.5 -35.5t-100 -13q-123 0 -194.5 51.5t-88.5 150.5h213
q4 -29 24 -39t45 -10q34 0 34 24q0 19 -23 28t-57.5 15.5t-75 15t-75 27t-57.5 51t-23 87.5q0 37 15 69.5t44.5 56.5t73.5 37.5t103 13.5zM364 -35q14 -35 19.5 -69t5.5 -66q0 -36 -9.5 -68t-30 -56t-51.5 -38t-73 -14v78q26 0 40.5 18t14.5 57v11h-72v147h156z" />
    <glyph glyph-name="uni021A" unicode="&#x21a;" horiz-adv-x="616" 
d="M606 708v-176h-188v-532h-222v532h-186v176h596zM385 -35q14 -35 19.5 -69t5.5 -66q0 -36 -9.5 -68t-30 -56t-51.5 -38t-73 -14v78q26 0 40.5 18t14.5 57v11h-72v147h156z" />
    <glyph glyph-name="uni021B" unicode="&#x21b;" horiz-adv-x="436" 
d="M401 189v-189h-84q-49 0 -91.5 11.5t-74 38.5t-49 71t-17.5 110v148h-70v185h70v136h222v-136h92v-185h-92v-152q0 -38 41 -38h53zM303 -35q14 -35 20 -69t6 -66q0 -36 -9.5 -68t-30 -56t-51.5 -38t-74 -14v78q26 0 40.5 18t14.5 57v11h-72v147h156z" />
    <glyph glyph-name="circumflex" unicode="&#x2c6;" horiz-adv-x="351" 
d="M176 665l-106 -43l-31 89l137 70l136 -70l-34 -89z" />
    <glyph glyph-name="caron" unicode="&#x2c7;" horiz-adv-x="351" 
d="M341 677l-165 -85l-166 85v144l166 -88l165 88v-144z" />
    <glyph glyph-name="breve" unicode="&#x2d8;" horiz-adv-x="395" 
d="M198 600q-33 0 -61 10t-49 31t-33 52.5t-12 74.5v14h85q0 -24 14.5 -37.5t55.5 -13.5t55.5 13.5t14.5 37.5h85v-14q0 -43 -12 -74.5t-33 -52.5t-49 -31t-61 -10z" />
    <glyph glyph-name="dotaccent" unicode="&#x2d9;" horiz-adv-x="192" 
d="M10 705q0 38 24.5 62.5t60.5 24.5q38 0 62.5 -24.5t24.5 -62.5q0 -36 -24.5 -60.5t-62.5 -24.5q-36 0 -60.5 24.5t-24.5 60.5z" />
    <glyph glyph-name="ring" unicode="&#x2da;" horiz-adv-x="283" 
d="M142 857q27 0 51 -9t42 -26t28.5 -41.5t10.5 -55.5t-10.5 -55.5t-28.5 -41.5t-42 -26t-51 -9t-51 9t-42 26t-28.5 41.5t-10.5 55.5t10.5 55.5t28.5 41.5t42 26t51 9zM142 772q-20 0 -33 -12.5t-13 -34.5q0 -21 13 -34t33 -13t33 13t13 34q0 22 -13 34.5t-33 12.5z" />
    <glyph glyph-name="ogonek" unicode="&#x2db;" horiz-adv-x="318" 
d="M273 25v-100h-100q-26 0 -26 -15q0 -16 26 -16h145v-113h-168q-25 0 -51.5 5.5t-48.5 19.5t-36 37.5t-14 59.5t13.5 59.5t33.5 37.5t42.5 19.5t40.5 5.5h143z" />
    <glyph glyph-name="tilde" unicode="&#x2dc;" horiz-adv-x="458" 
d="M173 757q20 0 36.5 -6t31 -13l27 -13t24.5 -6q30 0 36 39h90q-14 -80 -48 -112t-85 -32q-20 0 -36.5 6t-31 12.5l-27 12.5t-24.5 6q-30 0 -37 -39h-89q14 80 48 112.5t85 32.5z" />
    <glyph glyph-name="hungarumlaut" unicode="&#x2dd;" horiz-adv-x="513" 
d="M143 601h-133l80 244h168zM363 601h-133l105 244h168z" />
    <glyph glyph-name="gravecomb" unicode="&#x300;" horiz-adv-x="0" 
d="M-39 686l-38 -84l-195 68l52 114z" />
    <glyph glyph-name="acutecomb" unicode="&#x301;" horiz-adv-x="0" 
d="M-32 680l-208 -70l-32 77l200 98z" />
    <glyph glyph-name="uni0302" unicode="&#x302;" horiz-adv-x="0" 
d="M-175 665l-106 -43l-31 89l137 70l136 -70l-34 -89z" />
    <glyph glyph-name="tildecomb" unicode="&#x303;" horiz-adv-x="0" 
d="M-285 757q20 0 36.5 -6t31 -13l27 -13t24.5 -6q30 0 36 39h90q-14 -80 -48 -112t-85 -32q-20 0 -36.5 6t-31 12.5l-27 12.5t-24.5 6q-30 0 -37 -39h-89q14 80 48 112.5t85 32.5z" />
    <glyph glyph-name="uni0306" unicode="&#x306;" horiz-adv-x="0" 
d="M-197 600q-33 0 -61 10t-49 31t-33 52.5t-12 74.5v14h85q0 -24 14.5 -37.5t55.5 -13.5t55.5 13.5t14.5 37.5h85v-14q0 -43 -12 -74.5t-33 -52.5t-49 -31t-61 -10z" />
    <glyph glyph-name="hookabovecomb" unicode="&#x309;" horiz-adv-x="0" 
d="M-310 784q59 0 84.5 -31t25.5 -75q0 -19 -7 -35.5t-19 -31.5t-27.5 -30t-31.5 -33l-58 49q31 29 39.5 48.5t8.5 32.5q0 11 -6.5 14t-12.5 3q-8 0 -15.5 -4.5t-10.5 -27.5l-90 10q3 22 8.5 42t18.5 35.5t35 24.5t58 9z" />
    <glyph glyph-name="uni031B" unicode="&#x31b;" horiz-adv-x="0" 
d="M-197 564q49 0 77 21t28 81h149q0 -70 -23 -119.5t-59.5 -80.5t-81.5 -45.5t-90 -14.5v158z" />
    <glyph glyph-name="dotbelowcomb" unicode="&#x323;" horiz-adv-x="0" 
d="M-182 -138q0 38 24.5 62.5t60.5 24.5q38 0 62.5 -24.5t24.5 -62.5q0 -36 -24.5 -60.5t-62.5 -24.5q-36 0 -60.5 24.5t-24.5 60.5z" />
    <glyph glyph-name="pi" unicode="&#x3c0;" horiz-adv-x="708" 
d="M703 564v-166h-65v-398h-222v398h-119v-398h-222v398h-65v166h693z" />
    <glyph glyph-name="Wgrave" unicode="&#x1e80;" horiz-adv-x="1100" 
d="M626 746l-195 68l52 114l181 -98zM1070 708l-162 -708h-276l-82 402l-82 -402h-276l-162 708h239l64 -446l96 446h242l96 -446l64 446h239z" />
    <glyph glyph-name="wgrave" unicode="&#x1e81;" horiz-adv-x="903" 
d="M528 602l-195 68l52 114l181 -98zM906 564l-134 -564h-250l-68 318l-72 -318h-250l-133 564h220l47 -343l73 343h237l77 -347l48 347h205z" />
    <glyph glyph-name="Wacute" unicode="&#x1e82;" horiz-adv-x="1100" 
d="M470 754l-32 77l200 98l40 -105zM1070 708l-162 -708h-276l-82 402l-82 -402h-276l-162 708h239l64 -446l96 446h242l96 -446l64 446h239z" />
    <glyph glyph-name="wacute" unicode="&#x1e83;" horiz-adv-x="903" 
d="M372 610l-32 77l200 98l40 -105zM906 564l-134 -564h-250l-68 318l-72 -318h-250l-133 564h220l47 -343l73 343h237l77 -347l48 347h205z" />
    <glyph glyph-name="Wdieresis" unicode="&#x1e84;" horiz-adv-x="1100" 
d="M437 764q-36 0 -60.5 24.5t-24.5 60.5q0 38 24.5 62.5t60.5 24.5q38 0 62.5 -24.5t24.5 -62.5q0 -36 -24.5 -60.5t-62.5 -24.5zM662 764q-36 0 -60.5 24.5t-24.5 60.5q0 38 24.5 62.5t60.5 24.5q38 0 62.5 -24.5t24.5 -62.5q0 -36 -24.5 -60.5t-62.5 -24.5zM1070 708
l-162 -708h-276l-82 402l-82 -402h-276l-162 708h239l64 -446l96 446h242l96 -446l64 446h239z" />
    <glyph glyph-name="wdieresis" unicode="&#x1e85;" horiz-adv-x="903" 
d="M339 620q-36 0 -60.5 24.5t-24.5 60.5q0 38 24.5 62.5t60.5 24.5q38 0 62.5 -24.5t24.5 -62.5q0 -36 -24.5 -60.5t-62.5 -24.5zM564 620q-36 0 -60.5 24.5t-24.5 60.5q0 38 24.5 62.5t60.5 24.5q38 0 62.5 -24.5t24.5 -62.5q0 -36 -24.5 -60.5t-62.5 -24.5zM906 564
l-134 -564h-250l-68 318l-72 -318h-250l-133 564h220l47 -343l73 343h237l77 -347l48 347h205z" />
    <glyph glyph-name="uni1EA0" unicode="&#x1ea0;" horiz-adv-x="773" 
d="M539 0l-35 107h-236l-35 -107h-233l259 708h256l258 -708h-234zM450 274l-64 197l-64 -197h128zM386 -51q38 0 62.5 -24.5t24.5 -62.5q0 -36 -24.5 -60.5t-62.5 -24.5q-36 0 -60.5 24.5t-24.5 60.5q0 38 24.5 62.5t60.5 24.5z" />
    <glyph glyph-name="uni1EA1" unicode="&#x1ea1;" 
d="M253 571q57 0 96.5 -23t59.5 -61v77h221v-564h-221v77q-20 -38 -59.5 -61t-96.5 -23q-49 0 -91.5 19.5t-74 56.5t-49.5 91t-18 122t18 122t49.5 91t74 56.5t91.5 19.5zM327 377q-35 0 -58.5 -24t-23.5 -71t23.5 -71t58.5 -24t58.5 24t23.5 71t-23.5 71t-58.5 24z
M254 -138q0 38 24.5 62.5t60.5 24.5q38 0 62.5 -24.5t24.5 -62.5q0 -36 -24.5 -60.5t-62.5 -24.5q-36 0 -60.5 24.5t-24.5 60.5z" />
    <glyph glyph-name="uni1EA2" unicode="&#x1ea2;" horiz-adv-x="773" 
d="M376 900q-8 0 -15.5 -4.5t-10.5 -27.5l-90 10q3 22 8.5 42t18.5 35.5t35 24.5t58 9q59 0 84.5 -31t25.5 -75q0 -19 -7 -35.5t-19 -31.5t-27 -30l-32 -33l-58 49q31 29 39.5 48.5t8.5 32.5q0 11 -6.5 14t-12.5 3zM504 107h-236l-35 -107h-233l259 708h256l258 -708h-234z
M450 274l-64 197l-64 -197h128z" />
    <glyph glyph-name="uni1EA3" unicode="&#x1ea3;" 
d="M333 845q59 0 84.5 -31t25.5 -75q0 -19 -7 -35.5t-19 -31.5t-27 -30l-32 -33l-58 49q31 29 39.5 48.5t8.5 32.5q0 11 -6.5 14t-12.5 3q-8 0 -15.5 -4.5t-10.5 -27.5l-90 10q3 22 8.5 42t18.5 35.5t35 24.5t58 9zM253 571q57 0 96.5 -23t59.5 -61v77h221v-564h-221v77
q-20 -38 -59.5 -61t-96.5 -23q-49 0 -91.5 19.5t-74 56.5t-49.5 91t-18 122t18 122t49.5 91t74 56.5t91.5 19.5zM327 377q-35 0 -58.5 -24t-23.5 -71t23.5 -71t58.5 -24t58.5 24t23.5 71t-23.5 71t-58.5 24z" />
    <glyph glyph-name="uni1EA4" unicode="&#x1ea4;" horiz-adv-x="773" 
d="M325 894l-29 70l182 89l37 -96zM291 742l-29 81l125 64l124 -64l-31 -81l-93 40zM504 107h-236l-35 -107h-233l259 708h256l258 -708h-234zM450 274l-64 197l-64 -197h128z" />
    <glyph glyph-name="uni1EA5" unicode="&#x1ea5;" 
d="M468 813l-190 -63l-29 70l182 89zM340 638l-96 -40l-29 81l125 64l124 -64l-31 -81zM253 571q57 0 96.5 -23t59.5 -61v77h221v-564h-221v77q-20 -38 -59.5 -61t-96.5 -23q-49 0 -91.5 19.5t-74 56.5t-49.5 91t-18 122t18 122t49.5 91t74 56.5t91.5 19.5zM327 377
q-35 0 -58.5 -24t-23.5 -71t23.5 -71t58.5 -24t58.5 24t23.5 71t-23.5 71t-58.5 24z" />
    <glyph glyph-name="uni1EA6" unicode="&#x1ea6;" horiz-adv-x="773" 
d="M514 871l-178 62l48 104l164 -89zM291 742l-29 81l125 64l124 -64l-31 -81l-93 40zM504 107h-236l-35 -107h-233l259 708h256l258 -708h-234zM450 274l-64 197l-64 -197h128z" />
    <glyph glyph-name="uni1EA7" unicode="&#x1ea7;" 
d="M501 804l-34 -77l-178 62l48 104zM340 638l-96 -40l-29 81l125 64l124 -64l-31 -81zM253 571q57 0 96.5 -23t59.5 -61v77h221v-564h-221v77q-20 -38 -59.5 -61t-96.5 -23q-49 0 -91.5 19.5t-74 56.5t-49.5 91t-18 122t18 122t49.5 91t74 56.5t91.5 19.5zM327 377
q-35 0 -58.5 -24t-23.5 -71t23.5 -71t58.5 -24t58.5 24t23.5 71t-23.5 71t-58.5 24z" />
    <glyph glyph-name="uni1EA8" unicode="&#x1ea8;" horiz-adv-x="773" 
d="M517 968q-8 0 -14.5 -4.5t-9.5 -24.5l-81 9q2 20 7 38t17 32t32 22.5t53 8.5q54 0 77 -28.5t23 -68.5q0 -18 -6.5 -32.5t-17.5 -28t-25 -27.5l-29 -30l-52 45q28 26 35.5 44t7.5 29t-6 13.5t-11 2.5zM291 742l-29 81l125 64l124 -64l-31 -81l-93 40zM504 107h-236
l-35 -107h-233l259 708h256l258 -708h-234zM450 274l-64 197l-64 -197h128z" />
    <glyph glyph-name="uni1EA9" unicode="&#x1ea9;" 
d="M474 905q54 0 77 -28.5t23 -68.5q0 -18 -6.5 -32.5t-17.5 -28t-25 -27.5l-29 -30l-52 45q28 26 35.5 44t7.5 29t-6 13.5t-11 2.5q-8 0 -14.5 -4.5t-9.5 -24.5l-81 9q2 20 7 38t17 32t32 22.5t53 8.5zM340 638l-96 -40l-29 81l125 64l124 -64l-31 -81zM253 571
q57 0 96.5 -23t59.5 -61v77h221v-564h-221v77q-20 -38 -59.5 -61t-96.5 -23q-49 0 -91.5 19.5t-74 56.5t-49.5 91t-18 122t18 122t49.5 91t74 56.5t91.5 19.5zM327 377q-35 0 -58.5 -24t-23.5 -71t23.5 -71t58.5 -24t58.5 24t23.5 71t-23.5 71t-58.5 24z" />
    <glyph glyph-name="uni1EAA" unicode="&#x1eaa;" horiz-adv-x="773" 
d="M355 922q-22 0 -28 -29h-67q11 60 36.5 84.5t63.5 24.5q15 0 27.5 -4.5t23 -10t20 -10t18.5 -4.5q22 0 27 29h68q-10 -60 -36 -84t-64 -24q-15 0 -27.5 4.5t-23 9.5l-20 9.5t-18.5 4.5zM387 887l124 -64l-31 -81l-93 40l-96 -40l-29 81zM504 107h-236l-35 -107h-233
l259 708h256l258 -708h-234zM450 274l-64 197l-64 -197h128z" />
    <glyph glyph-name="uni1EAB" unicode="&#x1eab;" 
d="M313 858q15 0 27.5 -4.5t23 -10t20 -10t18.5 -4.5q22 0 27 29h68q-10 -60 -36 -84t-64 -24q-15 0 -27.5 4.5t-23 9.5l-20 9.5t-18.5 4.5q-22 0 -28 -29h-67q11 60 36.5 84.5t63.5 24.5zM340 638l-96 -40l-29 81l125 64l124 -64l-31 -81zM253 571q57 0 96.5 -23t59.5 -61
v77h221v-564h-221v77q-20 -38 -59.5 -61t-96.5 -23q-49 0 -91.5 19.5t-74 56.5t-49.5 91t-18 122t18 122t49.5 91t74 56.5t91.5 19.5zM327 377q-35 0 -58.5 -24t-23.5 -71t23.5 -71t58.5 -24t58.5 24t23.5 71t-23.5 71t-58.5 24z" />
    <glyph glyph-name="uni1EAC" unicode="&#x1eac;" horiz-adv-x="773" 
d="M281 746l-31 89l137 70l136 -70l-34 -89l-102 43zM539 0l-35 107h-236l-35 -107h-233l259 708h256l258 -708h-234zM450 274l-64 197l-64 -197h128zM386 -51q38 0 62.5 -24.5t24.5 -62.5q0 -36 -24.5 -60.5t-62.5 -24.5q-36 0 -60.5 24.5t-24.5 60.5q0 38 24.5 62.5
t60.5 24.5z" />
    <glyph glyph-name="uni1EAD" unicode="&#x1ead;" 
d="M340 645l-106 -43l-31 89l137 70l136 -70l-34 -89zM253 571q57 0 96.5 -23t59.5 -61v77h221v-564h-221v77q-20 -38 -59.5 -61t-96.5 -23q-49 0 -91.5 19.5t-74 56.5t-49.5 91t-18 122t18 122t49.5 91t74 56.5t91.5 19.5zM327 377q-35 0 -58.5 -24t-23.5 -71t23.5 -71
t58.5 -24t58.5 24t23.5 71t-23.5 71t-58.5 24zM254 -138q0 38 24.5 62.5t60.5 24.5q38 0 62.5 -24.5t24.5 -62.5q0 -36 -24.5 -60.5t-62.5 -24.5q-36 0 -60.5 24.5t-24.5 60.5z" />
    <glyph glyph-name="uni1EAE" unicode="&#x1eae;" horiz-adv-x="773" 
d="M360 942l-29 70l182 89l37 -96zM387 740q-59 0 -100 38t-41 115v13h77q0 -22 13.5 -34t50.5 -12t50.5 12t13.5 34h77v-13q0 -77 -41 -115t-100 -38zM504 107h-236l-35 -107h-233l259 708h256l258 -708h-234zM450 274l-64 197l-64 -197h128z" />
    <glyph glyph-name="uni1EAF" unicode="&#x1eaf;" 
d="M503 861l-190 -63l-29 70l182 89zM340 596q-59 0 -100 38t-41 115v13h77q0 -22 13.5 -34t50.5 -12t50.5 12t13.5 34h77v-13q0 -77 -41 -115t-100 -38zM253 571q57 0 96.5 -23t59.5 -61v77h221v-564h-221v77q-20 -38 -59.5 -61t-96.5 -23q-49 0 -91.5 19.5t-74 56.5
t-49.5 91t-18 122t18 122t49.5 91t74 56.5t91.5 19.5zM327 377q-35 0 -58.5 -24t-23.5 -71t23.5 -71t58.5 -24t58.5 24t23.5 71t-23.5 71t-58.5 24z" />
    <glyph glyph-name="uni1EB0" unicode="&#x1eb0;" horiz-adv-x="773" 
d="M465 924l-178 62l48 104l164 -89zM387 740q-59 0 -100 38t-41 115v13h77q0 -22 13.5 -34t50.5 -12t50.5 12t13.5 34h77v-13q0 -77 -41 -115t-100 -38zM504 107h-236l-35 -107h-233l259 708h256l258 -708h-234zM450 274l-64 197l-64 -197h128z" />
    <glyph glyph-name="uni1EB1" unicode="&#x1eb1;" 
d="M452 857l-34 -77l-178 62l48 104zM340 596q-59 0 -100 38t-41 115v13h77q0 -22 13.5 -34t50.5 -12t50.5 12t13.5 34h77v-13q0 -77 -41 -115t-100 -38zM253 571q57 0 96.5 -23t59.5 -61v77h221v-564h-221v77q-20 -38 -59.5 -61t-96.5 -23q-49 0 -91.5 19.5t-74 56.5
t-49.5 91t-18 122t18 122t49.5 91t74 56.5t91.5 19.5zM327 377q-35 0 -58.5 -24t-23.5 -71t23.5 -71t58.5 -24t58.5 24t23.5 71t-23.5 71t-58.5 24z" />
    <glyph glyph-name="uni1EB2" unicode="&#x1eb2;" horiz-adv-x="773" 
d="M370 1035q-8 0 -14.5 -4.5t-9.5 -24.5l-81 9q2 20 7 38t17 32t32 22.5t53 8.5q54 0 77 -28.5t23 -68.5q0 -18 -6.5 -32.5t-17.5 -28t-25 -27.5l-29 -30l-52 45q28 26 35.5 44t7.5 29t-6 13.5t-11 2.5zM387 740q-59 0 -100 38t-41 115v13h77q0 -22 13.5 -34t50.5 -12
t50.5 12t13.5 34h77v-13q0 -77 -41 -115t-100 -38zM504 107h-236l-35 -107h-233l259 708h256l258 -708h-234zM450 274l-64 197l-64 -197h128z" />
    <glyph glyph-name="uni1EB3" unicode="&#x1eb3;" 
d="M327 972q54 0 77 -28.5t23 -68.5q0 -18 -6.5 -32.5t-17.5 -28t-25 -27.5l-29 -30l-52 45q28 26 35.5 44t7.5 29t-6 13.5t-11 2.5q-8 0 -14.5 -4.5t-9.5 -24.5l-81 9q2 20 7 38t17 32t32 22.5t53 8.5zM340 596q-59 0 -100 38t-41 115v13h77q0 -22 13.5 -34t50.5 -12
t50.5 12t13.5 34h77v-13q0 -77 -41 -115t-100 -38zM253 571q57 0 96.5 -23t59.5 -61v77h221v-564h-221v77q-20 -38 -59.5 -61t-96.5 -23q-49 0 -91.5 19.5t-74 56.5t-49.5 91t-18 122t18 122t49.5 91t74 56.5t91.5 19.5zM327 377q-35 0 -58.5 -24t-23.5 -71t23.5 -71
t58.5 -24t58.5 24t23.5 71t-23.5 71t-58.5 24z" />
    <glyph glyph-name="uni1EB4" unicode="&#x1eb4;" horiz-adv-x="773" 
d="M348 970q-27 0 -34 -36h-81q13 73 43.5 102.5t77.5 29.5q18 0 33 -5.5t28 -11.5l24.5 -11.5t22.5 -5.5q29 0 33 35h82q-12 -72 -43 -101.5t-78 -29.5q-18 0 -33 5.5t-28 11.5l-24.5 11.5t-22.5 5.5zM387 860q37 0 50.5 12t13.5 34h77v-13q0 -77 -41 -115t-100 -38
t-100 38t-41 115v13h77q0 -22 13.5 -34t50.5 -12zM504 107h-236l-35 -107h-233l259 708h256l258 -708h-234zM450 274l-64 197l-64 -197h128z" />
    <glyph glyph-name="uni1EB5" unicode="&#x1eb5;" 
d="M307 922q18 0 33 -5.5t28 -11.5l24.5 -11.5t22.5 -5.5q29 0 33 35h82q-12 -72 -43 -101.5t-78 -29.5q-18 0 -33 5.5t-28 11.5l-24.5 11.5t-22.5 5.5q-27 0 -34 -36h-81q13 73 43.5 102.5t77.5 29.5zM340 596q-59 0 -100 38t-41 115v13h77q0 -22 13.5 -34t50.5 -12
t50.5 12t13.5 34h77v-13q0 -77 -41 -115t-100 -38zM253 571q57 0 96.5 -23t59.5 -61v77h221v-564h-221v77q-20 -38 -59.5 -61t-96.5 -23q-49 0 -91.5 19.5t-74 56.5t-49.5 91t-18 122t18 122t49.5 91t74 56.5t91.5 19.5zM327 377q-35 0 -58.5 -24t-23.5 -71t23.5 -71
t58.5 -24t58.5 24t23.5 71t-23.5 71t-58.5 24z" />
    <glyph glyph-name="uni1EB6" unicode="&#x1eb6;" horiz-adv-x="773" 
d="M387 744q-33 0 -61 10t-49 31t-33 52.5t-12 74.5v14h85q0 -24 14.5 -37.5t55.5 -13.5t55.5 13.5t14.5 37.5h85v-14q0 -43 -12 -74.5t-33 -52.5t-49 -31t-61 -10zM539 0l-35 107h-236l-35 -107h-233l259 708h256l258 -708h-234zM450 274l-64 197l-64 -197h128zM386 -51
q38 0 62.5 -24.5t24.5 -62.5q0 -36 -24.5 -60.5t-62.5 -24.5q-36 0 -60.5 24.5t-24.5 60.5q0 38 24.5 62.5t60.5 24.5z" />
    <glyph glyph-name="uni1EB7" unicode="&#x1eb7;" 
d="M340 600q-33 0 -61 10t-49 31t-33 52.5t-12 74.5v14h85q0 -24 14.5 -37.5t55.5 -13.5t55.5 13.5t14.5 37.5h85v-14q0 -43 -12 -74.5t-33 -52.5t-49 -31t-61 -10zM253 571q57 0 96.5 -23t59.5 -61v77h221v-564h-221v77q-20 -38 -59.5 -61t-96.5 -23q-49 0 -91.5 19.5
t-74 56.5t-49.5 91t-18 122t18 122t49.5 91t74 56.5t91.5 19.5zM327 377q-35 0 -58.5 -24t-23.5 -71t23.5 -71t58.5 -24t58.5 24t23.5 71t-23.5 71t-58.5 24zM254 -138q0 38 24.5 62.5t60.5 24.5q38 0 62.5 -24.5t24.5 -62.5q0 -36 -24.5 -60.5t-62.5 -24.5
q-36 0 -60.5 24.5t-24.5 60.5z" />
    <glyph glyph-name="uni1EB8" unicode="&#x1eb8;" horiz-adv-x="556" 
d="M272 532v-88h220v-167h-220v-100h250v-177h-472v708h472v-176h-250zM192 -138q0 38 24.5 62.5t60.5 24.5q38 0 62.5 -24.5t24.5 -62.5q0 -36 -24.5 -60.5t-62.5 -24.5q-36 0 -60.5 24.5t-24.5 60.5z" />
    <glyph glyph-name="uni1EB9" unicode="&#x1eb9;" horiz-adv-x="616" 
d="M596 287q0 -21 -5 -44h-355q3 -45 20.5 -59t40.5 -14q22 0 34 10t18 23h235q-9 -45 -33.5 -83.5t-60.5 -66.5t-82.5 -44t-99.5 -16q-63 0 -116 20t-91.5 57t-59.5 91t-21 121q0 68 21 121.5t59.5 90.5t91.5 57t116 20t116 -19.5t91.5 -56t59.5 -89.5t21 -119zM371 334
q0 34 -19 48.5t-44 14.5q-61 0 -70 -63h133zM307 -51q38 0 62.5 -24.5t24.5 -62.5q0 -36 -24.5 -60.5t-62.5 -24.5q-36 0 -60.5 24.5t-24.5 60.5q0 38 24.5 62.5t60.5 24.5z" />
    <glyph glyph-name="uni1EBA" unicode="&#x1eba;" horiz-adv-x="556" 
d="M271 989q59 0 84.5 -31t25.5 -75q0 -19 -7 -35.5t-19 -31.5t-27 -30l-32 -33l-58 49q31 29 39.5 48.5t8.5 32.5q0 11 -6.5 14t-12.5 3q-8 0 -15.5 -4.5t-10.5 -27.5l-90 10q3 22 8.5 42t18.5 35.5t35 24.5t58 9zM272 532v-88h220v-167h-220v-100h250v-177h-472v708h472
v-176h-250z" />
    <glyph glyph-name="uni1EBB" unicode="&#x1ebb;" horiz-adv-x="616" 
d="M297 756q-8 0 -15.5 -4.5t-10.5 -27.5l-90 10q3 22 8.5 42t18.5 35.5t35 24.5t58 9q59 0 84.5 -31t25.5 -75q0 -19 -7 -35.5t-19 -31.5t-27 -30l-32 -33l-58 49q31 29 39.5 48.5t8.5 32.5q0 11 -6.5 14t-12.5 3zM596 287q0 -21 -5 -44h-355q3 -45 20.5 -59t40.5 -14
q22 0 34 10t18 23h235q-9 -45 -33.5 -83.5t-60.5 -66.5t-82.5 -44t-99.5 -16q-63 0 -116 20t-91.5 57t-59.5 91t-21 121q0 68 21 121.5t59.5 90.5t91.5 57t116 20t116 -19.5t91.5 -56t59.5 -89.5t21 -119zM371 334q0 34 -19 48.5t-44 14.5q-61 0 -70 -63h133z" />
    <glyph glyph-name="uni1EBC" unicode="&#x1ebc;" horiz-adv-x="556" 
d="M222 901q20 0 36.5 -6t31 -13l27 -13t24.5 -6q30 0 36 39h90q-14 -80 -48 -112t-85 -32q-20 0 -36.5 6t-31 12.5l-27 12.5t-24.5 6q-30 0 -37 -39h-89q14 80 48 112.5t85 32.5zM272 532v-88h220v-167h-220v-100h250v-177h-472v708h472v-176h-250z" />
    <glyph glyph-name="uni1EBD" unicode="&#x1ebd;" horiz-adv-x="616" 
d="M245 651q-30 0 -37 -39h-89q14 80 48 112.5t85 32.5q20 0 36.5 -6t31 -13l27 -13t24.5 -6q30 0 36 39h90q-14 -80 -48 -112t-85 -32q-20 0 -36.5 6t-31 12.5l-27 12.5t-24.5 6zM596 287q0 -21 -5 -44h-355q3 -45 20.5 -59t40.5 -14q22 0 34 10t18 23h235
q-9 -45 -33.5 -83.5t-60.5 -66.5t-82.5 -44t-99.5 -16q-63 0 -116 20t-91.5 57t-59.5 91t-21 121q0 68 21 121.5t59.5 90.5t91.5 57t116 20t116 -19.5t91.5 -56t59.5 -89.5t21 -119zM371 334q0 34 -19 48.5t-44 14.5q-61 0 -70 -63h133z" />
    <glyph glyph-name="uni1EBE" unicode="&#x1ebe;" horiz-adv-x="556" 
d="M406 957l-190 -63l-29 70l182 89zM278 782l-96 -40l-29 81l125 64l124 -64l-31 -81zM272 532v-88h220v-167h-220v-100h250v-177h-472v708h472v-176h-250z" />
    <glyph glyph-name="uni1EBF" unicode="&#x1ebf;" horiz-adv-x="616" 
d="M246 750l-29 70l182 89l37 -96zM212 598l-29 81l125 64l124 -64l-31 -81l-93 40zM596 287q0 -21 -5 -44h-355q3 -45 20.5 -59t40.5 -14q22 0 34 10t18 23h235q-9 -45 -33.5 -83.5t-60.5 -66.5t-82.5 -44t-99.5 -16q-63 0 -116 20t-91.5 57t-59.5 91t-21 121
q0 68 21 121.5t59.5 90.5t91.5 57t116 20t116 -19.5t91.5 -56t59.5 -89.5t21 -119zM371 334q0 34 -19 48.5t-44 14.5q-61 0 -70 -63h133z" />
    <glyph glyph-name="uni1EC0" unicode="&#x1ec0;" horiz-adv-x="556" 
d="M439 948l-34 -77l-178 62l48 104zM278 782l-96 -40l-29 81l125 64l124 -64l-31 -81zM272 532v-88h220v-167h-220v-100h250v-177h-472v708h472v-176h-250z" />
    <glyph glyph-name="uni1EC1" unicode="&#x1ec1;" horiz-adv-x="616" 
d="M435 727l-178 62l48 104l164 -89zM212 598l-29 81l125 64l124 -64l-31 -81l-93 40zM596 287q0 -21 -5 -44h-355q3 -45 20.5 -59t40.5 -14q22 0 34 10t18 23h235q-9 -45 -33.5 -83.5t-60.5 -66.5t-82.5 -44t-99.5 -16q-63 0 -116 20t-91.5 57t-59.5 91t-21 121
q0 68 21 121.5t59.5 90.5t91.5 57t116 20t116 -19.5t91.5 -56t59.5 -89.5t21 -119zM371 334q0 34 -19 48.5t-44 14.5q-61 0 -70 -63h133z" />
    <glyph glyph-name="uni1EC2" unicode="&#x1ec2;" horiz-adv-x="556" 
d="M412 1049q54 0 77 -28.5t23 -68.5q0 -18 -6.5 -32.5t-17.5 -28t-25 -27.5l-29 -30l-52 45q28 26 35.5 44t7.5 29t-6 13.5t-11 2.5q-8 0 -14.5 -4.5t-9.5 -24.5l-81 9q2 20 7 38t17 32t32 22.5t53 8.5zM278 782l-96 -40l-29 81l125 64l124 -64l-31 -81zM272 532v-88h220
v-167h-220v-100h250v-177h-472v708h472v-176h-250z" />
    <glyph glyph-name="uni1EC3" unicode="&#x1ec3;" horiz-adv-x="616" 
d="M438 824q-8 0 -14.5 -4.5t-9.5 -24.5l-81 9q2 20 7 38t17 32t32 22.5t53 8.5q54 0 77 -28.5t23 -68.5q0 -18 -6.5 -32.5t-17.5 -28t-25 -27.5l-29 -30l-52 45q28 26 35.5 44t7.5 29t-6 13.5t-11 2.5zM212 598l-29 81l125 64l124 -64l-31 -81l-93 40zM596 287
q0 -21 -5 -44h-355q3 -45 20.5 -59t40.5 -14q22 0 34 10t18 23h235q-9 -45 -33.5 -83.5t-60.5 -66.5t-82.5 -44t-99.5 -16q-63 0 -116 20t-91.5 57t-59.5 91t-21 121q0 68 21 121.5t59.5 90.5t91.5 57t116 20t116 -19.5t91.5 -56t59.5 -89.5t21 -119zM371 334q0 34 -19 48.5
t-44 14.5q-61 0 -70 -63h133z" />
    <glyph glyph-name="uni1EC4" unicode="&#x1ec4;" horiz-adv-x="556" 
d="M251 1002q15 0 27.5 -4.5t23 -10t20 -10t18.5 -4.5q22 0 27 29h68q-10 -60 -36 -84t-64 -24q-15 0 -27.5 4.5t-23 9.5l-20 9.5t-18.5 4.5q-22 0 -28 -29h-67q11 60 36.5 84.5t63.5 24.5zM278 782l-96 -40l-29 81l125 64l124 -64l-31 -81zM272 532v-88h220v-167h-220v-100
h250v-177h-472v708h472v-176h-250z" />
    <glyph glyph-name="uni1EC5" unicode="&#x1ec5;" horiz-adv-x="616" 
d="M276 778q-22 0 -28 -29h-67q11 60 36.5 84.5t63.5 24.5q15 0 27.5 -4.5t23 -10t20 -10t18.5 -4.5q22 0 27 29h68q-10 -60 -36 -84t-64 -24q-15 0 -27.5 4.5t-23 9.5l-20 9.5t-18.5 4.5zM308 743l124 -64l-31 -81l-93 40l-96 -40l-29 81zM596 287q0 -21 -5 -44h-355
q3 -45 20.5 -59t40.5 -14q22 0 34 10t18 23h235q-9 -45 -33.5 -83.5t-60.5 -66.5t-82.5 -44t-99.5 -16q-63 0 -116 20t-91.5 57t-59.5 91t-21 121q0 68 21 121.5t59.5 90.5t91.5 57t116 20t116 -19.5t91.5 -56t59.5 -89.5t21 -119zM371 334q0 34 -19 48.5t-44 14.5
q-61 0 -70 -63h133z" />
    <glyph glyph-name="uni1EC6" unicode="&#x1ec6;" horiz-adv-x="556" 
d="M278 789l-106 -43l-31 89l137 70l136 -70l-34 -89zM272 532v-88h220v-167h-220v-100h250v-177h-472v708h472v-176h-250zM192 -138q0 38 24.5 62.5t60.5 24.5q38 0 62.5 -24.5t24.5 -62.5q0 -36 -24.5 -60.5t-62.5 -24.5q-36 0 -60.5 24.5t-24.5 60.5z" />
    <glyph glyph-name="uni1EC7" unicode="&#x1ec7;" horiz-adv-x="616" 
d="M202 602l-31 89l137 70l136 -70l-34 -89l-102 43zM596 287q0 -21 -5 -44h-355q3 -45 20.5 -59t40.5 -14q22 0 34 10t18 23h235q-9 -45 -33.5 -83.5t-60.5 -66.5t-82.5 -44t-99.5 -16q-63 0 -116 20t-91.5 57t-59.5 91t-21 121q0 68 21 121.5t59.5 90.5t91.5 57t116 20
t116 -19.5t91.5 -56t59.5 -89.5t21 -119zM371 334q0 34 -19 48.5t-44 14.5q-61 0 -70 -63h133zM307 -51q38 0 62.5 -24.5t24.5 -62.5q0 -36 -24.5 -60.5t-62.5 -24.5q-36 0 -60.5 24.5t-24.5 60.5q0 38 24.5 62.5t60.5 24.5z" />
    <glyph glyph-name="uni1EC8" unicode="&#x1ec8;" horiz-adv-x="322" 
d="M154 989q59 0 84.5 -31t25.5 -75q0 -19 -7 -35.5t-19 -31.5t-27 -30l-32 -33l-58 49q31 29 39.5 48.5t8.5 32.5q0 11 -6.5 14t-12.5 3q-8 0 -15.5 -4.5t-10.5 -27.5l-90 10q3 22 8.5 42t18.5 35.5t35 24.5t58 9zM272 708v-708h-222v708h222z" />
    <glyph glyph-name="uni1EC9" unicode="&#x1ec9;" horiz-adv-x="372" 
d="M179 845q59 0 84.5 -31t25.5 -75q0 -19 -7 -35.5t-19 -31.5t-27 -30l-32 -33l-58 49q31 29 39.5 48.5t8.5 32.5q0 11 -6.5 14t-12.5 3q-8 0 -15.5 -4.5t-10.5 -27.5l-90 10q3 22 8.5 42t18.5 35.5t35 24.5t58 9zM297 564v-564h-222v564h222z" />
    <glyph glyph-name="uni1ECA" unicode="&#x1eca;" horiz-adv-x="322" 
d="M272 708v-708h-222v708h222zM75 -138q0 38 24.5 62.5t60.5 24.5q38 0 62.5 -24.5t24.5 -62.5q0 -36 -24.5 -60.5t-62.5 -24.5q-36 0 -60.5 24.5t-24.5 60.5z" />
    <glyph glyph-name="uni1ECB" unicode="&#x1ecb;" horiz-adv-x="322" 
d="M34 718q0 47 34 79t94 32q59 0 93 -32t34 -79q0 -46 -34 -77.5t-93 -31.5q-60 0 -94 31.5t-34 77.5zM272 564v-564h-222v564h222zM75 -138q0 38 24.5 62.5t60.5 24.5q38 0 62.5 -24.5t24.5 -62.5q0 -36 -24.5 -60.5t-62.5 -24.5q-36 0 -60.5 24.5t-24.5 60.5z" />
    <glyph glyph-name="uni1ECC" unicode="&#x1ecc;" horiz-adv-x="788" 
d="M395 720q76 0 142 -27t115 -75t77.5 -114.5t28.5 -146.5t-28.5 -147t-78 -115t-115.5 -75t-141 -27t-141.5 27t-116 75t-78.5 115t-29 147t29 146.5t78.5 114.5t116 75t141.5 27zM395 515q-69 0 -104 -43t-35 -115q0 -71 35 -114t104 -43q67 0 102.5 43t35.5 114
q0 72 -35.5 115t-102.5 43zM308 -138q0 38 24.5 62.5t60.5 24.5q38 0 62.5 -24.5t24.5 -62.5q0 -36 -24.5 -60.5t-62.5 -24.5q-36 0 -60.5 24.5t-24.5 60.5z" />
    <glyph glyph-name="uni1ECD" unicode="&#x1ecd;" horiz-adv-x="636" 
d="M318 571q64 0 118.5 -20t94.5 -57t62.5 -90.5t22.5 -121.5q0 -67 -22.5 -121t-62.5 -91t-94.5 -57t-118.5 -20t-118.5 20t-94.5 57t-62.5 91t-22.5 121q0 68 22.5 121.5t62.5 90.5t94.5 57t118.5 20zM318 379q-29 0 -51 -23t-22 -74t21.5 -74t51.5 -23q29 0 51 23t22 74
t-22 74t-51 23zM232 -138q0 38 24.5 62.5t60.5 24.5q38 0 62.5 -24.5t24.5 -62.5q0 -36 -24.5 -60.5t-62.5 -24.5q-36 0 -60.5 24.5t-24.5 60.5z" />
    <glyph glyph-name="uni1ECE" unicode="&#x1ece;" horiz-adv-x="788" 
d="M387 989q59 0 84.5 -31t25.5 -75q0 -19 -7 -35.5t-19 -31.5t-27 -30l-32 -33l-58 49q31 29 39.5 48.5t8.5 32.5q0 11 -6.5 14t-12.5 3q-8 0 -15.5 -4.5t-10.5 -27.5l-90 10q3 22 8.5 42t18.5 35.5t35 24.5t58 9zM395 720q76 0 142 -27t115 -75t77.5 -114.5t28.5 -146.5
t-28.5 -147t-78 -115t-115.5 -75t-141 -27t-141.5 27t-116 75t-78.5 115t-29 147t29 146.5t78.5 114.5t116 75t141.5 27zM395 515q-69 0 -104 -43t-35 -115q0 -71 35 -114t104 -43q67 0 102.5 43t35.5 114q0 72 -35.5 115t-102.5 43z" />
    <glyph glyph-name="uni1ECF" unicode="&#x1ecf;" horiz-adv-x="636" 
d="M311 845q59 0 84.5 -31t25.5 -75q0 -19 -7 -35.5t-19 -31.5t-27 -30l-32 -33l-58 49q31 29 39.5 48.5t8.5 32.5q0 11 -6.5 14t-12.5 3q-8 0 -15.5 -4.5t-10.5 -27.5l-90 10q3 22 8.5 42t18.5 35.5t35 24.5t58 9zM318 571q64 0 118.5 -20t94.5 -57t62.5 -90.5t22.5 -121.5
q0 -67 -22.5 -121t-62.5 -91t-94.5 -57t-118.5 -20t-118.5 20t-94.5 57t-62.5 91t-22.5 121q0 68 22.5 121.5t62.5 90.5t94.5 57t118.5 20zM318 379q-29 0 -51 -23t-22 -74t21.5 -74t51.5 -23q29 0 51 23t22 74t-22 74t-51 23z" />
    <glyph glyph-name="uni1ED0" unicode="&#x1ed0;" horiz-adv-x="788" 
d="M522 957l-190 -63l-29 70l182 89zM394 782l-96 -40l-29 81l125 64l124 -64l-31 -81zM395 720q76 0 142 -27t115 -75t77.5 -114.5t28.5 -146.5t-28.5 -147t-78 -115t-115.5 -75t-141 -27t-141.5 27t-116 75t-78.5 115t-29 147t29 146.5t78.5 114.5t116 75t141.5 27z
M395 515q-69 0 -104 -43t-35 -115q0 -71 35 -114t104 -43q67 0 102.5 43t35.5 114q0 72 -35.5 115t-102.5 43z" />
    <glyph glyph-name="uni1ED1" unicode="&#x1ed1;" horiz-adv-x="636" 
d="M446 813l-190 -63l-29 70l182 89zM318 638l-96 -40l-29 81l125 64l124 -64l-31 -81zM318 571q64 0 118.5 -20t94.5 -57t62.5 -90.5t22.5 -121.5q0 -67 -22.5 -121t-62.5 -91t-94.5 -57t-118.5 -20t-118.5 20t-94.5 57t-62.5 91t-22.5 121q0 68 22.5 121.5t62.5 90.5
t94.5 57t118.5 20zM318 379q-29 0 -51 -23t-22 -74t21.5 -74t51.5 -23q29 0 51 23t22 74t-22 74t-51 23z" />
    <glyph glyph-name="uni1ED2" unicode="&#x1ed2;" horiz-adv-x="788" 
d="M555 948l-34 -77l-178 62l48 104zM394 782l-96 -40l-29 81l125 64l124 -64l-31 -81zM395 720q76 0 142 -27t115 -75t77.5 -114.5t28.5 -146.5t-28.5 -147t-78 -115t-115.5 -75t-141 -27t-141.5 27t-116 75t-78.5 115t-29 147t29 146.5t78.5 114.5t116 75t141.5 27z
M395 515q-69 0 -104 -43t-35 -115q0 -71 35 -114t104 -43q67 0 102.5 43t35.5 114q0 72 -35.5 115t-102.5 43z" />
    <glyph glyph-name="uni1ED3" unicode="&#x1ed3;" horiz-adv-x="636" 
d="M479 804l-34 -77l-178 62l48 104zM318 638l-96 -40l-29 81l125 64l124 -64l-31 -81zM318 571q64 0 118.5 -20t94.5 -57t62.5 -90.5t22.5 -121.5q0 -67 -22.5 -121t-62.5 -91t-94.5 -57t-118.5 -20t-118.5 20t-94.5 57t-62.5 91t-22.5 121q0 68 22.5 121.5t62.5 90.5
t94.5 57t118.5 20zM318 379q-29 0 -51 -23t-22 -74t21.5 -74t51.5 -23q29 0 51 23t22 74t-22 74t-51 23z" />
    <glyph glyph-name="uni1ED4" unicode="&#x1ed4;" horiz-adv-x="788" 
d="M528 1049q54 0 77 -28.5t23 -68.5q0 -18 -6.5 -32.5t-17.5 -28t-25 -27.5l-29 -30l-52 45q28 26 35.5 44t7.5 29t-6 13.5t-11 2.5q-8 0 -14.5 -4.5t-9.5 -24.5l-81 9q2 20 7 38t17 32t32 22.5t53 8.5zM394 782l-96 -40l-29 81l125 64l124 -64l-31 -81zM395 720
q76 0 142 -27t115 -75t77.5 -114.5t28.5 -146.5t-28.5 -147t-78 -115t-115.5 -75t-141 -27t-141.5 27t-116 75t-78.5 115t-29 147t29 146.5t78.5 114.5t116 75t141.5 27zM395 515q-69 0 -104 -43t-35 -115q0 -71 35 -114t104 -43q67 0 102.5 43t35.5 114q0 72 -35.5 115
t-102.5 43z" />
    <glyph glyph-name="uni1ED5" unicode="&#x1ed5;" horiz-adv-x="636" 
d="M452 905q54 0 77 -28.5t23 -68.5q0 -18 -6.5 -32.5t-17.5 -28t-25 -27.5l-29 -30l-52 45q28 26 35.5 44t7.5 29t-6 13.5t-11 2.5q-8 0 -14.5 -4.5t-9.5 -24.5l-81 9q2 20 7 38t17 32t32 22.5t53 8.5zM318 638l-96 -40l-29 81l125 64l124 -64l-31 -81zM318 571
q64 0 118.5 -20t94.5 -57t62.5 -90.5t22.5 -121.5q0 -67 -22.5 -121t-62.5 -91t-94.5 -57t-118.5 -20t-118.5 20t-94.5 57t-62.5 91t-22.5 121q0 68 22.5 121.5t62.5 90.5t94.5 57t118.5 20zM318 379q-29 0 -51 -23t-22 -74t21.5 -74t51.5 -23q29 0 51 23t22 74t-22 74
t-51 23z" />
    <glyph glyph-name="uni1ED6" unicode="&#x1ed6;" horiz-adv-x="788" 
d="M367 1002q15 0 27.5 -4.5t23 -10t20 -10t18.5 -4.5q22 0 27 29h68q-10 -60 -36 -84t-64 -24q-15 0 -27.5 4.5t-23 9.5l-20 9.5t-18.5 4.5q-22 0 -28 -29h-67q11 60 36.5 84.5t63.5 24.5zM394 782l-96 -40l-29 81l125 64l124 -64l-31 -81zM395 720q76 0 142 -27t115 -75
t77.5 -114.5t28.5 -146.5t-28.5 -147t-78 -115t-115.5 -75t-141 -27t-141.5 27t-116 75t-78.5 115t-29 147t29 146.5t78.5 114.5t116 75t141.5 27zM395 515q-69 0 -104 -43t-35 -115q0 -71 35 -114t104 -43q67 0 102.5 43t35.5 114q0 72 -35.5 115t-102.5 43z" />
    <glyph glyph-name="uni1ED7" unicode="&#x1ed7;" horiz-adv-x="636" 
d="M291 858q15 0 27.5 -4.5t23 -10t20 -10t18.5 -4.5q22 0 27 29h68q-10 -60 -36 -84t-64 -24q-15 0 -27.5 4.5t-23 9.5l-20 9.5t-18.5 4.5q-22 0 -28 -29h-67q11 60 36.5 84.5t63.5 24.5zM318 638l-96 -40l-29 81l125 64l124 -64l-31 -81zM318 571q64 0 118.5 -20t94.5 -57
t62.5 -90.5t22.5 -121.5q0 -67 -22.5 -121t-62.5 -91t-94.5 -57t-118.5 -20t-118.5 20t-94.5 57t-62.5 91t-22.5 121q0 68 22.5 121.5t62.5 90.5t94.5 57t118.5 20zM318 379q-29 0 -51 -23t-22 -74t21.5 -74t51.5 -23q29 0 51 23t22 74t-22 74t-51 23z" />
    <glyph glyph-name="uni1ED8" unicode="&#x1ed8;" horiz-adv-x="788" 
d="M394 789l-106 -43l-31 89l137 70l136 -70l-34 -89zM395 720q76 0 142 -27t115 -75t77.5 -114.5t28.5 -146.5t-28.5 -147t-78 -115t-115.5 -75t-141 -27t-141.5 27t-116 75t-78.5 115t-29 147t29 146.5t78.5 114.5t116 75t141.5 27zM395 515q-69 0 -104 -43t-35 -115
q0 -71 35 -114t104 -43q67 0 102.5 43t35.5 114q0 72 -35.5 115t-102.5 43zM308 -138q0 38 24.5 62.5t60.5 24.5q38 0 62.5 -24.5t24.5 -62.5q0 -36 -24.5 -60.5t-62.5 -24.5q-36 0 -60.5 24.5t-24.5 60.5z" />
    <glyph glyph-name="uni1ED9" unicode="&#x1ed9;" horiz-adv-x="636" 
d="M318 645l-106 -43l-31 89l137 70l136 -70l-34 -89zM318 571q64 0 118.5 -20t94.5 -57t62.5 -90.5t22.5 -121.5q0 -67 -22.5 -121t-62.5 -91t-94.5 -57t-118.5 -20t-118.5 20t-94.5 57t-62.5 91t-22.5 121q0 68 22.5 121.5t62.5 90.5t94.5 57t118.5 20zM318 379
q-29 0 -51 -23t-22 -74t21.5 -74t51.5 -23q29 0 51 23t22 74t-22 74t-51 23zM232 -138q0 38 24.5 62.5t60.5 24.5q38 0 62.5 -24.5t24.5 -62.5q0 -36 -24.5 -60.5t-62.5 -24.5q-36 0 -60.5 24.5t-24.5 60.5z" />
    <glyph glyph-name="uni1EDA" unicode="&#x1eda;" horiz-adv-x="788" 
d="M314 754l-32 77l200 98l40 -105zM656 615q48 -48 75 -113.5t27 -144.5q0 -80 -28.5 -147t-78 -115t-115.5 -75t-141 -27t-141.5 27t-116 75t-78.5 115t-29 147t29 146.5t78.5 114.5t116 75t141.5 27q50 0 95 -12q44 2 68.5 24t24.5 78h149q0 -68 -21 -115.5t-55 -79.5z
M395 200q67 0 102.5 43t35.5 114q0 72 -35.5 115t-102.5 43q-69 0 -104 -43t-35 -115q0 -71 35 -114t104 -43z" />
    <glyph glyph-name="uni1EDB" unicode="&#x1edb;" horiz-adv-x="636" 
d="M238 610l-32 77l200 98l40 -105zM639 666q0 -70 -23 -119t-59 -81q28 -36 43.5 -82t15.5 -102q0 -67 -22.5 -121t-62.5 -91t-94.5 -57t-118.5 -20t-118.5 20t-94.5 57t-62.5 91t-22.5 121q0 68 22.5 121.5t62.5 90.5t94.5 57t118.5 20q40 0 72 -7q47 1 73.5 22.5
t26.5 79.5h149zM318 185q29 0 51 23t22 74t-22 74t-51 23t-51 -23t-22 -74t21.5 -74t51.5 -23z" />
    <glyph glyph-name="uni1EDC" unicode="&#x1edc;" horiz-adv-x="788" 
d="M470 746l-195 68l52 114l181 -98zM656 615q48 -48 75 -113.5t27 -144.5q0 -80 -28.5 -147t-78 -115t-115.5 -75t-141 -27t-141.5 27t-116 75t-78.5 115t-29 147t29 146.5t78.5 114.5t116 75t141.5 27q50 0 95 -12q44 2 68.5 24t24.5 78h149q0 -68 -21 -115.5t-55 -79.5z
M395 200q67 0 102.5 43t35.5 114q0 72 -35.5 115t-102.5 43q-69 0 -104 -43t-35 -115q0 -71 35 -114t104 -43z" />
    <glyph glyph-name="uni1EDD" unicode="&#x1edd;" horiz-adv-x="636" 
d="M394 602l-195 68l52 114l181 -98zM639 666q0 -70 -23 -119t-59 -81q28 -36 43.5 -82t15.5 -102q0 -67 -22.5 -121t-62.5 -91t-94.5 -57t-118.5 -20t-118.5 20t-94.5 57t-62.5 91t-22.5 121q0 68 22.5 121.5t62.5 90.5t94.5 57t118.5 20q40 0 72 -7q47 1 73.5 22.5
t26.5 79.5h149zM318 185q29 0 51 23t22 74t-22 74t-51 23t-51 -23t-22 -74t21.5 -74t51.5 -23z" />
    <glyph glyph-name="uni1EDE" unicode="&#x1ede;" horiz-adv-x="788" 
d="M383 900q-8 0 -15.5 -4.5t-10.5 -27.5l-90 10q3 22 8.5 42t18.5 35.5t35 24.5t58 9q59 0 84.5 -31t25.5 -75q0 -19 -7 -35.5t-19 -31.5t-27 -30l-32 -33l-58 49q31 29 39.5 48.5t8.5 32.5q0 11 -6.5 14t-12.5 3zM656 615q48 -48 75 -113.5t27 -144.5q0 -80 -28.5 -147
t-78 -115t-115.5 -75t-141 -27t-141.5 27t-116 75t-78.5 115t-29 147t29 146.5t78.5 114.5t116 75t141.5 27q50 0 95 -12q44 2 68.5 24t24.5 78h149q0 -68 -21 -115.5t-55 -79.5zM395 200q67 0 102.5 43t35.5 114q0 72 -35.5 115t-102.5 43q-69 0 -104 -43t-35 -115
q0 -71 35 -114t104 -43z" />
    <glyph glyph-name="uni1EDF" unicode="&#x1edf;" horiz-adv-x="636" 
d="M307 756q-8 0 -15.5 -4.5t-10.5 -27.5l-90 10q3 22 8.5 42t18.5 35.5t35 24.5t58 9q59 0 84.5 -31t25.5 -75q0 -19 -7 -35.5t-19 -31.5t-27 -30l-32 -33l-58 49q31 29 39.5 48.5t8.5 32.5q0 11 -6.5 14t-12.5 3zM639 666q0 -70 -23 -119t-59 -81q28 -36 43.5 -82
t15.5 -102q0 -67 -22.5 -121t-62.5 -91t-94.5 -57t-118.5 -20t-118.5 20t-94.5 57t-62.5 91t-22.5 121q0 68 22.5 121.5t62.5 90.5t94.5 57t118.5 20q40 0 72 -7q47 1 73.5 22.5t26.5 79.5h149zM318 185q29 0 51 23t22 74t-22 74t-51 23t-51 -23t-22 -74t21.5 -74t51.5 -23z
" />
    <glyph glyph-name="uni1EE0" unicode="&#x1ee0;" horiz-adv-x="788" 
d="M331 843q-30 0 -37 -39h-89q14 80 48 112.5t85 32.5q20 0 36.5 -6t31 -13l27 -13t24.5 -6q30 0 36 39h90q-14 -80 -48 -112t-85 -32q-20 0 -36.5 6t-31 12.5l-27 12.5t-24.5 6zM656 615q48 -48 75 -113.5t27 -144.5q0 -80 -28.5 -147t-78 -115t-115.5 -75t-141 -27
t-141.5 27t-116 75t-78.5 115t-29 147t29 146.5t78.5 114.5t116 75t141.5 27q50 0 95 -12q44 2 68.5 24t24.5 78h149q0 -68 -21 -115.5t-55 -79.5zM395 200q67 0 102.5 43t35.5 114q0 72 -35.5 115t-102.5 43q-69 0 -104 -43t-35 -115q0 -71 35 -114t104 -43z" />
    <glyph glyph-name="uni1EE1" unicode="&#x1ee1;" horiz-adv-x="636" 
d="M255 692q-30 0 -37 -39h-89q14 80 48 112.5t85 32.5q20 0 36.5 -6t31 -13l27 -13t24.5 -6q30 0 36 39h90q-14 -80 -48 -112t-85 -32q-20 0 -36.5 6t-31 12.5l-27 12.5t-24.5 6zM639 666q0 -70 -23 -119t-59 -81q28 -36 43.5 -82t15.5 -102q0 -67 -22.5 -121t-62.5 -91
t-94.5 -57t-118.5 -20t-118.5 20t-94.5 57t-62.5 91t-22.5 121q0 68 22.5 121.5t62.5 90.5t94.5 57t118.5 20q40 0 72 -7q47 1 73.5 22.5t26.5 79.5h149zM318 185q29 0 51 23t22 74t-22 74t-51 23t-51 -23t-22 -74t21.5 -74t51.5 -23z" />
    <glyph glyph-name="uni1EE2" unicode="&#x1ee2;" horiz-adv-x="788" 
d="M656 615q48 -48 75 -113.5t27 -144.5q0 -80 -28.5 -147t-78 -115t-115.5 -75t-141 -27t-141.5 27t-116 75t-78.5 115t-29 147t29 146.5t78.5 114.5t116 75t141.5 27q50 0 95 -12q44 2 68.5 24t24.5 78h149q0 -68 -21 -115.5t-55 -79.5zM395 200q67 0 102.5 43t35.5 114
q0 72 -35.5 115t-102.5 43q-69 0 -104 -43t-35 -115q0 -71 35 -114t104 -43zM393 -51q38 0 62.5 -24.5t24.5 -62.5q0 -36 -24.5 -60.5t-62.5 -24.5q-36 0 -60.5 24.5t-24.5 60.5q0 38 24.5 62.5t60.5 24.5z" />
    <glyph glyph-name="uni1EE3" unicode="&#x1ee3;" horiz-adv-x="636" 
d="M639 666q0 -70 -23 -119t-59 -81q28 -36 43.5 -82t15.5 -102q0 -67 -22.5 -121t-62.5 -91t-94.5 -57t-118.5 -20t-118.5 20t-94.5 57t-62.5 91t-22.5 121q0 68 22.5 121.5t62.5 90.5t94.5 57t118.5 20q40 0 72 -7q47 1 73.5 22.5t26.5 79.5h149zM318 185q29 0 51 23
t22 74t-22 74t-51 23t-51 -23t-22 -74t21.5 -74t51.5 -23zM317 -51q38 0 62.5 -24.5t24.5 -62.5q0 -36 -24.5 -60.5t-62.5 -24.5q-36 0 -60.5 24.5t-24.5 60.5q0 38 24.5 62.5t60.5 24.5z" />
    <glyph glyph-name="uni1EE4" unicode="&#x1ee4;" horiz-adv-x="719" 
d="M267 708v-399q0 -46 20 -76t71 -30t72.5 30t21.5 76v399h221v-399q0 -78 -25 -137.5t-68.5 -99t-102 -59.5t-124.5 -20t-122.5 20t-97.5 59.5t-64 99t-23 137.5v399h221zM274 -138q0 38 24.5 62.5t60.5 24.5q38 0 62.5 -24.5t24.5 -62.5q0 -36 -24.5 -60.5t-62.5 -24.5
q-36 0 -60.5 24.5t-24.5 60.5z" />
    <glyph glyph-name="uni1EE5" unicode="&#x1ee5;" horiz-adv-x="697" 
d="M647 564v-564h-222v86q-24 -37 -66.5 -63.5t-106.5 -26.5q-49 0 -87 17t-64.5 48.5t-40.5 76t-14 99.5v327h221v-299q0 -41 21.5 -64t57.5 -23q37 0 58 23t21 64v299h222zM348 -51q38 0 62.5 -24.5t24.5 -62.5q0 -36 -24.5 -60.5t-62.5 -24.5q-36 0 -60.5 24.5
t-24.5 60.5q0 38 24.5 62.5t60.5 24.5z" />
    <glyph glyph-name="uni1EE6" unicode="&#x1ee6;" horiz-adv-x="719" 
d="M353 989q59 0 84.5 -31t25.5 -75q0 -19 -7 -35.5t-19 -31.5t-27 -30l-32 -33l-58 49q31 29 39.5 48.5t8.5 32.5q0 11 -6.5 14t-12.5 3q-8 0 -15.5 -4.5t-10.5 -27.5l-90 10q3 22 8.5 42t18.5 35.5t35 24.5t58 9zM267 708v-399q0 -46 20 -76t71 -30t72.5 30t21.5 76v399
h221v-399q0 -78 -25 -137.5t-68.5 -99t-102 -59.5t-124.5 -20t-122.5 20t-97.5 59.5t-64 99t-23 137.5v399h221z" />
    <glyph glyph-name="uni1EE7" unicode="&#x1ee7;" horiz-adv-x="697" 
d="M338 756q-8 0 -15.5 -4.5t-10.5 -27.5l-90 10q3 22 8.5 42t18.5 35.5t35 24.5t58 9q59 0 84.5 -31t25.5 -75q0 -19 -7 -35.5t-19 -31.5t-27 -30l-32 -33l-58 49q31 29 39.5 48.5t8.5 32.5q0 11 -6.5 14t-12.5 3zM647 564v-564h-222v86q-24 -37 -66.5 -63.5t-106.5 -26.5
q-49 0 -87 17t-64.5 48.5t-40.5 76t-14 99.5v327h221v-299q0 -41 21.5 -64t57.5 -23q37 0 58 23t21 64v299h222z" />
    <glyph glyph-name="uni1EE8" unicode="&#x1ee8;" horiz-adv-x="719" 
d="M280 754l-32 77l200 98l40 -105zM767 810q0 -76 -26 -127t-68 -82v-292q0 -78 -25 -137.5t-68.5 -99t-102 -59.5t-124.5 -20t-122.5 20t-97.5 59.5t-64 99t-23 137.5v399h221v-399q0 -46 20 -76t71 -30t72.5 30t21.5 76v399h61q49 0 77 21t28 81h149z" />
    <glyph glyph-name="uni1EE9" unicode="&#x1ee9;" horiz-adv-x="697" 
d="M269 610l-32 77l200 98l40 -105zM804 666q0 -51 -12.5 -91t-34 -70t-50 -50t-60.5 -32v-423h-222v86q-24 -37 -66.5 -63.5t-106.5 -26.5q-49 0 -87 17t-64.5 48.5t-40.5 76t-14 99.5v327h221v-299q0 -41 21.5 -64t57.5 -23q37 0 58 23t21 64v299h125q49 0 77 21t28 81
h149z" />
    <glyph glyph-name="uni1EEA" unicode="&#x1eea;" horiz-adv-x="719" 
d="M436 746l-195 68l52 114l181 -98zM767 810q0 -76 -26 -127t-68 -82v-292q0 -78 -25 -137.5t-68.5 -99t-102 -59.5t-124.5 -20t-122.5 20t-97.5 59.5t-64 99t-23 137.5v399h221v-399q0 -46 20 -76t71 -30t72.5 30t21.5 76v399h61q49 0 77 21t28 81h149z" />
    <glyph glyph-name="uni1EEB" unicode="&#x1eeb;" horiz-adv-x="697" 
d="M425 602l-195 68l52 114l181 -98zM804 666q0 -51 -12.5 -91t-34 -70t-50 -50t-60.5 -32v-423h-222v86q-24 -37 -66.5 -63.5t-106.5 -26.5q-49 0 -87 17t-64.5 48.5t-40.5 76t-14 99.5v327h221v-299q0 -41 21.5 -64t57.5 -23q37 0 58 23t21 64v299h125q49 0 77 21t28 81
h149z" />
    <glyph glyph-name="uni1EEC" unicode="&#x1eec;" horiz-adv-x="719" 
d="M349 900q-8 0 -15.5 -4.5t-10.5 -27.5l-90 10q3 22 8.5 42t18.5 35.5t35 24.5t58 9q59 0 84.5 -31t25.5 -75q0 -19 -7 -35.5t-19 -31.5t-27 -30l-32 -33l-58 49q31 29 39.5 48.5t8.5 32.5q0 11 -6.5 14t-12.5 3zM767 810q0 -76 -26 -127t-68 -82v-292q0 -78 -25 -137.5
t-68.5 -99t-102 -59.5t-124.5 -20t-122.5 20t-97.5 59.5t-64 99t-23 137.5v399h221v-399q0 -46 20 -76t71 -30t72.5 30t21.5 76v399h61q49 0 77 21t28 81h149z" />
    <glyph glyph-name="uni1EED" unicode="&#x1eed;" horiz-adv-x="697" 
d="M338 756q-8 0 -15.5 -4.5t-10.5 -27.5l-90 10q3 22 8.5 42t18.5 35.5t35 24.5t58 9q59 0 84.5 -31t25.5 -75q0 -19 -7 -35.5t-19 -31.5t-27 -30l-32 -33l-58 49q31 29 39.5 48.5t8.5 32.5q0 11 -6.5 14t-12.5 3zM804 666q0 -51 -12.5 -91t-34 -70t-50 -50t-60.5 -32v-423
h-222v86q-24 -37 -66.5 -63.5t-106.5 -26.5q-49 0 -87 17t-64.5 48.5t-40.5 76t-14 99.5v327h221v-299q0 -41 21.5 -64t57.5 -23q37 0 58 23t21 64v299h125q49 0 77 21t28 81h149z" />
    <glyph glyph-name="uni1EEE" unicode="&#x1eee;" horiz-adv-x="719" 
d="M297 795q-30 0 -37 -39h-89q14 80 48 112.5t85 32.5q20 0 36.5 -6t31 -13l27 -13t24.5 -6q30 0 36 39h90q-14 -80 -48 -112t-85 -32q-20 0 -36.5 6t-31 12.5l-27 12.5t-24.5 6zM767 810q0 -76 -26 -127t-68 -82v-292q0 -78 -25 -137.5t-68.5 -99t-102 -59.5t-124.5 -20
t-122.5 20t-97.5 59.5t-64 99t-23 137.5v399h221v-399q0 -46 20 -76t71 -30t72.5 30t21.5 76v399h61q49 0 77 21t28 81h149z" />
    <glyph glyph-name="uni1EEF" unicode="&#x1eef;" horiz-adv-x="697" 
d="M286 651q-30 0 -37 -39h-89q14 80 48 112.5t85 32.5q20 0 36.5 -6t31 -13l27 -13t24.5 -6q30 0 36 39h90q-14 -80 -48 -112t-85 -32q-20 0 -36.5 6t-31 12.5l-27 12.5t-24.5 6zM804 666q0 -51 -12.5 -91t-34 -70t-50 -50t-60.5 -32v-423h-222v86q-24 -37 -66.5 -63.5
t-106.5 -26.5q-49 0 -87 17t-64.5 48.5t-40.5 76t-14 99.5v327h221v-299q0 -41 21.5 -64t57.5 -23q37 0 58 23t21 64v299h125q49 0 77 21t28 81h149z" />
    <glyph glyph-name="uni1EF0" unicode="&#x1ef0;" horiz-adv-x="719" 
d="M767 810q0 -76 -26 -127t-68 -82v-292q0 -78 -25 -137.5t-68.5 -99t-102 -59.5t-124.5 -20t-122.5 20t-97.5 59.5t-64 99t-23 137.5v399h221v-399q0 -46 20 -76t71 -30t72.5 30t21.5 76v399h61q49 0 77 21t28 81h149zM359 -51q38 0 62.5 -24.5t24.5 -62.5
q0 -36 -24.5 -60.5t-62.5 -24.5q-36 0 -60.5 24.5t-24.5 60.5q0 38 24.5 62.5t60.5 24.5z" />
    <glyph glyph-name="uni1EF1" unicode="&#x1ef1;" horiz-adv-x="697" 
d="M804 666q0 -51 -12.5 -91t-34 -70t-50 -50t-60.5 -32v-423h-222v86q-24 -37 -66.5 -63.5t-106.5 -26.5q-49 0 -87 17t-64.5 48.5t-40.5 76t-14 99.5v327h221v-299q0 -41 21.5 -64t57.5 -23q37 0 58 23t21 64v299h125q49 0 77 21t28 81h149zM348 -51q38 0 62.5 -24.5
t24.5 -62.5q0 -36 -24.5 -60.5t-62.5 -24.5q-36 0 -60.5 24.5t-24.5 60.5q0 38 24.5 62.5t60.5 24.5z" />
    <glyph glyph-name="Ygrave" unicode="&#x1ef2;" horiz-adv-x="730" 
d="M441 746l-195 68l52 114l181 -98zM730 708l-254 -493v-215h-222v215l-254 493h254l113 -251l113 251h250z" />
    <glyph glyph-name="ygrave" unicode="&#x1ef3;" horiz-adv-x="677" 
d="M453 686l-38 -84l-195 68l52 114zM237 564l106 -286l99 286h245l-361 -834h-243l142 298l-235 536h247z" />
    <glyph glyph-name="uni1EF4" unicode="&#x1ef4;" horiz-adv-x="730" 
d="M730 708l-254 -493v-215h-222v215l-254 493h254l113 -251l113 251h250zM364 -51q38 0 62.5 -24.5t24.5 -62.5q0 -36 -24.5 -60.5t-62.5 -24.5q-36 0 -60.5 24.5t-24.5 60.5q0 38 24.5 62.5t60.5 24.5z" />
    <glyph glyph-name="uni1EF5" unicode="&#x1ef5;" horiz-adv-x="677" 
d="M237 564l106 -286l99 286h245l-361 -834h-243l142 298l-235 536h247zM480 -138q0 38 24.5 62.5t60.5 24.5q38 0 62.5 -24.5t24.5 -62.5q0 -36 -24.5 -60.5t-62.5 -24.5q-36 0 -60.5 24.5t-24.5 60.5z" />
    <glyph glyph-name="uni1EF6" unicode="&#x1ef6;" horiz-adv-x="730" 
d="M354 900q-8 0 -15.5 -4.5t-10.5 -27.5l-90 10q3 22 8.5 42t18.5 35.5t35 24.5t58 9q59 0 84.5 -31t25.5 -75q0 -19 -7 -35.5t-19 -31.5t-27 -30l-32 -33l-58 49q31 29 39.5 48.5t8.5 32.5q0 11 -6.5 14t-12.5 3zM730 708l-254 -493v-215h-222v215l-254 493h254l113 -251
l113 251h250z" />
    <glyph glyph-name="uni1EF7" unicode="&#x1ef7;" horiz-adv-x="677" 
d="M332 845q59 0 84.5 -31t25.5 -75q0 -19 -7 -35.5t-19 -31.5t-27 -30l-32 -33l-58 49q31 29 39.5 48.5t8.5 32.5q0 11 -6.5 14t-12.5 3q-8 0 -15.5 -4.5t-10.5 -27.5l-90 10q3 22 8.5 42t18.5 35.5t35 24.5t58 9zM237 564l106 -286l99 286h245l-361 -834h-243l142 298
l-235 536h247z" />
    <glyph glyph-name="uni1EF8" unicode="&#x1ef8;" horiz-adv-x="730" 
d="M302 795q-30 0 -37 -39h-89q14 80 48 112.5t85 32.5q20 0 36.5 -6t31 -13l27 -13t24.5 -6q30 0 36 39h90q-14 -80 -48 -112t-85 -32q-20 0 -36.5 6t-31 12.5l-27 12.5t-24.5 6zM730 708l-254 -493v-215h-222v215l-254 493h254l113 -251l113 251h250z" />
    <glyph glyph-name="uni1EF9" unicode="&#x1ef9;" horiz-adv-x="677" 
d="M283 757q20 0 36.5 -6t31 -13l27 -13t24.5 -6q30 0 36 39h90q-14 -80 -48 -112t-85 -32q-20 0 -36.5 6t-31 12.5l-27 12.5t-24.5 6q-30 0 -37 -39h-89q14 80 48 112.5t85 32.5zM237 564l106 -286l99 286h245l-361 -834h-243l142 298l-235 536h247z" />
    <glyph glyph-name="endash" unicode="&#x2013;" horiz-adv-x="683" 
d="M628 433v-183h-573v183h573z" />
    <glyph glyph-name="emdash" unicode="&#x2014;" horiz-adv-x="936" 
d="M881 433v-183h-826v183h826z" />
    <glyph glyph-name="quoteleft" unicode="&#x2018;" horiz-adv-x="281" 
d="M76 565q-14 35 -20 69t-6 66q0 36 10 68t30 56t51 38t74 14v-78q-26 0 -40.5 -18t-14.5 -57v-11h72v-147h-156z" />
    <glyph glyph-name="quoteright" unicode="&#x2019;" horiz-adv-x="281" 
d="M206 876q14 -35 19.5 -68.5t5.5 -65.5q0 -36 -9.5 -68.5t-30 -56.5t-51.5 -38t-73 -14v79q26 0 40.5 18t14.5 56v12h-72v146h156z" />
    <glyph glyph-name="quotesinglbase" unicode="&#x201a;" horiz-adv-x="276" 
d="M196 131q17 -28 28 -64.5t13 -74.5t-6.5 -74t-29.5 -64.5t-56.5 -46t-87.5 -17.5v78q26 0 40.5 10.5t14.5 49.5v11h-87v192h171z" />
    <glyph glyph-name="quotedblleft" unicode="&#x201c;" horiz-adv-x="506" 
d="M76 565q-14 35 -20 69t-6 66q0 36 10 68t30 56t51 38t74 14v-78q-26 0 -40.5 -18t-14.5 -57v-11h72v-147h-156zM300 565q-14 35 -19.5 69t-5.5 66q0 36 9.5 68t30 56t51.5 38t73 14v-78q-26 0 -40.5 -18t-14.5 -57v-11h72v-147h-156z" />
    <glyph glyph-name="quotedblright" unicode="&#x201d;" horiz-adv-x="506" 
d="M206 876q14 -35 19.5 -68.5t5.5 -65.5q0 -36 -9.5 -68.5t-30 -56.5t-51.5 -38t-73 -14v79q26 0 40.5 18t14.5 56v12h-72v146h156zM430 876q14 -35 20 -68.5t6 -65.5q0 -36 -9.5 -68.5t-30 -56.5t-51.5 -38t-74 -14v79q55 0 55 74v12h-72v146h156z" />
    <glyph glyph-name="quotedblbase" unicode="&#x201e;" horiz-adv-x="506" 
d="M206 146q14 -35 19.5 -68.5t5.5 -65.5q0 -36 -9.5 -68.5t-30 -56.5t-51.5 -38t-73 -14v79q26 0 40.5 18t14.5 56v12h-72v146h156zM430 146q14 -35 20 -68.5t6 -65.5q0 -36 -9.5 -68.5t-30 -56.5t-51.5 -38t-74 -14v79q55 0 55 74v12h-72v146h156z" />
    <glyph glyph-name="dagger" unicode="&#x2020;" horiz-adv-x="717" 
d="M666 398l-219 15l22 -683h-222l21 683l-217 -15v166l217 -15l-21 245h222l-22 -245l219 15v-166z" />
    <glyph glyph-name="daggerdbl" unicode="&#x2021;" horiz-adv-x="716" 
d="M447 413v-302l219 16v-167l-219 15l21 -245h-222l22 245l-218 -15v167l218 -16v302l-218 -15v166l218 -15l-22 245h222l-21 -245l219 15v-166z" />
    <glyph glyph-name="bullet" unicode="&#x2022;" horiz-adv-x="536" 
d="M100 333q0 36 13 66.5t35.5 53.5t53.5 36t66 13q36 0 66.5 -13t53 -36t35.5 -53.5t13 -66.5q0 -35 -13 -65.5t-35.5 -53t-53 -35.5t-66.5 -13q-35 0 -66 13t-53.5 35.5t-35.5 53t-13 65.5z" />
    <glyph glyph-name="ellipsis" unicode="&#x2026;" horiz-adv-x="827" 
d="M248 212v-212h-220v212h220zM523 212v-212h-220v212h220zM798 212v-212h-220v212h220z" />
    <glyph glyph-name="perthousand" unicode="&#x2030;" horiz-adv-x="1284" 
d="M201 721q38 0 71 -11t57 -33.5t37.5 -56.5t13.5 -80q0 -45 -13.5 -79t-37.5 -56.5t-57 -33.5t-71 -11q-39 0 -72 11t-57 33.5t-38 56.5t-14 79q0 46 14 80t38 56.5t57 33.5t72 11zM741 711l-373 -711h-212l373 711h212zM165 540q0 -51 34 -51q37 0 37 51q0 52 -37 52
q-34 0 -34 -52zM697 352q39 0 71.5 -11t56.5 -33.5t37.5 -56.5t13.5 -80t-13.5 -80t-37.5 -56.5t-56.5 -33.5t-71.5 -11q-38 0 -71 11t-57 33.5t-38 56.5t-14 80t14 80t38 56.5t57 33.5t71 11zM1085 352q38 0 71 -11t57 -33.5t37.5 -56.5t13.5 -80t-13.5 -80t-37.5 -56.5
t-57 -33.5t-71 -11q-39 0 -72 11t-57 33.5t-38 56.5t-14 80t14 80t38 56.5t57 33.5t72 11zM661 171q0 -52 35 -52q17 0 26.5 13t9.5 39t-9.5 39t-26.5 13q-35 0 -35 -52zM1049 171q0 -52 34 -52q37 0 37 52t-37 52q-34 0 -34 -52z" />
    <glyph glyph-name="guilsinglleft" unicode="&#x2039;" horiz-adv-x="373" 
d="M122 120l-77 175l77 175h201l-79 -175l79 -175h-201z" />
    <glyph glyph-name="guilsinglright" unicode="&#x203a;" horiz-adv-x="373" 
d="M130 295l-80 175h202l76 -175l-76 -175h-202z" />
    <glyph glyph-name="fraction" unicode="&#x2044;" horiz-adv-x="555" 
d="M558 711l-373 -711h-212l373 711h212z" />
    <glyph glyph-name="uni20A8" unicode="&#x20a8;" horiz-adv-x="1229" 
d="M649 476q0 -70 -38.5 -125t-114.5 -80l154 -271h-244l-134 254v-254h-222v708h330q67 0 117.5 -18t84 -49.5t50.5 -73.5t17 -91zM870 385q0 -15 25 -22.5t62.5 -14.5l81.5 -16t81.5 -27.5t62.5 -49.5t25 -82q0 -37 -15.5 -70t-45.5 -57.5t-74 -38.5t-101 -14
q-125 0 -200 51.5t-92 150.5h217q3 -23 25 -31t47 -8q23 0 31 6t8 16q0 17 -24.5 24.5t-62 14t-80.5 15t-80.5 27t-62 50t-24.5 84.5q0 36 15.5 68.5t46 56.5t76 38.5t105.5 14.5q65 0 114 -15.5t84.5 -42.5t56.5 -64t30 -80h-217q-6 22 -26.5 30t-44.5 8q-20 0 -32 -5
t-12 -17zM272 402h88q32 0 48 14t16 46q0 27 -16 43.5t-48 16.5h-88v-120z" />
    <glyph glyph-name="Euro" unicode="&#x20ac;" horiz-adv-x="790" 
d="M413 200q38 0 67.5 19.5t45.5 54.5h234q-11 -63 -39.5 -114t-72.5 -88t-102.5 -57t-128.5 -20q-66 0 -121.5 18t-98 50.5t-72 78.5t-44.5 102h-66v99h52v12v16h-52v100h67q15 56 44.5 101t72.5 76.5t97.5 49t120.5 17.5q70 0 128.5 -20t102.5 -57t72.5 -88t39.5 -114
h-234q-16 35 -45.5 54.5t-67.5 19.5q-53 0 -86 -39h124v-100h-159v-16v-12h159v-99h-128q33 -44 90 -44z" />
    <glyph glyph-name="uni20B9" unicode="&#x20b9;" horiz-adv-x="577" 
d="M489 563v-33h58v-124h-63q-7 -37 -25.5 -70.5t-49 -58.5t-73 -39.5t-99.5 -14.5v-19q0 -22 7 -35.5t27 -13.5t26.5 13t6.5 43h205q-3 -48 -18 -89t-43 -70t-69.5 -45.5t-97.5 -16.5q-59 0 -105.5 14t-79 44.5t-49.5 78.5t-17 115v123q66 0 110 1t72.5 5t43 12.5
t20.5 22.5h-246v124h252v33h-252v145h517v-145h-58z" />
    <glyph glyph-name="uni20BA" unicode="&#x20ba;" horiz-adv-x="819" 
d="M809 481q0 -129 -20.5 -220.5t-67 -150t-120.5 -85.5t-182 -27q-69 0 -144.5 9t-160.5 24v218l-104 -14v129l104 15v33l-104 -15v125l104 16v174h225v-140l108 16v-129l-108 -15v-34l112 16v-130l-112 -15v-68q21 -5 40 -6t38 -1q63 0 97 24.5t49.5 63.5t18 88.5
t2.5 98.5h225z" />
    <glyph glyph-name="uni20BD" unicode="&#x20bd;" horiz-adv-x="709" 
d="M332 264v-41h114v-165h-114v-58h-222v58h-100v165h100v41h-100v168h100v276h310q67 0 117.5 -16.5t84 -46t50.5 -70.5t17 -89t-17 -89t-50.5 -70.5t-84 -46t-117.5 -16.5h-88zM332 432h74q29 0 43.5 15t14.5 40q0 21 -14.5 38t-43.5 17h-74v-110z" />
    <glyph glyph-name="uni2113" unicode="&#x2113;" horiz-adv-x="322" 
d="M272 740v-740h-222v740h222z" />
    <glyph glyph-name="trademark" unicode="&#x2122;" horiz-adv-x="947" 
d="M30 708h326v-127h-86v-223h-154v223h-86v127zM917 708v-350h-141l-3 167l-68 -167h-103l-67 180v-180h-134v350h211l50 -156l63 156h192z" />
    <glyph glyph-name="uni2126" unicode="&#x2126;" horiz-adv-x="791" 
d="M759 387q0 -65 -16.5 -120t-64.5 -100h81v-167h-267v172q19 47 30 88t11 95q0 79 -35 119.5t-102 40.5q-66 0 -102 -40t-36 -120q0 -54 11.5 -95t30.5 -88v-172h-267v167h81q-48 45 -64.5 100t-16.5 120q0 81 28 143t77 104t115.5 64t142.5 22t142 -22t115 -64t77.5 -104
t28.5 -143z" />
    <glyph glyph-name="estimated" unicode="&#x212e;" horiz-adv-x="740" 
d="M379 -7q-75 0 -139.5 23t-111.5 67.5t-73.5 109t-26.5 147.5q0 81 22.5 150.5t66 120.5t107.5 80.5t146 29.5q83 0 146.5 -28t107.5 -74t66.5 -106t22.5 -125v-64h-460v-184q31 -11 63 -17t63 -6q70 0 128 25.5t106 73.5l70 -83q-64 -69 -138.5 -104.5t-165.5 -35.5z
M490 586q-26 10 -56.5 13.5t-63.5 3.5q-38 0 -65.5 -6.5t-51.5 -14.5v-155h237v159z" />
    <glyph glyph-name="partialdiff" unicode="&#x2202;" horiz-adv-x="642" 
d="M303 561q28 0 55.5 -7t48.5 -27q-17 44 -51 67t-104 23q-24 0 -53 -3v107q72 19 134 19q69 0 121.5 -23.5t87.5 -68t52.5 -107t17.5 -140.5q0 -96 -21 -171.5t-62 -128t-101 -80t-137 -27.5q-52 0 -99.5 16.5t-83.5 50t-57 85t-21 120.5q0 71 21.5 126t59 92.5t87 57
t105.5 19.5zM326 377q-39 0 -55 -30.5t-16 -79.5q0 -45 17 -63t39 -18q37 0 52 33t15 92q0 35 -16 50.5t-36 15.5z" />
    <glyph glyph-name="uni2206" unicode="&#x2206;" horiz-adv-x="770" 
d="M475 711l275 -543v-168h-730v168l276 543h179zM249 168h272l-135 292z" />
    <glyph glyph-name="product" unicode="&#x220f;" horiz-adv-x="753" 
d="M743 711v-166h-65v-545h-222v545h-159v-545h-222v545h-65v166h733z" />
    <glyph glyph-name="summation" unicode="&#x2211;" horiz-adv-x="586" 
d="M546 544h-271l198 -109v-167l-219 -145h292v-168h-506v259l218 132l-218 107v258h506v-167z" />
    <glyph glyph-name="minus" unicode="&#x2212;" horiz-adv-x="506" 
d="M486 433v-183h-466v183h466z" />
    <glyph glyph-name="radical" unicode="&#x221a;" horiz-adv-x="1020" 
d="M993 927l-550 -967h-105l-165 295l-93 -54l-61 100l290 171l148 -266l412 721h124z" />
    <glyph glyph-name="infinity" unicode="&#x221e;" horiz-adv-x="844" 
d="M613 535q96 -1 147.5 -49t51.5 -138q0 -44 -15.5 -79t-42 -59t-61.5 -37t-75 -13q-72 0 -121 24t-86 58q-32 -38 -77.5 -60.5t-102.5 -21.5q-94 1 -146 49.5t-52 137.5q0 45 15.5 80t41.5 59t61.5 36.5t74.5 12.5q76 0 123 -26.5t79 -62.5q32 41 79 65.5t106 23.5z
M247 303q20 0 41 8t39 27q-20 24 -39 39.5t-41 15.5q-19 0 -31 -11.5t-12 -34.5q0 -22 12 -33t31 -11zM597 303q19 0 31.5 11.5t12.5 33.5q0 23 -12.5 34t-31.5 11q-23 0 -47 -11t-42 -35q18 -20 39 -32t50 -12z" />
    <glyph glyph-name="integral" unicode="&#x222b;" horiz-adv-x="312" 
d="M85 746q6 64 30 105t60 65t81.5 33t94.5 9h13l-18 -190h-18q-10 0 -15 -6.5t-7 -15.5l-84 -844q-6 -64 -30 -105t-60 -65t-81 -33t-95 -9h-13l18 190h17q11 0 16 6.5t7 15.5z" />
    <glyph glyph-name="approxequal" unicode="&#x2248;" horiz-adv-x="711" 
d="M255 609q36 0 65.5 -10.5t54.5 -23l47 -23t44 -10.5q27 0 40.5 15.5t18.5 53.5h166q-11 -70 -33 -120.5t-52.5 -82t-68.5 -46.5t-82 -15q-36 0 -65 10.5t-54 23l-47.5 23t-44.5 10.5q-27 0 -40.5 -16t-19.5 -53h-164q11 71 33 121t52.5 81.5t68.5 46.5t81 15zM255 334
q36 0 65.5 -10.5t54.5 -23l47 -23t44 -10.5q27 0 40.5 15.5t18.5 53.5h166q-11 -70 -33 -120.5t-52.5 -82t-68.5 -46.5t-82 -15q-36 0 -65 10.5t-54 23l-47.5 23t-44.5 10.5q-27 0 -40.5 -16t-19.5 -53h-164q11 71 33 121t52.5 81.5t68.5 46.5t81 15z" />
    <glyph glyph-name="notequal" unicode="&#x2260;" horiz-adv-x="626" 
d="M536 580h70v-201h-211l-56 -79h267v-201h-408l-70 -100h-107l70 100h-71v201h213l55 79h-268v201h410l70 100h106z" />
    <glyph glyph-name="lessequal" unicode="&#x2264;" horiz-adv-x="492" 
d="M293 375l179 -180h-272l-180 180l180 181h272zM48 111h424v-171h-424v171z" />
    <glyph glyph-name="greaterequal" unicode="&#x2265;" horiz-adv-x="492" 
d="M20 195l179 180l-179 181h272l180 -181l-180 -180h-272zM20 111h424v-171h-424v171z" />
    <glyph glyph-name="lozenge" unicode="&#x25ca;" horiz-adv-x="572" 
d="M562 355l-275 -276l-277 276l277 275zM218 355l69 -69l68 69l-68 68z" />
    <glyph glyph-name="fi" unicode="&#xfb01;" horiz-adv-x="712" 
d="M361 604q-32 4 -47.5 -5t-19.5 -35h343v-564h-222v379h-123v-379h-222v379h-60v185h60q2 121 78 181t213 48v-189zM527 589q-60 0 -94 29t-34 76q0 46 34 75.5t94 29.5q59 0 93 -29.5t34 -75.5q0 -47 -34 -76t-93 -29z" />
    <glyph glyph-name="fl" unicode="&#xfb02;" horiz-adv-x="707" 
d="M70 564q2 121 81.5 181.5t223.5 47.5v-189q-38 5 -57 -4t-24 -36h81v-185h-83v-379h-222v379h-60v185h60zM657 740v-740h-222v740h222z" />
    <glyph glyph-name="uni03020300" horiz-adv-x="0" 
d="M-11 840l-34 -77l-178 62l48 104zM-172 674l-96 -40l-29 81l125 64l124 -64l-31 -81z" />
    <glyph glyph-name="uni03020301" horiz-adv-x="0" 
d="M-26 847l-190 -63l-29 70l182 89zM-154 672l-96 -40l-29 81l125 64l124 -64l-31 -81z" />
    <glyph glyph-name="uni03020303" horiz-adv-x="0" 
d="M-199 896q15 0 27.5 -4.5t23 -10t20 -10t18.5 -4.5q22 0 27 29h68q-10 -60 -36 -84t-64 -24q-15 0 -27.5 4.5t-23 9.5l-20 9.5t-18.5 4.5q-22 0 -28 -29h-67q11 60 36.5 84.5t63.5 24.5zM-172 676l-96 -40l-29 81l125 64l124 -64l-31 -81z" />
    <glyph glyph-name="uni03020309" horiz-adv-x="0" 
d="M-28 938q54 0 77 -28.5t23 -68.5q0 -18 -6.5 -32.5t-17.5 -28t-25 -27.5l-29 -30l-52 45q28 26 35.5 44t7.5 29t-6 13.5t-11 2.5q-8 0 -14.5 -4.5t-9.5 -24.5l-81 9q2 20 7 38t17 32t32 22.5t53 8.5zM-162 671l-96 -40l-29 81l125 64l124 -64l-31 -81z" />
    <glyph glyph-name="uni03060300" horiz-adv-x="0" 
d="M-88 879l-34 -77l-178 62l48 104zM-200 618q-59 0 -100 38t-41 115v13h77q0 -22 13.5 -34t50.5 -12t50.5 12t13.5 34h77v-13q0 -77 -41 -115t-100 -38z" />
    <glyph glyph-name="uni03060301" horiz-adv-x="0" 
d="M-28 884l-190 -63l-29 70l182 89zM-191 619q-59 0 -100 38t-41 115v13h77q0 -22 13.5 -34t50.5 -12t50.5 12t13.5 34h77v-13q0 -77 -41 -115t-100 -38z" />
    <glyph glyph-name="uni03060303" horiz-adv-x="0" 
d="M-228 945q18 0 33 -5.5t28 -11.5l24.5 -11.5t22.5 -5.5q29 0 33 35h82q-12 -72 -43 -101.5t-78 -29.5q-18 0 -33 5.5t-28 11.5l-24.5 11.5t-22.5 5.5q-27 0 -34 -36h-81q13 73 43.5 102.5t77.5 29.5zM-195 619q-59 0 -100 38t-41 115v13h77q0 -22 13.5 -34t50.5 -12
t50.5 12t13.5 34h77v-13q0 -77 -41 -115t-100 -38z" />
    <glyph glyph-name="uni03060309" horiz-adv-x="0" 
d="M-212 992q54 0 77 -28.5t23 -68.5q0 -18 -6.5 -32.5t-17.5 -28t-25 -27.5l-29 -30l-52 45q28 26 35.5 44t7.5 29t-6 13.5t-11 2.5q-8 0 -14.5 -4.5t-9.5 -24.5l-81 9q2 20 7 38t17 32t32 22.5t53 8.5zM-199 616q-59 0 -100 38t-41 115v13h77q0 -22 13.5 -34t50.5 -12
t50.5 12t13.5 34h77v-13q0 -77 -41 -115t-100 -38z" />
  </font>
</defs>
</svg>
