<?xml version="1.0" standalone="no"?>
<!DOCTYPE svg PUBLIC "-//W3C//DTD SVG 1.1//EN" "http://www.w3.org/Graphics/SVG/1.1/DTD/svg11.dtd" >
<svg>
<metadata>
Created by FontForge 20090622 at Sun Nov 10 08:22:25 2019
 By deploy user
</metadata>
<defs>
<font id="PoppinsVN-400" horiz-adv-x="674" >
  <font-face 
    font-family="PoppinsVN 400"
    font-weight="400"
    font-stretch="normal"
    units-per-em="1000"
    panose-1="0 0 5 0 0 0 0 0 0 0"
    ascent="740"
    descent="-260"
    x-height="549"
    cap-height="705"
    bbox="-323 -269 1101 1071"
    underline-thickness="50"
    underline-position="-50"
    unicode-range="U+000D-U+FB02"
  />
<missing-glyph horiz-adv-x="500" 
d="M410 -260h-317v1000h317v-1000zM168 673v-33h65v-37h-66v-33h166v33h-66v37h66v33h-165zM167 544v-104h166v34h-66v70h-100zM233 474h-33v36h33v-36zM167 413v-33h66v-37h-66v-33h100v70h66v33h-166zM300 353v-66h-133v-34h166v100h-33zM233 231v-56h34v23h33v-47h-100
v80h-33v-113h166v113h-100zM167 58v-113h166v113h-166zM300 -22h-100v47h100v-47zM167 -78v-33h70l-70 -47v-33h166v33h-102l70 47h32v33h-166z" />
    <glyph glyph-name=".notdef" horiz-adv-x="500" 
d="M410 -260h-317v1000h317v-1000zM168 673v-33h65v-37h-66v-33h166v33h-66v37h66v33h-165zM167 544v-104h166v34h-66v70h-100zM233 474h-33v36h33v-36zM167 413v-33h66v-37h-66v-33h100v70h66v33h-166zM300 353v-66h-133v-34h166v100h-33zM233 231v-56h34v23h33v-47h-100
v80h-33v-113h166v113h-100zM167 58v-113h166v113h-166zM300 -22h-100v47h100v-47zM167 -78v-33h70l-70 -47v-33h166v33h-102l70 47h32v33h-166z" />
    <glyph glyph-name=".null" horiz-adv-x="0" 
 />
    <glyph glyph-name=".null" horiz-adv-x="0" 
 />
    <glyph glyph-name="nonmarkingreturn" unicode="&#xd;" horiz-adv-x="250" 
 />
    <glyph glyph-name="space" unicode=" " horiz-adv-x="247" 
 />
    <glyph glyph-name="exclam" unicode="!" horiz-adv-x="299" 
d="M203 722l-13 -515h-75l-13 515h101zM209 107v-107h-111v107h111z" />
    <glyph glyph-name="quotedbl" unicode="&#x22;" horiz-adv-x="300" 
d="M124 797l-9 -199h-63l-10 199h82zM259 797l-10 -199h-62l-11 199h83z" />
    <glyph glyph-name="numbersign" unicode="#" horiz-adv-x="810" 
d="M620 449l-35 -162h140v-83h-157l-44 -204h-86l44 204h-211l-44 -204h-86l44 204h-156v83h173l35 162h-151v84h169l44 207h86l-44 -207h211l44 207h86l-44 -207h143v-84h-161zM534 449h-211l-35 -162h211z" />
    <glyph glyph-name="dollar" unicode="$" horiz-adv-x="582" 
d="M305 395q40 -12 80.5 -26t73.5 -37t53.5 -58t20.5 -91q0 -36 -13 -70t-41 -60.5t-70 -43t-101 -16.5h-3v-80h-31v82q-48 4 -87 20.5t-68 42t-46.5 59.5t-20.5 73h97q2 -19 10.5 -39t23.5 -37t38 -30t53 -18v256q-40 12 -80 25.5t-72 35.5t-52.5 57t-20.5 89q0 41 16 75
t45.5 58.5t71 38t92.5 13.5v86h31v-87q49 -4 86.5 -19.5t64 -39.5t42.5 -54.5t20 -64.5h-98q-6 34 -34 66t-81 40v-246zM147 533q0 -28 10 -48t27.5 -35t40.5 -25.5t49 -19.5v238q-57 0 -92 -28t-35 -82zM306 64q65 0 97.5 34t32.5 83q0 29 -10.5 50t-28 36t-41.5 25.5
t-51 19.5v-248h1z" />
    <glyph glyph-name="percent" unicode="%" horiz-adv-x="659" 
d="M179 715q31 0 58 -10.5t46.5 -29.5t30.5 -46.5t11 -61.5t-11 -61.5t-30.5 -46.5t-46.5 -29t-58 -10q-63 0 -104.5 39t-41.5 108t41.5 108.5t104.5 39.5zM577 706l-405 -706h-90l405 706h90zM97 567q0 -40 22.5 -65t58.5 -25q37 0 60 25t23 65q0 41 -23 65.5t-60 24.5
q-36 0 -58.5 -24.5t-22.5 -65.5zM481 286q63 0 104 -39t41 -108t-41 -108.5t-104 -39.5q-31 0 -58 10.5t-46.5 29.5t-30.5 46.5t-11 61.5t11 61.5t30.5 46.5t46.5 29t58 10zM399 139q0 -41 22.5 -65.5t59.5 -24.5q36 0 58.5 24.5t22.5 65.5q0 40 -22.5 65t-58.5 25
q-37 0 -59.5 -25t-22.5 -65z" />
    <glyph glyph-name="ampersand" unicode="&#x26;" horiz-adv-x="682" 
d="M582 0l-154 170q0 -16 -6 -40q-11 -60 -58.5 -98.5t-116.5 -38.5q-46 0 -85 15t-67.5 42.5t-44 66.5t-15.5 86q0 48 14.5 85.5t39.5 63t57.5 38.5t69.5 13q6 0 11.5 -0.5t10.5 -1.5l-7.5 9.5l-7.5 9.5q-23 29 -40 60t-17 76q0 30 11.5 58t34 49.5t56 35t78.5 13.5
q47 0 80 -13t55 -34t34 -48t16 -56q8 -32 5 -60h-86q1 8 0.5 15.5t-0.5 14.5q-1 50 -28 77.5t-75 27.5q-47 0 -71 -27t-24 -62t14 -57.5t35 -47.5l374 -442h-93zM247 71q56 0 91 35t35 90q0 30 -12 55t-31.5 43t-44.5 28t-51 10q-51 0 -85 -32t-34 -95q0 -32 10.5 -57
t28.5 -42t42 -26t51 -9z" />
    <glyph glyph-name="quotesingle" unicode="'" horiz-adv-x="171" 
d="M129 797l-12 -199h-63l-12 199h87z" />
    <glyph glyph-name="parenleft" unicode="(" horiz-adv-x="383" 
d="M44 403q0 101 20.5 189t56 162t83.5 133t104 102h89v-9q-137 -111 -201 -256t-64 -321q0 -177 64 -322t201 -256v-9h-89q-56 43 -104 102.5t-83.5 133t-56 161.5t-20.5 190z" />
    <glyph glyph-name="parenright" unicode=")" horiz-adv-x="384" 
d="M340 403q0 -101 -20.5 -189t-56 -162t-83.5 -133.5t-104 -102.5h-89v9q136 111 200 256t64 322q0 176 -64 321t-200 256v9h89q56 -43 104 -102t83.5 -133t56 -162t20.5 -189z" />
    <glyph glyph-name="asterisk" unicode="*" horiz-adv-x="476" 
d="M384 673l40 -72l-143 -54l143 -54l-41 -72l-119 91l20 -152h-82l17 152l-121 -94l-42 75l142 54l-142 54l42 73l121 -92l-18 152h83l-20 -152z" />
    <glyph glyph-name="plus" unicode="+" horiz-adv-x="576" 
d="M543 324h-211v-213h-89v213h-210v83h210v214h89v-214h211v-83z" />
    <glyph glyph-name="comma" unicode="," horiz-adv-x="175" 
d="M126 67q12 -37 14 -72.5t-8.5 -63t-34 -44.5t-61.5 -17v39q48 0 48 56v9h-51v93h93z" />
    <glyph glyph-name="hyphen" unicode="-" horiz-adv-x="491" 
d="M385 405v-77h-400v77h400z" />
    <glyph glyph-name="period" unicode="." horiz-adv-x="171" 
d="M140 107v-107h-110v107h110z" />
    <glyph glyph-name="slash" unicode="/" horiz-adv-x="373" 
d="M369 942l-274 -1113h-88l273 1113h89z" />
    <glyph glyph-name="zero" unicode="0" horiz-adv-x="614" 
d="M57 357q0 77 11.5 142.5t40 113.5t77 75t121.5 27q74 0 122 -27t77 -75t40.5 -113.5t11.5 -142.5t-11.5 -143t-40.5 -114t-77 -75.5t-122 -27.5q-73 0 -121.5 27.5t-77 75.5t-40 114t-11.5 143zM468 357q0 57 -5.5 106.5t-23 86t-49 57.5t-83.5 21q-51 0 -82.5 -21
t-49 -57.5t-23 -86t-5.5 -106.5q0 -58 5.5 -108t23 -87t49 -58t82.5 -21q52 0 83.5 21t49 58t23 87t5.5 108z" />
    <glyph glyph-name="one" unicode="1" horiz-adv-x="287" 
d="M13 620v85h202v-705h-96v620h-106z" />
    <glyph glyph-name="two" unicode="2" horiz-adv-x="567" 
d="M42 70q78 53 146.5 108t119 111t79.5 111t29 106q0 27 -6.5 51.5t-21.5 42.5t-40 28.5t-61 10.5q-72 0 -107 -46t-39 -121h-90q4 60 23.5 106t51.5 77t74.5 46.5t93.5 15.5q97 0 156 -52t59 -151q0 -64 -32 -127.5t-82 -120.5t-110 -105.5t-116 -81.5h358v-75h-485v66z
" />
    <glyph glyph-name="three" unicode="3" horiz-adv-x="589" 
d="M299 724q53 0 93.5 -14.5t67.5 -39t41 -58.5t14 -73q0 -63 -37 -109.5t-114 -55.5v-6q35 -9 65 -23t52 -35.5t34.5 -51t12.5 -68.5q0 -42 -14 -78t-42 -62.5t-70 -41.5t-99 -15q-108 0 -176 55t-80 167h90q8 -63 48.5 -103.5t114.5 -40.5q70 0 104.5 35.5t34.5 88.5
q0 67 -51.5 101t-146.5 34h-24v76h24q91 0 137.5 30t46.5 93q0 54 -33.5 86t-94.5 32q-56 0 -98.5 -32.5t-50.5 -103.5h-89q7 100 69 156.5t171 56.5z" />
    <glyph glyph-name="four" unicode="4" horiz-adv-x="620" 
d="M31 162v76l362 472h98v-469h104v-79h-104v-162h-92v162h-368zM405 599l-278 -358h278v358z" />
    <glyph glyph-name="five" unicode="5" horiz-adv-x="616" 
d="M532 633h-362v-236q25 33 71.5 53.5t103.5 20.5q59 0 101 -19t68.5 -51t39 -73t12.5 -86q0 -51 -14.5 -96t-44 -78.5t-74.5 -53t-107 -19.5q-54 0 -97.5 15t-76 43t-51.5 67t-23 87h90q11 -63 51 -97t103 -34q40 0 69.5 12.5t48.5 35t28 53t9 66.5q0 72 -39 113.5
t-114 41.5q-54 0 -92 -22.5t-58 -60.5h-88v399h446v-81z" />
    <glyph glyph-name="six" unicode="6" horiz-adv-x="621" 
d="M455 517q-8 62 -41.5 97t-96.5 35q-88 0 -132.5 -72.5t-38.5 -239.5q8 30 26 54.5t43.5 41.5t58 26t68.5 9q106 0 165 -62.5t59 -176.5q0 -48 -14 -90.5t-43 -75t-74 -51.5t-107 -19q-82 0 -134 29t-80.5 77.5t-39 112.5t-10.5 134q0 90 13.5 160.5t44.5 118.5t80 73
t120 25q53 0 92 -16t66 -44t42.5 -65.5t19.5 -80.5h-87zM156 244q0 -33 9.5 -64t30 -55t53 -38.5t77.5 -14.5q69 0 111.5 41t42.5 117q0 83 -43 124.5t-115 41.5q-30 0 -59.5 -9t-53.5 -28t-38.5 -47.5t-14.5 -67.5z" />
    <glyph glyph-name="seven" unicode="7" horiz-adv-x="506" 
d="M476 639l-267 -639h-96l271 630h-370v79h462v-70z" />
    <glyph glyph-name="eight" unicode="8" horiz-adv-x="625" 
d="M71 539q0 39 15.5 73t46 59.5t76 40.5t104.5 15t104 -15t75.5 -40.5t46 -59.5t15.5 -73q0 -57 -31 -100.5t-98 -62.5q70 -19 109 -65.5t39 -116.5q0 -51 -19 -91t-53.5 -67t-82 -41.5t-105.5 -14.5t-106 14.5t-82 41.5t-53 67t-19 91q0 70 38.5 116.5t108.5 65.5
q-67 19 -98 62.5t-31 100.5zM161 526q0 -61 41.5 -93t110.5 -32t110 32t41 93q0 62 -42 93.5t-109 31.5q-68 0 -110 -31.5t-42 -93.5zM142 199q0 -69 46.5 -106t124.5 -37t124 37t46 106q0 36 -13.5 62t-37 43t-54 25t-65.5 8t-66 -8t-54.5 -25t-37 -43t-13.5 -62z" />
    <glyph glyph-name="nine" unicode="9" horiz-adv-x="608" 
d="M160 198q9 -62 43 -96.5t97 -34.5q88 0 132 73t37 239q-7 -30 -25 -54.5t-43.5 -42t-58 -26.5t-68.5 -9q-106 0 -165.5 62.5t-59.5 176.5q0 48 14 91t43.5 75.5t74.5 51.5t106 19q83 0 134.5 -28t80.5 -76t39.5 -111.5t10.5 -134.5q0 -88 -13 -158.5t-42.5 -120
t-77.5 -76t-119 -26.5q-53 0 -93 16t-68 44t-44 65.5t-21 80.5h86zM460 472q0 33 -9.5 64t-30 55t-53 38.5t-77.5 14.5q-69 0 -111.5 -41.5t-42.5 -117.5q0 -82 42.5 -124t114.5 -42q30 0 60 9.5t54 28t38.5 47.5t14.5 68z" />
    <glyph glyph-name="colon" unicode=":" horiz-adv-x="191" 
d="M152 539v-107h-110v107h110zM152 107v-107h-110v107h110z" />
    <glyph glyph-name="semicolon" unicode=";" horiz-adv-x="244" 
d="M189 536v-107h-110v107h110zM174 67q12 -37 14 -72.5t-8.5 -63t-34 -44.5t-61.5 -17v39q48 0 48 56v9h-51v93h93z" />
    <glyph glyph-name="less" unicode="&#x3c;" horiz-adv-x="422" 
d="M275 137l-242 229l242 230h114l-242 -230l242 -229h-114z" />
    <glyph glyph-name="equal" unicode="=" horiz-adv-x="586" 
d="M553 514v-83h-520v83h520zM553 301v-83h-520v83h520z" />
    <glyph glyph-name="greater" unicode="&#x3e;" horiz-adv-x="422" 
d="M33 596h114l242 -230l-242 -229h-114l242 229z" />
    <glyph glyph-name="question" unicode="?" horiz-adv-x="502" 
d="M254 733q48 0 87.5 -13.5t68 -39.5t44 -63.5t15.5 -85.5q0 -55 -18 -95t-50 -66t-77.5 -38.5t-99.5 -13.5v-118h-86v180h40q39 0 75 5.5t64 22t45 46t17 77.5q0 60 -34.5 93.5t-93.5 33.5q-63 0 -100 -35t-37 -92h-88q0 45 16 82.5t46 64t72 41t94 14.5zM237 107v-107
h-110v107h110z" />
    <glyph glyph-name="at" unicode="@" horiz-adv-x="1141" 
d="M621 789q116 0 205 -32t150.5 -91.5t93 -143t31.5 -185.5q0 -75 -20 -138.5t-54 -110t-79 -72.5t-95 -26q-28 0 -52 6.5t-41.5 22.5t-26 41.5t-6.5 63.5q-34 -62 -86.5 -98t-128.5 -36q-49 0 -90 19t-69 53t-42.5 82t-11.5 106q3 67 26.5 123.5t63.5 97.5t92.5 64
t113.5 23q63 0 110 -21t76.5 -58t41 -87t2.5 -107l-22 -133q-8 -48 8.5 -65t47.5 -17q29 0 56 17.5t47.5 51.5t33 83t12.5 112q0 84 -25.5 154t-76 120t-125 77.5t-172.5 27.5q-113 0 -201 -37.5t-148 -102.5t-91 -153t-31 -189q0 -102 29.5 -178.5t85 -127.5t135.5 -77.5
t182 -27.5l-17 -75q-118 2 -212 34t-159 93t-99.5 151t-34.5 208q0 119 41.5 221t116.5 177t180.5 117.5t234.5 42.5zM540 70q39 0 74.5 16t62.5 46t43.5 73t17.5 98q3 79 -37 126.5t-120 47.5q-41 0 -76 -16t-61 -45.5t-41 -71.5t-16 -93q-1 -40 9.5 -73.5t30.5 -57.5
t48.5 -37t64.5 -13z" />
    <glyph glyph-name="A" unicode="A" horiz-adv-x="662" 
d="M486 163h-310l-59 -163h-98l261 692h103l260 -692h-98zM460 234l-129 356l-129 -356h258z" />
    <glyph glyph-name="B" unicode="B" horiz-adv-x="604" 
d="M417 365q66 -14 106 -61.5t40 -113.5q0 -42 -14 -76.5t-42.5 -60t-71.5 -39.5t-100 -14h-262v705h258q109 0 162.5 -48t53.5 -128q0 -71 -38 -112t-92 -52zM164 396h152q69 0 103.5 31t34.5 87q0 52 -33.5 84t-108.5 32h-148v-234zM318 76q72 0 111.5 33t39.5 93
q0 59 -40 92.5t-113 33.5h-152v-252h154z" />
    <glyph glyph-name="C" unicode="C" horiz-adv-x="763" 
d="M385 712q66 0 120 -17t95 -48t70 -74.5t44 -97.5h-96q-26 67 -84.5 110t-149.5 43q-51 0 -95.5 -19t-76.5 -55t-50.5 -87t-18.5 -115q0 -63 18.5 -114t50.5 -86.5t76.5 -54.5t95.5 -19q91 0 149.5 43t84.5 110h96q-15 -54 -44 -97.5t-70 -74.5t-95 -48t-120 -17
q-75 0 -137 26.5t-106 74t-68.5 113t-24.5 144.5q0 80 24.5 146t68.5 113.5t106 74t137 26.5z" />
    <glyph glyph-name="D" unicode="D" horiz-adv-x="717" 
d="M667 353q0 -80 -24.5 -145.5t-71.5 -111.5t-116 -71t-158 -25h-224v705h224q89 0 158 -24.5t116 -70.5t71.5 -111t24.5 -146zM290 82q141 0 212.5 71.5t71.5 199.5t-71.5 200t-212.5 72h-126v-543h126z" />
    <glyph glyph-name="E" unicode="E" horiz-adv-x="506" 
d="M164 631v-241h268v-70h-268v-246h298v-74h-389v705h389v-74h-298z" />
    <glyph glyph-name="F" unicode="F" horiz-adv-x="507" 
d="M472 705v-74h-308v-244h261v-71h-261v-316h-91v705h399z" />
    <glyph glyph-name="G" unicode="G" horiz-adv-x="778" 
d="M393 712q63 0 115 -16t92.5 -46t69 -72t42.5 -93h-96q-24 62 -81.5 102t-140.5 40q-54 0 -100 -19t-79.5 -54.5t-52.5 -86.5t-19 -115q0 -66 19 -117.5t53.5 -87t82 -54.5t104.5 -19q48 0 91 16t76 46t54.5 74t27.5 99h-277v68h354v-84q-6 -62 -32.5 -117t-69.5 -95.5
t-101.5 -64t-130.5 -23.5q-77 0 -140.5 26.5t-109 74t-70.5 113.5t-25 145t25 145t70 114t108.5 74.5t140.5 26.5z" />
    <glyph glyph-name="H" unicode="H" horiz-adv-x="687" 
d="M614 705v-705h-92v326h-358v-326h-91v705h91v-305h358v305h92z" />
    <glyph glyph-name="I" unicode="I" horiz-adv-x="237" 
d="M164 705v-705h-91v705h91z" />
    <glyph glyph-name="J" unicode="J" horiz-adv-x="484" 
d="M416 705v-524q0 -87 -49 -137.5t-139 -50.5q-96 0 -150.5 56t-54.5 159h91q0 -57 25.5 -94.5t84.5 -37.5q29 0 48 9t31 23.5t17 33.5t5 39v524h91z" />
    <glyph glyph-name="K" unicode="K" horiz-adv-x="587" 
d="M248 356l322 -356h-112l-294 329v-329h-91v705h91v-327l295 327h111z" />
    <glyph glyph-name="L" unicode="L" horiz-adv-x="434" 
d="M164 71h250v-71h-341v705h91v-634z" />
    <glyph glyph-name="M" unicode="M" horiz-adv-x="852" 
d="M779 693v-693h-91v553l-221 -553h-81l-222 551v-551h-91v693h109l246 -582l242 582h109z" />
    <glyph glyph-name="N" unicode="N" horiz-adv-x="694" 
d="M621 0h-91l-366 557v-557h-91v705h91l366 -558v558h91v-705z" />
    <glyph glyph-name="O" unicode="O" horiz-adv-x="791" 
d="M396 714q74 0 137.5 -26.5t109.5 -74.5t72 -114t26 -146q0 -79 -26 -145.5t-72.5 -114.5t-109.5 -74.5t-137 -26.5t-137.5 26.5t-110 74.5t-73 114.5t-26.5 145.5q0 80 26.5 146t73 114t110 74.5t137.5 26.5zM396 629q-55 0 -101 -19t-80 -55t-53 -87t-19 -115t19 -115
t53 -87t80 -55t101 -19q54 0 100 19t80 55t53 87t19 115t-19 115t-53 87t-80 55t-100 19z" />
    <glyph glyph-name="P" unicode="P" horiz-adv-x="571" 
d="M164 284v-284h-91v705h224q63 0 108.5 -15t75 -43t43.5 -67t14 -86q0 -98 -61 -154t-180 -56h-133zM289 360q86 0 121 36.5t35 97.5q0 63 -35 99t-121 36h-125v-269h125z" />
    <glyph glyph-name="Q" unicode="Q" horiz-adv-x="791" 
d="M640 -137l-142 143q-50 -14 -102 -14q-74 0 -137.5 26.5t-110 74.5t-73 114.5t-26.5 145.5q0 80 26.5 146t73 114t110 74.5t137.5 26.5t137.5 -26.5t109.5 -74.5t72 -114t26 -146q0 -107 -45.5 -188.5t-123.5 -126.5l183 -175h-115zM143 353q0 -64 19 -115t53 -87t80 -55
t101 -19q54 0 100 19t80 55t53 87t19 115t-19 115t-53 87t-80 55t-100 19q-55 0 -101 -19t-80 -55t-53 -87t-19 -115z" />
    <glyph glyph-name="R" unicode="R" horiz-adv-x="583" 
d="M447 0l-184 288h-99v-288h-91v705h232q62 0 107.5 -16t75 -44t43.5 -66.5t14 -83.5q0 -85 -47 -138t-140 -66l192 -291h-103zM164 354h133q85 0 120 37.5t35 98.5q0 62 -35 99t-120 37h-133v-272z" />
    <glyph glyph-name="S" unicode="S" horiz-adv-x="568" 
d="M519 183q0 -36 -13 -70t-39.5 -60.5t-67.5 -43t-98 -16.5q-53 0 -97.5 15t-76.5 41t-51.5 62t-23.5 79h97q2 -21 12 -43t28.5 -40t45.5 -29.5t63 -11.5q63 0 93.5 33t30.5 81q0 49 -27.5 76.5t-69 44.5t-90 31t-90 36t-69 59.5t-27.5 101.5q0 41 15 75t43.5 58.5t69 38
t91.5 13.5q54 0 96 -14.5t71.5 -39t46.5 -57t22 -68.5h-98q-3 18 -13 37t-26.5 34t-41 25t-57.5 10q-54 0 -87.5 -27.5t-33.5 -81.5q0 -47 27.5 -73t69 -43t89.5 -30.5t89.5 -36.5t69 -61.5t27.5 -104.5z" />
    <glyph glyph-name="T" unicode="T" horiz-adv-x="522" 
d="M505 705v-74h-199v-631h-91v631h-199v74h489z" />
    <glyph glyph-name="U" unicode="U" horiz-adv-x="661" 
d="M159 705v-423q0 -107 47.5 -155t125.5 -48q77 0 123.5 48t46.5 155v423h91v-423q0 -75 -19.5 -129.5t-55 -90t-83.5 -52.5t-105 -17t-105 17t-83 52.5t-54.5 90t-19.5 129.5v423h91z" />
    <glyph glyph-name="V" unicode="V" horiz-adv-x="670" 
d="M119 705l215 -604l218 604h99l-259 -705h-115l-258 705h100z" />
    <glyph glyph-name="W" unicode="W" horiz-adv-x="974" 
d="M940 705l-179 -705h-111l-163 576l-163 -576h-111l-180 705h101l135 -599l167 599h101l167 -597l136 597h100z" />
    <glyph glyph-name="X" unicode="X" horiz-adv-x="594" 
d="M466 0l-177 279l-161 -279h-105l215 359l-219 346h109l173 -274l162 274h105l-216 -353l222 -352h-108z" />
    <glyph glyph-name="Y" unicode="Y" horiz-adv-x="593" 
d="M574 705l-231 -438v-267h-92v267l-232 438h106l173 -341l172 341h104z" />
    <glyph glyph-name="Z" unicode="Z" horiz-adv-x="538" 
d="M142 75h355v-75h-457v72l349 558h-340v75h442v-72z" />
    <glyph glyph-name="bracketleft" unicode="[" horiz-adv-x="330" 
d="M285 942v-75h-110v-963h110v-75h-196v1113h196z" />
    <glyph glyph-name="backslash" unicode="\" horiz-adv-x="617" 
d="M404 -171l-314 1113h90l313 -1113h-89z" />
    <glyph glyph-name="bracketright" unicode="]" horiz-adv-x="329" 
d="M45 -171v75h110v963h-110v75h196v-1113h-196z" />
    <glyph glyph-name="asciicircum" unicode="^" horiz-adv-x="625" 
d="M126 170h-91l235 523h85l235 -523h-91l-185 414z" />
    <glyph glyph-name="underscore" unicode="_" horiz-adv-x="615" 
d="M575 -34v-89h-532v89h532z" />
    <glyph glyph-name="grave" unicode="`" horiz-adv-x="287" 
d="M247 631l-19 -38l-158 94l26 49z" />
    <glyph glyph-name="a" unicode="a" 
d="M298 556q82 0 137 -41t76 -106v140h91v-549h-91v140q-21 -65 -76 -106t-137 -41q-55 0 -101 19.5t-79.5 55.5t-52.5 88t-19 118t19 118.5t52.5 88.5t79.5 55.5t101 19.5zM324 475q-84 0 -134.5 -53t-50.5 -148t50.5 -148t134.5 -53q41 0 75 14.5t59 40.5t39 63t14 83
t-14 83t-39 63.5t-59 40.5t-75 14z" />
    <glyph glyph-name="b" unicode="b" 
d="M376 556q55 0 101 -19.5t79.5 -55.5t52.5 -88.5t19 -118.5t-19 -118t-52.5 -88t-79.5 -55.5t-101 -19.5q-82 0 -137 41t-75 106v-140h-91v740h91v-331q20 65 75 106t137 41zM350 475q-40 0 -74.5 -14t-59.5 -40.5t-39 -63.5t-14 -83t14 -83t39 -63t59.5 -40.5t74.5 -14.5
q85 0 135.5 53t50.5 148t-50.5 148t-135.5 53z" />
    <glyph glyph-name="c" unicode="c" horiz-adv-x="621" 
d="M316 556q53 0 97.5 -14.5t77.5 -41.5t54.5 -65t29.5 -85h-96q-11 60 -55 93t-110 33q-34 0 -66 -12t-56 -36.5t-38.5 -62.5t-14.5 -91q0 -52 14.5 -90t38.5 -63t56 -37t66 -12q66 0 110 33.5t55 93.5h96q-16 -94 -84 -150t-175 -56q-59 0 -108.5 19t-85.5 55.5t-56 88.5
t-20 118t20 118.5t56 88.5t85.5 55.5t108.5 19.5z" />
    <glyph glyph-name="d" unicode="d" 
d="M298 556q82 0 137 -41t76 -106v331h91v-740h-91v140q-21 -65 -76 -106t-137 -41q-55 0 -101 19.5t-79.5 55.5t-52.5 88t-19 118t19 118.5t52.5 88.5t79.5 55.5t101 19.5zM324 475q-84 0 -134.5 -53t-50.5 -148t50.5 -148t134.5 -53q41 0 75 14.5t59 40.5t39 63t14 83
t-14 83t-39 63.5t-59 40.5t-75 14z" />
    <glyph glyph-name="e" unicode="e" horiz-adv-x="624" 
d="M578 305q0 -17 -1 -27.5t-3 -22.5h-439q2 -50 17 -85.5t39.5 -58.5t56 -33.5t64.5 -10.5q66 0 110.5 33t54.5 90h97q-7 -43 -29 -79t-55 -62t-77 -41t-97 -15q-59 0 -108.5 19t-85.5 55.5t-56 88.5t-20 118t20 118.5t56 88.5t85.5 55.5t108.5 19.5q62 0 111 -20
t82.5 -54.5t51 -80t17.5 -96.5zM486 299q3 48 -11 82.5t-38 57t-56 33t-65 10.5q-35 0 -67 -11t-56.5 -33.5t-40 -57t-17.5 -81.5h351z" />
    <glyph glyph-name="f" unicode="f" horiz-adv-x="342" 
d="M316 679q-74 2 -102 -25.5t-28 -89.5v-15h130v-80h-130v-469h-91v469h-79v80h79v22q0 95 53 144t168 44v-80z" />
    <glyph glyph-name="g" unicode="g" 
d="M298 556q82 0 137 -41t76 -106v140h91v-558q0 -58 -18 -105.5t-52 -82t-81 -53.5t-106 -19q-114 0 -182.5 54.5t-87.5 143.5h90q16 -54 59.5 -86t115.5 -32q36 0 67 11.5t54 34t36.5 56.5t13.5 78v149q-21 -65 -76 -106t-137 -41q-55 0 -101 19.5t-79.5 55.5t-52.5 88
t-19 118t19 118.5t52.5 88.5t79.5 55.5t101 19.5zM324 475q-84 0 -134.5 -53t-50.5 -148t50.5 -148t134.5 -53q41 0 75 14.5t59 40.5t39 63t14 83t-14 83t-39 63.5t-59 40.5t-75 14z" />
    <glyph glyph-name="h" unicode="h" horiz-adv-x="643" 
d="M362 558q46 0 85.5 -15t68 -44.5t44.5 -74.5t16 -105v-319h-91v311q0 85 -42.5 127.5t-113.5 42.5q-73 0 -119 -47t-46 -143v-291h-91v740h91v-321q22 69 75.5 104t122.5 35z" />
    <glyph glyph-name="i" unicode="i" horiz-adv-x="237" 
d="M57 710q0 25 17 40.5t45 15.5t45 -15.5t17 -40.5t-17 -40.5t-45 -15.5t-45 15.5t-17 40.5zM164 549v-549h-91v549h91z" />
    <glyph glyph-name="j" unicode="j" horiz-adv-x="243" 
d="M125 654q-29 0 -46 15.5t-17 40.5t17 40.5t46 15.5q27 0 44 -15.5t17 -40.5t-17 -40.5t-44 -15.5zM-28 -180h38q35 0 52 15t17 56v658h92v-661q0 -76 -38.5 -112t-111.5 -36h-49v80z" />
    <glyph glyph-name="k" unicode="k" horiz-adv-x="495" 
d="M374 0l-210 247v-247h-91v740h91v-430l207 239h111l-246 -273l252 -276h-114z" />
    <glyph glyph-name="l" unicode="l" horiz-adv-x="237" 
d="M164 740v-740h-91v740h91z" />
    <glyph glyph-name="m" unicode="m" horiz-adv-x="1029" 
d="M748 558q47 0 86 -15t67 -44.5t44 -74.5t16 -105v-319h-91v311q0 83 -40 125t-108 42q-70 0 -114.5 -46t-44.5 -141v-291h-91v311q0 83 -40.5 125t-107.5 42q-71 0 -115.5 -46t-44.5 -141v-291h-91v549h91v-125q21 67 72.5 100.5t117.5 33.5q68 0 120 -34.5t75 -105.5
q24 69 78.5 104.5t120.5 35.5z" />
    <glyph glyph-name="n" unicode="n" horiz-adv-x="643" 
d="M362 558q46 0 85.5 -15t68 -44.5t44.5 -74.5t16 -105v-319h-91v311q0 85 -42.5 127.5t-113.5 42.5q-73 0 -119 -47t-46 -143v-291h-91v549h91v-130q22 69 75.5 104t122.5 35z" />
    <glyph glyph-name="o" unicode="o" horiz-adv-x="643" 
d="M322 556q59 0 109.5 -19.5t87 -55.5t57.5 -88.5t21 -118.5t-21 -118t-57.5 -88.5t-87 -55.5t-109.5 -19t-109.5 19t-87.5 55.5t-58 88.5t-21 118t21 118.5t58 88.5t87.5 55.5t109.5 19.5zM322 476q-35 0 -68 -12t-58.5 -36.5t-41 -62.5t-15.5 -91q0 -52 15.5 -90
t41 -62.5t58.5 -36.5t68 -12t68 12t58.5 36.5t41 62.5t15.5 90q0 53 -15.5 91t-41 62.5t-58.5 36.5t-68 12z" />
    <glyph glyph-name="p" unicode="p" 
d="M376 556q55 0 101 -19.5t79.5 -55.5t52.5 -88.5t19 -118.5t-19 -118t-52.5 -88t-79.5 -55.5t-101 -19.5q-82 0 -137 41t-75 106v-400h-91v809h91v-140q20 65 75 106t137 41zM350 475q-40 0 -74.5 -14t-59.5 -40.5t-39 -63.5t-14 -83t14 -83t39 -63t59.5 -40.5t74.5 -14.5
q85 0 135.5 53t50.5 148t-50.5 148t-135.5 53z" />
    <glyph glyph-name="q" unicode="q" 
d="M304 554q78 0 131 -37t76 -98v130h91v-809h-91v394q-24 -63 -76.5 -102t-130.5 -39q-55 0 -102.5 19.5t-82 56t-54 88.5t-19.5 116t19.5 116t54 88.5t82 56.5t102.5 20zM324 475q-40 0 -74 -13.5t-58.5 -39t-38.5 -63.5t-14 -86q0 -49 14 -86t38.5 -62.5t58.5 -38.5
t74 -13q39 0 73 13.5t59.5 39.5t40 63.5t14.5 84.5t-14.5 84.5t-40 63.5t-59.5 39.5t-73 13.5z" />
    <glyph glyph-name="r" unicode="r" horiz-adv-x="384" 
d="M164 438q26 56 78 88t125 32v-99h-28q-34 0 -65.5 -8t-56 -27.5t-39 -52.5t-14.5 -82v-289h-91v549h91v-111z" />
    <glyph glyph-name="s" unicode="s" horiz-adv-x="517" 
d="M245 556q96 0 151 -49.5t67 -129.5h-87q-6 47 -39.5 79.5t-93.5 32.5q-50 0 -77 -24t-27 -63q0 -35 24.5 -53.5t61 -29.5t79 -20t79 -25.5t61 -46.5t24.5 -83q0 -66 -49.5 -108.5t-135.5 -42.5q-99 0 -160.5 46.5t-72.5 131.5h88q5 -48 42 -80t103 -32q49 0 74.5 24.5
t25.5 62.5q0 37 -24.5 56t-60.5 30t-79 19.5t-79 25t-60.5 45t-24.5 80.5q0 69 50 111.5t140 42.5z" />
    <glyph glyph-name="t" unicode="t" horiz-adv-x="373" 
d="M335 80v-80h-68q-80 0 -123.5 38.5t-43.5 135.5v296h-82v79h82v137h92v-137h142v-79h-142v-298q0 -54 19.5 -73t67.5 -19h56z" />
    <glyph glyph-name="u" unicode="u" horiz-adv-x="634" 
d="M561 549v-549h-91v129q-22 -69 -76 -103.5t-123 -34.5q-46 0 -85 15t-67.5 44.5t-44.5 74t-16 104.5v320h91v-311q0 -85 42.5 -128t113.5 -43q72 0 118.5 47t46.5 143v292h91z" />
    <glyph glyph-name="v" unicode="v" horiz-adv-x="570" 
d="M286 97l170 452h98l-215 -549h-108l-215 549h98z" />
    <glyph glyph-name="w" unicode="w" horiz-adv-x="839" 
d="M827 549l-158 -549h-98l-151 447l-152 -447h-99l-156 549h92l117 -462l152 462h95l153 -461l118 461h87z" />
    <glyph glyph-name="x" unicode="x" horiz-adv-x="505" 
d="M389 0l-143 210l-129 -210h-101l180 283l-181 266h104l139 -204l127 204h101l-179 -276l186 -273h-104z" />
    <glyph glyph-name="y" unicode="y" horiz-adv-x="565" 
d="M111 549l178 -432l165 432h101l-326 -809h-103l114 269l-231 540h102z" />
    <glyph glyph-name="z" unicode="z" horiz-adv-x="446" 
d="M126 77h294v-77h-394v73l280 399h-272v77h376v-74z" />
    <glyph glyph-name="braceleft" unicode="{" horiz-adv-x="371" 
d="M121 371q61 -13 88.5 -54t27.5 -97q0 -25 -3.5 -47.5t-8 -45.5t-8 -49t-3.5 -59q0 -45 11.5 -82.5t29.5 -66t40.5 -48.5t44.5 -31v-8h-87q-12 7 -33 24t-41.5 46.5t-35 71.5t-14.5 99q0 30 4 55.5t8.5 49.5t8 46.5t3.5 46.5q0 17 -3.5 36.5t-14.5 37.5t-32.5 32.5
t-56.5 22.5v42q36 8 57 23t32.5 33t14.5 37t3 36q0 24 -3.5 46.5t-8 46.5t-8.5 49.5t-4 55.5q0 57 14.5 99t35 71.5t41.5 46.5t33 24h87v-8q-22 -11 -44.5 -31t-40.5 -48.5t-29.5 -66t-11.5 -82.5q0 -33 3.5 -59t8 -49t8 -45t3.5 -48q0 -56 -27 -97t-89 -54v-2z" />
    <glyph glyph-name="bar" unicode="|" horiz-adv-x="216" 
d="M154 -107h-92v903h92v-903z" />
    <glyph glyph-name="braceright" unicode="}" horiz-adv-x="369" 
d="M257 373q-61 13 -88.5 52t-27.5 92q0 25 3.5 47t8 45.5t8 49.5t3.5 59q0 44 -11.5 82t-29.5 68t-40 51.5t-44 33.5v8h86q12 -7 33 -24t41.5 -46.5t35 -71.5t14.5 -99q0 -30 -3.5 -55.5t-8 -49.5l-8.5 -46.5t-4 -46.5q0 -17 3.5 -36.5t15 -37.5t32.5 -33t56 -22v-42
q-35 -7 -56 -21.5t-32.5 -33t-15 -38t-3.5 -36.5q0 -24 4 -46.5l8.5 -46.5t8 -49.5t3.5 -55.5q0 -57 -14.5 -99t-35 -71.5t-41.5 -46.5t-33 -24h-86v8q22 12 44 33.5t40 51.5t29.5 68t11.5 82q0 33 -3.5 59t-8 49.5t-8 45.5t-3.5 47q0 53 27.5 92t88.5 52v2z" />
    <glyph glyph-name="asciitilde" unicode="~" horiz-adv-x="518" 
d="M174 395q29 0 51.5 -10.5t43 -23t40 -23t41.5 -10.5q26 0 42 18.5t21 48.5h72q-12 -75 -49 -112.5t-92 -37.5q-29 0 -51.5 10.5t-43 23t-40 23t-41.5 10.5q-26 0 -42.5 -19t-21.5 -49h-71q13 75 49 113t92 38z" />
    <glyph glyph-name="exclamdown" unicode="&#xa1;" horiz-adv-x="309" 
d="M98 558h111v-107h-111v107zM115 351h75l13 -515h-101z" />
    <glyph glyph-name="cent" unicode="&#xa2;" horiz-adv-x="585" 
d="M300 87q59 0 101.5 32t52.5 91h85q-5 -43 -23.5 -78.5t-47.5 -61t-67.5 -40.5t-83.5 -18v-101h-45v102q-50 4 -91.5 22.5t-71.5 50.5t-46.5 77t-16.5 101t16.5 101t46.5 77t71.5 50.5t91.5 22.5v96h45v-95q45 -3 83.5 -17.5t67.5 -40t47.5 -61t23.5 -79.5h-85
q-11 60 -53 91.5t-101 31.5q-34 0 -64 -11t-52.5 -32.5t-36 -55t-13.5 -78.5t13.5 -78.5t36 -55t52.5 -32.5t64 -11z" />
    <glyph glyph-name="sterling" unicode="&#xa3;" horiz-adv-x="589" 
d="M259 243q0 -45 -17.5 -88t-59.5 -84h361v-73h-449l-12 49q41 42 66 85.5t25 107.5q0 17 -3.5 34t-8.5 35h-118v63h97q-12 36 -22.5 75.5t-10.5 85.5q0 44 15.5 81t43 63t66.5 40.5t87 14.5q52 0 92.5 -16t69 -44t45.5 -65.5t21 -81.5h-86q-6 57 -42.5 94.5t-96.5 37.5
q-26 0 -49 -8t-40.5 -24.5t-27.5 -42t-10 -59.5q0 -39 11.5 -76t24.5 -75h184v-63h-165q9 -33 9 -66z" />
    <glyph glyph-name="currency" unicode="&#xa4;" horiz-adv-x="537" 
d="M448 378q0 -34 -10 -62t-27 -51l57 -56l-37 -37l-59 58q-44 -29 -103 -29q-61 0 -105 30l-59 -59l-37 37l58 57q-17 22 -26 50t-9 62q0 67 36 112l-59 59l37 37l61 -61q45 28 103 28q56 0 101 -28l61 61l37 -37l-59 -58q39 -45 39 -113zM269 257q21 0 40 8t33.5 23
t23 37.5t8.5 51.5q0 58 -31.5 89t-73.5 31q-44 0 -74 -31t-30 -89t30 -89t74 -31z" />
    <glyph glyph-name="yen" unicode="&#xa5;" horiz-adv-x="622" 
d="M421 384h138v-63h-172l-28 -54v-23h200v-64h-200v-180h-91v180h-201v64h201v23l-29 54h-172v63h139l-171 321h106l173 -354l172 354h104z" />
    <glyph glyph-name="brokenbar" unicode="&#xa6;" horiz-adv-x="276" 
d="M92 796h92v-379h-92v379zM184 -107h-92v380h92v-380z" />
    <glyph glyph-name="section" unicode="&#xa7;" horiz-adv-x="576" 
d="M382 121q52 -23 86 -58.5t34 -89.5q0 -66 -51 -108.5t-146 -42.5q-97 0 -156 48.5t-69 132.5h91q3 -23 11.5 -43.5t24.5 -36.5t40.5 -25t58.5 -9q45 0 74 19.5t29 61.5q0 21 -8.5 37.5t-28 31.5t-50.5 28.5t-76 28.5q-42 13 -78.5 28.5t-63.5 37t-42.5 50.5t-15.5 68
q0 27 9 52t27.5 46.5t47 37.5t67.5 23q-52 23 -87.5 59.5t-35.5 90.5q0 66 52 107.5t149 41.5t154 -48.5t67 -132.5h-90q-2 21 -10.5 41.5t-24.5 36.5t-40 26t-58 10q-47 0 -76.5 -18.5t-29.5 -59.5q0 -42 36.5 -70.5t126.5 -57.5q42 -13 78.5 -29t63.5 -37.5t42.5 -50.5
t15.5 -68q0 -53 -35.5 -97t-112.5 -62zM143 280q0 -51 38.5 -82.5t108.5 -31.5q35 0 62 9t45 25t27.5 36.5t9.5 43.5q0 51 -38 82.5t-109 31.5q-35 0 -62 -9t-45 -25t-27.5 -36.5t-9.5 -43.5z" />
    <glyph glyph-name="dieresis" unicode="&#xa8;" horiz-adv-x="354" 
d="M44 674q0 21 14.5 35.5t35.5 14.5t35.5 -14.5t14.5 -35.5q0 -20 -14.5 -34.5t-35.5 -14.5t-35.5 14.5t-14.5 34.5zM210 674q0 21 14.5 35.5t35.5 14.5t35.5 -14.5t14.5 -35.5q0 -20 -14.5 -34.5t-35.5 -14.5t-35.5 14.5t-14.5 34.5z" />
    <glyph glyph-name="copyright" unicode="&#xa9;" horiz-adv-x="792" 
d="M396 708q77 0 141 -26t109.5 -73t70.5 -112t25 -143t-25 -143t-70.5 -112.5t-109.5 -73.5t-141 -26t-141 26t-109.5 73.5t-71 112.5t-25.5 143t25.5 143t71 112t109.5 73t141 26zM396 674q-71 0 -128.5 -23.5t-97.5 -66t-61.5 -101.5t-21.5 -129t21.5 -128.5t61.5 -101
t97.5 -66.5t128.5 -24t128.5 24t97.5 66.5t61.5 101t21.5 128.5t-21.5 129t-61.5 101.5t-97.5 66t-128.5 23.5zM400 586q-45 0 -85 -15.5t-70 -45t-47 -72.5t-17 -99t17 -99.5t47 -73t70 -44.5t85 -15q36 0 69.5 10.5t60.5 31.5t47 51.5t29 70.5h-79q-15 -48 -50.5 -74
t-80.5 -26q-28 0 -53.5 10.5t-45 31.5t-31 52t-11.5 73t11.5 73.5t31 52.5t45 31.5t53.5 10.5q45 0 80.5 -25.5t50.5 -73.5h79q-9 39 -29 69.5t-47 51.5t-60.5 32t-69.5 11z" />
    <glyph glyph-name="ordfeminine" unicode="&#xaa;" horiz-adv-x="450" 
d="M196 710q53 0 86.5 -23.5t49.5 -65.5v84h71v-351h-71v84q-16 -42 -49 -66t-87 -24q-72 0 -117.5 48.5t-45.5 132.5t45.5 132.5t117.5 48.5zM217 652q-48 0 -79.5 -33t-31.5 -91q0 -57 31.5 -89.5t79.5 -32.5q51 0 83 33t32 90t-32 90t-83 33z" />
    <glyph glyph-name="guillemotleft" unicode="&#xab;" horiz-adv-x="461" 
d="M141 120l-96 175l96 175h89l-98 -175l98 -175h-89zM325 120l-96 175l96 175h89l-98 -175l98 -175h-89z" />
    <glyph glyph-name="logicalnot" unicode="&#xac;" horiz-adv-x="739" 
d="M686 433v-213h-90v141h-550v72h640z" />
    <glyph glyph-name="registered" unicode="&#xae;" horiz-adv-x="798" 
d="M400 709q78 0 142.5 -25.5t110 -72t71 -111.5t25.5 -145q0 -78 -25.5 -143.5t-71 -112.5t-110 -73.5t-142.5 -26.5t-142.5 26.5t-111 73.5t-72 112.5t-25.5 143.5q0 80 25.5 145t72 111.5t111 72t142.5 25.5zM400 39q72 0 129.5 23t98 64.5t62.5 99.5t22 129
q0 72 -22 131t-62.5 101t-98 64.5t-129.5 22.5t-130 -22.5t-98.5 -64.5t-62.5 -101t-22 -131q0 -71 22 -129t62.5 -99.5t98.5 -64.5t130 -23zM574 462q0 -51 -30.5 -84.5t-93.5 -40.5l126 -192h-67l-122 190h-64v-190h-60v443h157q81 0 117.5 -36.5t36.5 -89.5zM323 376h92
q54 0 75.5 22t21.5 57q0 37 -21.5 57.5t-75.5 20.5h-92v-157z" />
    <glyph glyph-name="macron" unicode="&#xaf;" horiz-adv-x="411" 
d="M382 710v-64h-353v64h353z" />
    <glyph glyph-name="degree" unicode="&#xb0;" horiz-adv-x="406" 
d="M203 700q80 0 127.5 -47.5t47.5 -128.5t-47 -129t-126 -48q-80 0 -128.5 48t-48.5 129t48 128.5t127 47.5zM204 647q-45 0 -74.5 -31.5t-29.5 -92.5q0 -60 30 -91.5t75 -31.5q44 0 72 31.5t28 91.5q0 61 -28.5 92.5t-72.5 31.5z" />
    <glyph glyph-name="plusminus" unicode="&#xb1;" horiz-adv-x="576" 
d="M332 374v-198h211v-83h-510v83h210v198h-210v83h210v176h89v-176h211v-83h-211z" />
    <glyph glyph-name="uni00B2" unicode="&#xb2;" horiz-adv-x="344" 
d="M308 408v-56h-265v50l121 97q26 23 45.5 47.5t19.5 58.5q0 28 -15.5 40.5t-37.5 12.5q-59 0 -65 -70h-71q4 50 39.5 86.5t104.5 36.5q60 0 90 -29.5t30 -71.5q0 -44 -28 -76t-79 -67l-83 -59h194z" />
    <glyph glyph-name="uni00B3" unicode="&#xb3;" horiz-adv-x="338" 
d="M174 711q58 0 93 -27.5t35 -72.5q0 -31 -17.5 -51.5t-52.5 -28.5v-3q74 -18 74 -84q0 -41 -34 -68.5t-98 -27.5q-72 0 -105 28t-39 81h74q4 -34 21.5 -46t43.5 -12q30 0 46 15t16 41q0 29 -19.5 43.5t-49.5 14.5h-50v31h49q30 0 48 15t18 44q0 24 -16 39.5t-44 15.5
q-29 0 -44.5 -14t-20.5 -40h-68q2 21 10.5 40.5t25.5 34t42.5 23.5t61.5 9z" />
    <glyph glyph-name="acute" unicode="&#xb4;" horiz-adv-x="271" 
d="M215 684l-168 -84l-19 35l165 98z" />
    <glyph glyph-name="uni00B5" unicode="&#xb5;" horiz-adv-x="666" 
d="M584 549v-549h-91v124q-20 -66 -71 -99.5t-116 -33.5q-38 0 -74.5 15.5t-59.5 56.5v-323h-91v809h91v-285q0 -97 46 -145t118 -48q69 0 113 46t44 141v291h91z" />
    <glyph glyph-name="paragraph" unicode="&#xb6;" horiz-adv-x="592" 
d="M510 0h-76v622h-90v-622h-75v286h-12q-61 0 -105.5 16t-73.5 43.5t-43 64.5t-14 79q0 43 14 80t43.5 64.5t74 43.5t104.5 16h253v-693z" />
    <glyph glyph-name="periodcentered" unicode="&#xb7;" horiz-adv-x="182" 
d="M145 392v-107h-110v107h110z" />
    <glyph glyph-name="cedilla" unicode="&#xb8;" horiz-adv-x="282" 
d="M126 -67q53 2 90 -20.5t37 -73.5q0 -50 -35 -74.5t-87 -24.5h-102v53h92q37 0 52 13.5t15 34.5q0 19 -15 32t-52 13h-54v121h59v-74z" />
    <glyph glyph-name="uni00B9" unicode="&#xb9;" horiz-adv-x="201" 
d="M33 647v57h129v-352h-71v295h-58z" />
    <glyph glyph-name="ordmasculine" unicode="&#xba;" horiz-adv-x="433" 
d="M217 709q41 0 75 -13.5t58 -37.5t37.5 -57.5t13.5 -73.5t-13.5 -73.5t-37.5 -58t-58 -38t-75 -13.5t-75 13.5t-58 38t-37.5 58t-13.5 73.5t13.5 73.5t37.5 57.5t58 37.5t75 13.5zM217 652q-48 0 -80 -32t-32 -93t32 -93t80 -32q47 0 79.5 32t32.5 93t-32.5 93t-79.5 32z
" />
    <glyph glyph-name="guillemotright" unicode="&#xbb;" horiz-adv-x="461" 
d="M149 295l-99 175h90l95 -175l-95 -175h-90zM333 295l-99 175h90l95 -175l-95 -175h-90z" />
    <glyph glyph-name="onequarter" unicode="&#xbc;" horiz-adv-x="642" 
d="M528 705l-362 -705h-90l362 705h90zM55 647v57h129v-352h-71v295h-58zM609 70h-48v-70h-72v70h-183v41l165 243h90v-240h48v-44zM492 288l-116 -172h116v172z" />
    <glyph glyph-name="onehalf" unicode="&#xbd;" horiz-adv-x="712" 
d="M520 706l-365 -706h-90l366 706h89zM115 647h-58v57h129v-352h-71v295zM658 55v-56h-265v50l121 97q26 23 45.5 47.5t19.5 58.5q0 28 -15.5 40.5t-37.5 12.5q-59 0 -65 -70h-71q4 50 39.5 86.5t104.5 36.5q60 0 90 -29.5t30 -71.5q0 -44 -28 -76t-79 -67l-83 -59h194z
" />
    <glyph glyph-name="threequarters" unicode="&#xbe;" horiz-adv-x="707" 
d="M204 711q58 0 93 -27.5t35 -72.5q0 -31 -17.5 -51.5t-52.5 -28.5v-3q74 -18 74 -84q0 -41 -34 -68.5t-98 -27.5q-72 0 -105 28t-39 81h74q4 -34 21.5 -46t43.5 -12q30 0 46 15t16 41q0 29 -19.5 43.5t-49.5 14.5h-50v31h49q30 0 48 15t18 44q0 24 -16 39.5t-44 15.5
q-29 0 -44.5 -14t-20.5 -40h-68q2 21 10.5 40.5t25.5 34t42.5 23.5t61.5 9zM607 706l-356 -706h-89l355 706h90zM676 70h-48v-70h-71v70h-184v41l157 243h98v-240h48v-44zM560 295l-117 -181h117v181z" />
    <glyph glyph-name="questiondown" unicode="&#xbf;" horiz-adv-x="489" 
d="M282 443v107h110v-107h-110zM265 -183q-48 0 -87.5 13.5t-68 39.5t-44 63.5t-15.5 85.5q0 55 18 95t50 66t77.5 38.5t99.5 13.5v118h86v-180h-40q-39 0 -75 -5.5t-64 -22t-45 -46t-17 -77.5q0 -60 34.5 -93.5t93.5 -33.5q63 0 100 35t37 92h88q0 -45 -16 -82.5t-46 -64
t-72 -41t-94 -14.5z" />
    <glyph glyph-name="Agrave" unicode="&#xc0;" horiz-adv-x="662" 
d="M413 749l-158 94l26 49l151 -105zM486 163h-310l-59 -163h-98l261 692h103l260 -692h-98zM460 234l-129 356l-129 -356h258z" />
    <glyph glyph-name="Aacute" unicode="&#xc1;" horiz-adv-x="662" 
d="M266 756l-19 35l165 98l22 -49zM486 163h-310l-59 -163h-98l261 692h103l260 -692h-98zM460 234l-129 356l-129 -356h258z" />
    <glyph glyph-name="Acircumflex" unicode="&#xc2;" horiz-adv-x="662" 
d="M222 756l-18 39l128 77l128 -77l-19 -40l-109 63zM486 163h-310l-59 -163h-98l261 692h103l260 -692h-98zM460 234l-129 356l-129 -356h258z" />
    <glyph glyph-name="Atilde" unicode="&#xc3;" horiz-adv-x="662" 
d="M274 808q-33 0 -40 -45h-43q15 94 86 94q19 0 33 -7t26.5 -16t24.5 -16t28 -7q15 0 26.5 11t14.5 33h44q-6 -46 -29.5 -69.5t-58.5 -23.5q-19 0 -33.5 7t-27 16t-24.5 16t-27 7zM486 163h-310l-59 -163h-98l261 692h103l260 -692h-98zM460 234l-129 356l-129 -356h258z
" />
    <glyph glyph-name="Adieresis" unicode="&#xc4;" horiz-adv-x="662" 
d="M248 782q-21 0 -35.5 14.5t-14.5 34.5q0 21 14.5 35.5t35.5 14.5t35.5 -14.5t14.5 -35.5q0 -20 -14.5 -34.5t-35.5 -14.5zM414 782q-21 0 -35.5 14.5t-14.5 34.5q0 21 14.5 35.5t35.5 14.5t35.5 -14.5t14.5 -35.5q0 -20 -14.5 -34.5t-35.5 -14.5zM486 163h-310l-59 -163
h-98l261 692h103l260 -692h-98zM460 234l-129 356l-129 -356h258z" />
    <glyph glyph-name="Aring" unicode="&#xc5;" horiz-adv-x="662" 
d="M330 764q-43 0 -74 28t-31 77t31 77t74 28q44 0 74.5 -28t30.5 -77t-30.5 -77t-74.5 -28zM330 932q-26 0 -43.5 -17t-17.5 -46t17.5 -46t43.5 -17t44 17t18 46t-18 46t-44 17zM486 163h-310l-59 -163h-98l261 692h103l260 -692h-98zM460 234l-129 356l-129 -356h258z" />
    <glyph glyph-name="AE" unicode="&#xc6;" horiz-adv-x="890" 
d="M551 631v-239h265v-71h-265v-247h295v-74h-386v160h-262l-91 -160h-101l400 705h440v-74h-295zM460 230v391l-222 -391h222z" />
    <glyph glyph-name="Ccedilla" unicode="&#xc7;" horiz-adv-x="763" 
d="M384 78q91 0 149.5 43t84.5 110h96q-29 -101 -105 -165t-196 -71v-62q53 2 90 -20.5t37 -73.5q0 -50 -35 -74.5t-87 -24.5h-102v53h92q37 0 52 13.5t15 34.5q0 19 -15 32t-52 13h-54v109q-69 6 -125 34.5t-96 75t-62 109.5t-22 138q0 80 24.5 146t68.5 113.5t106 74
t137 26.5q66 0 120 -17t95 -48t70 -74.5t44 -97.5h-96q-26 67 -84.5 110t-149.5 43q-51 0 -95.5 -19t-76.5 -55t-50.5 -87t-18.5 -115q0 -63 18.5 -114t50.5 -86.5t76.5 -54.5t95.5 -19z" />
    <glyph glyph-name="Egrave" unicode="&#xc8;" horiz-adv-x="506" 
d="M353 787l-19 -38l-158 94l26 49zM164 631v-241h268v-70h-268v-246h298v-74h-389v705h389v-74h-298z" />
    <glyph glyph-name="Eacute" unicode="&#xc9;" horiz-adv-x="506" 
d="M355 840l-168 -84l-19 35l165 98zM164 631v-241h268v-70h-268v-246h298v-74h-389v705h389v-74h-298z" />
    <glyph glyph-name="Ecircumflex" unicode="&#xca;" horiz-adv-x="506" 
d="M253 818l-110 -62l-18 39l128 77l128 -77l-19 -40zM164 631v-241h268v-70h-268v-246h298v-74h-389v705h389v-74h-298z" />
    <glyph glyph-name="Edieresis" unicode="&#xcb;" horiz-adv-x="506" 
d="M135 831q0 21 14.5 35.5t35.5 14.5t35.5 -14.5t14.5 -35.5q0 -20 -14.5 -34.5t-35.5 -14.5t-35.5 14.5t-14.5 34.5zM301 831q0 21 14.5 35.5t35.5 14.5t35.5 -14.5t14.5 -35.5q0 -20 -14.5 -34.5t-35.5 -14.5t-35.5 14.5t-14.5 34.5zM164 631v-241h268v-70h-268v-246h298
v-74h-389v705h389v-74h-298z" />
    <glyph glyph-name="Igrave" unicode="&#xcc;" horiz-adv-x="237" 
d="M218 787l-19 -38l-158 94l26 49zM164 705v-705h-91v705h91z" />
    <glyph glyph-name="Iacute" unicode="&#xcd;" horiz-adv-x="237" 
d="M220 840l-168 -84l-19 35l165 98zM164 705v-705h-91v705h91z" />
    <glyph glyph-name="Icircumflex" unicode="&#xce;" horiz-adv-x="237" 
d="M118 818l-110 -62l-18 39l128 77l128 -77l-19 -40zM164 705v-705h-91v705h91z" />
    <glyph glyph-name="Idieresis" unicode="&#xcf;" horiz-adv-x="237" 
d="M-14 831q0 21 14.5 35.5t35.5 14.5t35.5 -14.5t14.5 -35.5q0 -20 -14.5 -34.5t-35.5 -14.5t-35.5 14.5t-14.5 34.5zM152 831q0 21 14.5 35.5t35.5 14.5t35.5 -14.5t14.5 -35.5q0 -20 -14.5 -34.5t-35.5 -14.5t-35.5 14.5t-14.5 34.5zM164 705v-705h-91v705h91z" />
    <glyph glyph-name="Eth" unicode="&#xd0;" horiz-adv-x="742" 
d="M322 705q90 0 159 -24.5t116 -70.5t71.5 -111t24.5 -146q0 -80 -24.5 -145.5t-71.5 -111.5t-116 -71t-159 -25h-224v316h-92v74h92v315h224zM315 82q141 0 213 71.5t72 199.5t-72 200t-213 72h-125v-235h197v-74h-197v-234h125z" />
    <glyph glyph-name="Ntilde" unicode="&#xd1;" horiz-adv-x="694" 
d="M292 857q19 0 33 -7t26.5 -16t24.5 -16t28 -7q15 0 26.5 11t14.5 33h44q-6 -46 -29.5 -69.5t-58.5 -23.5q-19 0 -33.5 7t-27 16t-24.5 16t-27 7q-33 0 -40 -45h-43q15 94 86 94zM621 0h-91l-366 557v-557h-91v705h91l366 -558v558h91v-705z" />
    <glyph glyph-name="Ograve" unicode="&#xd2;" horiz-adv-x="791" 
d="M495 787l-19 -38l-158 94l26 49zM396 714q74 0 137.5 -26.5t109.5 -74.5t72 -114t26 -146q0 -79 -26 -145.5t-72.5 -114.5t-109.5 -74.5t-137 -26.5t-137.5 26.5t-110 74.5t-73 114.5t-26.5 145.5q0 80 26.5 146t73 114t110 74.5t137.5 26.5zM396 629q-55 0 -101 -19
t-80 -55t-53 -87t-19 -115t19 -115t53 -87t80 -55t101 -19q54 0 100 19t80 55t53 87t19 115t-19 115t-53 87t-80 55t-100 19z" />
    <glyph glyph-name="Oacute" unicode="&#xd3;" horiz-adv-x="791" 
d="M497 840l-168 -84l-19 35l165 98zM396 714q74 0 137.5 -26.5t109.5 -74.5t72 -114t26 -146q0 -79 -26 -145.5t-72.5 -114.5t-109.5 -74.5t-137 -26.5t-137.5 26.5t-110 74.5t-73 114.5t-26.5 145.5q0 80 26.5 146t73 114t110 74.5t137.5 26.5zM396 629q-55 0 -101 -19
t-80 -55t-53 -87t-19 -115t19 -115t53 -87t80 -55t101 -19q54 0 100 19t80 55t53 87t19 115t-19 115t-53 87t-80 55t-100 19z" />
    <glyph glyph-name="Ocircumflex" unicode="&#xd4;" horiz-adv-x="791" 
d="M395 818l-110 -62l-18 39l128 77l128 -77l-19 -40zM396 714q74 0 137.5 -26.5t109.5 -74.5t72 -114t26 -146q0 -79 -26 -145.5t-72.5 -114.5t-109.5 -74.5t-137 -26.5t-137.5 26.5t-110 74.5t-73 114.5t-26.5 145.5q0 80 26.5 146t73 114t110 74.5t137.5 26.5zM396 629
q-55 0 -101 -19t-80 -55t-53 -87t-19 -115t19 -115t53 -87t80 -55t101 -19q54 0 100 19t80 55t53 87t19 115t-19 115t-53 87t-80 55t-100 19z" />
    <glyph glyph-name="Otilde" unicode="&#xd5;" horiz-adv-x="791" 
d="M340 857q19 0 33 -7t26.5 -16t24.5 -16t28 -7q15 0 26.5 11t14.5 33h44q-6 -46 -29.5 -69.5t-58.5 -23.5q-19 0 -33.5 7t-27 16t-24.5 16t-27 7q-33 0 -40 -45h-43q15 94 86 94zM396 714q74 0 137.5 -26.5t109.5 -74.5t72 -114t26 -146q0 -79 -26 -145.5t-72.5 -114.5
t-109.5 -74.5t-137 -26.5t-137.5 26.5t-110 74.5t-73 114.5t-26.5 145.5q0 80 26.5 146t73 114t110 74.5t137.5 26.5zM396 629q-55 0 -101 -19t-80 -55t-53 -87t-19 -115t19 -115t53 -87t80 -55t101 -19q54 0 100 19t80 55t53 87t19 115t-19 115t-53 87t-80 55t-100 19z" />
    <glyph glyph-name="Odieresis" unicode="&#xd6;" horiz-adv-x="791" 
d="M263 831q0 21 14.5 35.5t35.5 14.5t35.5 -14.5t14.5 -35.5q0 -20 -14.5 -34.5t-35.5 -14.5t-35.5 14.5t-14.5 34.5zM429 831q0 21 14.5 35.5t35.5 14.5t35.5 -14.5t14.5 -35.5q0 -20 -14.5 -34.5t-35.5 -14.5t-35.5 14.5t-14.5 34.5zM396 714q74 0 137.5 -26.5
t109.5 -74.5t72 -114t26 -146q0 -79 -26 -145.5t-72.5 -114.5t-109.5 -74.5t-137 -26.5t-137.5 26.5t-110 74.5t-73 114.5t-26.5 145.5q0 80 26.5 146t73 114t110 74.5t137.5 26.5zM396 629q-55 0 -101 -19t-80 -55t-53 -87t-19 -115t19 -115t53 -87t80 -55t101 -19
q54 0 100 19t80 55t53 87t19 115t-19 115t-53 87t-80 55t-100 19z" />
    <glyph glyph-name="multiply" unicode="&#xd7;" horiz-adv-x="509" 
d="M415 147l-162 162l-160 -161l-59 59l160 161l-160 159l62 60l159 -158l157 158l59 -59l-157 -158l162 -162z" />
    <glyph glyph-name="Oslash" unicode="&#xd8;" horiz-adv-x="791" 
d="M651 604q42 -48 66 -111.5t24 -139.5q0 -79 -26 -145.5t-72.5 -114.5t-109.5 -74.5t-137 -26.5q-66 0 -124 21.5t-103 59.5l-66 -73h-57l93 103q-42 48 -66 111t-24 139q0 80 26.5 146t73 114t110 74.5t137.5 26.5q66 0 123 -21t102 -60l67 74h56zM143 353q0 -57 15 -103
t42 -81l362 400q-66 60 -166 60q-55 0 -101 -19t-80 -55t-53 -87t-19 -115zM648 353q0 57 -15 103.5t-42 81.5l-363 -400q33 -29 75.5 -45t92.5 -16q54 0 100 19t80 55t53 87t19 115z" />
    <glyph glyph-name="Ugrave" unicode="&#xd9;" horiz-adv-x="661" 
d="M431 787l-19 -38l-158 94l26 49zM159 705v-423q0 -107 47.5 -155t125.5 -48q77 0 123.5 48t46.5 155v423h91v-423q0 -75 -19.5 -129.5t-55 -90t-83.5 -52.5t-105 -17t-105 17t-83 52.5t-54.5 90t-19.5 129.5v423h91z" />
    <glyph glyph-name="Uacute" unicode="&#xda;" horiz-adv-x="661" 
d="M433 840l-168 -84l-19 35l165 98zM159 705v-423q0 -107 47.5 -155t125.5 -48q77 0 123.5 48t46.5 155v423h91v-423q0 -75 -19.5 -129.5t-55 -90t-83.5 -52.5t-105 -17t-105 17t-83 52.5t-54.5 90t-19.5 129.5v423h91z" />
    <glyph glyph-name="Ucircumflex" unicode="&#xdb;" horiz-adv-x="661" 
d="M331 818l-110 -62l-18 39l128 77l128 -77l-19 -40zM159 705v-423q0 -107 47.5 -155t125.5 -48q77 0 123.5 48t46.5 155v423h91v-423q0 -75 -19.5 -129.5t-55 -90t-83.5 -52.5t-105 -17t-105 17t-83 52.5t-54.5 90t-19.5 129.5v423h91z" />
    <glyph glyph-name="Udieresis" unicode="&#xdc;" horiz-adv-x="661" 
d="M198 831q0 21 14.5 35.5t35.5 14.5t35.5 -14.5t14.5 -35.5q0 -20 -14.5 -34.5t-35.5 -14.5t-35.5 14.5t-14.5 34.5zM364 831q0 21 14.5 35.5t35.5 14.5t35.5 -14.5t14.5 -35.5q0 -20 -14.5 -34.5t-35.5 -14.5t-35.5 14.5t-14.5 34.5zM159 705v-423q0 -107 47.5 -155
t125.5 -48q77 0 123.5 48t46.5 155v423h91v-423q0 -75 -19.5 -129.5t-55 -90t-83.5 -52.5t-105 -17t-105 17t-83 52.5t-54.5 90t-19.5 129.5v423h91z" />
    <glyph glyph-name="Yacute" unicode="&#xdd;" horiz-adv-x="593" 
d="M231 756l-19 35l165 98l22 -49zM574 705l-231 -438v-267h-92v267l-232 438h106l173 -341l172 341h104z" />
    <glyph glyph-name="Thorn" unicode="&#xde;" horiz-adv-x="571" 
d="M164 147v-147h-91v705h91v-144h133q63 0 108.5 -15t75 -42.5t43.5 -65.5t14 -85q0 -97 -61 -151.5t-180 -54.5h-133zM289 219q86 0 121 36.5t35 97.5q0 63 -35 99t-121 36h-125v-269h125z" />
    <glyph glyph-name="germandbls" unicode="&#xdf;" horiz-adv-x="654" 
d="M486 371q74 -45 106 -93t32 -115q0 -37 -13.5 -68.5t-38.5 -54.5t-60 -36.5t-77 -13.5q-93 0 -144 50.5t-52 141.5h77q2 -49 28.5 -80.5t82.5 -31.5q29 0 49 9t33.5 23t19.5 32t6 36q0 38 -18.5 69t-71.5 65l-157 98v41l33 17q33 17 48 40.5t15 56.5q0 48 -28.5 79
t-76.5 31q-54 0 -84.5 -31.5t-30.5 -87.5v-548h-91v531q0 110 57 164.5t158 54.5q43 0 78 -12t59.5 -33.5t38 -51.5t13.5 -66q0 -46 -24 -81t-80 -60l-3 -1z" />
    <glyph glyph-name="agrave" unicode="&#xe0;" 
d="M437 631l-19 -38l-158 94l26 49zM298 556q82 0 137 -41t76 -106v140h91v-549h-91v140q-21 -65 -76 -106t-137 -41q-55 0 -101 19.5t-79.5 55.5t-52.5 88t-19 118t19 118.5t52.5 88.5t79.5 55.5t101 19.5zM324 475q-84 0 -134.5 -53t-50.5 -148t50.5 -148t134.5 -53
q41 0 75 14.5t59 40.5t39 63t14 83t-14 83t-39 63.5t-59 40.5t-75 14z" />
    <glyph glyph-name="aacute" unicode="&#xe1;" 
d="M439 684l-168 -84l-19 35l165 98zM298 556q82 0 137 -41t76 -106v140h91v-549h-91v140q-21 -65 -76 -106t-137 -41q-55 0 -101 19.5t-79.5 55.5t-52.5 88t-19 118t19 118.5t52.5 88.5t79.5 55.5t101 19.5zM324 475q-84 0 -134.5 -53t-50.5 -148t50.5 -148t134.5 -53
q41 0 75 14.5t59 40.5t39 63t14 83t-14 83t-39 63.5t-59 40.5t-75 14z" />
    <glyph glyph-name="acircumflex" unicode="&#xe2;" 
d="M337 662l-110 -62l-18 39l128 77l128 -77l-19 -40zM298 556q82 0 137 -41t76 -106v140h91v-549h-91v140q-21 -65 -76 -106t-137 -41q-55 0 -101 19.5t-79.5 55.5t-52.5 88t-19 118t19 118.5t52.5 88.5t79.5 55.5t101 19.5zM324 475q-84 0 -134.5 -53t-50.5 -148
t50.5 -148t134.5 -53q41 0 75 14.5t59 40.5t39 63t14 83t-14 83t-39 63.5t-59 40.5t-75 14z" />
    <glyph glyph-name="atilde" unicode="&#xe3;" 
d="M282 701q19 0 33 -7t26.5 -16t24.5 -16t28 -7q15 0 26.5 11t14.5 33h44q-6 -46 -29.5 -69.5t-58.5 -23.5q-19 0 -33.5 7t-27 16t-24.5 16t-27 7q-33 0 -40 -45h-43q15 94 86 94zM298 556q82 0 137 -41t76 -106v140h91v-549h-91v140q-21 -65 -76 -106t-137 -41
q-55 0 -101 19.5t-79.5 55.5t-52.5 88t-19 118t19 118.5t52.5 88.5t79.5 55.5t101 19.5zM324 475q-84 0 -134.5 -53t-50.5 -148t50.5 -148t134.5 -53q41 0 75 14.5t59 40.5t39 63t14 83t-14 83t-39 63.5t-59 40.5t-75 14z" />
    <glyph glyph-name="adieresis" unicode="&#xe4;" 
d="M191 674q0 21 14.5 35.5t35.5 14.5t35.5 -14.5t14.5 -35.5q0 -20 -14.5 -34.5t-35.5 -14.5t-35.5 14.5t-14.5 34.5zM357 674q0 21 14.5 35.5t35.5 14.5t35.5 -14.5t14.5 -35.5q0 -20 -14.5 -34.5t-35.5 -14.5t-35.5 14.5t-14.5 34.5zM298 556q82 0 137 -41t76 -106v140
h91v-549h-91v140q-21 -65 -76 -106t-137 -41q-55 0 -101 19.5t-79.5 55.5t-52.5 88t-19 118t19 118.5t52.5 88.5t79.5 55.5t101 19.5zM324 475q-84 0 -134.5 -53t-50.5 -148t50.5 -148t134.5 -53q41 0 75 14.5t59 40.5t39 63t14 83t-14 83t-39 63.5t-59 40.5t-75 14z" />
    <glyph glyph-name="aring" unicode="&#xe5;" 
d="M323 817q44 0 74.5 -28t30.5 -77t-30.5 -77t-74.5 -28q-43 0 -74 28t-31 77t31 77t74 28zM323 775q-26 0 -43.5 -17t-17.5 -46t17.5 -46t43.5 -17t44 17t18 46t-18 46t-44 17zM298 556q82 0 137 -41t76 -106v140h91v-549h-91v140q-21 -65 -76 -106t-137 -41
q-55 0 -101 19.5t-79.5 55.5t-52.5 88t-19 118t19 118.5t52.5 88.5t79.5 55.5t101 19.5zM324 475q-84 0 -134.5 -53t-50.5 -148t50.5 -148t134.5 -53q41 0 75 14.5t59 40.5t39 63t14 83t-14 83t-39 63.5t-59 40.5t-75 14z" />
    <glyph glyph-name="ae" unicode="&#xe6;" horiz-adv-x="1106" 
d="M1060 305q0 -17 -1 -27.5t-3 -22.5h-452q2 -50 18 -85.5t41 -58.5t57.5 -34t67.5 -11q69 0 115 33t57 91h96q-7 -43 -27 -79t-51 -62t-71.5 -41t-90.5 -15q-77 0 -135 37t-79 110v-140h-91v140q-21 -65 -76 -106t-137 -41q-55 0 -101 19.5t-79.5 55.5t-52.5 88t-19 118
t19 118.5t52.5 88.5t79.5 55.5t101 19.5q82 0 137 -41t76 -106v140h91v-141q20 73 78.5 110.5t135.5 37.5q59 0 104 -20t76.5 -54.5t47.5 -80t16 -96.5zM969 299q2 48 -12.5 82.5t-39.5 57t-58.5 33t-68.5 10.5q-34 0 -67 -10.5t-58.5 -32.5t-42 -56.5t-18.5 -83.5h365z
M324 73q41 0 75 14.5t59 40.5t39 63t14 83t-14 83t-39 63.5t-59 40.5t-75 14q-84 0 -134.5 -53t-50.5 -148t50.5 -148t134.5 -53z" />
    <glyph glyph-name="ccedilla" unicode="&#xe7;" horiz-adv-x="621" 
d="M314 72q66 0 110 33.5t55 93.5h96q-15 -91 -80 -146.5t-167 -59.5v-60q53 2 90 -20.5t37 -73.5q0 -50 -35 -74.5t-87 -24.5h-102v53h92q37 0 52 13.5t15 34.5q0 19 -15 32t-52 13h-54v110q-49 7 -90.5 29t-70.5 57.5t-45.5 84t-16.5 107.5q0 66 20 118.5t56 88.5
t85.5 55.5t108.5 19.5q53 0 97.5 -14.5t77.5 -41.5t54.5 -65t29.5 -85h-96q-11 60 -55 93t-110 33q-34 0 -66 -12t-56 -36.5t-38.5 -62.5t-14.5 -91q0 -52 14.5 -90t38.5 -63t56 -37t66 -12z" />
    <glyph glyph-name="egrave" unicode="&#xe8;" horiz-adv-x="624" 
d="M393 593l-158 94l26 49l151 -105zM578 305q0 -17 -1 -27.5t-3 -22.5h-439q2 -50 17 -85.5t39.5 -58.5t56 -33.5t64.5 -10.5q66 0 110.5 33t54.5 90h97q-7 -43 -29 -79t-55 -62t-77 -41t-97 -15q-59 0 -108.5 19t-85.5 55.5t-56 88.5t-20 118t20 118.5t56 88.5t85.5 55.5
t108.5 19.5q62 0 111 -20t82.5 -54.5t51 -80t17.5 -96.5zM486 299q3 48 -11 82.5t-38 57t-56 33t-65 10.5q-35 0 -67 -11t-56.5 -33.5t-40 -57t-17.5 -81.5h351z" />
    <glyph glyph-name="eacute" unicode="&#xe9;" horiz-adv-x="624" 
d="M246 600l-19 35l165 98l22 -49zM578 305q0 -17 -1 -27.5t-3 -22.5h-439q2 -50 17 -85.5t39.5 -58.5t56 -33.5t64.5 -10.5q66 0 110.5 33t54.5 90h97q-7 -43 -29 -79t-55 -62t-77 -41t-97 -15q-59 0 -108.5 19t-85.5 55.5t-56 88.5t-20 118t20 118.5t56 88.5t85.5 55.5
t108.5 19.5q62 0 111 -20t82.5 -54.5t51 -80t17.5 -96.5zM486 299q3 48 -11 82.5t-38 57t-56 33t-65 10.5q-35 0 -67 -11t-56.5 -33.5t-40 -57t-17.5 -81.5h351z" />
    <glyph glyph-name="ecircumflex" unicode="&#xea;" horiz-adv-x="624" 
d="M202 600l-18 39l128 77l128 -77l-19 -40l-109 63zM578 305q0 -17 -1 -27.5t-3 -22.5h-439q2 -50 17 -85.5t39.5 -58.5t56 -33.5t64.5 -10.5q66 0 110.5 33t54.5 90h97q-7 -43 -29 -79t-55 -62t-77 -41t-97 -15q-59 0 -108.5 19t-85.5 55.5t-56 88.5t-20 118t20 118.5
t56 88.5t85.5 55.5t108.5 19.5q62 0 111 -20t82.5 -54.5t51 -80t17.5 -96.5zM486 299q3 48 -11 82.5t-38 57t-56 33t-65 10.5q-35 0 -67 -11t-56.5 -33.5t-40 -57t-17.5 -81.5h351z" />
    <glyph glyph-name="edieresis" unicode="&#xeb;" horiz-adv-x="624" 
d="M229 625q-21 0 -35.5 14.5t-14.5 34.5q0 21 14.5 35.5t35.5 14.5t35.5 -14.5t14.5 -35.5q0 -20 -14.5 -34.5t-35.5 -14.5zM395 625q-21 0 -35.5 14.5t-14.5 34.5q0 21 14.5 35.5t35.5 14.5t35.5 -14.5t14.5 -35.5q0 -20 -14.5 -34.5t-35.5 -14.5zM578 305q0 -17 -1 -27.5
t-3 -22.5h-439q2 -50 17 -85.5t39.5 -58.5t56 -33.5t64.5 -10.5q66 0 110.5 33t54.5 90h97q-7 -43 -29 -79t-55 -62t-77 -41t-97 -15q-59 0 -108.5 19t-85.5 55.5t-56 88.5t-20 118t20 118.5t56 88.5t85.5 55.5t108.5 19.5q62 0 111 -20t82.5 -54.5t51 -80t17.5 -96.5z
M486 299q3 48 -11 82.5t-38 57t-56 33t-65 10.5q-35 0 -67 -11t-56.5 -33.5t-40 -57t-17.5 -81.5h351z" />
    <glyph glyph-name="igrave" unicode="&#xec;" horiz-adv-x="255" 
d="M227 631l-19 -38l-158 94l26 49zM173 549v-549h-92v549h92z" />
    <glyph glyph-name="iacute" unicode="&#xed;" horiz-adv-x="255" 
d="M229 684l-168 -84l-19 35l165 98zM173 549v-549h-92v549h92z" />
    <glyph glyph-name="icircumflex" unicode="&#xee;" horiz-adv-x="255" 
d="M127 662l-110 -62l-18 39l128 77l128 -77l-19 -40zM173 549v-549h-92v549h92z" />
    <glyph glyph-name="idieresis" unicode="&#xef;" horiz-adv-x="255" 
d="M-5 674q0 21 14.5 35.5t35.5 14.5t35.5 -14.5t14.5 -35.5q0 -20 -14.5 -34.5t-35.5 -14.5t-35.5 14.5t-14.5 34.5zM161 674q0 21 14.5 35.5t35.5 14.5t35.5 -14.5t14.5 -35.5q0 -20 -14.5 -34.5t-35.5 -14.5t-35.5 14.5t-14.5 34.5zM173 549v-549h-92v549h92z" />
    <glyph glyph-name="eth" unicode="&#xf0;" horiz-adv-x="644" 
d="M453 670q145 -157 145 -359q0 -79 -20.5 -139t-57 -99.5t-86.5 -59.5t-109 -20q-62 0 -113.5 21t-88 59.5t-57 92t-20.5 119.5q0 62 19.5 112.5t55 86t85 55t109.5 19.5t111.5 -32t76.5 -101q-13 64 -39.5 118t-71.5 106l-136 -46v38l109 37l-33 30.5t-37 31.5h83
l24.5 -21t22.5 -21l122 41v-37zM325 73q38 0 70.5 13t57 38.5t38.5 63t14 86.5q0 51 -15 89t-40 63.5t-58 38.5t-69 13q-38 0 -71.5 -12t-58.5 -36.5t-39.5 -60.5t-14.5 -84q0 -52 14.5 -91.5t39.5 -66.5t59 -40.5t73 -13.5z" />
    <glyph glyph-name="ntilde" unicode="&#xf1;" horiz-adv-x="643" 
d="M264 652q-33 0 -40 -45h-43q15 94 86 94q19 0 33 -7t26.5 -16t24.5 -16t28 -7q15 0 26.5 11t14.5 33h44q-6 -46 -29.5 -69.5t-58.5 -23.5q-19 0 -33.5 7t-27 16t-24.5 16t-27 7zM362 558q46 0 85.5 -15t68 -44.5t44.5 -74.5t16 -105v-319h-91v311q0 85 -42.5 127.5
t-113.5 42.5q-73 0 -119 -47t-46 -143v-291h-91v549h91v-130q22 69 75.5 104t122.5 35z" />
    <glyph glyph-name="ograve" unicode="&#xf2;" horiz-adv-x="643" 
d="M422 631l-19 -38l-158 94l26 49zM322 556q59 0 109.5 -19.5t87 -55.5t57.5 -88.5t21 -118.5t-21 -118t-57.5 -88.5t-87 -55.5t-109.5 -19t-109.5 19t-87.5 55.5t-58 88.5t-21 118t21 118.5t58 88.5t87.5 55.5t109.5 19.5zM322 476q-35 0 -68 -12t-58.5 -36.5t-41 -62.5
t-15.5 -91q0 -52 15.5 -90t41 -62.5t58.5 -36.5t68 -12t68 12t58.5 36.5t41 62.5t15.5 90q0 53 -15.5 91t-41 62.5t-58.5 36.5t-68 12z" />
    <glyph glyph-name="oacute" unicode="&#xf3;" horiz-adv-x="643" 
d="M424 684l-168 -84l-19 35l165 98zM322 556q59 0 109.5 -19.5t87 -55.5t57.5 -88.5t21 -118.5t-21 -118t-57.5 -88.5t-87 -55.5t-109.5 -19t-109.5 19t-87.5 55.5t-58 88.5t-21 118t21 118.5t58 88.5t87.5 55.5t109.5 19.5zM322 476q-35 0 -68 -12t-58.5 -36.5t-41 -62.5
t-15.5 -91q0 -52 15.5 -90t41 -62.5t58.5 -36.5t68 -12t68 12t58.5 36.5t41 62.5t15.5 90q0 53 -15.5 91t-41 62.5t-58.5 36.5t-68 12z" />
    <glyph glyph-name="ocircumflex" unicode="&#xf4;" horiz-adv-x="643" 
d="M322 662l-110 -62l-18 39l128 77l128 -77l-19 -40zM322 556q59 0 109.5 -19.5t87 -55.5t57.5 -88.5t21 -118.5t-21 -118t-57.5 -88.5t-87 -55.5t-109.5 -19t-109.5 19t-87.5 55.5t-58 88.5t-21 118t21 118.5t58 88.5t87.5 55.5t109.5 19.5zM322 476q-35 0 -68 -12
t-58.5 -36.5t-41 -62.5t-15.5 -91q0 -52 15.5 -90t41 -62.5t58.5 -36.5t68 -12t68 12t58.5 36.5t41 62.5t15.5 90q0 53 -15.5 91t-41 62.5t-58.5 36.5t-68 12z" />
    <glyph glyph-name="otilde" unicode="&#xf5;" horiz-adv-x="643" 
d="M267 701q19 0 33 -7t26.5 -16t24.5 -16t28 -7q15 0 26.5 11t14.5 33h44q-6 -46 -29.5 -69.5t-58.5 -23.5q-19 0 -33.5 7t-27 16t-24.5 16t-27 7q-33 0 -40 -45h-43q15 94 86 94zM322 556q59 0 109.5 -19.5t87 -55.5t57.5 -88.5t21 -118.5t-21 -118t-57.5 -88.5t-87 -55.5
t-109.5 -19t-109.5 19t-87.5 55.5t-58 88.5t-21 118t21 118.5t58 88.5t87.5 55.5t109.5 19.5zM322 476q-35 0 -68 -12t-58.5 -36.5t-41 -62.5t-15.5 -91q0 -52 15.5 -90t41 -62.5t58.5 -36.5t68 -12t68 12t58.5 36.5t41 62.5t15.5 90q0 53 -15.5 91t-41 62.5t-58.5 36.5
t-68 12z" />
    <glyph glyph-name="odieresis" unicode="&#xf6;" horiz-adv-x="643" 
d="M189 674q0 21 14.5 35.5t35.5 14.5t35.5 -14.5t14.5 -35.5q0 -20 -14.5 -34.5t-35.5 -14.5t-35.5 14.5t-14.5 34.5zM355 674q0 21 14.5 35.5t35.5 14.5t35.5 -14.5t14.5 -35.5q0 -20 -14.5 -34.5t-35.5 -14.5t-35.5 14.5t-14.5 34.5zM322 556q59 0 109.5 -19.5t87 -55.5
t57.5 -88.5t21 -118.5t-21 -118t-57.5 -88.5t-87 -55.5t-109.5 -19t-109.5 19t-87.5 55.5t-58 88.5t-21 118t21 118.5t58 88.5t87.5 55.5t109.5 19.5zM322 476q-35 0 -68 -12t-58.5 -36.5t-41 -62.5t-15.5 -91q0 -52 15.5 -90t41 -62.5t58.5 -36.5t68 -12t68 12t58.5 36.5
t41 62.5t15.5 90q0 53 -15.5 91t-41 62.5t-58.5 36.5t-68 12z" />
    <glyph glyph-name="divide" unicode="&#xf7;" horiz-adv-x="576" 
d="M343 640v-106h-111v106h111zM543 407v-83h-510v83h510zM343 200v-106h-111v106h111z" />
    <glyph glyph-name="oslash" unicode="&#xf8;" horiz-adv-x="638" 
d="M524 472q33 -36 51.5 -86t18.5 -112q0 -66 -21 -118t-57.5 -88.5t-87 -55.5t-109.5 -19q-105 0 -178 58l-46 -51h-50l69 76q-34 36 -52.5 85.5t-18.5 112.5q0 66 21 118.5t58 88.5t87.5 55.5t109.5 19.5q52 0 97.5 -15t80.5 -44l47 52h51zM136 274q0 -42 10.5 -75
t27.5 -57l265 292q-25 21 -56 31.5t-64 10.5q-35 0 -68 -12t-58.5 -36.5t-41 -62.5t-15.5 -91zM502 274q0 42 -10 75t-27 57l-265 -291q25 -22 55.5 -32t63.5 -10q35 0 68 12t58.5 36.5t41 62.5t15.5 90z" />
    <glyph glyph-name="ugrave" unicode="&#xf9;" horiz-adv-x="634" 
d="M398 593l-158 94l26 49l151 -105zM561 549v-549h-91v129q-22 -69 -76 -103.5t-123 -34.5q-46 0 -85 15t-67.5 44.5t-44.5 74t-16 104.5v320h91v-311q0 -85 42.5 -128t113.5 -43q72 0 118.5 47t46.5 143v292h91z" />
    <glyph glyph-name="uacute" unicode="&#xfa;" horiz-adv-x="634" 
d="M251 600l-19 35l165 98l22 -49zM561 549v-549h-91v129q-22 -69 -76 -103.5t-123 -34.5q-46 0 -85 15t-67.5 44.5t-44.5 74t-16 104.5v320h91v-311q0 -85 42.5 -128t113.5 -43q72 0 118.5 47t46.5 143v292h91z" />
    <glyph glyph-name="ucircumflex" unicode="&#xfb;" horiz-adv-x="634" 
d="M207 600l-18 39l128 77l128 -77l-19 -40l-109 63zM561 549v-549h-91v129q-22 -69 -76 -103.5t-123 -34.5q-46 0 -85 15t-67.5 44.5t-44.5 74t-16 104.5v320h91v-311q0 -85 42.5 -128t113.5 -43q72 0 118.5 47t46.5 143v292h91z" />
    <glyph glyph-name="udieresis" unicode="&#xfc;" horiz-adv-x="634" 
d="M227 625q-21 0 -35.5 14.5t-14.5 34.5q0 21 14.5 35.5t35.5 14.5t35.5 -14.5t14.5 -35.5q0 -20 -14.5 -34.5t-35.5 -14.5zM393 625q-21 0 -35.5 14.5t-14.5 34.5q0 21 14.5 35.5t35.5 14.5t35.5 -14.5t14.5 -35.5q0 -20 -14.5 -34.5t-35.5 -14.5zM561 549v-549h-91v129
q-22 -69 -76 -103.5t-123 -34.5q-46 0 -85 15t-67.5 44.5t-44.5 74t-16 104.5v320h91v-311q0 -85 42.5 -128t113.5 -43q72 0 118.5 47t46.5 143v292h91z" />
    <glyph glyph-name="yacute" unicode="&#xfd;" horiz-adv-x="565" 
d="M385 684l-168 -84l-19 35l165 98zM111 549l178 -432l165 432h101l-326 -809h-103l114 269l-231 540h102z" />
    <glyph glyph-name="thorn" unicode="&#xfe;" 
d="M370 554q56 0 103 -20t81.5 -56.5t54 -88.5t19.5 -116t-19.5 -116t-54 -88.5t-81.5 -56t-103 -19.5q-78 0 -130.5 39t-75.5 102v-394h-91v1000h91v-321q23 61 75.5 98t130.5 37zM350 475q-39 0 -72.5 -13.5t-59 -39.5t-40 -63.5t-14.5 -84.5t14.5 -84.5t40 -63.5
t59 -39.5t72.5 -13.5q40 0 74 13t59 38.5t39 62.5t14 86q0 48 -14 86t-39 63.5t-59 39t-74 13.5z" />
    <glyph glyph-name="ydieresis" unicode="&#xff;" horiz-adv-x="565" 
d="M149 674q0 21 14.5 35.5t35.5 14.5t35.5 -14.5t14.5 -35.5q0 -20 -14.5 -34.5t-35.5 -14.5t-35.5 14.5t-14.5 34.5zM315 674q0 21 14.5 35.5t35.5 14.5t35.5 -14.5t14.5 -35.5q0 -20 -14.5 -34.5t-35.5 -14.5t-35.5 14.5t-14.5 34.5zM111 549l178 -432l165 432h101
l-326 -809h-103l114 269l-231 540h102z" />
    <glyph glyph-name="Amacron" unicode="&#x100;" horiz-adv-x="662" 
d="M508 803h-353v64h353v-64zM486 163h-310l-59 -163h-98l261 692h103l260 -692h-98zM460 234l-129 356l-129 -356h258z" />
    <glyph glyph-name="amacron" unicode="&#x101;" 
d="M501 710v-64h-353v64h353zM298 556q82 0 137 -41t76 -106v140h91v-549h-91v140q-21 -65 -76 -106t-137 -41q-55 0 -101 19.5t-79.5 55.5t-52.5 88t-19 118t19 118.5t52.5 88.5t79.5 55.5t101 19.5zM324 475q-84 0 -134.5 -53t-50.5 -148t50.5 -148t134.5 -53
q41 0 75 14.5t59 40.5t39 63t14 83t-14 83t-39 63.5t-59 40.5t-75 14z" />
    <glyph glyph-name="Abreve" unicode="&#x102;" horiz-adv-x="662" 
d="M332 766q-65 0 -98 36.5t-33 90.5v8h43q0 -37 21.5 -57t66.5 -20t66.5 20t21.5 57h43v-8q0 -54 -33 -90.5t-98 -36.5zM486 163h-310l-59 -163h-98l261 692h103l260 -692h-98zM460 234l-129 356l-129 -356h258z" />
    <glyph glyph-name="abreve" unicode="&#x103;" 
d="M337 610q-65 0 -98 36.5t-33 90.5v8h43q0 -37 21.5 -57t66.5 -20t66.5 20t21.5 57h43v-8q0 -54 -33 -90.5t-98 -36.5zM298 556q82 0 137 -41t76 -106v140h91v-549h-91v140q-21 -65 -76 -106t-137 -41q-55 0 -101 19.5t-79.5 55.5t-52.5 88t-19 118t19 118.5t52.5 88.5
t79.5 55.5t101 19.5zM324 475q-84 0 -134.5 -53t-50.5 -148t50.5 -148t134.5 -53q41 0 75 14.5t59 40.5t39 63t14 83t-14 83t-39 63.5t-59 40.5t-75 14z" />
    <glyph glyph-name="Aogonek" unicode="&#x104;" horiz-adv-x="662" 
d="M682 -147v-53h-103q-56 0 -92 26.5t-36 77.5q0 36 21.5 62t71.5 36l-58 161h-310l-59 -163h-98l261 692h103l258 -687v-45h-54q-33 0 -51.5 -13.5t-18.5 -39.5t18.5 -40t51.5 -14h95zM460 234l-129 356l-129 -356h258z" />
    <glyph glyph-name="aogonek" unicode="&#x105;" 
d="M644 -146v-53h-104q-55 0 -91 27t-36 78q0 45 28 71.5t70 32.5v130q-21 -65 -76 -106t-137 -41q-55 0 -101 19.5t-79.5 55.5t-52.5 88t-19 118t19 118.5t52.5 88.5t79.5 55.5t101 19.5q82 0 137 -41t76 -106v140h91v-587h-54q-32 0 -51 -14t-19 -39q0 -26 19 -40.5
t51 -14.5h96zM324 73q41 0 75 14.5t59 40.5t39 63t14 83t-14 83t-39 63.5t-59 40.5t-75 14q-84 0 -134.5 -53t-50.5 -148t50.5 -148t134.5 -53z" />
    <glyph glyph-name="Cacute" unicode="&#x106;" horiz-adv-x="763" 
d="M484 840l-168 -84l-19 35l165 98zM385 712q66 0 120 -17t95 -48t70 -74.5t44 -97.5h-96q-26 67 -84.5 110t-149.5 43q-51 0 -95.5 -19t-76.5 -55t-50.5 -87t-18.5 -115q0 -63 18.5 -114t50.5 -86.5t76.5 -54.5t95.5 -19q91 0 149.5 43t84.5 110h96q-15 -54 -44 -97.5
t-70 -74.5t-95 -48t-120 -17q-75 0 -137 26.5t-106 74t-68.5 113t-24.5 144.5q0 80 24.5 146t68.5 113.5t106 74t137 26.5z" />
    <glyph glyph-name="cacute" unicode="&#x107;" horiz-adv-x="621" 
d="M413 684l-168 -84l-19 35l165 98zM316 556q53 0 97.5 -14.5t77.5 -41.5t54.5 -65t29.5 -85h-96q-11 60 -55 93t-110 33q-34 0 -66 -12t-56 -36.5t-38.5 -62.5t-14.5 -91q0 -52 14.5 -90t38.5 -63t56 -37t66 -12q66 0 110 33.5t55 93.5h96q-16 -94 -84 -150t-175 -56
q-59 0 -108.5 19t-85.5 55.5t-56 88.5t-20 118t20 118.5t56 88.5t85.5 55.5t108.5 19.5z" />
    <glyph glyph-name="Cdotaccent" unicode="&#x10a;" horiz-adv-x="763" 
d="M331 831q0 21 14.5 35.5t34.5 14.5q21 0 36 -14.5t15 -35.5q0 -20 -15 -34.5t-36 -14.5q-20 0 -34.5 14.5t-14.5 34.5zM385 712q66 0 120 -17t95 -48t70 -74.5t44 -97.5h-96q-26 67 -84.5 110t-149.5 43q-51 0 -95.5 -19t-76.5 -55t-50.5 -87t-18.5 -115q0 -63 18.5 -114
t50.5 -86.5t76.5 -54.5t95.5 -19q91 0 149.5 43t84.5 110h96q-15 -54 -44 -97.5t-70 -74.5t-95 -48t-120 -17q-75 0 -137 26.5t-106 74t-68.5 113t-24.5 144.5q0 80 24.5 146t68.5 113.5t106 74t137 26.5z" />
    <glyph glyph-name="cdotaccent" unicode="&#x10b;" horiz-adv-x="621" 
d="M261 674q0 21 14.5 35.5t34.5 14.5q21 0 36 -14.5t15 -35.5q0 -20 -15 -34.5t-36 -14.5q-20 0 -34.5 14.5t-14.5 34.5zM316 556q53 0 97.5 -14.5t77.5 -41.5t54.5 -65t29.5 -85h-96q-11 60 -55 93t-110 33q-34 0 -66 -12t-56 -36.5t-38.5 -62.5t-14.5 -91q0 -52 14.5 -90
t38.5 -63t56 -37t66 -12q66 0 110 33.5t55 93.5h96q-16 -94 -84 -150t-175 -56q-59 0 -108.5 19t-85.5 55.5t-56 88.5t-20 118t20 118.5t56 88.5t85.5 55.5t108.5 19.5z" />
    <glyph glyph-name="Ccaron" unicode="&#x10c;" horiz-adv-x="763" 
d="M520 848l-138 -83l-139 83v64l139 -84l138 84v-64zM385 712q66 0 120 -17t95 -48t70 -74.5t44 -97.5h-96q-26 67 -84.5 110t-149.5 43q-51 0 -95.5 -19t-76.5 -55t-50.5 -87t-18.5 -115q0 -63 18.5 -114t50.5 -86.5t76.5 -54.5t95.5 -19q91 0 149.5 43t84.5 110h96
q-15 -54 -44 -97.5t-70 -74.5t-95 -48t-120 -17q-75 0 -137 26.5t-106 74t-68.5 113t-24.5 144.5q0 80 24.5 146t68.5 113.5t106 74t137 26.5z" />
    <glyph glyph-name="ccaron" unicode="&#x10d;" horiz-adv-x="621" 
d="M449 691l-138 -83l-139 83v64l139 -84l138 84v-64zM316 556q53 0 97.5 -14.5t77.5 -41.5t54.5 -65t29.5 -85h-96q-11 60 -55 93t-110 33q-34 0 -66 -12t-56 -36.5t-38.5 -62.5t-14.5 -91q0 -52 14.5 -90t38.5 -63t56 -37t66 -12q66 0 110 33.5t55 93.5h96
q-16 -94 -84 -150t-175 -56q-59 0 -108.5 19t-85.5 55.5t-56 88.5t-20 118t20 118.5t56 88.5t85.5 55.5t108.5 19.5z" />
    <glyph glyph-name="Dcaron" unicode="&#x10e;" horiz-adv-x="717" 
d="M508 848l-138 -83l-139 83v64l139 -84l138 84v-64zM667 353q0 -80 -24.5 -145.5t-71.5 -111.5t-116 -71t-158 -25h-224v705h224q89 0 158 -24.5t116 -70.5t71.5 -111t24.5 -146zM290 82q141 0 212.5 71.5t71.5 199.5t-71.5 200t-212.5 72h-126v-543h126z" />
    <glyph glyph-name="dcaron" unicode="&#x10f;" horiz-adv-x="746" 
d="M298 556q82 0 137 -41t76 -106v331h91v-740h-91v140q-21 -65 -76 -106t-137 -41q-55 0 -101 19.5t-79.5 55.5t-52.5 88t-19 118t19 118.5t52.5 88.5t79.5 55.5t101 19.5zM751 740q6 -26 8.5 -49t2.5 -43q0 -113 -101 -113v41q26 0 37 13.5t11 41.5v23h-50v86h92zM324 475
q-84 0 -134.5 -53t-50.5 -148t50.5 -148t134.5 -53q41 0 75 14.5t59 40.5t39 63t14 83t-14 83t-39 63.5t-59 40.5t-75 14z" />
    <glyph glyph-name="Dcroat" unicode="&#x110;" horiz-adv-x="742" 
d="M322 705q90 0 159 -24.5t116 -70.5t71.5 -111t24.5 -146q0 -80 -24.5 -145.5t-71.5 -111.5t-116 -71t-159 -25h-224v316h-92v74h92v315h224zM315 82q141 0 213 71.5t72 199.5t-72 200t-213 72h-125v-235h197v-74h-197v-234h125z" />
    <glyph glyph-name="dcroat" unicode="&#x111;" horiz-adv-x="678" 
d="M658 604h-56v-604h-91v140q-21 -65 -76 -106t-137 -41q-55 0 -101 19.5t-79.5 55.5t-52.5 88t-19 118t19 118.5t52.5 88.5t79.5 55.5t101 19.5q82 0 137 -41t76 -106v195h-164v45h164v91h91v-91h56v-45zM324 73q41 0 75 14.5t59 40.5t39 63t14 83t-14 83t-39 63.5
t-59 40.5t-75 14q-84 0 -134.5 -53t-50.5 -148t50.5 -148t134.5 -53z" />
    <glyph glyph-name="Emacron" unicode="&#x112;" horiz-adv-x="506" 
d="M444 867v-64h-353v64h353zM164 631v-241h268v-70h-268v-246h298v-74h-389v705h389v-74h-298z" />
    <glyph glyph-name="emacron" unicode="&#x113;" horiz-adv-x="624" 
d="M489 646h-353v64h353v-64zM578 305q0 -17 -1 -27.5t-3 -22.5h-439q2 -50 17 -85.5t39.5 -58.5t56 -33.5t64.5 -10.5q66 0 110.5 33t54.5 90h97q-7 -43 -29 -79t-55 -62t-77 -41t-97 -15q-59 0 -108.5 19t-85.5 55.5t-56 88.5t-20 118t20 118.5t56 88.5t85.5 55.5
t108.5 19.5q62 0 111 -20t82.5 -54.5t51 -80t17.5 -96.5zM486 299q3 48 -11 82.5t-38 57t-56 33t-65 10.5q-35 0 -67 -11t-56.5 -33.5t-40 -57t-17.5 -81.5h351z" />
    <glyph glyph-name="Ebreve" unicode="&#x114;" horiz-adv-x="506" 
d="M253 766q-65 0 -98 36.5t-33 90.5v8h43q0 -37 21.5 -57t66.5 -20t66.5 20t21.5 57h43v-8q0 -54 -33 -90.5t-98 -36.5zM164 631v-241h268v-70h-268v-246h298v-74h-389v705h389v-74h-298z" />
    <glyph glyph-name="ebreve" unicode="&#x115;" horiz-adv-x="624" 
d="M312 610q-65 0 -98 36.5t-33 90.5v8h43q0 -37 21.5 -57t66.5 -20t66.5 20t21.5 57h43v-8q0 -54 -33 -90.5t-98 -36.5zM578 305q0 -17 -1 -27.5t-3 -22.5h-439q2 -50 17 -85.5t39.5 -58.5t56 -33.5t64.5 -10.5q66 0 110.5 33t54.5 90h97q-7 -43 -29 -79t-55 -62t-77 -41
t-97 -15q-59 0 -108.5 19t-85.5 55.5t-56 88.5t-20 118t20 118.5t56 88.5t85.5 55.5t108.5 19.5q62 0 111 -20t82.5 -54.5t51 -80t17.5 -96.5zM486 299q3 48 -11 82.5t-38 57t-56 33t-65 10.5q-35 0 -67 -11t-56.5 -33.5t-40 -57t-17.5 -81.5h351z" />
    <glyph glyph-name="Edotaccent" unicode="&#x116;" horiz-adv-x="506" 
d="M218 831q0 21 14.5 35.5t34.5 14.5q21 0 36 -14.5t15 -35.5q0 -20 -15 -34.5t-36 -14.5q-20 0 -34.5 14.5t-14.5 34.5zM164 631v-241h268v-70h-268v-246h298v-74h-389v705h389v-74h-298z" />
    <glyph glyph-name="edotaccent" unicode="&#x117;" horiz-adv-x="624" 
d="M311 625q-20 0 -34.5 14.5t-14.5 34.5q0 21 14.5 35.5t34.5 14.5q21 0 36 -14.5t15 -35.5q0 -20 -15 -34.5t-36 -14.5zM578 305q0 -17 -1 -27.5t-3 -22.5h-439q2 -50 17 -85.5t39.5 -58.5t56 -33.5t64.5 -10.5q66 0 110.5 33t54.5 90h97q-7 -43 -29 -79t-55 -62t-77 -41
t-97 -15q-59 0 -108.5 19t-85.5 55.5t-56 88.5t-20 118t20 118.5t56 88.5t85.5 55.5t108.5 19.5q62 0 111 -20t82.5 -54.5t51 -80t17.5 -96.5zM486 299q3 48 -11 82.5t-38 57t-56 33t-65 10.5q-35 0 -67 -11t-56.5 -33.5t-40 -57t-17.5 -81.5h351z" />
    <glyph glyph-name="Eogonek" unicode="&#x118;" horiz-adv-x="506" 
d="M488 -120v-53h-104q-55 0 -91 27t-36 78q0 41 24 68h-208v705h389v-74h-298v-241h268v-70h-268v-246h298v-74h-16v-12h-54q-32 0 -51 -14t-19 -39q0 -26 19 -40.5t51 -14.5h96z" />
    <glyph glyph-name="eogonek" unicode="&#x119;" horiz-adv-x="624" 
d="M578 305q0 -17 -1 -27.5t-3 -22.5h-439q2 -50 17 -85.5t40 -58.5t56 -33.5t64 -10.5q66 0 110.5 33t54.5 90h97q-14 -75 -68 -127t-139 -65q-23 -4 -23 -25t19.5 -34.5t54.5 -13.5h89v-53h-100q-56 0 -92 26.5t-36 77.5v21q-51 5 -94 26.5t-74 56.5t-48 84t-17 110
q0 66 20 118.5t56 88.5t85.5 55.5t108.5 19.5q62 0 111 -20t82.5 -54.5t51 -80t17.5 -96.5zM486 299q3 48 -11 82.5t-38 57t-56 33t-65 10.5q-35 0 -67 -11t-56.5 -33.5t-40 -57t-17.5 -81.5h351z" />
    <glyph glyph-name="Ecaron" unicode="&#x11a;" horiz-adv-x="506" 
d="M406 848l-138 -83l-139 83v64l139 -84l138 84v-64zM164 631v-241h268v-70h-268v-246h298v-74h-389v705h389v-74h-298z" />
    <glyph glyph-name="ecaron" unicode="&#x11b;" horiz-adv-x="624" 
d="M313 608l-139 83v64l139 -84l138 84v-64zM578 305q0 -17 -1 -27.5t-3 -22.5h-439q2 -50 17 -85.5t39.5 -58.5t56 -33.5t64.5 -10.5q66 0 110.5 33t54.5 90h97q-7 -43 -29 -79t-55 -62t-77 -41t-97 -15q-59 0 -108.5 19t-85.5 55.5t-56 88.5t-20 118t20 118.5t56 88.5
t85.5 55.5t108.5 19.5q62 0 111 -20t82.5 -54.5t51 -80t17.5 -96.5zM486 299q3 48 -11 82.5t-38 57t-56 33t-65 10.5q-35 0 -67 -11t-56.5 -33.5t-40 -57t-17.5 -81.5h351z" />
    <glyph glyph-name="Gbreve" unicode="&#x11e;" horiz-adv-x="778" 
d="M389 766q-65 0 -98 36.5t-33 90.5v8h43q0 -37 21.5 -57t66.5 -20t66.5 20t21.5 57h43v-8q0 -54 -33 -90.5t-98 -36.5zM393 712q63 0 115 -16t92.5 -46t69 -72t42.5 -93h-96q-24 62 -81.5 102t-140.5 40q-54 0 -100 -19t-79.5 -54.5t-52.5 -86.5t-19 -115q0 -66 19 -117.5
t53.5 -87t82 -54.5t104.5 -19q48 0 91 16t76 46t54.5 74t27.5 99h-277v68h354v-84q-6 -62 -32.5 -117t-69.5 -95.5t-101.5 -64t-130.5 -23.5q-77 0 -140.5 26.5t-109 74t-70.5 113.5t-25 145t25 145t70 114t108.5 74.5t140.5 26.5z" />
    <glyph glyph-name="gbreve" unicode="&#x11f;" 
d="M337 610q-65 0 -98 36.5t-33 90.5v8h43q0 -37 21.5 -57t66.5 -20t66.5 20t21.5 57h43v-8q0 -54 -33 -90.5t-98 -36.5zM298 556q82 0 137 -41t76 -106v140h91v-558q0 -58 -18 -105.5t-52 -82t-81 -53.5t-106 -19q-114 0 -182.5 54.5t-87.5 143.5h90q16 -54 59.5 -86
t115.5 -32q36 0 67 11.5t54 34t36.5 56.5t13.5 78v149q-21 -65 -76 -106t-137 -41q-55 0 -101 19.5t-79.5 55.5t-52.5 88t-19 118t19 118.5t52.5 88.5t79.5 55.5t101 19.5zM324 475q-84 0 -134.5 -53t-50.5 -148t50.5 -148t134.5 -53q41 0 75 14.5t59 40.5t39 63t14 83
t-14 83t-39 63.5t-59 40.5t-75 14z" />
    <glyph glyph-name="Gdotaccent" unicode="&#x120;" horiz-adv-x="778" 
d="M339 831q0 21 14.5 35.5t34.5 14.5q21 0 36 -14.5t15 -35.5q0 -20 -15 -34.5t-36 -14.5q-20 0 -34.5 14.5t-14.5 34.5zM393 712q63 0 115 -16t92.5 -46t69 -72t42.5 -93h-96q-24 62 -81.5 102t-140.5 40q-54 0 -100 -19t-79.5 -54.5t-52.5 -86.5t-19 -115
q0 -66 19 -117.5t53.5 -87t82 -54.5t104.5 -19q48 0 91 16t76 46t54.5 74t27.5 99h-277v68h354v-84q-6 -62 -32.5 -117t-69.5 -95.5t-101.5 -64t-130.5 -23.5q-77 0 -140.5 26.5t-109 74t-70.5 113.5t-25 145t25 145t70 114t108.5 74.5t140.5 26.5z" />
    <glyph glyph-name="gdotaccent" unicode="&#x121;" 
d="M274 674q0 21 14.5 35.5t34.5 14.5q21 0 36 -14.5t15 -35.5q0 -20 -15 -34.5t-36 -14.5q-20 0 -34.5 14.5t-14.5 34.5zM298 556q82 0 137 -41t76 -106v140h91v-558q0 -58 -18 -105.5t-52 -82t-81 -53.5t-106 -19q-114 0 -182.5 54.5t-87.5 143.5h90q16 -54 59.5 -86
t115.5 -32q36 0 67 11.5t54 34t36.5 56.5t13.5 78v149q-21 -65 -76 -106t-137 -41q-55 0 -101 19.5t-79.5 55.5t-52.5 88t-19 118t19 118.5t52.5 88.5t79.5 55.5t101 19.5zM324 475q-84 0 -134.5 -53t-50.5 -148t50.5 -148t134.5 -53q41 0 75 14.5t59 40.5t39 63t14 83
t-14 83t-39 63.5t-59 40.5t-75 14z" />
    <glyph glyph-name="Gcommaaccent" unicode="&#x122;" horiz-adv-x="779" 
d="M393 712q63 0 115 -16t92.5 -46t69 -72t42.5 -93h-96q-24 62 -81.5 102t-140.5 40q-54 0 -100 -19t-79.5 -54.5t-52.5 -86.5t-19 -115q0 -66 19 -117.5t53.5 -87t82 -54.5t104.5 -19q48 0 91 16t76 46t54.5 74t27.5 99h-277v68h354v-84q-6 -62 -32.5 -117t-69.5 -95.5
t-101.5 -64t-130.5 -23.5q-77 0 -140.5 26.5t-109 74t-70.5 113.5t-25 145t25 145t70 114t108.5 74.5t140.5 26.5zM437 -50q11 -36 11 -68q0 -60 -26.5 -89t-74.5 -29v39q48 0 48 61v9h-46v77h88z" />
    <glyph glyph-name="gcommaaccent" unicode="&#x123;" 
d="M290 595q-7 27 -9.5 50t-2.5 43q0 56 26 84t76 28v-40q-26 0 -37.5 -14t-11.5 -42v-22h50v-87h-91zM298 556q82 0 137 -41t76 -106v140h91v-558q0 -58 -18 -105.5t-52 -82t-81 -53.5t-106 -19q-114 0 -182.5 54.5t-87.5 143.5h90q16 -54 59.5 -86t115.5 -32q36 0 67 11.5
t54 34t36.5 56.5t13.5 78v149q-21 -65 -76 -106t-137 -41q-55 0 -101 19.5t-79.5 55.5t-52.5 88t-19 118t19 118.5t52.5 88.5t79.5 55.5t101 19.5zM324 475q-84 0 -134.5 -53t-50.5 -148t50.5 -148t134.5 -53q41 0 75 14.5t59 40.5t39 63t14 83t-14 83t-39 63.5t-59 40.5
t-75 14z" />
    <glyph glyph-name="Itilde" unicode="&#x128;" horiz-adv-x="237" 
d="M63 857q19 0 33 -7t26.5 -16t24.5 -16t28 -7q15 0 26.5 11t14.5 33h44q-6 -46 -29.5 -69.5t-58.5 -23.5q-19 0 -33.5 7t-27 16t-24.5 16t-27 7q-33 0 -40 -45h-43q15 94 86 94zM164 705v-705h-91v705h91z" />
    <glyph glyph-name="itilde" unicode="&#x129;" horiz-adv-x="255" 
d="M72 701q19 0 33 -7t26.5 -16t24.5 -16t28 -7q15 0 26.5 11t14.5 33h44q-6 -46 -29.5 -69.5t-58.5 -23.5q-19 0 -33.5 7t-27 16t-24.5 16t-27 7q-33 0 -40 -45h-43q15 94 86 94zM173 549v-549h-92v549h92z" />
    <glyph glyph-name="Imacron" unicode="&#x12a;" horiz-adv-x="237" 
d="M295 867v-64h-353v64h353zM164 705v-705h-91v705h91z" />
    <glyph glyph-name="imacron" unicode="&#x12b;" horiz-adv-x="255" 
d="M304 710v-64h-353v64h353zM173 549v-549h-92v549h92z" />
    <glyph glyph-name="Ibreve" unicode="&#x12c;" horiz-adv-x="237" 
d="M118 766q-65 0 -98 36.5t-33 90.5v8h43q0 -37 21.5 -57t66.5 -20t66.5 20t21.5 57h43v-8q0 -54 -33 -90.5t-98 -36.5zM164 705v-705h-91v705h91z" />
    <glyph glyph-name="ibreve" unicode="&#x12d;" horiz-adv-x="255" 
d="M127 610q-65 0 -98 36.5t-33 90.5v8h43q0 -37 21.5 -57t66.5 -20t66.5 20t21.5 57h43v-8q0 -54 -33 -90.5t-98 -36.5zM173 549v-549h-92v549h92z" />
    <glyph glyph-name="Iogonek" unicode="&#x12e;" horiz-adv-x="237" 
d="M206 -146v-53h-104q-55 0 -91 27t-36 78q0 45 28 71.5t70 32.5v695h91v-743h-54q-32 0 -51 -14t-19 -39q0 -26 19 -40.5t51 -14.5h96z" />
    <glyph glyph-name="iogonek" unicode="&#x12f;" horiz-adv-x="237" 
d="M119 654q-28 0 -45 15.5t-17 40.5t17 40.5t45 15.5t45 -15.5t17 -40.5t-17 -40.5t-45 -15.5zM206 -146v-53h-104q-55 0 -91 27t-36 78q0 45 28 71.5t70 32.5v539h91v-587h-54q-32 0 -51 -14t-19 -39q0 -26 19 -40.5t51 -14.5h96z" />
    <glyph glyph-name="Idotaccent" unicode="&#x130;" horiz-adv-x="237" 
d="M69 831q0 21 14.5 35.5t34.5 14.5q21 0 36 -14.5t15 -35.5q0 -20 -15 -34.5t-36 -14.5q-20 0 -34.5 14.5t-14.5 34.5zM164 705v-705h-91v705h91z" />
    <glyph glyph-name="dotlessi" unicode="&#x131;" horiz-adv-x="255" 
d="M173 549v-549h-92v549h92z" />
    <glyph glyph-name="Kcommaaccent" unicode="&#x136;" horiz-adv-x="602" 
d="M248 356l322 -356h-112l-294 329v-329h-91v705h91v-327l295 327h111zM341 -50q6 -17 8.5 -35t2.5 -33q0 -60 -26 -89t-74 -29v39q47 0 47 61v9h-46v77h88z" />
    <glyph glyph-name="kcommaaccent" unicode="&#x137;" horiz-adv-x="495" 
d="M488 0h-114l-210 247v-247h-91v740h91v-430l207 239h111l-246 -273zM295 -50q11 -36 11 -68q0 -60 -26.5 -89t-74.5 -29v39q48 0 48 61v9h-46v77h88z" />
    <glyph glyph-name="Lacute" unicode="&#x139;" horiz-adv-x="434" 
d="M320 840l-168 -84l-19 35l165 98zM164 71h250v-71h-341v705h91v-634z" />
    <glyph glyph-name="lacute" unicode="&#x13a;" horiz-adv-x="237" 
d="M164 656v-656h-91v611l-21 -11l-19 35l40 24v81h91v-27l34 20l22 -49z" />
    <glyph glyph-name="Lcommaaccent" unicode="&#x13b;" horiz-adv-x="436" 
d="M164 71h250v-71h-341v705h91v-634zM296 -50q11 -36 11 -68q0 -60 -26.5 -89t-74.5 -29v39q48 0 48 61v9h-46v77h88z" />
    <glyph glyph-name="lcommaaccent" unicode="&#x13c;" horiz-adv-x="237" 
d="M164 740v-740h-91v740h91zM162 -50q11 -36 11 -68q0 -60 -26.5 -89t-74.5 -29v39q48 0 48 61v9h-46v77h88z" />
    <glyph glyph-name="Lcaron" unicode="&#x13d;" horiz-adv-x="460" 
d="M164 71h250v-71h-341v705h91v-634zM372 705q12 -52 12 -92q0 -57 -26 -85t-76 -28v41q26 0 37.5 14t11.5 41v23h-50v86h91z" />
    <glyph glyph-name="lcaron" unicode="&#x13e;" horiz-adv-x="306" 
d="M164 740v-740h-91v740h91zM311 740q7 -26 9.5 -49t2.5 -43q0 -57 -26 -85t-76 -28v41q26 0 37.5 13.5t11.5 41.5v23h-50v86h91z" />
    <glyph glyph-name="Ldot" unicode="&#x13f;" horiz-adv-x="434" 
d="M164 71h250v-71h-341v705h91v-634zM315 352q0 21 14.5 35.5t34.5 14.5q21 0 36 -14.5t15 -35.5q0 -20 -15 -34.5t-36 -14.5q-20 0 -34.5 14.5t-14.5 34.5z" />
    <glyph glyph-name="ldot" unicode="&#x140;" horiz-adv-x="262" 
d="M164 740v-740h-91v740h91zM200 370q0 21 14.5 35.5t34.5 14.5q21 0 36 -14.5t15 -35.5q0 -20 -15 -34.5t-36 -14.5q-20 0 -34.5 14.5t-14.5 34.5z" />
    <glyph glyph-name="Lslash" unicode="&#x141;" horiz-adv-x="453" 
d="M433 71v-71h-342v312l-81 -32v91l81 32v302h92v-267l130 51v-91l-130 -51v-276h250z" />
    <glyph glyph-name="lslash" unicode="&#x142;" horiz-adv-x="268" 
d="M258 455l-78 -33v-422h-92v384l-78 -33v89l78 33v267h92v-229l78 33v-89z" />
    <glyph glyph-name="Nacute" unicode="&#x143;" horiz-adv-x="694" 
d="M449 840l-168 -84l-19 35l165 98zM621 0h-91l-366 557v-557h-91v705h91l366 -558v558h91v-705z" />
    <glyph glyph-name="nacute" unicode="&#x144;" horiz-adv-x="643" 
d="M256 600l-19 35l165 98l22 -49zM362 558q46 0 85.5 -15t68 -44.5t44.5 -74.5t16 -105v-319h-91v311q0 85 -42.5 127.5t-113.5 42.5q-73 0 -119 -47t-46 -143v-291h-91v549h91v-130q22 69 75.5 104t122.5 35z" />
    <glyph glyph-name="Ncommaaccent" unicode="&#x145;" horiz-adv-x="712" 
d="M621 0h-91l-366 557v-557h-91v705h91l366 -558v558h91v-705zM398 -50q11 -36 11 -68q0 -60 -26.5 -89t-74.5 -29v39q48 0 48 61v9h-46v77h88z" />
    <glyph glyph-name="ncommaaccent" unicode="&#x146;" horiz-adv-x="643" 
d="M362 558q46 0 85.5 -15t68 -44.5t44.5 -74.5t16 -105v-319h-91v311q0 85 -42.5 127.5t-113.5 42.5q-73 0 -119 -47t-46 -143v-291h-91v549h91v-130q22 69 75.5 104t122.5 35zM377 -50q11 -36 11 -68q0 -60 -26.5 -89t-74.5 -29v39q48 0 48 61v9h-46v77h88z" />
    <glyph glyph-name="Ncaron" unicode="&#x147;" horiz-adv-x="694" 
d="M485 848l-138 -83l-139 83v64l139 -84l138 84v-64zM621 0h-91l-366 557v-557h-91v705h91l366 -558v558h91v-705z" />
    <glyph glyph-name="ncaron" unicode="&#x148;" horiz-adv-x="643" 
d="M324 608l-139 83v64l139 -84l138 84v-64zM362 558q46 0 85.5 -15t68 -44.5t44.5 -74.5t16 -105v-319h-91v311q0 85 -42.5 127.5t-113.5 42.5q-73 0 -119 -47t-46 -143v-291h-91v549h91v-130q22 69 75.5 104t122.5 35z" />
    <glyph glyph-name="Omacron" unicode="&#x14c;" horiz-adv-x="791" 
d="M572 867v-64h-353v64h353zM396 714q74 0 137.5 -26.5t109.5 -74.5t72 -114t26 -146q0 -79 -26 -145.5t-72.5 -114.5t-109.5 -74.5t-137 -26.5t-137.5 26.5t-110 74.5t-73 114.5t-26.5 145.5q0 80 26.5 146t73 114t110 74.5t137.5 26.5zM396 629q-55 0 -101 -19t-80 -55
t-53 -87t-19 -115t19 -115t53 -87t80 -55t101 -19q54 0 100 19t80 55t53 87t19 115t-19 115t-53 87t-80 55t-100 19z" />
    <glyph glyph-name="omacron" unicode="&#x14d;" horiz-adv-x="643" 
d="M498 710v-64h-353v64h353zM322 556q59 0 109.5 -19.5t87 -55.5t57.5 -88.5t21 -118.5t-21 -118t-57.5 -88.5t-87 -55.5t-109.5 -19t-109.5 19t-87.5 55.5t-58 88.5t-21 118t21 118.5t58 88.5t87.5 55.5t109.5 19.5zM322 476q-35 0 -68 -12t-58.5 -36.5t-41 -62.5
t-15.5 -91q0 -52 15.5 -90t41 -62.5t58.5 -36.5t68 -12t68 12t58.5 36.5t41 62.5t15.5 90q0 53 -15.5 91t-41 62.5t-58.5 36.5t-68 12z" />
    <glyph glyph-name="Obreve" unicode="&#x14e;" horiz-adv-x="791" 
d="M395 766q-65 0 -98 36.5t-33 90.5v8h43q0 -37 21.5 -57t66.5 -20t66.5 20t21.5 57h43v-8q0 -54 -33 -90.5t-98 -36.5zM396 714q74 0 137.5 -26.5t109.5 -74.5t72 -114t26 -146q0 -79 -26 -145.5t-72.5 -114.5t-109.5 -74.5t-137 -26.5t-137.5 26.5t-110 74.5t-73 114.5
t-26.5 145.5q0 80 26.5 146t73 114t110 74.5t137.5 26.5zM396 629q-55 0 -101 -19t-80 -55t-53 -87t-19 -115t19 -115t53 -87t80 -55t101 -19q54 0 100 19t80 55t53 87t19 115t-19 115t-53 87t-80 55t-100 19z" />
    <glyph glyph-name="obreve" unicode="&#x14f;" horiz-adv-x="643" 
d="M322 610q-65 0 -98 36.5t-33 90.5v8h43q0 -37 21.5 -57t66.5 -20t66.5 20t21.5 57h43v-8q0 -54 -33 -90.5t-98 -36.5zM322 556q59 0 109.5 -19.5t87 -55.5t57.5 -88.5t21 -118.5t-21 -118t-57.5 -88.5t-87 -55.5t-109.5 -19t-109.5 19t-87.5 55.5t-58 88.5t-21 118
t21 118.5t58 88.5t87.5 55.5t109.5 19.5zM322 476q-35 0 -68 -12t-58.5 -36.5t-41 -62.5t-15.5 -91q0 -52 15.5 -90t41 -62.5t58.5 -36.5t68 -12t68 12t58.5 36.5t41 62.5t15.5 90q0 53 -15.5 91t-41 62.5t-58.5 36.5t-68 12z" />
    <glyph glyph-name="Ohungarumlaut" unicode="&#x150;" horiz-adv-x="791" 
d="M343 758h-60l67 154h75zM494 758h-60l79 154h74zM396 714q74 0 137.5 -26.5t109.5 -74.5t72 -114t26 -146q0 -79 -26 -145.5t-72.5 -114.5t-109.5 -74.5t-137 -26.5t-137.5 26.5t-110 74.5t-73 114.5t-26.5 145.5q0 80 26.5 146t73 114t110 74.5t137.5 26.5zM396 629
q-55 0 -101 -19t-80 -55t-53 -87t-19 -115t19 -115t53 -87t80 -55t101 -19q54 0 100 19t80 55t53 87t19 115t-19 115t-53 87t-80 55t-100 19z" />
    <glyph glyph-name="ohungarumlaut" unicode="&#x151;" horiz-adv-x="643" 
d="M273 601h-60l67 154h75zM424 601h-60l79 154h74zM322 556q59 0 109.5 -19.5t87 -55.5t57.5 -88.5t21 -118.5t-21 -118t-57.5 -88.5t-87 -55.5t-109.5 -19t-109.5 19t-87.5 55.5t-58 88.5t-21 118t21 118.5t58 88.5t87.5 55.5t109.5 19.5zM322 476q-35 0 -68 -12
t-58.5 -36.5t-41 -62.5t-15.5 -91q0 -52 15.5 -90t41 -62.5t58.5 -36.5t68 -12t68 12t58.5 36.5t41 62.5t15.5 90q0 53 -15.5 91t-41 62.5t-58.5 36.5t-68 12z" />
    <glyph glyph-name="OE" unicode="&#x152;" horiz-adv-x="1086" 
d="M744 390h267v-70h-267v-246h297v-74h-389v168q-13 -41 -39 -73.5t-60.5 -55.5t-76 -35.5t-86.5 -12.5q-75 0 -137.5 26.5t-107.5 74.5t-70.5 114.5t-25.5 145.5q0 80 25.5 146.5t70.5 114.5t107.5 74.5t137.5 26.5q45 0 86.5 -12.5t76 -35.5t60.5 -56t39 -74v169h389v-74
h-297v-241zM396 75q54 0 100 19t80 55t53 87.5t19 115.5q0 65 -19 116t-53 87t-80 55t-100 19q-55 0 -101 -19t-80 -55t-53 -87t-19 -116q0 -64 19 -115.5t53 -87.5t80 -55t101 -19z" />
    <glyph glyph-name="oe" unicode="&#x153;" horiz-adv-x="1095" 
d="M1040 305q0 -17 -1 -27.5t-3 -22.5h-439q2 -50 17 -85.5t39.5 -58.5t56 -33.5t64.5 -10.5q66 0 110 33t55 90h97q-8 -43 -29.5 -79t-55 -62t-77 -41t-96.5 -15q-80 0 -139.5 37.5t-87.5 106.5q-28 -69 -89 -106.5t-140 -37.5q-59 0 -109.5 19t-87.5 55.5t-58 88.5
t-21 118t21 118.5t58 88.5t87.5 55.5t109.5 19.5q79 0 140 -37.5t89 -106.5q28 69 87.5 106.5t139.5 37.5q62 0 111 -20t82.5 -54.5t51 -80t17.5 -96.5zM948 299q3 48 -11 82.5t-38 57t-56 33t-65 10.5q-35 0 -67 -11t-56.5 -33.5t-40 -57t-17.5 -81.5h351zM322 73
q35 0 68 12t58.5 36.5t41 62.5t15.5 90q0 53 -15.5 91t-41 62.5t-58.5 36.5t-68 12t-68 -12t-58.5 -36.5t-41 -62.5t-15.5 -91q0 -52 15.5 -90t41 -62.5t58.5 -36.5t68 -12z" />
    <glyph glyph-name="Racute" unicode="&#x154;" horiz-adv-x="583" 
d="M226 756l-19 35l165 98l22 -49zM447 0l-184 288h-99v-288h-91v705h232q62 0 107.5 -16t75 -44t43.5 -66.5t14 -83.5q0 -85 -47 -138t-140 -66l192 -291h-103zM164 354h133q85 0 120 37.5t35 98.5q0 62 -35 99t-120 37h-133v-272z" />
    <glyph glyph-name="racute" unicode="&#x155;" horiz-adv-x="384" 
d="M126 600l-19 35l165 98l22 -49zM164 438q26 56 78 88t125 32v-99h-28q-34 0 -65.5 -8t-56 -27.5t-39 -52.5t-14.5 -82v-289h-91v549h91v-111z" />
    <glyph glyph-name="Rcommaaccent" unicode="&#x156;" horiz-adv-x="594" 
d="M550 0h-103l-184 288h-99v-288h-91v705h232q62 0 107.5 -16t75 -44t43.5 -66.5t14 -83.5q0 -85 -47 -138t-140 -66zM164 354h133q85 0 120 37.5t35 98.5q0 62 -35 99t-120 37h-133v-272zM337 -50q11 -36 11 -68q0 -60 -26.5 -89t-74.5 -29v39q47 0 47 61v9h-45v77h88z
" />
    <glyph glyph-name="rcommaaccent" unicode="&#x157;" horiz-adv-x="384" 
d="M164 438q26 56 78 88t125 32v-99h-28q-34 0 -65.5 -8t-56 -27.5t-39 -52.5t-14.5 -82v-289h-91v549h91v-111zM160 -50q5 -17 7.5 -35t2.5 -33q0 -60 -26 -89t-74 -29v39q47 0 47 61v9h-45v77h88z" />
    <glyph glyph-name="Rcaron" unicode="&#x158;" horiz-adv-x="583" 
d="M312 765l-139 83v64l139 -84l138 84v-64zM447 0l-184 288h-99v-288h-91v705h232q62 0 107.5 -16t75 -44t43.5 -66.5t14 -83.5q0 -85 -47 -138t-140 -66l192 -291h-103zM164 354h133q85 0 120 37.5t35 98.5q0 62 -35 99t-120 37h-133v-272z" />
    <glyph glyph-name="rcaron" unicode="&#x159;" horiz-adv-x="384" 
d="M220 608l-139 83v64l139 -84l138 84v-64zM164 438q26 56 78 88t125 32v-99h-28q-34 0 -65.5 -8t-56 -27.5t-39 -52.5t-14.5 -82v-289h-91v549h91v-111z" />
    <glyph glyph-name="Sacute" unicode="&#x15a;" horiz-adv-x="568" 
d="M386 840l-168 -84l-19 35l165 98zM519 183q0 -36 -13 -70t-39.5 -60.5t-67.5 -43t-98 -16.5q-53 0 -97.5 15t-76.5 41t-51.5 62t-23.5 79h97q2 -21 12 -43t28.5 -40t45.5 -29.5t63 -11.5q63 0 93.5 33t30.5 81q0 49 -27.5 76.5t-69 44.5t-90 31t-90 36t-69 59.5
t-27.5 101.5q0 41 15 75t43.5 58.5t69 38t91.5 13.5q54 0 96 -14.5t71.5 -39t46.5 -57t22 -68.5h-98q-3 18 -13 37t-26.5 34t-41 25t-57.5 10q-54 0 -87.5 -27.5t-33.5 -81.5q0 -47 27.5 -73t69 -43t89.5 -30.5t89.5 -36.5t69 -61.5t27.5 -104.5z" />
    <glyph glyph-name="sacute" unicode="&#x15b;" horiz-adv-x="517" 
d="M361 684l-168 -84l-19 35l165 98zM245 556q96 0 151 -49.5t67 -129.5h-87q-6 47 -39.5 79.5t-93.5 32.5q-50 0 -77 -24t-27 -63q0 -35 24.5 -53.5t61 -29.5t79 -20t79 -25.5t61 -46.5t24.5 -83q0 -66 -49.5 -108.5t-135.5 -42.5q-99 0 -160.5 46.5t-72.5 131.5h88
q5 -48 42 -80t103 -32q49 0 74.5 24.5t25.5 62.5q0 37 -24.5 56t-60.5 30t-79 19.5t-79 25t-60.5 45t-24.5 80.5q0 69 50 111.5t140 42.5z" />
    <glyph glyph-name="Scedilla" unicode="&#x15e;" horiz-adv-x="568" 
d="M519 183q0 -34 -12 -67t-36.5 -59t-62 -43.5t-89.5 -20.5v-60q53 2 90 -20.5t37 -73.5q0 -50 -35 -74.5t-87 -24.5h-102v53h92q37 0 52 13.5t15 34.5q0 19 -15 32t-52 13h-54v109q-90 11 -145.5 64t-62.5 131h97q2 -21 12 -43t28.5 -40t45.5 -29.5t63 -11.5q63 0 93.5 33
t30.5 81q0 49 -27.5 76.5t-69 44.5t-90 31t-90 36t-69 59.5t-27.5 101.5q0 41 15 75t43.5 58.5t69 38t91.5 13.5q54 0 96 -14.5t71.5 -39t46.5 -57t22 -68.5h-98q-3 18 -13 37t-26.5 34t-41 25t-57.5 10q-54 0 -87.5 -27.5t-33.5 -81.5q0 -47 27.5 -73t69 -43t89.5 -30.5
t89.5 -36.5t69 -61.5t27.5 -104.5z" />
    <glyph glyph-name="scedilla" unicode="&#x15f;" horiz-adv-x="517" 
d="M468 144q0 -65 -47.5 -107t-129.5 -44v-60q53 2 90 -20.5t37 -73.5q0 -50 -35 -74.5t-87 -24.5h-102v53h92q37 0 52 13.5t15 34.5q0 19 -15 32t-52 13h-54v111q-77 11 -124.5 56t-57.5 118h88q5 -48 42 -80t103 -32q49 0 74.5 24.5t25.5 62.5q0 37 -24.5 56t-60.5 30
t-79 19.5t-79 25t-60.5 45t-24.5 80.5q0 69 50 111.5t140 42.5q96 0 151 -49.5t67 -129.5h-87q-6 47 -39.5 79.5t-93.5 32.5q-50 0 -77 -24t-27 -63q0 -35 24.5 -53.5t61 -29.5t79 -20t79 -25.5t61 -46.5t24.5 -83z" />
    <glyph glyph-name="Scaron" unicode="&#x160;" horiz-adv-x="568" 
d="M423 848l-138 -83l-139 83v64l139 -84l138 84v-64zM519 183q0 -36 -13 -70t-39.5 -60.5t-67.5 -43t-98 -16.5q-53 0 -97.5 15t-76.5 41t-51.5 62t-23.5 79h97q2 -21 12 -43t28.5 -40t45.5 -29.5t63 -11.5q63 0 93.5 33t30.5 81q0 49 -27.5 76.5t-69 44.5t-90 31t-90 36
t-69 59.5t-27.5 101.5q0 41 15 75t43.5 58.5t69 38t91.5 13.5q54 0 96 -14.5t71.5 -39t46.5 -57t22 -68.5h-98q-3 18 -13 37t-26.5 34t-41 25t-57.5 10q-54 0 -87.5 -27.5t-33.5 -81.5q0 -47 27.5 -73t69 -43t89.5 -30.5t89.5 -36.5t69 -61.5t27.5 -104.5z" />
    <glyph glyph-name="scaron" unicode="&#x161;" horiz-adv-x="517" 
d="M397 691l-138 -83l-139 83v64l139 -84l138 84v-64zM245 556q96 0 151 -49.5t67 -129.5h-87q-6 47 -39.5 79.5t-93.5 32.5q-50 0 -77 -24t-27 -63q0 -35 24.5 -53.5t61 -29.5t79 -20t79 -25.5t61 -46.5t24.5 -83q0 -66 -49.5 -108.5t-135.5 -42.5q-99 0 -160.5 46.5
t-72.5 131.5h88q5 -48 42 -80t103 -32q49 0 74.5 24.5t25.5 62.5q0 37 -24.5 56t-60.5 30t-79 19.5t-79 25t-60.5 45t-24.5 80.5q0 69 50 111.5t140 42.5z" />
    <glyph glyph-name="uni0162" unicode="&#x162;" horiz-adv-x="522" 
d="M306 631v-627q54 -8 77 -31t23 -58q0 -50 -35 -74.5t-87 -24.5h-100v53h92q37 0 51 13t14 35q0 19 -14 32t-51 13h-61v669h-199v74h489v-74h-199z" />
    <glyph glyph-name="uni0163" unicode="&#x163;" horiz-adv-x="373" 
d="M255 -67q53 2 90 -20.5t37 -73.5q0 -50 -35 -74.5t-87 -24.5h-102v53h92q37 0 52 13.5t15 34.5q0 19 -15 32t-52 13h-54v123q-47 14 -71.5 52.5t-24.5 112.5v296h-82v79h82v137h92v-137h142v-79h-142v-298q0 -54 19.5 -73t67.5 -19h56v-80h-68h-12v-67z" />
    <glyph glyph-name="Tcaron" unicode="&#x164;" horiz-adv-x="522" 
d="M400 848l-138 -83l-139 83v64l139 -84l138 84v-64zM505 705v-74h-199v-631h-91v631h-199v74h489z" />
    <glyph glyph-name="tcaron" unicode="&#x165;" horiz-adv-x="373" 
d="M300 707h-50v86h92q6 -26 9 -47t3 -41q0 -54 -26 -80t-76 -26v41q26 0 37 11t11 31v25zM192 172q0 -54 19.5 -73t67.5 -19h56v-80h-68q-80 0 -123.5 38.5t-43.5 135.5v296h-82v79h82v137h92v-137h142v-79h-142v-298z" />
    <glyph glyph-name="Utilde" unicode="&#x168;" horiz-adv-x="661" 
d="M276 857q19 0 33 -7t26.5 -16t24.5 -16t28 -7q15 0 26.5 11t14.5 33h44q-6 -46 -29.5 -69.5t-58.5 -23.5q-19 0 -33.5 7t-27 16t-24.5 16t-27 7q-33 0 -40 -45h-43q15 94 86 94zM159 705v-423q0 -107 47.5 -155t125.5 -48q77 0 123.5 48t46.5 155v423h91v-423
q0 -75 -19.5 -129.5t-55 -90t-83.5 -52.5t-105 -17t-105 17t-83 52.5t-54.5 90t-19.5 129.5v423h91z" />
    <glyph glyph-name="utilde" unicode="&#x169;" horiz-adv-x="634" 
d="M259 652q-33 0 -40 -45h-43q15 94 86 94q19 0 33 -7t26.5 -16t24.5 -16t28 -7q15 0 26.5 11t14.5 33h44q-6 -46 -29.5 -69.5t-58.5 -23.5q-19 0 -33.5 7t-27 16t-24.5 16t-27 7zM561 549v-549h-91v129q-22 -69 -76 -103.5t-123 -34.5q-46 0 -85 15t-67.5 44.5t-44.5 74
t-16 104.5v320h91v-311q0 -85 42.5 -128t113.5 -43q72 0 118.5 47t46.5 143v292h91z" />
    <glyph glyph-name="Umacron" unicode="&#x16a;" horiz-adv-x="661" 
d="M507 867v-64h-353v64h353zM159 705v-423q0 -107 47.5 -155t125.5 -48q77 0 123.5 48t46.5 155v423h91v-423q0 -75 -19.5 -129.5t-55 -90t-83.5 -52.5t-105 -17t-105 17t-83 52.5t-54.5 90t-19.5 129.5v423h91z" />
    <glyph glyph-name="umacron" unicode="&#x16b;" horiz-adv-x="634" 
d="M486 646h-353v64h353v-64zM561 549v-549h-91v129q-22 -69 -76 -103.5t-123 -34.5q-46 0 -85 15t-67.5 44.5t-44.5 74t-16 104.5v320h91v-311q0 -85 42.5 -128t113.5 -43q72 0 118.5 47t46.5 143v292h91z" />
    <glyph glyph-name="Ubreve" unicode="&#x16c;" horiz-adv-x="661" 
d="M331 766q-65 0 -98 36.5t-33 90.5v8h43q0 -37 21.5 -57t66.5 -20t66.5 20t21.5 57h43v-8q0 -54 -33 -90.5t-98 -36.5zM159 705v-423q0 -107 47.5 -155t125.5 -48q77 0 123.5 48t46.5 155v423h91v-423q0 -75 -19.5 -129.5t-55 -90t-83.5 -52.5t-105 -17t-105 17t-83 52.5
t-54.5 90t-19.5 129.5v423h91z" />
    <glyph glyph-name="ubreve" unicode="&#x16d;" horiz-adv-x="634" 
d="M317 610q-65 0 -98 36.5t-33 90.5v8h43q0 -37 21.5 -57t66.5 -20t66.5 20t21.5 57h43v-8q0 -54 -33 -90.5t-98 -36.5zM561 549v-549h-91v129q-22 -69 -76 -103.5t-123 -34.5q-46 0 -85 15t-67.5 44.5t-44.5 74t-16 104.5v320h91v-311q0 -85 42.5 -128t113.5 -43
q72 0 118.5 47t46.5 143v292h91z" />
    <glyph glyph-name="Uring" unicode="&#x16e;" horiz-adv-x="661" 
d="M330 974q44 0 74.5 -28t30.5 -77t-30.5 -77t-74.5 -28q-43 0 -74 28t-31 77t31 77t74 28zM330 932q-26 0 -43.5 -17t-17.5 -46t17.5 -46t43.5 -17t44 17t18 46t-18 46t-44 17zM159 705v-423q0 -107 47.5 -155t125.5 -48q77 0 123.5 48t46.5 155v423h91v-423
q0 -75 -19.5 -129.5t-55 -90t-83.5 -52.5t-105 -17t-105 17t-83 52.5t-54.5 90t-19.5 129.5v423h91z" />
    <glyph glyph-name="uring" unicode="&#x16f;" horiz-adv-x="634" 
d="M309 607q-43 0 -74 28t-31 77t31 77t74 28q44 0 74.5 -28t30.5 -77t-30.5 -77t-74.5 -28zM309 775q-26 0 -43.5 -17t-17.5 -46t17.5 -46t43.5 -17t44 17t18 46t-18 46t-44 17zM561 549v-549h-91v129q-22 -69 -76 -103.5t-123 -34.5q-46 0 -85 15t-67.5 44.5t-44.5 74
t-16 104.5v320h91v-311q0 -85 42.5 -128t113.5 -43q72 0 118.5 47t46.5 143v292h91z" />
    <glyph glyph-name="Uhungarumlaut" unicode="&#x170;" horiz-adv-x="661" 
d="M257 758h-60l67 154h75zM408 758h-60l79 154h74zM159 705v-423q0 -107 47.5 -155t125.5 -48q77 0 123.5 48t46.5 155v423h91v-423q0 -75 -19.5 -129.5t-55 -90t-83.5 -52.5t-105 -17t-105 17t-83 52.5t-54.5 90t-19.5 129.5v423h91z" />
    <glyph glyph-name="uhungarumlaut" unicode="&#x171;" horiz-adv-x="634" 
d="M236 601h-60l67 154h75zM387 601h-60l79 154h74zM561 549v-549h-91v129q-22 -69 -76 -103.5t-123 -34.5q-46 0 -85 15t-67.5 44.5t-44.5 74t-16 104.5v320h91v-311q0 -85 42.5 -128t113.5 -43q72 0 118.5 47t46.5 143v292h91z" />
    <glyph glyph-name="Uogonek" unicode="&#x172;" horiz-adv-x="678" 
d="M379 -164q-54 0 -88 28t-34 78q0 18 9.5 34t25.5 21q-45 8 -84 29t-68.5 56t-46 85t-16.5 115v423h91v-423q0 -107 47.5 -155t124.5 -48q36 0 67 10t54 33.5t36.5 62.5t13.5 97v423h91v-423q0 -68 -16.5 -118.5t-46 -85t-68.5 -54t-84 -25.5q-32 -4 -48 -19t-16 -38
q0 -25 18.5 -39.5t52.5 -14.5h91v-52h-106z" />
    <glyph glyph-name="uogonek" unicode="&#x173;" horiz-adv-x="634" 
d="M603 -146v-53h-104q-55 0 -91 27t-36 78q0 45 28 71.5t70 32.5v119q-22 -69 -76 -103.5t-123 -34.5q-46 0 -85 15t-67.5 44.5t-44.5 74t-16 104.5v320h91v-311q0 -85 42.5 -128t113.5 -43q72 0 118.5 47t46.5 143v292h91v-587h-54q-32 0 -51 -14t-19 -39q0 -26 19 -40.5
t51 -14.5h96z" />
    <glyph glyph-name="Wcircumflex" unicode="&#x174;" horiz-adv-x="974" 
d="M377 756l-18 39l128 77l128 -77l-19 -40l-109 63zM940 705l-179 -705h-111l-163 576l-163 -576h-111l-180 705h101l135 -599l167 599h101l167 -597l136 597h100z" />
    <glyph glyph-name="wcircumflex" unicode="&#x175;" horiz-adv-x="839" 
d="M310 600l-18 39l128 77l128 -77l-19 -40l-109 63zM827 549l-158 -549h-98l-151 447l-152 -447h-99l-156 549h92l117 -462l152 462h95l153 -461l118 461h87z" />
    <glyph glyph-name="Ycircumflex" unicode="&#x176;" horiz-adv-x="593" 
d="M187 756l-18 39l128 77l128 -77l-19 -40l-109 63zM574 705l-231 -438v-267h-92v267l-232 438h106l173 -341l172 341h104z" />
    <glyph glyph-name="ycircumflex" unicode="&#x177;" horiz-adv-x="565" 
d="M283 662l-110 -62l-18 39l128 77l128 -77l-19 -40zM111 549l178 -432l165 432h101l-326 -809h-103l114 269l-231 540h102z" />
    <glyph glyph-name="Ydieresis" unicode="&#x178;" horiz-adv-x="593" 
d="M214 782q-21 0 -35.5 14.5t-14.5 34.5q0 21 14.5 35.5t35.5 14.5t35.5 -14.5t14.5 -35.5q0 -20 -14.5 -34.5t-35.5 -14.5zM380 782q-21 0 -35.5 14.5t-14.5 34.5q0 21 14.5 35.5t35.5 14.5t35.5 -14.5t14.5 -35.5q0 -20 -14.5 -34.5t-35.5 -14.5zM574 705l-231 -438v-267
h-92v267l-232 438h106l173 -341l172 341h104z" />
    <glyph glyph-name="Zacute" unicode="&#x179;" horiz-adv-x="538" 
d="M371 840l-168 -84l-19 35l165 98zM142 75h355v-75h-457v72l349 558h-340v75h442v-72z" />
    <glyph glyph-name="zacute" unicode="&#x17a;" horiz-adv-x="446" 
d="M326 684l-168 -84l-19 35l165 98zM126 77h294v-77h-394v73l280 399h-272v77h376v-74z" />
    <glyph glyph-name="Zdotaccent" unicode="&#x17b;" horiz-adv-x="538" 
d="M219 831q0 21 14.5 35.5t34.5 14.5q21 0 36 -14.5t15 -35.5q0 -20 -15 -34.5t-36 -14.5q-20 0 -34.5 14.5t-14.5 34.5zM142 75h355v-75h-457v72l349 558h-340v75h442v-72z" />
    <glyph glyph-name="zdotaccent" unicode="&#x17c;" horiz-adv-x="446" 
d="M173 674q0 21 14.5 35.5t34.5 14.5q21 0 36 -14.5t15 -35.5q0 -20 -15 -34.5t-36 -14.5q-20 0 -34.5 14.5t-14.5 34.5zM126 77h294v-77h-394v73l280 399h-272v77h376v-74z" />
    <glyph glyph-name="Zcaron" unicode="&#x17d;" horiz-adv-x="538" 
d="M407 848l-138 -83l-139 83v64l139 -84l138 84v-64zM142 75h355v-75h-457v72l349 558h-340v75h442v-72z" />
    <glyph glyph-name="zcaron" unicode="&#x17e;" horiz-adv-x="446" 
d="M362 691l-138 -83l-139 83v64l139 -84l138 84v-64zM126 77h294v-77h-394v73l280 399h-272v77h376v-74z" />
    <glyph glyph-name="florin" unicode="&#x192;" horiz-adv-x="334" 
d="M347 688q-57 0 -88.5 -21.5t-36.5 -71.5l-5 -46h122l-7 -78h-123l-56 -528q-8 -75 -48.5 -108t-114.5 -33h-31l7 79h31q29 0 44.5 12.5t20.5 49.5l56 528h-70l6 78h72l5 46q10 91 66 131.5t157 40.5z" />
    <glyph glyph-name="Ohorn" unicode="&#x1a0;" horiz-adv-x="791" 
d="M572 668q78 -45 123.5 -126.5t45.5 -188.5q0 -79 -26 -145.5t-72.5 -114.5t-109.5 -74.5t-137 -26.5t-137.5 26.5t-110 74.5t-73 114.5t-26.5 145.5q0 80 26.5 146t73 114t110 74.5t137.5 26.5q42 0 81 -9q43 3 69.5 28t26.5 85h66q0 -55 -18.5 -91.5t-48.5 -58.5z
M396 77q54 0 100 19t80 55t53 87t19 115t-19 115t-53 87t-80 55t-100 19q-55 0 -101 -19t-80 -55t-53 -87t-19 -115t19 -115t53 -87t80 -55t101 -19z" />
    <glyph glyph-name="ohorn" unicode="&#x1a1;" horiz-adv-x="643" 
d="M486 508q51 -35 81 -94.5t30 -139.5q0 -66 -21 -118t-57.5 -88.5t-87 -55.5t-109.5 -19t-109.5 19t-87.5 55.5t-58 88.5t-21 118t21 118.5t58 88.5t87.5 55.5t109.5 19.5q17 0 34 -1.5t33 -5.5q47 1 75.5 26t28.5 87h66q0 -58 -20.5 -95.5t-52.5 -58.5zM322 73
q35 0 68 12t58.5 36.5t41 62.5t15.5 90q0 53 -15.5 91t-41 62.5t-58.5 36.5t-68 12t-68 -12t-58.5 -36.5t-41 -62.5t-15.5 -91q0 -52 15.5 -90t41 -62.5t58.5 -36.5t68 -12z" />
    <glyph glyph-name="Uhorn" unicode="&#x1af;" horiz-adv-x="661" 
d="M706 818q0 -74 -32.5 -115.5t-80.5 -56.5v-364q0 -75 -19.5 -129.5t-55 -90t-83.5 -52.5t-105 -17t-105 17t-83 52.5t-54.5 90t-19.5 129.5v423h91v-423q0 -107 47.5 -155t125.5 -48q77 0 123.5 48t46.5 155v423h31q48 0 77.5 25t29.5 88h66z" />
    <glyph glyph-name="uhorn" unicode="&#x1b0;" horiz-adv-x="634" 
d="M689 662q0 -40 -10 -70t-27.5 -52t-41 -35t-49.5 -19v-486h-91v129q-22 -69 -76 -103.5t-123 -34.5q-46 0 -85 15t-67.5 44.5t-44.5 74t-16 104.5v320h91v-311q0 -85 42.5 -128t113.5 -43q72 0 118.5 47t46.5 143v292h46q48 0 77.5 25t29.5 88h66z" />
    <glyph glyph-name="AEacute" unicode="&#x1fc;" horiz-adv-x="890" 
d="M435 757l-19 35l165 98l22 -49zM551 631v-239h265v-71h-265v-247h295v-74h-386v160h-262l-91 -160h-101l400 705h440v-74h-295zM460 230v391l-222 -391h222z" />
    <glyph glyph-name="aeacute" unicode="&#x1fd;" horiz-adv-x="1106" 
d="M523 600l-19 35l165 98l22 -49zM1060 305q0 -17 -1 -27.5t-3 -22.5h-452q2 -50 18 -85.5t41 -58.5t57.5 -34t67.5 -11q69 0 115 33t57 91h96q-7 -43 -27 -79t-51 -62t-71.5 -41t-90.5 -15q-77 0 -135 37t-79 110v-140h-91v140q-21 -65 -76 -106t-137 -41q-55 0 -101 19.5
t-79.5 55.5t-52.5 88t-19 118t19 118.5t52.5 88.5t79.5 55.5t101 19.5q82 0 137 -41t76 -106v140h91v-141q20 73 78.5 110.5t135.5 37.5q59 0 104 -20t76.5 -54.5t47.5 -80t16 -96.5zM969 299q2 48 -12.5 82.5t-39.5 57t-58.5 33t-68.5 10.5q-34 0 -67 -10.5t-58.5 -32.5
t-42 -56.5t-18.5 -83.5h365zM324 73q41 0 75 14.5t59 40.5t39 63t14 83t-14 83t-39 63.5t-59 40.5t-75 14q-84 0 -134.5 -53t-50.5 -148t50.5 -148t134.5 -53z" />
    <glyph glyph-name="Scommaaccent" unicode="&#x218;" horiz-adv-x="589" 
d="M519 183q0 -36 -13 -70t-39.5 -60.5t-67.5 -43t-98 -16.5q-53 0 -97.5 15t-76.5 41t-51.5 62t-23.5 79h97q2 -21 12 -43t28.5 -40t45.5 -29.5t63 -11.5q63 0 93.5 33t30.5 81q0 49 -27.5 76.5t-69 44.5t-90 31t-90 36t-69 59.5t-27.5 101.5q0 41 15 75t43.5 58.5t69 38
t91.5 13.5q54 0 96 -14.5t71.5 -39t46.5 -57t22 -68.5h-98q-3 18 -13 37t-26.5 34t-41 25t-57.5 10q-54 0 -87.5 -27.5t-33.5 -81.5q0 -47 27.5 -73t69 -43t89.5 -30.5t89.5 -36.5t69 -61.5t27.5 -104.5zM354 -50q5 -17 7.5 -35t2.5 -33q0 -60 -26 -89t-74 -29v39
q47 0 47 61v9h-45v77h88z" />
    <glyph glyph-name="scommaaccent" unicode="&#x219;" horiz-adv-x="517" 
d="M245 556q96 0 151 -49.5t67 -129.5h-87q-6 47 -39.5 79.5t-93.5 32.5q-50 0 -77 -24t-27 -63q0 -35 24.5 -53.5t61 -29.5t79 -20t79 -25.5t61 -46.5t24.5 -83q0 -66 -49.5 -108.5t-135.5 -42.5q-99 0 -160.5 46.5t-72.5 131.5h88q5 -48 42 -80t103 -32q49 0 74.5 24.5
t25.5 62.5q0 37 -24.5 56t-60.5 30t-79 19.5t-79 25t-60.5 45t-24.5 80.5q0 69 50 111.5t140 42.5zM315 -50q5 -17 7.5 -35t2.5 -33q0 -60 -26 -89t-74 -29v39q47 0 47 61v9h-45v77h88z" />
    <glyph glyph-name="uni021A" unicode="&#x21a;" horiz-adv-x="522" 
d="M505 705v-74h-199v-631h-91v631h-199v74h489zM303 -50q5 -17 7.5 -35t2.5 -33q0 -60 -26 -89t-74 -29v39q47 0 47 61v9h-45v77h88z" />
    <glyph glyph-name="uni021B" unicode="&#x21b;" horiz-adv-x="373" 
d="M335 80v-80h-68q-80 0 -123.5 38.5t-43.5 135.5v296h-82v79h82v137h92v-137h142v-79h-142v-298q0 -54 19.5 -73t67.5 -19h56zM255 -50q5 -17 7.5 -35t2.5 -33q0 -60 -26 -89t-74 -29v39q47 0 47 61v9h-46v77h89z" />
    <glyph glyph-name="circumflex" unicode="&#x2c6;" horiz-adv-x="336" 
d="M168 688l-110 -62l-18 39l128 77l128 -77l-19 -40z" />
    <glyph glyph-name="caron" unicode="&#x2c7;" horiz-adv-x="336" 
d="M306 691l-138 -83l-139 83v64l139 -84l138 84v-64z" />
    <glyph glyph-name="breve" unicode="&#x2d8;" horiz-adv-x="344" 
d="M172 610q-65 0 -98 36.5t-33 90.5v8h43q0 -37 21.5 -57t66.5 -20t66.5 20t21.5 57h43v-8q0 -54 -33 -90.5t-98 -36.5z" />
    <glyph glyph-name="dotaccent" unicode="&#x2d9;" horiz-adv-x="167" 
d="M34 674q0 21 14.5 35.5t34.5 14.5q21 0 36 -14.5t15 -35.5q0 -20 -15 -34.5t-36 -14.5q-20 0 -34.5 14.5t-14.5 34.5z" />
    <glyph glyph-name="ring" unicode="&#x2da;" horiz-adv-x="268" 
d="M134 817q44 0 74.5 -28t30.5 -77t-30.5 -77t-74.5 -28q-43 0 -74 28t-31 77t31 77t74 28zM134 775q-26 0 -43.5 -17t-17.5 -46t17.5 -46t43.5 -17t44 17t18 46t-18 46t-44 17z" />
    <glyph glyph-name="ogonek" unicode="&#x2db;" horiz-adv-x="283" 
d="M215 -14v-49h-54q-32 0 -51 -14t-19 -39q0 -26 19 -40.5t51 -14.5h96v-53h-104q-55 0 -91 27t-36 78t34.5 78t85.5 27h69z" />
    <glyph glyph-name="tilde" unicode="&#x2dc;" horiz-adv-x="363" 
d="M126 701q19 0 33 -7t26.5 -16t24.5 -16t28 -7q15 0 26.5 11t14.5 33h44q-6 -46 -29.5 -69.5t-58.5 -23.5q-19 0 -33.5 7t-27 16t-24.5 16t-27 7q-33 0 -40 -45h-43q15 94 86 94z" />
    <glyph glyph-name="hungarumlaut" unicode="&#x2dd;" horiz-adv-x="363" 
d="M89 601h-60l67 154h75zM240 601h-60l79 154h74z" />
    <glyph glyph-name="gravecomb" unicode="&#x300;" horiz-adv-x="0" 
d="M-40 631l-19 -38l-158 94l26 49z" />
    <glyph glyph-name="acutecomb" unicode="&#x301;" horiz-adv-x="0" 
d="M-56 684l-168 -84l-19 35l165 98z" />
    <glyph glyph-name="uni0302" unicode="&#x302;" horiz-adv-x="0" 
d="M-168 688l-110 -62l-18 39l128 77l128 -77l-19 -40z" />
    <glyph glyph-name="tildecomb" unicode="&#x303;" horiz-adv-x="0" 
d="M-237 701q19 0 33 -7t26.5 -16t24.5 -16t28 -7q15 0 26.5 11t14.5 33h44q-6 -46 -29.5 -69.5t-58.5 -23.5q-20 0 -34 7t-26.5 16t-24.5 16t-27 7q-33 0 -40 -45h-43q15 94 86 94z" />
    <glyph glyph-name="uni0306" unicode="&#x306;" horiz-adv-x="0" 
d="M-172 610q-65 0 -98 36.5t-33 90.5v8h43q0 -37 21.5 -57t66.5 -20t66.5 20t21.5 57h43v-8q0 -54 -33 -90.5t-98 -36.5z" />
    <glyph glyph-name="hookabovecomb" unicode="&#x309;" horiz-adv-x="0" 
d="M-208 748q44 0 64 -22t20 -59q0 -30 -20 -52t-51 -53l-29 25q24 24 39 42.5t15 37.5q0 22 -9.5 30t-29.5 8q-22 0 -30 -11.5t-12 -34.5l-44 4q1 14 5 29t13.5 27.5t25.5 20.5t43 8z" />
    <glyph glyph-name="uni031B" unicode="&#x31b;" horiz-adv-x="0" 
d="M-172 549q48 0 77.5 25t29.5 88h66q0 -48 -14.5 -82.5t-38.5 -56t-55.5 -32t-64.5 -10.5v68z" />
    <glyph glyph-name="dotbelowcomb" unicode="&#x323;" horiz-adv-x="0" 
d="M-133 -123q0 21 14.5 35.5t34.5 14.5q21 0 36 -14.5t15 -35.5q0 -20 -15 -34.5t-36 -14.5q-20 0 -34.5 14.5t-14.5 34.5z" />
    <glyph glyph-name="pi" unicode="&#x3c0;" horiz-adv-x="716" 
d="M673 549v-71h-80v-478h-91v478h-286v-478h-91v478h-80v71h628z" />
    <glyph glyph-name="Wgrave" unicode="&#x1e80;" horiz-adv-x="974" 
d="M568 749l-158 94l26 49l151 -105zM940 705l-179 -705h-111l-163 576l-163 -576h-111l-180 705h101l135 -599l167 599h101l167 -597l136 597h100z" />
    <glyph glyph-name="wgrave" unicode="&#x1e81;" horiz-adv-x="839" 
d="M501 593l-158 94l26 49l151 -105zM827 549l-158 -549h-98l-151 447l-152 -447h-99l-156 549h92l117 -462l152 462h95l153 -461l118 461h87z" />
    <glyph glyph-name="Wacute" unicode="&#x1e82;" horiz-adv-x="974" 
d="M421 756l-19 35l165 98l22 -49zM940 705l-179 -705h-111l-163 576l-163 -576h-111l-180 705h101l135 -599l167 599h101l167 -597l136 597h100z" />
    <glyph glyph-name="wacute" unicode="&#x1e83;" horiz-adv-x="839" 
d="M354 600l-19 35l165 98l22 -49zM827 549l-158 -549h-98l-151 447l-152 -447h-99l-156 549h92l117 -462l152 462h95l153 -461l118 461h87z" />
    <glyph glyph-name="Wdieresis" unicode="&#x1e84;" horiz-adv-x="974" 
d="M404 782q-21 0 -35.5 14.5t-14.5 34.5q0 21 14.5 35.5t35.5 14.5t35.5 -14.5t14.5 -35.5q0 -20 -14.5 -34.5t-35.5 -14.5zM570 782q-21 0 -35.5 14.5t-14.5 34.5q0 21 14.5 35.5t35.5 14.5t35.5 -14.5t14.5 -35.5q0 -20 -14.5 -34.5t-35.5 -14.5zM940 705l-179 -705h-111
l-163 576l-163 -576h-111l-180 705h101l135 -599l167 599h101l167 -597l136 597h100z" />
    <glyph glyph-name="wdieresis" unicode="&#x1e85;" horiz-adv-x="839" 
d="M337 625q-21 0 -35.5 14.5t-14.5 34.5q0 21 14.5 35.5t35.5 14.5t35.5 -14.5t14.5 -35.5q0 -20 -14.5 -34.5t-35.5 -14.5zM503 625q-21 0 -35.5 14.5t-14.5 34.5q0 21 14.5 35.5t35.5 14.5t35.5 -14.5t14.5 -35.5q0 -20 -14.5 -34.5t-35.5 -14.5zM827 549l-158 -549h-98
l-151 447l-152 -447h-99l-156 549h92l117 -462l152 462h95l153 -461l118 461h87z" />
    <glyph glyph-name="uni1EA0" unicode="&#x1ea0;" horiz-adv-x="662" 
d="M545 0l-59 163h-310l-59 -163h-98l261 692h103l260 -692h-98zM460 234l-129 356l-129 -356h258zM331 -73q21 0 36 -14.5t15 -35.5q0 -20 -15 -34.5t-36 -14.5q-20 0 -34.5 14.5t-14.5 34.5q0 21 14.5 35.5t34.5 14.5z" />
    <glyph glyph-name="uni1EA1" unicode="&#x1ea1;" 
d="M298 556q82 0 137 -41t76 -106v140h91v-549h-91v140q-21 -65 -76 -106t-137 -41q-55 0 -101 19.5t-79.5 55.5t-52.5 88t-19 118t19 118.5t52.5 88.5t79.5 55.5t101 19.5zM324 475q-84 0 -134.5 -53t-50.5 -148t50.5 -148t134.5 -53q41 0 75 14.5t59 40.5t39 63t14 83
t-14 83t-39 63.5t-59 40.5t-75 14zM287 -123q0 21 14.5 35.5t34.5 14.5q21 0 36 -14.5t15 -35.5q0 -20 -15 -34.5t-36 -14.5q-20 0 -34.5 14.5t-14.5 34.5z" />
    <glyph glyph-name="uni1EA2" unicode="&#x1ea2;" horiz-adv-x="662" 
d="M328 909q-22 0 -30 -11.5t-12 -34.5l-44 4q2 14 5.5 29t13 27.5t25.5 20.5t43 8q44 0 64 -22t20 -59q0 -30 -20 -52t-51 -53l-29 25q24 24 39 42.5t15 37.5q0 22 -9.5 30t-29.5 8zM486 163h-310l-59 -163h-98l261 692h103l260 -692h-98zM460 234l-129 356l-129 -356h258z
" />
    <glyph glyph-name="uni1EA3" unicode="&#x1ea3;" 
d="M334 796q44 0 64 -22t20 -59q0 -30 -20 -52t-51 -53l-29 25q24 24 39 42.5t15 37.5q0 22 -9.5 30t-29.5 8q-22 0 -30 -11.5t-12 -34.5l-44 4q2 14 5.5 29t13 27.5t25.5 20.5t43 8zM298 556q82 0 137 -41t76 -106v140h91v-549h-91v140q-21 -65 -76 -106t-137 -41
q-55 0 -101 19.5t-79.5 55.5t-52.5 88t-19 118t19 118.5t52.5 88.5t79.5 55.5t101 19.5zM324 475q-84 0 -134.5 -53t-50.5 -148t50.5 -148t134.5 -53q41 0 75 14.5t59 40.5t39 63t14 83t-14 83t-39 63.5t-59 40.5t-75 14z" />
    <glyph glyph-name="uni1EA4" unicode="&#x1ea4;" horiz-adv-x="662" 
d="M270 872l-18 34l160 94l21 -47zM225 755l-17 38l124 74l123 -74l-18 -39l-105 61zM486 163h-310l-59 -163h-98l261 692h103l260 -692h-98zM460 234l-129 356l-129 -356h258z" />
    <glyph glyph-name="uni1EA5" unicode="&#x1ea5;" 
d="M438 797l-163 -81l-18 34l160 94zM337 659l-107 -60l-17 38l124 74l123 -74l-18 -39zM298 556q82 0 137 -41t76 -106v140h91v-549h-91v140q-21 -65 -76 -106t-137 -41q-55 0 -101 19.5t-79.5 55.5t-52.5 88t-19 118t19 118.5t52.5 88.5t79.5 55.5t101 19.5zM324 475
q-84 0 -134.5 -53t-50.5 -148t50.5 -148t134.5 -53q41 0 75 14.5t59 40.5t39 63t14 83t-14 83t-39 63.5t-59 40.5t-75 14z" />
    <glyph glyph-name="uni1EA6" unicode="&#x1ea6;" horiz-adv-x="662" 
d="M456 851l-153 91l25 47l146 -101zM225 755l-17 38l124 74l123 -74l-18 -39l-105 61zM486 163h-310l-59 -163h-98l261 692h103l260 -692h-98zM460 234l-129 356l-129 -356h258z" />
    <glyph glyph-name="uni1EA7" unicode="&#x1ea7;" 
d="M479 732l-18 -37l-153 91l25 47zM337 659l-107 -60l-17 38l124 74l123 -74l-18 -39zM298 556q82 0 137 -41t76 -106v140h91v-549h-91v140q-21 -65 -76 -106t-137 -41q-55 0 -101 19.5t-79.5 55.5t-52.5 88t-19 118t19 118.5t52.5 88.5t79.5 55.5t101 19.5zM324 475
q-84 0 -134.5 -53t-50.5 -148t50.5 -148t134.5 -53q41 0 75 14.5t59 40.5t39 63t14 83t-14 83t-39 63.5t-59 40.5t-75 14z" />
    <glyph glyph-name="uni1EA8" unicode="&#x1ea8;" horiz-adv-x="662" 
d="M475 953q-21 0 -29 -11t-12 -33l-43 4q2 14 5.5 28.5t12.5 26.5t25 19.5t42 7.5q42 0 61.5 -21.5t19.5 -57.5q0 -29 -19.5 -50l-49.5 -51l-28 24q23 23 37.5 41t14.5 36q0 22 -9 29.5t-28 7.5zM225 755l-17 38l124 74l123 -74l-18 -39l-105 61zM486 163h-310l-59 -163
h-98l261 692h103l260 -692h-98zM460 234l-129 356l-129 -356h258z" />
    <glyph glyph-name="uni1EA9" unicode="&#x1ea9;" 
d="M481 839q42 0 61.5 -21.5t19.5 -57.5q0 -29 -19.5 -50l-49.5 -51l-28 24q23 23 37.5 41t14.5 36q0 22 -9 29.5t-28 7.5q-21 0 -29 -11t-12 -33l-43 4q2 14 5.5 28.5t12.5 26.5t25 19.5t42 7.5zM337 659l-107 -60l-17 38l124 74l123 -74l-18 -39zM298 556q82 0 137 -41
t76 -106v140h91v-549h-91v140q-21 -65 -76 -106t-137 -41q-55 0 -101 19.5t-79.5 55.5t-52.5 88t-19 118t19 118.5t52.5 88.5t79.5 55.5t101 19.5zM324 475q-84 0 -134.5 -53t-50.5 -148t50.5 -148t134.5 -53q41 0 75 14.5t59 40.5t39 63t14 83t-14 83t-39 63.5t-59 40.5
t-75 14z" />
    <glyph glyph-name="uni1EAA" unicode="&#x1eaa;" horiz-adv-x="662" 
d="M296 919q-30 0 -36 -41h-40q15 86 79 86q17 0 30 -6.5t24 -14.5t22.5 -14.5t25.5 -6.5t24.5 10t12.5 30h40q-5 -42 -26.5 -63t-53.5 -21q-18 0 -31 6.5t-24 14t-22 14t-25 6.5zM225 755l-17 38l124 74l123 -74l-18 -39l-105 61zM486 163h-310l-59 -163h-98l261 692h103
l260 -692h-98zM460 234l-129 356l-129 -356h258z" />
    <glyph glyph-name="uni1EAB" unicode="&#x1eab;" 
d="M304 808q17 0 30 -6.5t24 -14.5t22.5 -14.5t25.5 -6.5t24.5 10t12.5 30h40q-5 -42 -26.5 -63t-53.5 -21q-18 0 -31 6.5t-24 14t-22 14t-25 6.5q-30 0 -36 -41h-40q15 86 79 86zM337 659l-107 -60l-17 38l124 74l123 -74l-18 -39zM298 556q82 0 137 -41t76 -106v140h91
v-549h-91v140q-21 -65 -76 -106t-137 -41q-55 0 -101 19.5t-79.5 55.5t-52.5 88t-19 118t19 118.5t52.5 88.5t79.5 55.5t101 19.5zM324 475q-84 0 -134.5 -53t-50.5 -148t50.5 -148t134.5 -53q41 0 75 14.5t59 40.5t39 63t14 83t-14 83t-39 63.5t-59 40.5t-75 14z" />
    <glyph glyph-name="uni1EAC" unicode="&#x1eac;" horiz-adv-x="662" 
d="M222 756l-18 39l128 77l128 -77l-19 -40l-109 63zM545 0l-59 163h-310l-59 -163h-98l261 692h103l260 -692h-98zM460 234l-129 356l-129 -356h258zM331 -73q21 0 36 -14.5t15 -35.5q0 -20 -15 -34.5t-36 -14.5q-20 0 -34.5 14.5t-14.5 34.5q0 21 14.5 35.5t34.5 14.5z
" />
    <glyph glyph-name="uni1EAD" unicode="&#x1ead;" 
d="M337 662l-110 -62l-18 39l128 77l128 -77l-19 -40zM298 556q82 0 137 -41t76 -106v140h91v-549h-91v140q-21 -65 -76 -106t-137 -41q-55 0 -101 19.5t-79.5 55.5t-52.5 88t-19 118t19 118.5t52.5 88.5t79.5 55.5t101 19.5zM324 475q-84 0 -134.5 -53t-50.5 -148
t50.5 -148t134.5 -53q41 0 75 14.5t59 40.5t39 63t14 83t-14 83t-39 63.5t-59 40.5t-75 14zM287 -123q0 21 14.5 35.5t34.5 14.5q21 0 36 -14.5t15 -35.5q0 -20 -15 -34.5t-36 -14.5q-20 0 -34.5 14.5t-14.5 34.5z" />
    <glyph glyph-name="uni1EAE" unicode="&#x1eae;" horiz-adv-x="662" 
d="M318 920l-18 34l160 94l21 -47zM332 764q-63 0 -94.5 36t-31.5 87v8h41q0 -35 21 -55t64 -20q44 0 65 20t21 55h41v-8q0 -51 -32 -87t-95 -36zM486 163h-310l-59 -163h-98l261 692h103l260 -692h-98zM460 234l-129 356l-129 -356h258z" />
    <glyph glyph-name="uni1EAF" unicode="&#x1eaf;" 
d="M486 845l-163 -81l-18 34l160 94zM337 608q-63 0 -94.5 36t-31.5 87v8h41q0 -35 21 -55t64 -20q44 0 65 20t21 55h41v-8q0 -51 -32 -87t-95 -36zM298 556q82 0 137 -41t76 -106v140h91v-549h-91v140q-21 -65 -76 -106t-137 -41q-55 0 -101 19.5t-79.5 55.5t-52.5 88
t-19 118t19 118.5t52.5 88.5t79.5 55.5t101 19.5zM324 475q-84 0 -134.5 -53t-50.5 -148t50.5 -148t134.5 -53q41 0 75 14.5t59 40.5t39 63t14 83t-14 83t-39 63.5t-59 40.5t-75 14z" />
    <glyph glyph-name="uni1EB0" unicode="&#x1eb0;" horiz-adv-x="662" 
d="M364 905l-153 91l25 47l146 -101zM332 764q-63 0 -94.5 36t-31.5 87v8h41q0 -35 21 -55t64 -20q44 0 65 20t21 55h41v-8q0 -51 -32 -87t-95 -36zM486 163h-310l-59 -163h-98l261 692h103l260 -692h-98zM460 234l-129 356l-129 -356h258z" />
    <glyph glyph-name="uni1EB1" unicode="&#x1eb1;" 
d="M387 786l-18 -37l-153 91l25 47zM337 608q-63 0 -94.5 36t-31.5 87v8h41q0 -35 21 -55t64 -20q44 0 65 20t21 55h41v-8q0 -51 -32 -87t-95 -36zM298 556q82 0 137 -41t76 -106v140h91v-549h-91v140q-21 -65 -76 -106t-137 -41q-55 0 -101 19.5t-79.5 55.5t-52.5 88
t-19 118t19 118.5t52.5 88.5t79.5 55.5t101 19.5zM324 475q-84 0 -134.5 -53t-50.5 -148t50.5 -148t134.5 -53q41 0 75 14.5t59 40.5t39 63t14 83t-14 83t-39 63.5t-59 40.5t-75 14z" />
    <glyph glyph-name="uni1EB2" unicode="&#x1eb2;" horiz-adv-x="662" 
d="M323 1029q-21 0 -29 -11t-12 -33l-43 4q2 14 5.5 28.5t12.5 26.5t25 19.5t42 7.5q42 0 61.5 -21.5t19.5 -57.5q0 -29 -19.5 -50l-49.5 -51l-28 24q23 23 37.5 41t14.5 36q0 22 -9 29.5t-28 7.5zM332 764q-63 0 -94.5 36t-31.5 87v8h41q0 -35 21 -55t64 -20q44 0 65 20
t21 55h41v-8q0 -51 -32 -87t-95 -36zM486 163h-310l-59 -163h-98l261 692h103l260 -692h-98zM460 234l-129 356l-129 -356h258z" />
    <glyph glyph-name="uni1EB3" unicode="&#x1eb3;" 
d="M329 915q42 0 61.5 -21.5t19.5 -57.5q0 -29 -19.5 -50l-49.5 -51l-28 24q23 23 37.5 41t14.5 36q0 22 -9 29.5t-28 7.5q-21 0 -29 -11t-12 -33l-43 4q2 14 5.5 28.5t12.5 26.5t25 19.5t42 7.5zM337 608q-63 0 -94.5 36t-31.5 87v8h41q0 -35 21 -55t64 -20q44 0 65 20
t21 55h41v-8q0 -51 -32 -87t-95 -36zM298 556q82 0 137 -41t76 -106v140h91v-549h-91v140q-21 -65 -76 -106t-137 -41q-55 0 -101 19.5t-79.5 55.5t-52.5 88t-19 118t19 118.5t52.5 88.5t79.5 55.5t101 19.5zM324 475q-84 0 -134.5 -53t-50.5 -148t50.5 -148t134.5 -53
q41 0 75 14.5t59 40.5t39 63t14 83t-14 83t-39 63.5t-59 40.5t-75 14z" />
    <glyph glyph-name="uni1EB4" unicode="&#x1eb4;" horiz-adv-x="662" 
d="M283 971q-32 0 -39 -44h-41q13 91 83 91q18 0 31.5 -7t25.5 -15t24 -15t27 -7t26 10.5t14 31.5h43q-6 -45 -29 -67.5t-57 -22.5q-19 0 -32.5 7t-25.5 15.5t-24 15.5t-26 7zM332 820q44 0 65 20t21 55h41v-8q0 -51 -32 -87t-95 -36t-94.5 36t-31.5 87v8h41q0 -35 21 -55
t64 -20zM486 163h-310l-59 -163h-98l261 692h103l260 -692h-98zM460 234l-129 356l-129 -356h258z" />
    <glyph glyph-name="uni1EB5" unicode="&#x1eb5;" 
d="M291 862q18 0 31.5 -7t25.5 -15t24 -15t27 -7t26 10.5t14 31.5h43q-6 -45 -29 -67.5t-57 -22.5q-19 0 -32.5 7t-25.5 15.5t-24 15.5t-26 7q-32 0 -39 -44h-41q13 91 83 91zM337 608q-63 0 -94.5 36t-31.5 87v8h41q0 -35 21 -55t64 -20q44 0 65 20t21 55h41v-8
q0 -51 -32 -87t-95 -36zM298 556q82 0 137 -41t76 -106v140h91v-549h-91v140q-21 -65 -76 -106t-137 -41q-55 0 -101 19.5t-79.5 55.5t-52.5 88t-19 118t19 118.5t52.5 88.5t79.5 55.5t101 19.5zM324 475q-84 0 -134.5 -53t-50.5 -148t50.5 -148t134.5 -53q41 0 75 14.5
t59 40.5t39 63t14 83t-14 83t-39 63.5t-59 40.5t-75 14z" />
    <glyph glyph-name="uni1EB6" unicode="&#x1eb6;" horiz-adv-x="662" 
d="M332 766q-65 0 -98 36.5t-33 90.5v8h43q0 -37 21.5 -57t66.5 -20t66.5 20t21.5 57h43v-8q0 -54 -33 -90.5t-98 -36.5zM545 0l-59 163h-310l-59 -163h-98l261 692h103l260 -692h-98zM460 234l-129 356l-129 -356h258zM331 -73q21 0 36 -14.5t15 -35.5q0 -20 -15 -34.5
t-36 -14.5q-20 0 -34.5 14.5t-14.5 34.5q0 21 14.5 35.5t34.5 14.5z" />
    <glyph glyph-name="uni1EB7" unicode="&#x1eb7;" 
d="M337 610q-65 0 -98 36.5t-33 90.5v8h43q0 -37 21.5 -57t66.5 -20t66.5 20t21.5 57h43v-8q0 -54 -33 -90.5t-98 -36.5zM298 556q82 0 137 -41t76 -106v140h91v-549h-91v140q-21 -65 -76 -106t-137 -41q-55 0 -101 19.5t-79.5 55.5t-52.5 88t-19 118t19 118.5t52.5 88.5
t79.5 55.5t101 19.5zM324 475q-84 0 -134.5 -53t-50.5 -148t50.5 -148t134.5 -53q41 0 75 14.5t59 40.5t39 63t14 83t-14 83t-39 63.5t-59 40.5t-75 14zM287 -123q0 21 14.5 35.5t34.5 14.5q21 0 36 -14.5t15 -35.5q0 -20 -15 -34.5t-36 -14.5q-20 0 -34.5 14.5t-14.5 34.5z
" />
    <glyph glyph-name="uni1EB8" unicode="&#x1eb8;" horiz-adv-x="506" 
d="M164 631v-241h268v-70h-268v-246h298v-74h-389v705h389v-74h-298zM203 -123q0 21 14.5 35.5t34.5 14.5q21 0 36 -14.5t15 -35.5q0 -20 -15 -34.5t-36 -14.5q-20 0 -34.5 14.5t-14.5 34.5z" />
    <glyph glyph-name="uni1EB9" unicode="&#x1eb9;" horiz-adv-x="624" 
d="M578 305q0 -17 -1 -27.5t-3 -22.5h-439q2 -50 17 -85.5t39.5 -58.5t56 -33.5t64.5 -10.5q66 0 110.5 33t54.5 90h97q-7 -43 -29 -79t-55 -62t-77 -41t-97 -15q-59 0 -108.5 19t-85.5 55.5t-56 88.5t-20 118t20 118.5t56 88.5t85.5 55.5t108.5 19.5q62 0 111 -20
t82.5 -54.5t51 -80t17.5 -96.5zM486 299q3 48 -11 82.5t-38 57t-56 33t-65 10.5q-35 0 -67 -11t-56.5 -33.5t-40 -57t-17.5 -81.5h351zM311 -73q21 0 36 -14.5t15 -35.5q0 -20 -15 -34.5t-36 -14.5q-20 0 -34.5 14.5t-14.5 34.5q0 21 14.5 35.5t34.5 14.5z" />
    <glyph glyph-name="uni1EBA" unicode="&#x1eba;" horiz-adv-x="506" 
d="M250 952q44 0 64 -22t20 -59q0 -30 -20 -52t-51 -53l-29 25q24 24 39 42.5t15 37.5q0 22 -9.5 30t-29.5 8q-22 0 -30 -11.5t-12 -34.5l-44 4q2 14 5.5 29t13 27.5t25.5 20.5t43 8zM164 631v-241h268v-70h-268v-246h298v-74h-389v705h389v-74h-298z" />
    <glyph glyph-name="uni1EBB" unicode="&#x1ebb;" horiz-adv-x="624" 
d="M308 753q-22 0 -30 -11.5t-12 -34.5l-44 4q2 14 5.5 29t13 27.5t25.5 20.5t43 8q44 0 64 -22t20 -59q0 -30 -20 -52t-51 -53l-29 25q24 24 39 42.5t15 37.5q0 22 -9.5 30t-29.5 8zM578 305q0 -17 -1 -27.5t-3 -22.5h-439q2 -50 17 -85.5t39.5 -58.5t56 -33.5t64.5 -10.5
q66 0 110.5 33t54.5 90h97q-7 -43 -29 -79t-55 -62t-77 -41t-97 -15q-59 0 -108.5 19t-85.5 55.5t-56 88.5t-20 118t20 118.5t56 88.5t85.5 55.5t108.5 19.5q62 0 111 -20t82.5 -54.5t51 -80t17.5 -96.5zM486 299q3 48 -11 82.5t-38 57t-56 33t-65 10.5q-35 0 -67 -11
t-56.5 -33.5t-40 -57t-17.5 -81.5h351z" />
    <glyph glyph-name="uni1EBC" unicode="&#x1ebc;" horiz-adv-x="506" 
d="M198 857q19 0 33 -7t26.5 -16t24.5 -16t28 -7q15 0 26.5 11t14.5 33h44q-6 -46 -29.5 -69.5t-58.5 -23.5q-19 0 -33.5 7t-27 16t-24.5 16t-27 7q-33 0 -40 -45h-43q15 94 86 94zM164 631v-241h268v-70h-268v-246h298v-74h-389v705h389v-74h-298z" />
    <glyph glyph-name="uni1EBD" unicode="&#x1ebd;" horiz-adv-x="624" 
d="M254 652q-33 0 -40 -45h-43q15 94 86 94q19 0 33 -7t26.5 -16t24.5 -16t28 -7q15 0 26.5 11t14.5 33h44q-6 -46 -29.5 -69.5t-58.5 -23.5q-19 0 -33.5 7t-27 16t-24.5 16t-27 7zM578 305q0 -17 -1 -27.5t-3 -22.5h-439q2 -50 17 -85.5t39.5 -58.5t56 -33.5t64.5 -10.5
q66 0 110.5 33t54.5 90h97q-7 -43 -29 -79t-55 -62t-77 -41t-97 -15q-59 0 -108.5 19t-85.5 55.5t-56 88.5t-20 118t20 118.5t56 88.5t85.5 55.5t108.5 19.5q62 0 111 -20t82.5 -54.5t51 -80t17.5 -96.5zM486 299q3 48 -11 82.5t-38 57t-56 33t-65 10.5q-35 0 -67 -11
t-56.5 -33.5t-40 -57t-17.5 -81.5h351z" />
    <glyph glyph-name="uni1EBE" unicode="&#x1ebe;" horiz-adv-x="506" 
d="M354 953l-163 -81l-18 34l160 94zM253 815l-107 -60l-17 38l124 74l123 -74l-18 -39zM164 631v-241h268v-70h-268v-246h298v-74h-389v705h389v-74h-298z" />
    <glyph glyph-name="uni1EBF" unicode="&#x1ebf;" horiz-adv-x="624" 
d="M250 716l-18 34l160 94l21 -47zM205 599l-17 38l124 74l123 -74l-18 -39l-105 61zM578 305q0 -17 -1 -27.5t-3 -22.5h-439q2 -50 17 -85.5t39.5 -58.5t56 -33.5t64.5 -10.5q66 0 110.5 33t54.5 90h97q-7 -43 -29 -79t-55 -62t-77 -41t-97 -15q-59 0 -108.5 19t-85.5 55.5
t-56 88.5t-20 118t20 118.5t56 88.5t85.5 55.5t108.5 19.5q62 0 111 -20t82.5 -54.5t51 -80t17.5 -96.5zM486 299q3 48 -11 82.5t-38 57t-56 33t-65 10.5q-35 0 -67 -11t-56.5 -33.5t-40 -57t-17.5 -81.5h351z" />
    <glyph glyph-name="uni1EC0" unicode="&#x1ec0;" horiz-adv-x="506" 
d="M395 888l-18 -37l-153 91l25 47zM253 815l-107 -60l-17 38l124 74l123 -74l-18 -39zM164 631v-241h268v-70h-268v-246h298v-74h-389v705h389v-74h-298z" />
    <glyph glyph-name="uni1EC1" unicode="&#x1ec1;" horiz-adv-x="624" 
d="M436 695l-153 91l25 47l146 -101zM205 599l-17 38l124 74l123 -74l-18 -39l-105 61zM578 305q0 -17 -1 -27.5t-3 -22.5h-439q2 -50 17 -85.5t39.5 -58.5t56 -33.5t64.5 -10.5q66 0 110.5 33t54.5 90h97q-7 -43 -29 -79t-55 -62t-77 -41t-97 -15q-59 0 -108.5 19
t-85.5 55.5t-56 88.5t-20 118t20 118.5t56 88.5t85.5 55.5t108.5 19.5q62 0 111 -20t82.5 -54.5t51 -80t17.5 -96.5zM486 299q3 48 -11 82.5t-38 57t-56 33t-65 10.5q-35 0 -67 -11t-56.5 -33.5t-40 -57t-17.5 -81.5h351z" />
    <glyph glyph-name="uni1EC2" unicode="&#x1ec2;" horiz-adv-x="506" 
d="M397 995q42 0 61.5 -21.5t19.5 -57.5q0 -29 -19.5 -50l-49.5 -51l-28 24q23 23 37.5 41t14.5 36q0 22 -9 29.5t-28 7.5q-21 0 -29 -11t-12 -33l-43 4q2 14 5.5 28.5t12.5 26.5t25 19.5t42 7.5zM253 815l-107 -60l-17 38l124 74l123 -74l-18 -39zM164 631v-241h268v-70
h-268v-246h298v-74h-389v705h389v-74h-298z" />
    <glyph glyph-name="uni1EC3" unicode="&#x1ec3;" horiz-adv-x="624" 
d="M455 797q-21 0 -29 -11t-12 -33l-43 4q2 14 5.5 28.5t12.5 26.5t25 19.5t42 7.5q42 0 61.5 -21.5t19.5 -57.5q0 -29 -19.5 -50l-49.5 -51l-28 24q23 23 37.5 41t14.5 36q0 22 -9 29.5t-28 7.5zM205 599l-17 38l124 74l123 -74l-18 -39l-105 61zM578 305q0 -17 -1 -27.5
t-3 -22.5h-439q2 -50 17 -85.5t39.5 -58.5t56 -33.5t64.5 -10.5q66 0 110.5 33t54.5 90h97q-7 -43 -29 -79t-55 -62t-77 -41t-97 -15q-59 0 -108.5 19t-85.5 55.5t-56 88.5t-20 118t20 118.5t56 88.5t85.5 55.5t108.5 19.5q62 0 111 -20t82.5 -54.5t51 -80t17.5 -96.5z
M486 299q3 48 -11 82.5t-38 57t-56 33t-65 10.5q-35 0 -67 -11t-56.5 -33.5t-40 -57t-17.5 -81.5h351z" />
    <glyph glyph-name="uni1EC4" unicode="&#x1ec4;" horiz-adv-x="506" 
d="M220 964q17 0 30 -6.5t24 -14.5t22.5 -14.5t25.5 -6.5t24.5 10t12.5 30h40q-5 -42 -26.5 -63t-53.5 -21q-18 0 -31 6.5t-24 14t-22 14t-25 6.5q-30 0 -36 -41h-40q15 86 79 86zM253 815l-107 -60l-17 38l124 74l123 -74l-18 -39zM164 631v-241h268v-70h-268v-246h298v-74
h-389v705h389v-74h-298z" />
    <glyph glyph-name="uni1EC5" unicode="&#x1ec5;" horiz-adv-x="624" 
d="M276 763q-30 0 -36 -41h-40q15 86 79 86q17 0 30 -6.5t24 -14.5t22.5 -14.5t25.5 -6.5t24.5 10t12.5 30h40q-5 -42 -26.5 -63t-53.5 -21q-18 0 -31 6.5t-24 14t-22 14t-25 6.5zM205 599l-17 38l124 74l123 -74l-18 -39l-105 61zM578 305q0 -17 -1 -27.5t-3 -22.5h-439
q2 -50 17 -85.5t39.5 -58.5t56 -33.5t64.5 -10.5q66 0 110.5 33t54.5 90h97q-7 -43 -29 -79t-55 -62t-77 -41t-97 -15q-59 0 -108.5 19t-85.5 55.5t-56 88.5t-20 118t20 118.5t56 88.5t85.5 55.5t108.5 19.5q62 0 111 -20t82.5 -54.5t51 -80t17.5 -96.5zM486 299
q3 48 -11 82.5t-38 57t-56 33t-65 10.5q-35 0 -67 -11t-56.5 -33.5t-40 -57t-17.5 -81.5h351z" />
    <glyph glyph-name="uni1EC6" unicode="&#x1ec6;" horiz-adv-x="506" 
d="M253 818l-110 -62l-18 39l128 77l128 -77l-19 -40zM164 631v-241h268v-70h-268v-246h298v-74h-389v705h389v-74h-298zM203 -123q0 21 14.5 35.5t34.5 14.5q21 0 36 -14.5t15 -35.5q0 -20 -15 -34.5t-36 -14.5q-20 0 -34.5 14.5t-14.5 34.5z" />
    <glyph glyph-name="uni1EC7" unicode="&#x1ec7;" horiz-adv-x="624" 
d="M202 600l-18 39l128 77l128 -77l-19 -40l-109 63zM578 305q0 -17 -1 -27.5t-3 -22.5h-439q2 -50 17 -85.5t39.5 -58.5t56 -33.5t64.5 -10.5q66 0 110.5 33t54.5 90h97q-7 -43 -29 -79t-55 -62t-77 -41t-97 -15q-59 0 -108.5 19t-85.5 55.5t-56 88.5t-20 118t20 118.5
t56 88.5t85.5 55.5t108.5 19.5q62 0 111 -20t82.5 -54.5t51 -80t17.5 -96.5zM486 299q3 48 -11 82.5t-38 57t-56 33t-65 10.5q-35 0 -67 -11t-56.5 -33.5t-40 -57t-17.5 -81.5h351zM311 -73q21 0 36 -14.5t15 -35.5q0 -20 -15 -34.5t-36 -14.5q-20 0 -34.5 14.5t-14.5 34.5
q0 21 14.5 35.5t34.5 14.5z" />
    <glyph glyph-name="uni1EC8" unicode="&#x1ec8;" horiz-adv-x="237" 
d="M115 952q44 0 64 -22t20 -59q0 -30 -20 -52t-51 -53l-29 25q24 24 39 42.5t15 37.5q0 22 -9.5 30t-29.5 8q-22 0 -30 -11.5t-12 -34.5l-44 4q2 14 5.5 29t13 27.5t25.5 20.5t43 8zM164 705v-705h-91v705h91z" />
    <glyph glyph-name="uni1EC9" unicode="&#x1ec9;" horiz-adv-x="255" 
d="M124 796q44 0 64 -22t20 -59q0 -30 -20 -52t-51 -53l-29 25q24 24 39 42.5t15 37.5q0 22 -9.5 30t-29.5 8q-22 0 -30 -11.5t-12 -34.5l-44 4q2 14 5.5 29t13 27.5t25.5 20.5t43 8zM173 549v-549h-92v549h92z" />
    <glyph glyph-name="uni1ECA" unicode="&#x1eca;" horiz-adv-x="237" 
d="M164 705v-705h-91v705h91zM68 -123q0 21 14.5 35.5t34.5 14.5q21 0 36 -14.5t15 -35.5q0 -20 -15 -34.5t-36 -14.5q-20 0 -34.5 14.5t-14.5 34.5z" />
    <glyph glyph-name="uni1ECB" unicode="&#x1ecb;" horiz-adv-x="237" 
d="M57 710q0 25 17 40.5t45 15.5t45 -15.5t17 -40.5t-17 -40.5t-45 -15.5t-45 15.5t-17 40.5zM164 549v-549h-91v549h91zM68 -123q0 21 14.5 35.5t34.5 14.5q21 0 36 -14.5t15 -35.5q0 -20 -15 -34.5t-36 -14.5q-20 0 -34.5 14.5t-14.5 34.5z" />
    <glyph glyph-name="uni1ECC" unicode="&#x1ecc;" horiz-adv-x="791" 
d="M396 714q74 0 137.5 -26.5t109.5 -74.5t72 -114t26 -146q0 -79 -26 -145.5t-72.5 -114.5t-109.5 -74.5t-137 -26.5t-137.5 26.5t-110 74.5t-73 114.5t-26.5 145.5q0 80 26.5 146t73 114t110 74.5t137.5 26.5zM396 629q-55 0 -101 -19t-80 -55t-53 -87t-19 -115t19 -115
t53 -87t80 -55t101 -19q54 0 100 19t80 55t53 87t19 115t-19 115t-53 87t-80 55t-100 19zM345 -123q0 21 14.5 35.5t34.5 14.5q21 0 36 -14.5t15 -35.5q0 -20 -15 -34.5t-36 -14.5q-20 0 -34.5 14.5t-14.5 34.5z" />
    <glyph glyph-name="uni1ECD" unicode="&#x1ecd;" horiz-adv-x="643" 
d="M322 556q59 0 109.5 -19.5t87 -55.5t57.5 -88.5t21 -118.5t-21 -118t-57.5 -88.5t-87 -55.5t-109.5 -19t-109.5 19t-87.5 55.5t-58 88.5t-21 118t21 118.5t58 88.5t87.5 55.5t109.5 19.5zM322 476q-35 0 -68 -12t-58.5 -36.5t-41 -62.5t-15.5 -91q0 -52 15.5 -90
t41 -62.5t58.5 -36.5t68 -12t68 12t58.5 36.5t41 62.5t15.5 90q0 53 -15.5 91t-41 62.5t-58.5 36.5t-68 12zM272 -123q0 21 14.5 35.5t34.5 14.5q21 0 36 -14.5t15 -35.5q0 -20 -15 -34.5t-36 -14.5q-20 0 -34.5 14.5t-14.5 34.5z" />
    <glyph glyph-name="uni1ECE" unicode="&#x1ece;" horiz-adv-x="791" 
d="M392 952q44 0 64 -22t20 -59q0 -30 -20 -52t-51 -53l-29 25q24 24 39 42.5t15 37.5q0 22 -9.5 30t-29.5 8q-22 0 -30 -11.5t-12 -34.5l-44 4q2 14 5.5 29t13 27.5t25.5 20.5t43 8zM396 714q74 0 137.5 -26.5t109.5 -74.5t72 -114t26 -146q0 -79 -26 -145.5t-72.5 -114.5
t-109.5 -74.5t-137 -26.5t-137.5 26.5t-110 74.5t-73 114.5t-26.5 145.5q0 80 26.5 146t73 114t110 74.5t137.5 26.5zM396 629q-55 0 -101 -19t-80 -55t-53 -87t-19 -115t19 -115t53 -87t80 -55t101 -19q54 0 100 19t80 55t53 87t19 115t-19 115t-53 87t-80 55t-100 19z" />
    <glyph glyph-name="uni1ECF" unicode="&#x1ecf;" horiz-adv-x="643" 
d="M319 796q44 0 64 -22t20 -59q0 -30 -20 -52t-51 -53l-29 25q24 24 39 42.5t15 37.5q0 22 -9.5 30t-29.5 8q-22 0 -30 -11.5t-12 -34.5l-44 4q2 14 5.5 29t13 27.5t25.5 20.5t43 8zM322 556q59 0 109.5 -19.5t87 -55.5t57.5 -88.5t21 -118.5t-21 -118t-57.5 -88.5
t-87 -55.5t-109.5 -19t-109.5 19t-87.5 55.5t-58 88.5t-21 118t21 118.5t58 88.5t87.5 55.5t109.5 19.5zM322 476q-35 0 -68 -12t-58.5 -36.5t-41 -62.5t-15.5 -91q0 -52 15.5 -90t41 -62.5t58.5 -36.5t68 -12t68 12t58.5 36.5t41 62.5t15.5 90q0 53 -15.5 91t-41 62.5
t-58.5 36.5t-68 12z" />
    <glyph glyph-name="uni1ED0" unicode="&#x1ed0;" horiz-adv-x="791" 
d="M496 953l-163 -81l-18 34l160 94zM395 815l-107 -60l-17 38l124 74l123 -74l-18 -39zM396 714q74 0 137.5 -26.5t109.5 -74.5t72 -114t26 -146q0 -79 -26 -145.5t-72.5 -114.5t-109.5 -74.5t-137 -26.5t-137.5 26.5t-110 74.5t-73 114.5t-26.5 145.5q0 80 26.5 146
t73 114t110 74.5t137.5 26.5zM396 629q-55 0 -101 -19t-80 -55t-53 -87t-19 -115t19 -115t53 -87t80 -55t101 -19q54 0 100 19t80 55t53 87t19 115t-19 115t-53 87t-80 55t-100 19z" />
    <glyph glyph-name="uni1ED1" unicode="&#x1ed1;" horiz-adv-x="643" 
d="M423 797l-163 -81l-18 34l160 94zM322 659l-107 -60l-17 38l124 74l123 -74l-18 -39zM322 556q59 0 109.5 -19.5t87 -55.5t57.5 -88.5t21 -118.5t-21 -118t-57.5 -88.5t-87 -55.5t-109.5 -19t-109.5 19t-87.5 55.5t-58 88.5t-21 118t21 118.5t58 88.5t87.5 55.5
t109.5 19.5zM322 476q-35 0 -68 -12t-58.5 -36.5t-41 -62.5t-15.5 -91q0 -52 15.5 -90t41 -62.5t58.5 -36.5t68 -12t68 12t58.5 36.5t41 62.5t15.5 90q0 53 -15.5 91t-41 62.5t-58.5 36.5t-68 12z" />
    <glyph glyph-name="uni1ED2" unicode="&#x1ed2;" horiz-adv-x="791" 
d="M537 888l-18 -37l-153 91l25 47zM395 815l-107 -60l-17 38l124 74l123 -74l-18 -39zM396 714q74 0 137.5 -26.5t109.5 -74.5t72 -114t26 -146q0 -79 -26 -145.5t-72.5 -114.5t-109.5 -74.5t-137 -26.5t-137.5 26.5t-110 74.5t-73 114.5t-26.5 145.5q0 80 26.5 146t73 114
t110 74.5t137.5 26.5zM396 629q-55 0 -101 -19t-80 -55t-53 -87t-19 -115t19 -115t53 -87t80 -55t101 -19q54 0 100 19t80 55t53 87t19 115t-19 115t-53 87t-80 55t-100 19z" />
    <glyph glyph-name="uni1ED3" unicode="&#x1ed3;" horiz-adv-x="643" 
d="M464 732l-18 -37l-153 91l25 47zM322 659l-107 -60l-17 38l124 74l123 -74l-18 -39zM322 556q59 0 109.5 -19.5t87 -55.5t57.5 -88.5t21 -118.5t-21 -118t-57.5 -88.5t-87 -55.5t-109.5 -19t-109.5 19t-87.5 55.5t-58 88.5t-21 118t21 118.5t58 88.5t87.5 55.5
t109.5 19.5zM322 476q-35 0 -68 -12t-58.5 -36.5t-41 -62.5t-15.5 -91q0 -52 15.5 -90t41 -62.5t58.5 -36.5t68 -12t68 12t58.5 36.5t41 62.5t15.5 90q0 53 -15.5 91t-41 62.5t-58.5 36.5t-68 12z" />
    <glyph glyph-name="uni1ED4" unicode="&#x1ed4;" horiz-adv-x="791" 
d="M539 995q42 0 61.5 -21.5t19.5 -57.5q0 -29 -19.5 -50l-49.5 -51l-28 24q23 23 37.5 41t14.5 36q0 22 -9 29.5t-28 7.5q-21 0 -29 -11t-12 -33l-43 4q2 14 5.5 28.5t12.5 26.5t25 19.5t42 7.5zM395 815l-107 -60l-17 38l124 74l123 -74l-18 -39zM396 714
q74 0 137.5 -26.5t109.5 -74.5t72 -114t26 -146q0 -79 -26 -145.5t-72.5 -114.5t-109.5 -74.5t-137 -26.5t-137.5 26.5t-110 74.5t-73 114.5t-26.5 145.5q0 80 26.5 146t73 114t110 74.5t137.5 26.5zM396 629q-55 0 -101 -19t-80 -55t-53 -87t-19 -115t19 -115t53 -87
t80 -55t101 -19q54 0 100 19t80 55t53 87t19 115t-19 115t-53 87t-80 55t-100 19z" />
    <glyph glyph-name="uni1ED5" unicode="&#x1ed5;" horiz-adv-x="643" 
d="M466 839q42 0 61.5 -21.5t19.5 -57.5q0 -29 -19.5 -50l-49.5 -51l-28 24q23 23 37.5 41t14.5 36q0 22 -9 29.5t-28 7.5q-21 0 -29 -11t-12 -33l-43 4q2 14 5.5 28.5t12.5 26.5t25 19.5t42 7.5zM322 659l-107 -60l-17 38l124 74l123 -74l-18 -39zM322 556
q59 0 109.5 -19.5t87 -55.5t57.5 -88.5t21 -118.5t-21 -118t-57.5 -88.5t-87 -55.5t-109.5 -19t-109.5 19t-87.5 55.5t-58 88.5t-21 118t21 118.5t58 88.5t87.5 55.5t109.5 19.5zM322 476q-35 0 -68 -12t-58.5 -36.5t-41 -62.5t-15.5 -91q0 -52 15.5 -90t41 -62.5
t58.5 -36.5t68 -12t68 12t58.5 36.5t41 62.5t15.5 90q0 53 -15.5 91t-41 62.5t-58.5 36.5t-68 12z" />
    <glyph glyph-name="uni1ED6" unicode="&#x1ed6;" horiz-adv-x="791" 
d="M362 964q17 0 30 -6.5t24 -14.5t22.5 -14.5t25.5 -6.5t24.5 10t12.5 30h40q-5 -42 -26.5 -63t-53.5 -21q-18 0 -31 6.5t-24 14t-22 14t-25 6.5q-30 0 -36 -41h-40q15 86 79 86zM395 815l-107 -60l-17 38l124 74l123 -74l-18 -39zM396 714q74 0 137.5 -26.5t109.5 -74.5
t72 -114t26 -146q0 -79 -26 -145.5t-72.5 -114.5t-109.5 -74.5t-137 -26.5t-137.5 26.5t-110 74.5t-73 114.5t-26.5 145.5q0 80 26.5 146t73 114t110 74.5t137.5 26.5zM396 629q-55 0 -101 -19t-80 -55t-53 -87t-19 -115t19 -115t53 -87t80 -55t101 -19q54 0 100 19t80 55
t53 87t19 115t-19 115t-53 87t-80 55t-100 19z" />
    <glyph glyph-name="uni1ED7" unicode="&#x1ed7;" horiz-adv-x="643" 
d="M289 808q17 0 30 -6.5t24 -14.5t22.5 -14.5t25.5 -6.5t24.5 10t12.5 30h40q-5 -42 -26.5 -63t-53.5 -21q-18 0 -31 6.5t-24 14t-22 14t-25 6.5q-30 0 -36 -41h-40q15 86 79 86zM322 659l-107 -60l-17 38l124 74l123 -74l-18 -39zM322 556q59 0 109.5 -19.5t87 -55.5
t57.5 -88.5t21 -118.5t-21 -118t-57.5 -88.5t-87 -55.5t-109.5 -19t-109.5 19t-87.5 55.5t-58 88.5t-21 118t21 118.5t58 88.5t87.5 55.5t109.5 19.5zM322 476q-35 0 -68 -12t-58.5 -36.5t-41 -62.5t-15.5 -91q0 -52 15.5 -90t41 -62.5t58.5 -36.5t68 -12t68 12t58.5 36.5
t41 62.5t15.5 90q0 53 -15.5 91t-41 62.5t-58.5 36.5t-68 12z" />
    <glyph glyph-name="uni1ED8" unicode="&#x1ed8;" horiz-adv-x="791" 
d="M395 818l-110 -62l-18 39l128 77l128 -77l-19 -40zM396 714q74 0 137.5 -26.5t109.5 -74.5t72 -114t26 -146q0 -79 -26 -145.5t-72.5 -114.5t-109.5 -74.5t-137 -26.5t-137.5 26.5t-110 74.5t-73 114.5t-26.5 145.5q0 80 26.5 146t73 114t110 74.5t137.5 26.5zM396 629
q-55 0 -101 -19t-80 -55t-53 -87t-19 -115t19 -115t53 -87t80 -55t101 -19q54 0 100 19t80 55t53 87t19 115t-19 115t-53 87t-80 55t-100 19zM345 -123q0 21 14.5 35.5t34.5 14.5q21 0 36 -14.5t15 -35.5q0 -20 -15 -34.5t-36 -14.5q-20 0 -34.5 14.5t-14.5 34.5z" />
    <glyph glyph-name="uni1ED9" unicode="&#x1ed9;" horiz-adv-x="643" 
d="M322 662l-110 -62l-18 39l128 77l128 -77l-19 -40zM322 556q59 0 109.5 -19.5t87 -55.5t57.5 -88.5t21 -118.5t-21 -118t-57.5 -88.5t-87 -55.5t-109.5 -19t-109.5 19t-87.5 55.5t-58 88.5t-21 118t21 118.5t58 88.5t87.5 55.5t109.5 19.5zM322 476q-35 0 -68 -12
t-58.5 -36.5t-41 -62.5t-15.5 -91q0 -52 15.5 -90t41 -62.5t58.5 -36.5t68 -12t68 12t58.5 36.5t41 62.5t15.5 90q0 53 -15.5 91t-41 62.5t-58.5 36.5t-68 12zM272 -123q0 21 14.5 35.5t34.5 14.5q21 0 36 -14.5t15 -35.5q0 -20 -15 -34.5t-36 -14.5q-20 0 -34.5 14.5
t-14.5 34.5z" />
    <glyph glyph-name="uni1EDA" unicode="&#x1eda;" horiz-adv-x="791" 
d="M329 756l-19 35l165 98l22 -49zM572 668q78 -45 123.5 -126.5t45.5 -188.5q0 -79 -26 -145.5t-72.5 -114.5t-109.5 -74.5t-137 -26.5t-137.5 26.5t-110 74.5t-73 114.5t-26.5 145.5q0 80 26.5 146t73 114t110 74.5t137.5 26.5q42 0 81 -9q43 3 69.5 28t26.5 85h66
q0 -55 -18.5 -91.5t-48.5 -58.5zM396 77q54 0 100 19t80 55t53 87t19 115t-19 115t-53 87t-80 55t-100 19q-55 0 -101 -19t-80 -55t-53 -87t-19 -115t19 -115t53 -87t80 -55t101 -19z" />
    <glyph glyph-name="uni1EDB" unicode="&#x1edb;" horiz-adv-x="643" 
d="M256 600l-19 35l165 98l22 -49zM486 508q51 -35 81 -94.5t30 -139.5q0 -66 -21 -118t-57.5 -88.5t-87 -55.5t-109.5 -19t-109.5 19t-87.5 55.5t-58 88.5t-21 118t21 118.5t58 88.5t87.5 55.5t109.5 19.5q17 0 34 -1.5t33 -5.5q47 1 75.5 26t28.5 87h66q0 -58 -20.5 -95.5
t-52.5 -58.5zM322 73q35 0 68 12t58.5 36.5t41 62.5t15.5 90q0 53 -15.5 91t-41 62.5t-58.5 36.5t-68 12t-68 -12t-58.5 -36.5t-41 -62.5t-15.5 -91q0 -52 15.5 -90t41 -62.5t58.5 -36.5t68 -12z" />
    <glyph glyph-name="uni1EDC" unicode="&#x1edc;" horiz-adv-x="791" 
d="M449 765l-158 94l26 49l151 -105zM572 668q78 -45 123.5 -126.5t45.5 -188.5q0 -79 -26 -145.5t-72.5 -114.5t-109.5 -74.5t-137 -26.5t-137.5 26.5t-110 74.5t-73 114.5t-26.5 145.5q0 80 26.5 146t73 114t110 74.5t137.5 26.5q42 0 81 -9q43 3 69.5 28t26.5 85h66
q0 -55 -18.5 -91.5t-48.5 -58.5zM396 77q54 0 100 19t80 55t53 87t19 115t-19 115t-53 87t-80 55t-100 19q-55 0 -101 -19t-80 -55t-53 -87t-19 -115t19 -115t53 -87t80 -55t101 -19z" />
    <glyph glyph-name="uni1EDD" unicode="&#x1edd;" horiz-adv-x="643" 
d="M403 593l-158 94l26 49l151 -105zM486 508q51 -35 81 -94.5t30 -139.5q0 -66 -21 -118t-57.5 -88.5t-87 -55.5t-109.5 -19t-109.5 19t-87.5 55.5t-58 88.5t-21 118t21 118.5t58 88.5t87.5 55.5t109.5 19.5q17 0 34 -1.5t33 -5.5q47 1 75.5 26t28.5 87h66
q0 -58 -20.5 -95.5t-52.5 -58.5zM322 73q35 0 68 12t58.5 36.5t41 62.5t15.5 90q0 53 -15.5 91t-41 62.5t-58.5 36.5t-68 12t-68 -12t-58.5 -36.5t-41 -62.5t-15.5 -91q0 -52 15.5 -90t41 -62.5t58.5 -36.5t68 -12z" />
    <glyph glyph-name="uni1EDE" unicode="&#x1ede;" horiz-adv-x="791" 
d="M391 909q-22 0 -30 -11.5t-12 -34.5l-44 4q2 14 5.5 29t13 27.5t25.5 20.5t43 8q44 0 64 -22t20 -59q0 -30 -20 -52t-51 -53l-29 25q24 24 39 42.5t15 37.5q0 22 -9.5 30t-29.5 8zM572 668q78 -45 123.5 -126.5t45.5 -188.5q0 -79 -26 -145.5t-72.5 -114.5t-109.5 -74.5
t-137 -26.5t-137.5 26.5t-110 74.5t-73 114.5t-26.5 145.5q0 80 26.5 146t73 114t110 74.5t137.5 26.5q42 0 81 -9q43 3 69.5 28t26.5 85h66q0 -55 -18.5 -91.5t-48.5 -58.5zM396 77q54 0 100 19t80 55t53 87t19 115t-19 115t-53 87t-80 55t-100 19q-55 0 -101 -19t-80 -55
t-53 -87t-19 -115t19 -115t53 -87t80 -55t101 -19z" />
    <glyph glyph-name="uni1EDF" unicode="&#x1edf;" horiz-adv-x="643" 
d="M318 753q-22 0 -30 -11.5t-12 -34.5l-44 4q2 14 5.5 29t13 27.5t25.5 20.5t43 8q44 0 64 -22t20 -59q0 -30 -20 -52t-51 -53l-29 25q24 24 39 42.5t15 37.5q0 22 -9.5 30t-29.5 8zM486 508q51 -35 81 -94.5t30 -139.5q0 -66 -21 -118t-57.5 -88.5t-87 -55.5t-109.5 -19
t-109.5 19t-87.5 55.5t-58 88.5t-21 118t21 118.5t58 88.5t87.5 55.5t109.5 19.5q17 0 34 -1.5t33 -5.5q47 1 75.5 26t28.5 87h66q0 -58 -20.5 -95.5t-52.5 -58.5zM322 73q35 0 68 12t58.5 36.5t41 62.5t15.5 90q0 53 -15.5 91t-41 62.5t-58.5 36.5t-68 12t-68 -12
t-58.5 -36.5t-41 -62.5t-15.5 -91q0 -52 15.5 -90t41 -62.5t58.5 -36.5t68 -12z" />
    <glyph glyph-name="uni1EE0" unicode="&#x1ee0;" horiz-adv-x="791" 
d="M337 853q-33 0 -40 -45h-43q15 94 86 94q19 0 33 -7t26.5 -16t24.5 -16t28 -7q15 0 26.5 11t14.5 33h44q-6 -46 -29.5 -69.5t-58.5 -23.5q-19 0 -33.5 7t-27 16t-24.5 16t-27 7zM572 668q78 -45 123.5 -126.5t45.5 -188.5q0 -79 -26 -145.5t-72.5 -114.5t-109.5 -74.5
t-137 -26.5t-137.5 26.5t-110 74.5t-73 114.5t-26.5 145.5q0 80 26.5 146t73 114t110 74.5t137.5 26.5q42 0 81 -9q43 3 69.5 28t26.5 85h66q0 -55 -18.5 -91.5t-48.5 -58.5zM396 77q54 0 100 19t80 55t53 87t19 115t-19 115t-53 87t-80 55t-100 19q-55 0 -101 -19t-80 -55
t-53 -87t-19 -115t19 -115t53 -87t80 -55t101 -19z" />
    <glyph glyph-name="uni1EE1" unicode="&#x1ee1;" horiz-adv-x="643" 
d="M264 689q-33 0 -40 -45h-43q15 94 86 94q19 0 33 -7t26.5 -16t24.5 -16t28 -7q15 0 26.5 11t14.5 33h44q-6 -46 -29.5 -69.5t-58.5 -23.5q-19 0 -33.5 7t-27 16t-24.5 16t-27 7zM486 508q51 -35 81 -94.5t30 -139.5q0 -66 -21 -118t-57.5 -88.5t-87 -55.5t-109.5 -19
t-109.5 19t-87.5 55.5t-58 88.5t-21 118t21 118.5t58 88.5t87.5 55.5t109.5 19.5q17 0 34 -1.5t33 -5.5q47 1 75.5 26t28.5 87h66q0 -58 -20.5 -95.5t-52.5 -58.5zM322 73q35 0 68 12t58.5 36.5t41 62.5t15.5 90q0 53 -15.5 91t-41 62.5t-58.5 36.5t-68 12t-68 -12
t-58.5 -36.5t-41 -62.5t-15.5 -91q0 -52 15.5 -90t41 -62.5t58.5 -36.5t68 -12z" />
    <glyph glyph-name="uni1EE2" unicode="&#x1ee2;" horiz-adv-x="791" 
d="M572 668q78 -45 123.5 -126.5t45.5 -188.5q0 -79 -26 -145.5t-72.5 -114.5t-109.5 -74.5t-137 -26.5t-137.5 26.5t-110 74.5t-73 114.5t-26.5 145.5q0 80 26.5 146t73 114t110 74.5t137.5 26.5q42 0 81 -9q43 3 69.5 28t26.5 85h66q0 -55 -18.5 -91.5t-48.5 -58.5z
M396 77q54 0 100 19t80 55t53 87t19 115t-19 115t-53 87t-80 55t-100 19q-55 0 -101 -19t-80 -55t-53 -87t-19 -115t19 -115t53 -87t80 -55t101 -19zM394 -73q21 0 36 -14.5t15 -35.5q0 -20 -15 -34.5t-36 -14.5q-20 0 -34.5 14.5t-14.5 34.5q0 21 14.5 35.5t34.5 14.5z" />
    <glyph glyph-name="uni1EE3" unicode="&#x1ee3;" horiz-adv-x="643" 
d="M486 508q51 -35 81 -94.5t30 -139.5q0 -66 -21 -118t-57.5 -88.5t-87 -55.5t-109.5 -19t-109.5 19t-87.5 55.5t-58 88.5t-21 118t21 118.5t58 88.5t87.5 55.5t109.5 19.5q17 0 34 -1.5t33 -5.5q47 1 75.5 26t28.5 87h66q0 -58 -20.5 -95.5t-52.5 -58.5zM322 73
q35 0 68 12t58.5 36.5t41 62.5t15.5 90q0 53 -15.5 91t-41 62.5t-58.5 36.5t-68 12t-68 -12t-58.5 -36.5t-41 -62.5t-15.5 -91q0 -52 15.5 -90t41 -62.5t58.5 -36.5t68 -12zM321 -73q21 0 36 -14.5t15 -35.5q0 -20 -15 -34.5t-36 -14.5q-20 0 -34.5 14.5t-14.5 34.5
q0 21 14.5 35.5t34.5 14.5z" />
    <glyph glyph-name="uni1EE4" unicode="&#x1ee4;" horiz-adv-x="661" 
d="M159 705v-423q0 -107 47.5 -155t125.5 -48q77 0 123.5 48t46.5 155v423h91v-423q0 -75 -19.5 -129.5t-55 -90t-83.5 -52.5t-105 -17t-105 17t-83 52.5t-54.5 90t-19.5 129.5v423h91zM281 -123q0 21 14.5 35.5t34.5 14.5q21 0 36 -14.5t15 -35.5q0 -20 -15 -34.5
t-36 -14.5q-20 0 -34.5 14.5t-14.5 34.5z" />
    <glyph glyph-name="uni1EE5" unicode="&#x1ee5;" horiz-adv-x="634" 
d="M561 549v-549h-91v129q-22 -69 -76 -103.5t-123 -34.5q-46 0 -85 15t-67.5 44.5t-44.5 74t-16 104.5v320h91v-311q0 -85 42.5 -128t113.5 -43q72 0 118.5 47t46.5 143v292h91zM316 -73q21 0 36 -14.5t15 -35.5q0 -20 -15 -34.5t-36 -14.5q-20 0 -34.5 14.5t-14.5 34.5
q0 21 14.5 35.5t34.5 14.5z" />
    <glyph glyph-name="uni1EE6" unicode="&#x1ee6;" horiz-adv-x="661" 
d="M328 952q44 0 64 -22t20 -59q0 -30 -20 -52t-51 -53l-29 25q24 24 39 42.5t15 37.5q0 22 -9.5 30t-29.5 8q-22 0 -30 -11.5t-12 -34.5l-44 4q2 14 5.5 29t13 27.5t25.5 20.5t43 8zM159 705v-423q0 -107 47.5 -155t125.5 -48q77 0 123.5 48t46.5 155v423h91v-423
q0 -75 -19.5 -129.5t-55 -90t-83.5 -52.5t-105 -17t-105 17t-83 52.5t-54.5 90t-19.5 129.5v423h91z" />
    <glyph glyph-name="uni1EE7" unicode="&#x1ee7;" horiz-adv-x="634" 
d="M313 753q-22 0 -30 -11.5t-12 -34.5l-44 4q2 14 5.5 29t13 27.5t25.5 20.5t43 8q44 0 64 -22t20 -59q0 -30 -20 -52t-51 -53l-29 25q24 24 39 42.5t15 37.5q0 22 -9.5 30t-29.5 8zM561 549v-549h-91v129q-22 -69 -76 -103.5t-123 -34.5q-46 0 -85 15t-67.5 44.5t-44.5 74
t-16 104.5v320h91v-311q0 -85 42.5 -128t113.5 -43q72 0 118.5 47t46.5 143v292h91z" />
    <glyph glyph-name="uni1EE8" unicode="&#x1ee8;" horiz-adv-x="661" 
d="M265 756l-19 35l165 98l22 -49zM706 818q0 -74 -32.5 -115.5t-80.5 -56.5v-364q0 -75 -19.5 -129.5t-55 -90t-83.5 -52.5t-105 -17t-105 17t-83 52.5t-54.5 90t-19.5 129.5v423h91v-423q0 -107 47.5 -155t125.5 -48q77 0 123.5 48t46.5 155v423h31q48 0 77.5 25t29.5 88
h66z" />
    <glyph glyph-name="uni1EE9" unicode="&#x1ee9;" horiz-adv-x="634" 
d="M251 600l-19 35l165 98l22 -49zM689 662q0 -40 -10 -70t-27.5 -52t-41 -35t-49.5 -19v-486h-91v129q-22 -69 -76 -103.5t-123 -34.5q-46 0 -85 15t-67.5 44.5t-44.5 74t-16 104.5v320h91v-311q0 -85 42.5 -128t113.5 -43q72 0 118.5 47t46.5 143v292h46q48 0 77.5 25
t29.5 88h66z" />
    <glyph glyph-name="uni1EEA" unicode="&#x1eea;" horiz-adv-x="661" 
d="M412 749l-158 94l26 49l151 -105zM706 818q0 -74 -32.5 -115.5t-80.5 -56.5v-364q0 -75 -19.5 -129.5t-55 -90t-83.5 -52.5t-105 -17t-105 17t-83 52.5t-54.5 90t-19.5 129.5v423h91v-423q0 -107 47.5 -155t125.5 -48q77 0 123.5 48t46.5 155v423h31q48 0 77.5 25
t29.5 88h66z" />
    <glyph glyph-name="uni1EEB" unicode="&#x1eeb;" horiz-adv-x="634" 
d="M398 593l-158 94l26 49l151 -105zM689 662q0 -40 -10 -70t-27.5 -52t-41 -35t-49.5 -19v-486h-91v129q-22 -69 -76 -103.5t-123 -34.5q-46 0 -85 15t-67.5 44.5t-44.5 74t-16 104.5v320h91v-311q0 -85 42.5 -128t113.5 -43q72 0 118.5 47t46.5 143v292h46q48 0 77.5 25
t29.5 88h66z" />
    <glyph glyph-name="uni1EEC" unicode="&#x1eec;" horiz-adv-x="661" 
d="M327 909q-22 0 -30 -11.5t-12 -34.5l-44 4q2 14 5.5 29t13 27.5t25.5 20.5t43 8q44 0 64 -22t20 -59q0 -30 -20 -52t-51 -53l-29 25q24 24 39 42.5t15 37.5q0 22 -9.5 30t-29.5 8zM706 818q0 -74 -32.5 -115.5t-80.5 -56.5v-364q0 -75 -19.5 -129.5t-55 -90t-83.5 -52.5
t-105 -17t-105 17t-83 52.5t-54.5 90t-19.5 129.5v423h91v-423q0 -107 47.5 -155t125.5 -48q77 0 123.5 48t46.5 155v423h31q48 0 77.5 25t29.5 88h66z" />
    <glyph glyph-name="uni1EED" unicode="&#x1eed;" horiz-adv-x="634" 
d="M313 753q-22 0 -30 -11.5t-12 -34.5l-44 4q2 14 5.5 29t13 27.5t25.5 20.5t43 8q44 0 64 -22t20 -59q0 -30 -20 -52t-51 -53l-29 25q24 24 39 42.5t15 37.5q0 22 -9.5 30t-29.5 8zM689 662q0 -40 -10 -70t-27.5 -52t-41 -35t-49.5 -19v-486h-91v129q-22 -69 -76 -103.5
t-123 -34.5q-46 0 -85 15t-67.5 44.5t-44.5 74t-16 104.5v320h91v-311q0 -85 42.5 -128t113.5 -43q72 0 118.5 47t46.5 143v292h46q48 0 77.5 25t29.5 88h66z" />
    <glyph glyph-name="uni1EEE" unicode="&#x1eee;" horiz-adv-x="661" 
d="M273 808q-33 0 -40 -45h-43q15 94 86 94q19 0 33 -7t26.5 -16t24.5 -16t28 -7q15 0 26.5 11t14.5 33h44q-6 -46 -29.5 -69.5t-58.5 -23.5q-19 0 -33.5 7t-27 16t-24.5 16t-27 7zM706 818q0 -74 -32.5 -115.5t-80.5 -56.5v-364q0 -75 -19.5 -129.5t-55 -90t-83.5 -52.5
t-105 -17t-105 17t-83 52.5t-54.5 90t-19.5 129.5v423h91v-423q0 -107 47.5 -155t125.5 -48q77 0 123.5 48t46.5 155v423h31q48 0 77.5 25t29.5 88h66z" />
    <glyph glyph-name="uni1EEF" unicode="&#x1eef;" horiz-adv-x="634" 
d="M259 652q-33 0 -40 -45h-43q15 94 86 94q19 0 33 -7t26.5 -16t24.5 -16t28 -7q15 0 26.5 11t14.5 33h44q-6 -46 -29.5 -69.5t-58.5 -23.5q-19 0 -33.5 7t-27 16t-24.5 16t-27 7zM689 662q0 -40 -10 -70t-27.5 -52t-41 -35t-49.5 -19v-486h-91v129q-22 -69 -76 -103.5
t-123 -34.5q-46 0 -85 15t-67.5 44.5t-44.5 74t-16 104.5v320h91v-311q0 -85 42.5 -128t113.5 -43q72 0 118.5 47t46.5 143v292h46q48 0 77.5 25t29.5 88h66z" />
    <glyph glyph-name="uni1EF0" unicode="&#x1ef0;" horiz-adv-x="661" 
d="M706 818q0 -74 -32.5 -115.5t-80.5 -56.5v-364q0 -75 -19.5 -129.5t-55 -90t-83.5 -52.5t-105 -17t-105 17t-83 52.5t-54.5 90t-19.5 129.5v423h91v-423q0 -107 47.5 -155t125.5 -48q77 0 123.5 48t46.5 155v423h31q48 0 77.5 25t29.5 88h66zM330 -73q21 0 36 -14.5
t15 -35.5q0 -20 -15 -34.5t-36 -14.5q-20 0 -34.5 14.5t-14.5 34.5q0 21 14.5 35.5t34.5 14.5z" />
    <glyph glyph-name="uni1EF1" unicode="&#x1ef1;" horiz-adv-x="634" 
d="M689 662q0 -40 -10 -70t-27.5 -52t-41 -35t-49.5 -19v-486h-91v129q-22 -69 -76 -103.5t-123 -34.5q-46 0 -85 15t-67.5 44.5t-44.5 74t-16 104.5v320h91v-311q0 -85 42.5 -128t113.5 -43q72 0 118.5 47t46.5 143v292h46q48 0 77.5 25t29.5 88h66zM316 -73q21 0 36 -14.5
t15 -35.5q0 -20 -15 -34.5t-36 -14.5q-20 0 -34.5 14.5t-14.5 34.5q0 21 14.5 35.5t34.5 14.5z" />
    <glyph glyph-name="Ygrave" unicode="&#x1ef2;" horiz-adv-x="593" 
d="M378 749l-158 94l26 49l151 -105zM574 705l-231 -438v-267h-92v267l-232 438h106l173 -341l172 341h104z" />
    <glyph glyph-name="ygrave" unicode="&#x1ef3;" horiz-adv-x="565" 
d="M383 631l-19 -38l-158 94l26 49zM111 549l178 -432l165 432h101l-326 -809h-103l114 269l-231 540h102z" />
    <glyph glyph-name="uni1EF4" unicode="&#x1ef4;" horiz-adv-x="593" 
d="M251 267l-232 438h106l173 -341l172 341h104l-231 -438v-267h-92v267zM296 -73q21 0 36 -14.5t15 -35.5q0 -20 -15 -34.5t-36 -14.5q-20 0 -34.5 14.5t-14.5 34.5q0 21 14.5 35.5t34.5 14.5z" />
    <glyph glyph-name="uni1EF5" unicode="&#x1ef5;" horiz-adv-x="565" 
d="M111 549l178 -432l165 432h101l-326 -809h-103l114 269l-231 540h102zM373 -123q0 21 14.5 35.5t34.5 14.5q21 0 36 -14.5t15 -35.5q0 -20 -15 -34.5t-36 -14.5q-20 0 -34.5 14.5t-14.5 34.5z" />
    <glyph glyph-name="uni1EF6" unicode="&#x1ef6;" horiz-adv-x="593" 
d="M293 909q-22 0 -30 -11.5t-12 -34.5l-44 4q2 14 5.5 29t13 27.5t25.5 20.5t43 8q44 0 64 -22t20 -59q0 -30 -20 -52t-51 -53l-29 25q24 24 39 42.5t15 37.5q0 22 -9.5 30t-29.5 8zM574 705l-231 -438v-267h-92v267l-232 438h106l173 -341l172 341h104z" />
    <glyph glyph-name="uni1EF7" unicode="&#x1ef7;" horiz-adv-x="565" 
d="M280 796q44 0 64 -22t20 -59q0 -30 -20 -52t-51 -53l-29 25q24 24 39 42.5t15 37.5q0 22 -9.5 30t-29.5 8q-22 0 -30 -11.5t-12 -34.5l-44 4q2 14 5.5 29t13 27.5t25.5 20.5t43 8zM111 549l178 -432l165 432h101l-326 -809h-103l114 269l-231 540h102z" />
    <glyph glyph-name="uni1EF8" unicode="&#x1ef8;" horiz-adv-x="593" 
d="M239 808q-33 0 -40 -45h-43q15 94 86 94q19 0 33 -7t26.5 -16t24.5 -16t28 -7q15 0 26.5 11t14.5 33h44q-6 -46 -29.5 -69.5t-58.5 -23.5q-19 0 -33.5 7t-27 16t-24.5 16t-27 7zM574 705l-231 -438v-267h-92v267l-232 438h106l173 -341l172 341h104z" />
    <glyph glyph-name="uni1EF9" unicode="&#x1ef9;" horiz-adv-x="565" 
d="M228 701q19 0 33 -7t26.5 -16t24.5 -16t28 -7q15 0 26.5 11t14.5 33h44q-6 -46 -29.5 -69.5t-58.5 -23.5q-19 0 -33.5 7t-27 16t-24.5 16t-27 7q-33 0 -40 -45h-43q15 94 86 94zM111 549l178 -432l165 432h101l-326 -809h-103l114 269l-231 540h102z" />
    <glyph glyph-name="endash" unicode="&#x2013;" horiz-adv-x="617" 
d="M572 405v-77h-527v77h527z" />
    <glyph glyph-name="emdash" unicode="&#x2014;" horiz-adv-x="825" 
d="M780 405v-77h-735v77h735z" />
    <glyph glyph-name="quoteleft" unicode="&#x2018;" horiz-adv-x="178" 
d="M49 583q-12 53 -12 92q0 57 26 85t76 28v-40q-26 0 -37.5 -14t-11.5 -42v-23h50v-86h-91z" />
    <glyph glyph-name="quoteright" unicode="&#x2019;" horiz-adv-x="178" 
d="M130 788q6 -26 8.5 -49t2.5 -43q0 -113 -101 -113v41q26 0 37 13.5t11 41.5v23h-50v86h92z" />
    <glyph glyph-name="quotesinglbase" unicode="&#x201a;" horiz-adv-x="187" 
d="M126 67q12 -37 14 -72.5t-8.5 -63t-34 -44.5t-61.5 -17v39q48 0 48 56v9h-51v93h93z" />
    <glyph glyph-name="quotedblleft" unicode="&#x201c;" horiz-adv-x="314" 
d="M49 583q-12 53 -12 92q0 57 26 85t76 28v-40q-26 0 -37.5 -14t-11.5 -42v-23h50v-86h-91zM184 583q-12 53 -12 92q0 57 26 85t76 28v-40q-26 0 -37.5 -14t-11.5 -42v-23h50v-86h-91z" />
    <glyph glyph-name="quotedblright" unicode="&#x201d;" horiz-adv-x="314" 
d="M130 788q6 -26 8.5 -49t2.5 -43q0 -113 -101 -113v41q26 0 37 13.5t11 41.5v23h-50v86h92zM265 788q12 -52 12 -92q0 -57 -26 -85t-76 -28v41q26 0 37 13.5t11 41.5v23h-50v86h92z" />
    <glyph glyph-name="quotedblbase" unicode="&#x201e;" horiz-adv-x="314" 
d="M130 86q6 -26 8.5 -49t2.5 -43q0 -113 -101 -113v41q26 0 37 13.5t11 41.5v23h-50v86h92zM265 86q12 -52 12 -92q0 -57 -26 -85t-76 -28v41q26 0 37 13.5t11 41.5v23h-50v86h92z" />
    <glyph glyph-name="dagger" unicode="&#x2020;" horiz-adv-x="531" 
d="M494 477l-192 7l9 -744h-90l8 744l-192 -7v72l192 -8l-8 240h90l-9 -240l192 8v-72z" />
    <glyph glyph-name="daggerdbl" unicode="&#x2021;" horiz-adv-x="532" 
d="M303 484v-447l191 9v-73l-191 7l8 -240h-91l9 240l-192 -7v73l192 -9v447l-192 -7v72l192 -8l-9 240h91l-8 -240l191 8v-72z" />
    <glyph glyph-name="bullet" unicode="&#x2022;" horiz-adv-x="355" 
d="M55 333q0 26 9.5 48.5t26.5 39.5t39.5 26.5t47.5 9.5q26 0 48.5 -9.5t39 -26.5t26 -39.5t9.5 -48.5q0 -25 -9.5 -47.5t-26 -39t-39 -26t-48.5 -9.5q-25 0 -47.5 9.5t-39.5 26t-26.5 39t-9.5 47.5z" />
    <glyph glyph-name="ellipsis" unicode="&#x2026;" horiz-adv-x="554" 
d="M140 107v-107h-110v107h110zM331 107v-107h-110v107h110zM522 107v-107h-110v107h110z" />
    <glyph glyph-name="perthousand" unicode="&#x2030;" horiz-adv-x="991" 
d="M179 715q31 0 58 -10.5t46.5 -29.5t30.5 -46.5t11 -61.5t-11 -61.5t-30.5 -46.5t-46.5 -29t-58 -10q-63 0 -104.5 39t-41.5 108t41.5 108.5t104.5 39.5zM577 706l-405 -706h-90l405 706h90zM97 567q0 -40 22.5 -65t58.5 -25q37 0 60 25t23 65q0 41 -23 65.5t-60 24.5
q-36 0 -58.5 -24.5t-22.5 -65.5zM481 286q63 0 104 -39t41 -108t-41 -108.5t-104 -39.5q-31 0 -58 10.5t-46.5 29.5t-30.5 46.5t-11 61.5t11 61.5t30.5 46.5t46.5 29t58 10zM812 286q31 0 58 -10t46.5 -29t30.5 -46.5t11 -61.5t-11 -61.5t-30.5 -46.5t-46.5 -29.5t-58 -10.5
t-58 10.5t-46.5 29.5t-30.5 46.5t-11 61.5t11 61.5t30.5 46.5t46.5 29t58 10zM399 139q0 -41 22.5 -65.5t59.5 -24.5q36 0 58.5 24.5t22.5 65.5q0 40 -22.5 65t-58.5 25q-37 0 -59.5 -25t-22.5 -65zM730 139q0 -41 22.5 -65.5t58.5 -24.5q37 0 60 24.5t23 65.5q0 40 -23 65
t-60 25q-36 0 -58.5 -25t-22.5 -65z" />
    <glyph glyph-name="guilsinglleft" unicode="&#x2039;" horiz-adv-x="280" 
d="M141 120l-96 175l96 175h89l-98 -175l98 -175h-89z" />
    <glyph glyph-name="guilsinglright" unicode="&#x203a;" horiz-adv-x="280" 
d="M149 295l-99 175h90l95 -175l-95 -175h-90z" />
    <glyph glyph-name="fraction" unicode="&#x2044;" horiz-adv-x="331" 
d="M409 706l-405 -706h-91l405 706h91z" />
    <glyph glyph-name="uni20A8" unicode="&#x20a8;" horiz-adv-x="1075" 
d="M545 495q0 -85 -47 -138t-140 -66l192 -291h-103l-184 288h-99v-288h-91v705h232q62 0 107.5 -16t75 -44t43.5 -66.5t14 -83.5zM164 354h133q85 0 120 37.5t35 98.5q0 62 -35 99t-120 37h-133v-272zM691 399q0 -34 25 -52t62.5 -28.5t81.5 -19.5t81.5 -25.5t62.5 -45.5
t25 -81q0 -33 -12.5 -61t-36.5 -49t-58.5 -32.5t-77.5 -11.5q-100 0 -162.5 46.5t-74.5 131.5h90q5 -46 42.5 -77.5t103.5 -31.5q51 0 76.5 25t25.5 62q0 36 -25 54.5t-62 30t-81 19.5t-81 24.5t-62 45t-25 79.5q0 68 50.5 111t141.5 43q99 0 155 -49.5t68 -129.5h-90
q-6 45 -39.5 77t-94.5 32q-51 0 -80 -24t-29 -63z" />
    <glyph glyph-name="Euro" unicode="&#x20ac;" horiz-adv-x="820" 
d="M441 78q91 0 149.5 43t84.5 110h96q-15 -54 -44 -97.5t-70 -74.5t-95 -48t-120 -17q-62 0 -115.5 18.5t-95.5 52t-70.5 80.5t-42.5 105h-100v47h91q-3 27 -3 55q0 12 0.5 23.5t1.5 22.5h-90v47h97q13 60 42 109.5t71 84.5t96.5 54t117.5 19q66 0 120 -17t95 -48t70 -74.5
t44 -97.5h-96q-26 67 -84.5 110t-149.5 43q-83 0 -144.5 -48t-84.5 -135h244v-47h-253q-3 -22 -3 -46q0 -14 1 -28t3 -27h252v-47h-242q25 -81 85.5 -126.5t141.5 -45.5z" />
    <glyph glyph-name="uni20B9" unicode="&#x20b9;" horiz-adv-x="640" 
d="M458 642v-118h129v-55h-131q-5 -48 -22 -82.5t-50 -56.5t-84.5 -32t-125.5 -10v-90q0 -66 28.5 -102t89.5 -36q58 0 85.5 34t27.5 100h86q-2 -97 -52 -150.5t-143 -53.5q-103 0 -155.5 55.5t-52.5 161.5v143q83 0 136.5 4.5t84.5 17t44.5 36t16.5 61.5h-317v55h319v118
h-319v63h534v-63h-129z" />
    <glyph glyph-name="uni20BA" unicode="&#x20ba;" horiz-adv-x="787" 
d="M741 417q0 -216 -85.5 -325t-277.5 -109q-40 0 -82.5 5t-87.5 14v248l-163 -38v59l163 38v108l-163 -40v57l163 40v233h92v-210l181 45v-59l-181 -44v-108l182 43v-59l-182 -43v-196q20 -5 39.5 -6.5t37.5 -1.5q75 0 126.5 24t84 69.5t47 110t14.5 145.5h92z" />
    <glyph glyph-name="uni20BD" unicode="&#x20bd;" horiz-adv-x="631" 
d="M224 298v-103h217v-71h-217v-124h-91v124h-88v71h88v103h-88v73h88v334h224q63 0 108.5 -14.5t75 -41.5t43.5 -64.5t14 -83.5q0 -97 -61 -150t-180 -53h-133zM224 371h128q83 0 118 36t35 95q0 60 -35 96t-118 36h-128v-263z" />
    <glyph glyph-name="uni2113" unicode="&#x2113;" horiz-adv-x="237" 
d="M164 740v-740h-91v740h91z" />
    <glyph glyph-name="trademark" unicode="&#x2122;" horiz-adv-x="781" 
d="M30 705h264v-58h-98v-293h-67v293h-99v58zM744 705v-351h-63l-2 256l-113 -256h-49l-114 265v-265h-60v351h88l112 -272l120 272h81z" />
    <glyph glyph-name="uni2126" unicode="&#x2126;" horiz-adv-x="793" 
d="M749 364q0 -97 -39.5 -174t-121.5 -119h148v-71h-274v75q43 12 78.5 36t61 59.5t40 81.5t14.5 101q0 63 -19.5 114.5t-54.5 87.5t-82 55.5t-103 19.5q-57 0 -105 -20t-82.5 -56.5t-54 -87.5t-19.5 -113q0 -55 14.5 -101t40.5 -81.5t61.5 -59.5t78.5 -36v-75h-275v71h149
q-81 42 -121 119t-40 174q0 80 27.5 145t75 110.5t112 70t138.5 24.5q73 0 137 -24.5t112 -70t75.5 -110.5t27.5 -145z" />
    <glyph glyph-name="estimated" unicode="&#x212e;" horiz-adv-x="761" 
d="M389 -7q-73 0 -136 22.5t-108.5 65.5t-71.5 106t-26 144q0 77 22 144.5t64 117.5t104 78.5t143 28.5t143 -27t104.5 -72t64.5 -103.5t22 -121.5v-61h-532v-167q38 -47 87 -70.5t120 -23.5q77 0 136 34t120 93l41 -44q-63 -67 -136 -105.5t-161 -38.5zM570 555
q-32 41 -80 63t-110 22t-112.5 -23t-85.5 -72v-166h388v176z" />
    <glyph glyph-name="partialdiff" unicode="&#x2202;" horiz-adv-x="570" 
d="M300 555q25 0 49 -6t44.5 -22.5t34.5 -44t20 -71.5q-1 59 -9.5 109t-29 87t-54.5 57.5t-86 20.5q-17 0 -35.5 -2.5t-37.5 -7.5v51q28 8 52.5 11t49.5 3q111 0 172 -79.5t61 -247.5q0 -98 -20 -176.5t-57.5 -133t-91.5 -84t-121 -29.5q-41 0 -78 14t-64.5 43t-44 72.5
t-16.5 103.5q0 67 18 127t52 105.5t82.5 72.5t109.5 27zM308 478q-41 0 -73.5 -19.5t-55.5 -54t-35.5 -81t-12.5 -100.5q0 -40 9.5 -69t25.5 -47.5t37 -27t45 -8.5q43 0 76.5 20.5t56.5 55.5t35 81t12 98q0 81 -32.5 116.5t-87.5 35.5z" />
    <glyph glyph-name="uni2206" unicode="&#x2206;" horiz-adv-x="681" 
d="M378 693l283 -622v-71h-641v71l282 622h76zM114 71h453l-227 518z" />
    <glyph glyph-name="product" unicode="&#x220f;" horiz-adv-x="739" 
d="M693 706v-70h-79v-636h-92v636h-306v-636h-91v636h-80v70h648z" />
    <glyph glyph-name="summation" unicode="&#x2211;" horiz-adv-x="457" 
d="M449 622h-333l267 -268v-72l-268 -281h334v-71h-409v105l257 280l-257 273v105h409v-71z" />
    <glyph glyph-name="minus" unicode="&#x2212;" horiz-adv-x="466" 
d="M433 405v-77h-400v77h400z" />
    <glyph glyph-name="radical" unicode="&#x221a;" horiz-adv-x="788" 
d="M765 869l-490 -913h-40l-125 220l-66 -37l-28 47l146 83l116 -206l430 806h57z" />
    <glyph glyph-name="infinity" unicode="&#x221e;" horiz-adv-x="671" 
d="M517 496q72 0 113 -38.5t41 -109.5q0 -35 -12 -63t-33 -47t-49 -29t-61 -10q-31 0 -57 8t-47.5 22t-39 32t-33.5 37q-25 -41 -66 -70.5t-98 -28.5q-71 0 -112.5 39t-41.5 109q0 35 12 63t33 47t49 29t61 10q32 0 57 -9t46 -23.5t38 -33.5t32 -40q24 43 66.5 75t101.5 31z
M181 262q38 0 68.5 22.5t54.5 60.5q-27 36 -55 62.5t-66 26.5q-42 0 -65 -24t-23 -63q0 -38 22 -61.5t64 -23.5zM509 261q42 0 65 24t23 63q0 38 -22 61.5t-64 23.5q-39 0 -71 -24t-56 -66q26 -34 54.5 -58t70.5 -24z" />
    <glyph glyph-name="integral" unicode="&#x222b;" horiz-adv-x="262" 
d="M135 783q8 74 48.5 104.5t104.5 30.5h21l-8 -79h-21q-22 0 -36 -12t-18 -44l-92 -840q-8 -75 -44.5 -108t-105.5 -33h-23l8 79h24q27 0 36.5 13t14.5 49z" />
    <glyph glyph-name="approxequal" unicode="&#x2248;" horiz-adv-x="518" 
d="M174 559q29 0 51.5 -10.5t43 -23t40 -23t41.5 -10.5q26 0 42 18.5t21 48.5h72q-12 -75 -49 -112.5t-92 -37.5q-29 0 -51.5 10.5t-43 23t-40 23t-41.5 10.5q-26 0 -42.5 -19t-21.5 -49h-71q13 75 49 113t92 38zM174 348q29 0 51.5 -10.5t43 -23t40 -23t41.5 -10.5
q26 0 42 18.5t21 48.5h72q-12 -75 -49 -112.5t-92 -37.5q-29 0 -51.5 10.5t-43 23t-40 23t-41.5 10.5q-26 0 -42.5 -19t-21.5 -49h-71q13 75 49 113t92 38z" />
    <glyph glyph-name="notequal" unicode="&#x2260;" horiz-adv-x="586" 
d="M368 431l-96 -130h281v-83h-343l-79 -107h-53l79 107h-124v83h185l97 130h-282v83h343l79 107h54l-79 -107h123v-83h-185z" />
    <glyph glyph-name="lessequal" unicode="&#x2264;" horiz-adv-x="428" 
d="M276 213l-243 191l243 192h115l-240 -192l240 -191h-115zM395 163v-73h-351v73h351z" />
    <glyph glyph-name="greaterequal" unicode="&#x2265;" horiz-adv-x="428" 
d="M37 213l240 191l-240 192h114l244 -192l-244 -191h-114zM33 163h350v-73h-350v73z" />
    <glyph glyph-name="lozenge" unicode="&#x25ca;" horiz-adv-x="554" 
d="M518 350l-241 -241l-241 241l242 241zM134 350l143 -144l144 144l-143 144z" />
    <glyph glyph-name="fi" unicode="&#xfb01;" horiz-adv-x="571" 
d="M186 549h310v-549h-91v469h-219v-469h-91v469h-77v80h77v22q0 95 51.5 144t164.5 44v-80q-71 2 -98 -25.5t-27 -89.5v-15zM452 756q27 0 44 -15t17 -40t-17 -40t-44 -15q-29 0 -46 15t-17 40t17 40t46 15z" />
    <glyph glyph-name="fl" unicode="&#xfb02;" horiz-adv-x="579" 
d="M95 571q0 95 53 144t168 44v-80q-74 2 -102 -25.5t-28 -89.5v-15h130v-80h-130v-469h-91v469h-79v80h79v22zM506 740v-740h-91v740h91z" />
    <glyph glyph-name="uni03020300" horiz-adv-x="0" 
d="M-24 763l-18 -37l-153 91l25 47zM-166 690l-107 -60l-17 38l124 74l123 -74l-18 -39z" />
    <glyph glyph-name="uni03020301" horiz-adv-x="0" 
d="M-59 828l-163 -81l-18 34l160 94zM-160 690l-107 -60l-17 38l124 74l123 -74l-18 -39z" />
    <glyph glyph-name="uni03020303" horiz-adv-x="0" 
d="M-199 840q17 0 30 -6.5t24 -14.5t22.5 -14.5t25.5 -6.5t24.5 10t12.5 30h40q-5 -42 -26.5 -63t-53.5 -21q-18 0 -31 6.5t-24 14t-22.5 14t-24.5 6.5q-30 0 -36 -41h-40q15 86 79 86zM-166 691l-107 -60l-17 38l124 74l123 -74l-18 -39z" />
    <glyph glyph-name="uni03020309" horiz-adv-x="0" 
d="M-19 869q42 0 61.5 -21.5t19.5 -57.5q0 -29 -19.5 -50l-49.5 -51l-28 24q23 23 37.5 41t14.5 36q0 22 -9 29.5t-28 7.5q-21 0 -29 -11t-12 -33l-43 4q1 14 5 28.5t13 26.5t25 19.5t42 7.5zM-163 689l-107 -60l-17 38l124 74l123 -74l-18 -39z" />
    <glyph glyph-name="uni03060300" horiz-adv-x="0" 
d="M-123 794l-18 -37l-153 91l25 47zM-173 616q-63 0 -94.5 36t-31.5 87v8h41q0 -35 21 -55t64 -20q44 0 65 20t21 55h41v-8q0 -51 -32 -87t-95 -36z" />
    <glyph glyph-name="uni03060301" horiz-adv-x="0" 
d="M-20 853l-163 -81l-18 34l160 94zM-169 616q-63 0 -94.5 36t-31.5 87v8h41q0 -35 21 -55t64 -20q44 0 65 20t21 55h41v-8q0 -51 -32 -87t-95 -36z" />
    <glyph glyph-name="uni03060303" horiz-adv-x="0" 
d="M-217 870q18 0 31.5 -7t25.5 -15t24 -15t27 -7t26 10.5t14 31.5h43q-6 -45 -29 -67.5t-57 -22.5q-19 0 -33 7t-26 15.5t-23.5 15.5t-25.5 7q-32 0 -39 -44h-41q13 91 83 91zM-171 616q-63 0 -94.5 36t-31.5 87v8h41q0 -35 21 -55t64 -20q44 0 65 20t21 55h41v-8
q0 -51 -32 -87t-95 -36z" />
    <glyph glyph-name="uni03060309" horiz-adv-x="0" 
d="M-180 922q42 0 61.5 -21.5t19.5 -57.5q0 -29 -19.5 -50l-49.5 -51l-28 24q23 23 37.5 41t14.5 36q0 22 -9 29.5t-28 7.5q-21 0 -29 -11t-12 -33l-43 4q1 14 5 28.5t13 26.5t25 19.5t42 7.5zM-172 615q-63 0 -94.5 36t-31.5 87v8h41q0 -35 21 -55t64 -20q44 0 65 20t21 55
h41v-8q0 -51 -32 -87t-95 -36z" />
  </font>
</defs>
</svg>
